<svg width="806" height="696" viewBox="0 0 806 696" fill="none" xmlns="http://www.w3.org/2000/svg">
<path fill-rule="evenodd" clip-rule="evenodd" d="M54 353H24V356.5H1V259H70C70 259 76 257 83 249C85.7712 245.833 89.5951 238.215 94.1521 229.137C101.106 215.284 109.767 198.03 119 188C122.88 183.786 130.158 182.259 137.551 180.709C144.514 179.249 151.578 177.768 156 174C167.178 164.474 166.5 146 166.5 146H274.5V93.5L306.5 32H437V1H516V15H519.5V1H553.5V14L602 56.5V182.5H552V207H602V290.5H691.5L750.5 265.5L805 290V375C805 375 796.231 396.154 786 406C775.546 416.06 767.5 421 756 423C744.5 425 718.5 423 707.5 416.5C696.5 410 688 395 688 395H589V495.5L563.5 521.5C560.771 524.275 558.689 525.443 553.5 526.5H531V544.5H533.5V540.5H571V626H550V663H533.5V660.5H528.5V663H510.5V660.5H506V663H489.5V660.5H484.5V663H468.5V660.5H463.5V663H426V695H367V663H316.5L285.5 682H239L221.5 670.5H150V614H153V597.5H155.5V594H153V578.5H155.5V574.5H153V558H155.5V552.5H143C143 552.5 126.677 546.603 118.5 539.5C109.382 531.579 101 514 101 514V479.5H106V447.5H87.5V432.5H54V353ZM302 149H297V102L311.5 87.5L341 80.5H355L381 90.5V154.5H379V152.5H375.5C375.5 152.5 374.869 132.045 367 123C359.14 113.966 350.959 111.124 339 110.5C327.344 109.892 318.708 114.702 310.5 123C302.069 131.524 302 149 302 149ZM453 81.5H451.5V77.5H489.5V130.5H487.5V195.5H489V198H465L450.5 188H446.5V185.5H448.5L431 135V102.5H429.5V99.5H453V81.5ZM425 81.5V77.5H436V81.5H425ZM336.5 157.5H342.5V134.5H336.5V157.5ZM336.5 201.5V178H342.5V201.5H336.5ZM290 171H297V169.5H299V191H297V189.5H289V171H290ZM233.5 189.5V172.5H250.5V189.5H233.5ZM375 178.5L380 176.5L398 187H421V188H419V282C431.259 294.951 439.425 300.168 456.5 305.5V309H382V285.5H292V288H289V284H235.5V285.5H232V284H171V285.5H168.5V281.5H193.5V219.5H191.5V216.5H297V214.5H302.5C302.5 214.5 304.211 223.004 308 226.5C311.279 229.525 318.5 231 318.5 231V236H361V231C361 231 367.142 229.961 370 227.5C373.309 224.651 375 217.5 375 217.5V178.5ZM427.5 373H433V416.5H506.5V406H554V364.5H585.5V325H568.5V249.5L525 223.5H453.5V264.5C453.5 264.5 464.297 274.04 468.5 282C472.746 290.042 474.5 304.5 474.5 304.5L472.5 305.5V309H478.5V354.5H427.5V373ZM428 443.5C428 443.5 426.576 457.674 420 462C416.28 464.447 413.411 464.11 409 463.5C401.883 462.516 396.5 451.5 396.5 451.5H363.5V469.5H326.5L299.5 476.5H285L268 495.5L260 518.5H231.5V504H155.5C155.5 504 146.059 500.344 141.5 496C136.117 490.871 132 479.5 132 479.5H128.5V447.5H171.5V442H176.5V447.5H250.5V456.5H289.5V398.5H291.5V400.5H324V398.5H362V400.5H392V398.5H395.5V443.5H428ZM408 548.5V554H416.5V574.5H440.5V485H549.5V443.5H444.5V467.5C444.5 467.5 434.967 470.071 429.5 473C424.033 475.929 416.5 482.5 416.5 482.5V548.5H408ZM391.5 548.5V554H366.5L323.5 578.5H298.5V506.5H369V548.5H391.5ZM179 554H211.5V644H194.5V623.5H181V597.5H179V594H181V578.5H179V574.5H181V556.5H179V554ZM469 625V630H466.5V644.5H406V637H386.5V644.5H326.5V613.5H414L460.5 625H469ZM137.5 216.5H172V241.5H140V309.5H167.5V307.5H171V309.5H232V307.5H233.5V371.5H236.5V407H217V371.5H175.5V374.5H171V371.5H126.5V331.5H112.5V272.5L123 262H137.5V216.5ZM533.5 586.5V580H530.5V586.5H533.5ZM530.5 625H529V629.5H530.5V632H533.5V620H530.5V625ZM505.5 625H511.5V629.5H505.5V625ZM490.5 629.5V625H484.5V629.5H490.5Z" fill="#22262F"/>
<path fill-rule="evenodd" clip-rule="evenodd" d="M469.5 223.5H499V198H489H469.5V223.5ZM440.5 485V530H463V510.5H466V494H463V485H440.5ZM171.5 408.5V413H175.5V408.5H171.5Z" fill="#1F2228"/>
<path fill-rule="evenodd" clip-rule="evenodd" d="M87.5 447.5V432.5H87.7891V241.5C89.6907 238.025 91.8259 233.771 94.1521 229.137C101.106 215.284 109.767 198.03 119 188C122.88 183.786 130.158 182.259 137.551 180.709C144.514 179.249 151.578 177.768 156 174C167.178 164.474 166.5 146 166.5 146H208.5V216.5H191.5V219.5H193.5V226.5H172V216.5H137.5V262H123L112.5 272.5V331.5H126.5V371.5H171V374.5H175.5V371.5H217V407H236.5V371.5H233.5V314.5H262V284H289V288H292V285.5H382V309H434.5V328H478.5V354.5H427.5V373H433V416.5H506.5V406H554V364.5H585.5V325H568.5V290.5H602H691.5L750.5 265.5L805 290V375C805 375 796.231 396.154 786 406C775.546 416.06 767.5 421 756 423C744.5 425 718.5 423 707.5 416.5C696.5 410 688 395 688 395H589V495.5L563.5 521.5C560.771 524.275 558.689 525.443 553.5 526.5H531V544.5H533.5V540.5H571V626H550V663H533.5V660.5H528.5V663H510.5V660.5H506V663H489.5V660.5H484.5V663H468.5V660.5H463.5V663H426V695H367V663H316.5L285.5 682H239L221.5 670.5H150V614H153V597.5H155.5V594H153V578.5H155.5V574.5H153V558H155.5V552.5H143C143 552.5 126.677 546.603 118.5 539.5C109.382 531.579 101 514 101 514V479.5H106V447.5H87.5ZM469 625V630H466.5V644.5H406V637H386.5V644.5H326.5V613.5H414L460.5 625H469ZM484.5 625H490.5V629.5H484.5V625ZM505.5 625H511.5V629.5H505.5V625ZM529 625H530.5V620H533.5V632H530.5V629.5H529V625ZM533.5 586.5V580H530.5V586.5H533.5ZM211.5 554H179V556.5H181V574.5H179V578.5H181V594H179V597.5H181V623.5H194.5V644H211.5V554ZM391.5 548.5V554H366.5L323.5 578.5H298.5V506.5H369V548.5H391.5ZM408 548.5V554H416.5V574.5H440.5V530H463V510.5H466V494H463V485H549.5V443.5H444.5V467.5C444.5 467.5 434.967 470.071 429.5 473C424.033 475.929 416.5 482.5 416.5 482.5V548.5H408ZM428 443.5C428 443.5 426.576 457.674 420 462C416.28 464.447 413.411 464.11 409 463.5C401.883 462.516 396.5 451.5 396.5 451.5H363.5V469.5H326.5L299.5 476.5H285L268 495.5L260 518.5H231.5V504H155.5C155.5 504 146.059 500.344 141.5 496C136.117 490.871 132 479.5 132 479.5H128.5V447.5H171.5V442H176.5V447.5H250.5V456.5H289.5V398.5H291.5V400.5H324V398.5H362V400.5H392V398.5H395.5V443.5H428ZM171.5 408.5V413H175.5V408.5H171.5Z" fill="#1F2228"/>
<path d="M306.5 32L274.5 93.5V119.75H297V102L311.5 87.5L341 80.5H355L381 90.5V101H407V77.5H425H436H437V32H306.5Z" fill="#1F2228"/>
<path d="M171.5 225.5H193.5V228.5H171.5V225.5Z" fill="#282C34"/>
<path d="M241.5 383.5H275.5V386.5H241.5V383.5Z" fill="#282C34"/>
<path d="M155.5 572.5H178.5V575.5H155.5V572.5Z" fill="#282C34"/>
<path d="M423.5 247.5H449.5V250.5H423.5V247.5Z" fill="#282C34"/>
<path d="M454.5 308.5H477.5V311.5H454.5V308.5Z" fill="#282C34"/>
<path d="M317.499 479.634V502.634H314.499V479.634H317.499Z" fill="#282C34"/>
<path d="M342.5 644.5V663.5H339.5V644.5H342.5Z" fill="#282C34"/>
<path d="M446.5 644.5V663.5H443.5V644.5H446.5Z" fill="#282C34"/>
<path d="M324.5 479.634V502.634H321.5V479.634H324.5Z" fill="#282C34"/>
<path d="M349.5 644.5V663.5H346.5V644.5H349.5Z" fill="#282C34"/>
<path d="M453.5 644.5V663.5H450.5V644.5H453.5Z" fill="#282C34"/>
<path d="M356.5 644.5V663.5H353.5V644.5H356.5Z" fill="#282C34"/>
<path d="M460.5 644.5V663.5H457.5V644.5H460.5Z" fill="#282C34"/>
<path d="M363.5 644.5V663.5H360.5V644.5H363.5Z" fill="#282C34"/>
<path d="M467.5 644.5V660.5H464.5V644.5H467.5Z" fill="#282C34"/>
<path d="M568.5 264.5H601.5V267.5H568.5V264.5Z" fill="#282C34"/>
<path d="M241.5 369.5H275.5V372.5H241.5V369.5Z" fill="#282C34"/>
<path d="M155.5 558.5H178.5V561.5H155.5V558.5Z" fill="#282C34"/>
<path d="M423.5 233.5H449.5V236.5H423.5V233.5Z" fill="#282C34"/>
<path d="M568.5 250.5H601.5V253.5H568.5V250.5Z" fill="#282C34"/>
<path d="M84.5 283.5V337.5H81.5V283.5H84.5Z" fill="#282C34"/>
<path d="M149.5 372.5V447.5H146.5V372.5H149.5Z" fill="#282C34"/>
<path d="M163.5 372.5V447.5H160.5V372.5H163.5Z" fill="#282C34"/>
<path d="M171.5 232.5H193.5V235.5H171.5V232.5Z" fill="#282C34"/>
<path d="M241.5 390.5H275.5V393.5H241.5V390.5Z" fill="#282C34"/>
<path d="M155.5 579.5H178.5V582.5H155.5V579.5Z" fill="#282C34"/>
<path d="M423.5 254.5H449.5V257.5H423.5V254.5Z" fill="#282C34"/>
<path d="M454.5 315.5H477.5V318.5H454.5V315.5Z" fill="#282C34"/>
<path d="M310.5 479.567V502.567H307.5V479.567H310.5Z" fill="#282C34"/>
<path d="M335.5 644.5V663.5H332.5V644.5H335.5Z" fill="#282C34"/>
<path d="M439.5 644.5V663.5H436.5V644.5H439.5Z" fill="#282C34"/>
<path d="M568.5 271.5H601.5V274.5H568.5V271.5Z" fill="#282C34"/>
<path d="M241.5 376.5H275.5V379.5H241.5V376.5Z" fill="#282C34"/>
<path d="M155.5 565.5H178.5V568.5H155.5V565.5Z" fill="#282C34"/>
<path d="M423.5 240.5H449.5V243.5H423.5V240.5Z" fill="#282C34"/>
<path d="M568.5 257.5H601.5V260.5H568.5V257.5Z" fill="#282C34"/>
<path d="M77.5 283.5V337.5H74.5V283.5H77.5Z" fill="#282C34"/>
<path d="M142.5 372.5V447.5H139.5V372.5H142.5Z" fill="#282C34"/>
<path d="M156.5 372.5V447.5H153.5V372.5H156.5Z" fill="#282C34"/>
<path d="M171.5 239.5H193.5V242.5H171.5V239.5Z" fill="#282C34"/>
<path d="M241.5 397.5H275.5V400.5H241.5V397.5Z" fill="#282C34"/>
<path d="M155.5 586.5H178.5V589.5H155.5V586.5Z" fill="#282C34"/>
<path d="M423.5 261.5H449.5V264.5H423.5V261.5Z" fill="#282C34"/>
<path d="M454.5 322.5H477.5V325.5H454.5V322.5Z" fill="#282C34"/>
<path d="M534.5 592.5H570.5V595.5H534.5V592.5Z" fill="#282C34"/>
<path d="M533.5 628.5H549.5V631.5H533.5V628.5Z" fill="#282C34"/>
<path d="M534.5 599.5H570.5V602.5H534.5V599.5Z" fill="#282C34"/>
<path d="M533.5 635.5H549.5V638.5H533.5V635.5Z" fill="#282C34"/>
<path d="M303.5 479.5V502.5H300.5V479.5H303.5Z" fill="#282C34"/>
<path d="M328.5 644.5V663.5H325.5V644.5H328.5Z" fill="#282C34"/>
<path d="M432.5 644.5V663.5H429.5V644.5H432.5Z" fill="#282C34"/>
<path d="M568.5 278.5H601.5V281.5H568.5V278.5Z" fill="#282C34"/>
<path d="M568.5 285.5H601.5V288.5H568.5V285.5Z" fill="#282C34"/>
<path d="M70.5 283.5V337.5H67.5V283.5H70.5Z" fill="#282C34"/>
<path d="M135.5 372.5V447.5H132.5V372.5H135.5Z" fill="#282C34"/>
<path d="M274.5 123.5H296.5V126.5H274.5V123.5Z" fill="#282C34"/>
<path d="M274.5 130.5H296.5V133.5H274.5V130.5Z" fill="#282C34"/>
<path d="M274.5 137.5H296.5V140.5H274.5V137.5Z" fill="#282C34"/>
<path d="M274.5 144.5H296.5V147.5H274.5V144.5Z" fill="#282C34"/>
<path d="M212.5 171.5V146.5H215.5V171.5H212.5Z" fill="#282C34"/>
<path d="M212.5 215.5V190.5H215.5V215.5H212.5Z" fill="#282C34"/>
<path d="M219.5 171.5V146.5H222.5V171.5H219.5Z" fill="#282C34"/>
<path d="M219.5 215.5V190.5H222.5V215.5H219.5Z" fill="#282C34"/>
<path d="M226.5 171.5V146.5H229.5V171.5H226.5Z" fill="#282C34"/>
<path d="M226.5 215.5V190.5H229.5V215.5H226.5Z" fill="#282C34"/>
<path d="M553.5 137.5H594.5V141.5H553.5V137.5Z" fill="#282C34"/>
<path d="M553.5 179.5V138.5H557.5V179.5H553.5Z" fill="#282C34"/>
<path d="M560.5 179.5V145.5H564.5V179.5H560.5Z" fill="#282C34"/>
<path d="M560.5 144.5H594.5V148.5H560.5V144.5Z" fill="#282C34"/>
<path d="M442.5 33.5H452.5V36.5H442.5V33.5Z" fill="#282C34"/>
<path d="M442.5 26.5H452.5V29.5H442.5V26.5Z" fill="#282C34"/>
<path d="M481.5 29.5V1.5H484.5V29.5H481.5Z" fill="#282C34"/>
<path d="M488.5 29.5V1.5H491.5V29.5H488.5Z" fill="#282C34"/>
<path d="M548.677 482.349L550.435 480.541L577.643 506.994L574 510.5L548.677 482.349Z" fill="#282C34"/>
<path d="M546 485.5L549 485L572.5 512.5L569 516.5L546 485.5Z" fill="#282C34"/>
<path d="M541.5 485.5L544 485.5L566.5 518.5L562.5 523L541.5 485.5Z" fill="#282C34"/>
<path d="M536.5 485.5H539L560 524.5L555 526.5L536.5 485.5Z" fill="#282C34"/>
<path d="M533 485.5H535L551.5 527.5H546L533 485.5Z" fill="#282C34"/>
<path d="M529 485.5L531.5 485.5L543.5 527.5L537.5 527.5L529 485.5Z" fill="#282C34"/>
<path d="M155.5 503.484H159.193L137 550.434L130.5 547.5L155.5 503.484Z" fill="#282C34"/>
<path d="M149.5 501.056L152.971 502.295L127.5 546L121 542L149.5 501.056Z" fill="#282C34"/>
<path d="M142.5 497.465L146.5 499L117.5 538.5L111.5 532L142.5 497.465Z" fill="#282C34"/>
<path d="M138 490.5L140 494.156L108.5 528L104 520L138 490.5Z" fill="#282C34"/>
<path d="M134 485L136.5 488.5L101 515.5L100.5 507L134 485Z" fill="#282C34"/>
<path d="M132.5 479.265L133.355 483.402L101.679 502.295L100.5 492L132.5 479.265Z" fill="#282C34"/>
<path d="M137.68 219.728L137 222.5L110.25 199.738L113 196.5L137.68 219.728Z" fill="#282C34"/>
<path d="M139.294 216.325L137 217L114.25 194.496L117 191L139.294 216.325Z" fill="#282C34"/>
<path d="M143.599 216.387L141.207 216.352L119 188.5L122.5 185.5L143.599 216.387Z" fill="#282C34"/>
<path d="M148.382 216.455L145.99 216.421L126 184.5L130.5 182.966L148.382 216.455Z" fill="#282C34"/>
<path d="M151.73 216.502L149.817 216.475L134 182L138.5 181L151.73 216.502Z" fill="#282C34"/>
<path d="M155.556 216.557L153.165 216.523L140.5 181L145 179.5L155.556 216.557Z" fill="#282C34"/>
<path d="M258.432 559.55L288.359 557.457L288.568 560.45L258.641 562.543L258.432 559.55Z" fill="#282C34"/>
<path d="M258.432 565.55L288.359 563.457L288.568 566.45L258.641 568.543L258.432 565.55Z" fill="#282C34"/>
<path d="M258.432 571.55L288.359 569.457L288.568 572.45L258.641 574.543L258.432 571.55Z" fill="#282C34"/>
<path d="M258.432 577.55L288.359 575.457L288.568 578.45L258.641 580.543L258.432 577.55Z" fill="#282C34"/>
<path d="M256.5 555.5H259.5V580.5H256.5V555.5Z" fill="#282C34"/>
<path d="M193.5 644.5H197.5V670.5H193.5V644.5Z" fill="#282C34"/>
<path d="M187.841 644.453L191.84 644.558L191.159 670.549L187.16 670.444L187.841 644.453Z" fill="#282C34"/>
<path d="M181.841 644.453L185.84 644.558L185.159 670.549L181.16 670.444L181.841 644.453Z" fill="#282C34"/>
<path d="M427.5 446.5H444.5V449.5H427.5V446.5Z" fill="#282C34"/>
<path d="M426.5 452.5L444.385 454.013L444 460.5L425.919 455.027L426.5 452.5Z" fill="#282C34"/>
<path d="M424.711 457.483L445 465.5L439 470L423.337 459.682L424.711 457.483Z" fill="#282C34"/>
<path d="M420 462L431.5 472.5L427 475.5L417 463L420 462Z" fill="#282C34"/>
<path d="M783.5 343.5C783.5 366.696 764.696 385.5 741.5 385.5C727.894 385.5 715.8 379.031 708.124 369C702.714 361.93 699.5 353.09 699.5 343.5C699.5 336.461 701.231 329.827 704.292 324C711.316 310.624 725.343 301.5 741.5 301.5C764.696 301.5 783.5 320.304 783.5 343.5Z" fill="#373D4B"/>
<path d="M699.5 343.5C699.5 336.461 701.231 329.827 704.292 324H668V369H708.124C702.714 361.93 699.5 353.09 699.5 343.5Z" fill="#373D4B"/>
<path d="M735.5 418V412.5H751.5V418H735.5Z" fill="#373D4B"/>
<path d="M643 350H613V344.5H610.5V339H643V350Z" fill="#373D4B"/>
<path d="M531.5 152V150H539.5V163H510V152H531.5Z" fill="#373D4B"/>
<path d="M524 2C528 15.5 542 16 545 2H524Z" fill="#373D4B"/>
<path d="M628.5 291.5H647.5V297.5H628.5V291.5Z" fill="#373D4B"/>
<path d="M769.366 274.089L782.49 280.21L779.464 286.698L766.341 280.577L769.366 274.089Z" fill="#373D4B"/>
<path d="M436.5 76.5H442.5V84.5H436.5V76.5Z" fill="#373D4B"/>
<path d="M418.5 76.5H424.5V88.5H418.5V76.5Z" fill="#373D4B"/>
<path d="M459.5 29.5H465.5V35.5H459.5V29.5Z" fill="#373D4B"/>
<path d="M437.5 1.5H465.5V5.5H437.5V1.5Z" fill="#373D4B"/>
<path d="M576.5 72.5C576.5 74.1569 575.157 75.5 573.5 75.5C571.843 75.5 570.5 74.1569 570.5 72.5C570.5 70.8431 571.843 69.5 573.5 69.5C575.157 69.5 576.5 70.8431 576.5 72.5Z" fill="#373D4B"/>
<path d="M575.5 124.5C575.5 125.605 574.605 126.5 573.5 126.5C572.395 126.5 571.5 125.605 571.5 124.5C571.5 123.395 572.395 122.5 573.5 122.5C574.605 122.5 575.5 123.395 575.5 124.5Z" fill="#373D4B"/>
<path d="M507.5 87.8052L520.601 80.5L524.01 86.6137L510.909 93.9189L507.5 87.8052Z" fill="#373D4B"/>
<path d="M540.5 118.805L553.041 111.812L556.45 117.926L543.909 124.919L540.5 118.805Z" fill="#373D4B"/>
<path d="M548.5 119.5H562.5V134.5H548.5V119.5Z" fill="#373D4B"/>
<path d="M446.5 309.5H454.5V316.5H446.5V309.5Z" fill="#373D4B"/>
<path d="M317.5 331.5H360.5V374.5H317.5V331.5Z" fill="#373D4B"/>
<path d="M147.5 251.5H157.5V268.5H147.5V251.5Z" fill="#373D4B"/>
<path d="M261.5 284.5H274.5V292.5H261.5V284.5Z" fill="#373D4B"/>
<path d="M261.5 291.5H269.5V295.5H261.5V291.5Z" fill="#373D4B"/>
<path d="M395.5 414.5H403.5V422.5H395.5V414.5Z" fill="#373D4B"/>
<path d="M539.5 437.008L548.368 430.5L551.918 435.337L543.05 441.845L539.5 437.008Z" fill="#373D4B"/>
<path d="M495.5 566.5H508.5V574.5H495.5V566.5Z" fill="#373D4B"/>
<path d="M465.5 564.5H473.5V577.5H465.5V564.5Z" fill="#373D4B"/>
<path d="M489.5 521.836L494.995 517.5L502.429 526.92L496.933 531.257L489.5 521.836Z" fill="#373D4B"/>
<path d="M521.5 529.5H530.5V537.5H521.5V529.5Z" fill="#373D4B"/>
<path d="M459.5 485.5H463.5V494.5H459.5V485.5Z" fill="#373D4B"/>
<path d="M459.5 510.5H463.5V533.5H459.5V510.5Z" fill="#373D4B"/>
<path d="M440.5 533.5V529.5H463.5V533.5H440.5Z" fill="#373D4B"/>
<path d="M387.5 600.5H405.5V612.5H387.5V600.5Z" fill="#373D4B"/>
<path d="M373.5 606.5H385.5V612.5H373.5V606.5Z" fill="#373D4B"/>
<path d="M464.5 618.5H469.5V624.5H464.5V618.5Z" fill="#373D4B"/>
<path d="M529.5 632.5H534.5V640.5H529.5V632.5Z" fill="#373D4B"/>
<path d="M529.5 613.5H534.5V619.5H529.5V613.5Z" fill="#373D4B"/>
<path d="M28.5 346.5C28.5 349.261 26.2614 351.5 23.5 351.5C20.7386 351.5 18.5 349.261 18.5 346.5C18.5 343.739 20.7386 341.5 23.5 341.5C26.2614 341.5 28.5 343.739 28.5 346.5Z" fill="#373D4B"/>
<path d="M61.5 346.5C61.5 349.261 59.2614 351.5 56.5 351.5C53.7386 351.5 51.5 349.261 51.5 346.5C51.5 343.739 53.7386 341.5 56.5 341.5C59.2614 341.5 61.5 343.739 61.5 346.5Z" fill="#373D4B"/>
<path d="M86.5 407.5C86.5 410.261 84.2614 412.5 81.5 412.5C78.7386 412.5 76.5 410.261 76.5 407.5C76.5 404.739 78.7386 402.5 81.5 402.5C84.2614 402.5 86.5 404.739 86.5 407.5Z" fill="#373D4B"/>
<path d="M86.5 422.5C86.5 425.261 84.2614 427.5 81.5 427.5C78.7386 427.5 76.5 425.261 76.5 422.5C76.5 419.739 78.7386 417.5 81.5 417.5C84.2614 417.5 86.5 419.739 86.5 422.5Z" fill="#373D4B"/>
<path d="M73.5 424.5C73.5 427.261 71.2614 429.5 68.5 429.5C65.7386 429.5 63.5 427.261 63.5 424.5C63.5 421.739 65.7386 419.5 68.5 419.5C71.2614 419.5 73.5 421.739 73.5 424.5Z" fill="#373D4B"/>
<path d="M98.5 441.5C98.5 444.261 96.2614 446.5 93.5 446.5C90.7386 446.5 88.5 444.261 88.5 441.5C88.5 438.739 90.7386 436.5 93.5 436.5C96.2614 436.5 98.5 438.739 98.5 441.5Z" fill="#373D4B"/>
<path d="M67.5 337.5H89.5V339.5H67.5V337.5Z" fill="#373D4B"/>
<path d="M87.5 339.5H89.5V381.5H87.5V339.5Z" fill="#373D4B"/>
<path d="M345.5 62.5H351.5V79.5H345.5V62.5Z" fill="#373D4B"/>
<path d="M247.5 556.5H254.5V563.5H247.5V556.5Z" fill="#373D4B"/>
<path d="M237.5 587.5H244.5V594.5H237.5V587.5Z" fill="#373D4B"/>
<path d="M215.5 594.5H222.5V601.5H215.5V594.5Z" fill="#373D4B"/>
<path d="M217.5 607.5H222.5V620.5H217.5V607.5Z" fill="#373D4B"/>
<path d="M217.5 630.5H222.5V643.5H217.5V630.5Z" fill="#373D4B"/>
<path d="M243.5 632.5H250.5V647.5H243.5V632.5Z" fill="#373D4B"/>
<path d="M257.5 632.5H264.5V647.5H257.5V632.5Z" fill="#373D4B"/>
<path d="M275.5 632.5H282.5V647.5H275.5V632.5Z" fill="#373D4B"/>
<path d="M183.5 624.5H193.5V634.5H183.5V624.5Z" fill="#373D4B"/>
<path d="M150.5 634.5H156.5V649.5H150.5V634.5Z" fill="#373D4B"/>
<path d="M369.5 513.5H375.5V530.5H369.5V513.5Z" fill="#373D4B"/>
<path d="M222.5 544.5H225.5V551.5H222.5V544.5Z" fill="#373D4B"/>
<path d="M216.5 555.5H221.5V563.5H216.5V555.5Z" fill="#373D4B"/>
<path d="M214.5 561.5H216.5V563.5H214.5V561.5Z" fill="#373D4B"/>
<path d="M87.5 399V430.5H89.5V399H87.5Z" fill="#373D4B"/>
<path fill-rule="evenodd" clip-rule="evenodd" d="M288.5 398.5V455.5H251.5V446.5H177.5V441H170.5V446.5H127.5V480.5H131.309C131.431 480.816 131.597 481.235 131.802 481.736C132.278 482.897 132.97 484.5 133.833 486.265C135.543 489.766 137.982 494.029 140.81 496.724C143.204 499.006 146.819 501.06 149.764 502.524C151.25 503.263 152.59 503.864 153.559 504.28C154.044 504.488 154.437 504.65 154.709 504.761C154.845 504.816 154.952 504.859 155.025 504.888L155.108 504.921L155.13 504.929L155.136 504.932L155.138 504.932L155.313 505H230.5V519.5H260.711L268.879 496.018L285.447 477.5H299.628L326.628 470.5H364.5V452.5H395.892C396.057 452.81 396.292 453.236 396.59 453.743C397.221 454.817 398.14 456.263 399.291 457.745C401.545 460.646 404.884 463.94 408.863 464.491C411.047 464.793 412.979 465.049 414.843 464.893C416.75 464.733 418.557 464.146 420.55 462.835C422.382 461.63 423.801 459.779 424.902 457.764C426.007 455.741 426.826 453.489 427.427 451.405C428.029 449.317 428.42 447.371 428.661 445.949C428.781 445.237 428.864 444.654 428.918 444.247C428.926 444.185 428.933 444.126 428.94 444.072C428.955 443.95 428.967 443.85 428.976 443.774C428.982 443.719 428.987 443.677 428.99 443.648L428.994 443.614L428.995 443.604L428.995 443.601C428.995 443.601 428.995 443.6 428.957 443.596L428.995 443.6L429.105 442.5H396.5V398.5H397.5V352.5H392.5V397.5H391V399.5H363V397.5H323V399.5H292.5V398.5H293.5V352.5H287.5V398.5H288.5ZM291.5 354.5H289.5V396.5H291.5V354.5ZM172.5 443H175.5V448.5H249.5V457.5H290.5V401.5H325V399.5H361V401.5H393V399.5H394.5V444.5H426.864C426.818 444.816 426.76 445.191 426.689 445.616C426.457 446.986 426.081 448.854 425.505 450.851C424.928 452.851 424.158 454.953 423.147 456.805C422.131 458.664 420.906 460.207 419.45 461.165C417.723 462.301 416.235 462.769 414.675 462.9C413.072 463.034 411.363 462.817 409.137 462.509C405.999 462.076 403.087 459.37 400.871 456.517C399.787 455.122 398.915 453.752 398.314 452.73C398.015 452.22 397.783 451.798 397.628 451.506C397.551 451.36 397.492 451.246 397.454 451.171C397.434 451.133 397.42 451.104 397.411 451.086L397.401 451.066L397.399 451.061L397.124 450.5H396.611H362.5V468.5H326.372L299.372 475.5H284.553L267.121 494.982L259.289 517.5H232.5V503H155.69L155.674 502.993C155.616 502.97 155.545 502.942 155.462 502.908C155.2 502.802 154.82 502.644 154.348 502.442C153.404 502.037 152.099 501.452 150.655 500.734C147.739 499.284 144.354 497.338 142.19 495.276C139.635 492.842 137.324 488.855 135.63 485.387C134.791 483.67 134.117 482.109 133.653 480.977C133.421 480.412 133.242 479.955 133.121 479.64C133.061 479.483 133.015 479.362 132.985 479.28L132.951 479.188L132.943 479.166L132.941 479.161L132.94 479.16L132.701 478.5H129.5V448.5H172.5V443ZM394.5 396.5H395.5V354.5H394.5V396.5Z" fill="#454545"/>
<path d="M430.5 101.5V100.5H437.465L438.551 98.5H428.5V103.5H430V114.244L432 110.562V101.5H430.5Z" fill="#454545"/>
<path d="M374.5 152.531L374.53 153.5H378V155.5H382V140.262L380 142.123V151.5H376.453C376.42 150.916 376.364 150.088 376.275 149.074C376.193 148.157 376.084 147.086 375.938 145.904L374.12 147.596C374.184 148.19 374.238 148.744 374.282 149.251C374.372 150.268 374.427 151.092 374.459 151.66C374.475 151.944 374.486 152.163 374.492 152.311L374.496 152.403L374.499 152.478L374.5 152.519L374.5 152.529L374.5 152.531Z" fill="#454545"/>
<path d="M341.5 200.5H337.5V181.683L335.5 183.545V202.5H343.5V177H342.531C341.692 177.781 341.222 178.219 340.383 179H341.5V200.5Z" fill="#454545"/>
<path d="M376 179.177L379.918 177.61L391.815 184.55L392.77 182.792L380.082 175.39L374 177.823V217.351L376 213.669V179.177Z" fill="#454545"/>
<path fill-rule="evenodd" clip-rule="evenodd" d="M517 0H436V31H305.893L273.5 93.2554V145H165.463L165.501 146.036L165.501 146.038L165.501 146.045L165.502 146.08L165.503 146.135L165.505 146.226C165.507 146.357 165.509 146.552 165.507 146.806C165.504 147.314 165.487 148.055 165.433 148.976C165.324 150.82 165.065 153.376 164.463 156.221C163.255 161.938 160.696 168.684 155.351 173.239C153.284 175 150.555 176.263 147.423 177.268C144.293 178.273 140.839 178.998 137.346 179.731L137.31 179.738C133.64 180.508 129.922 181.287 126.635 182.409C123.341 183.534 120.368 185.037 118.264 187.323C108.936 197.456 100.229 214.803 93.306 228.594L93.2584 228.688C90.9775 233.232 88.8905 237.39 87.0283 240.807C85.1548 244.244 83.5521 246.85 82.2474 248.341C78.8144 252.265 75.6392 254.703 73.341 256.155C72.1915 256.88 71.2604 257.36 70.6251 257.656C70.3075 257.804 70.0638 257.905 69.9036 257.969C69.8738 257.98 69.8469 257.991 69.823 258H0V357.5H25V354H53V433.5H86.5V448.5H105V478.5H100V514.226L100.097 514.43L101 514C100.097 514.43 100.098 514.432 100.098 514.432L100.099 514.434L100.104 514.445L100.123 514.485C100.14 514.519 100.165 514.57 100.197 514.637C100.262 514.77 100.358 514.966 100.483 515.216C100.733 515.718 101.099 516.442 101.566 517.335C102.501 519.119 103.844 521.582 105.474 524.295C108.717 529.694 113.159 536.185 117.844 540.255C122.045 543.904 128.279 547.202 133.396 549.571C135.967 550.761 138.28 551.727 139.95 552.396C140.785 552.73 141.461 552.991 141.928 553.168C142.162 553.256 142.344 553.324 142.468 553.37C142.53 553.393 142.577 553.41 142.61 553.422L142.656 553.439L142.659 553.44L142.66 553.44L142.825 553.5H154.5V557H152V575.5H154.5V577.5H152V595H154.5V596.5H152V613H149V671.5H221.201L238.701 683H285.782L316.782 664H366V696H427V664H464.5V661.5H467.5V664H485.5V661.5H488.5V664H507V661.5H509.5V664H529.5V661.5H532.5V664H551V627H572V539.5H532.5V543.5H532V527.5H553.601L553.7 527.48C556.332 526.944 558.25 526.365 559.877 525.535C561.516 524.698 562.805 523.633 564.213 522.201L564.214 522.2L590 495.909V396H687.427C687.458 396.053 687.493 396.111 687.529 396.172C687.788 396.603 688.168 397.223 688.659 397.986C689.639 399.512 691.061 401.613 692.832 403.921C696.357 408.517 701.326 414.013 706.991 417.361C712.682 420.724 722.111 422.866 731.449 423.931C740.81 424.999 750.29 425.008 756.171 423.985C767.935 421.939 776.154 416.863 786.693 406.721C791.93 401.682 796.74 393.812 800.219 387.278C801.966 383.997 803.391 381.027 804.379 378.877C804.873 377.801 805.258 376.93 805.52 376.327C805.651 376.025 805.752 375.79 805.82 375.63L805.871 375.509L805.897 375.448L805.923 375.384L805.924 375.383L806 375.199V289.353L750.512 264.409L691.297 289.5H603V206H553V183.5H603V56.0467L554.5 13.5467V0H518.5V14H517V0ZM167.429 149.094C167.48 148.237 167.5 147.526 167.506 147H275.5V93.7446L307.107 33H438V2H515V16H520.5V2H552.5V14.4533L601 56.9533V181.5H551V208H601V291.5H691.703L750.488 266.591L804 290.647V374.799L803.978 374.85L803.903 375.026C803.845 375.162 803.773 375.331 803.686 375.53C803.429 376.122 803.049 376.98 802.561 378.042C801.585 380.165 800.178 383.099 798.454 386.338C794.991 392.842 790.302 400.473 785.307 405.279C774.937 415.258 767.065 420.061 755.829 422.015C750.21 422.992 740.94 423.001 731.676 421.944C722.389 420.884 713.318 418.776 708.009 415.639C702.674 412.487 697.893 407.233 694.418 402.704C692.689 400.449 691.299 398.395 690.341 396.905C689.863 396.16 689.493 395.557 689.244 395.142C689.188 395.05 689.139 394.966 689.095 394.893C689.041 394.802 688.997 394.726 688.962 394.667C688.931 394.613 688.907 394.572 688.892 394.545L688.875 394.515L688.87 394.507L688.583 394H588V495.091L562.787 520.799C561.466 522.142 560.348 523.048 558.968 523.754C557.592 524.456 555.901 524.986 553.399 525.5H530V545.5H534.5V541.5H570V625H549V662H534.5V659.5H527.5V662H511.5V659.5H505V662H490.5V659.5H483.5V662H469.5V659.5H462.5V662H425V694H368V662H316.218L285.218 681H239.299L221.799 669.5H151V615H154V598.5H156.5V593H154V579.5H156.5V573.5H154V559H156.5V551.5H143.177L143.161 551.494C143.042 551.45 142.865 551.384 142.637 551.298C142.18 551.124 141.516 550.869 140.693 550.539C139.048 549.88 136.768 548.928 134.236 547.756C129.148 545.401 123.132 542.199 119.156 538.745C114.723 534.894 110.414 528.635 107.188 523.265C105.583 520.593 104.259 518.165 103.338 516.406C102.877 515.527 102.517 514.816 102.273 514.325C102.154 514.086 102.062 513.899 102 513.771V480.5H107V446.5H88.5V431.5H55V352H23V355.5H2V260H70.1623L70.3171 259.948L70.3181 259.948L70.3205 259.947L70.3269 259.945L70.3463 259.938C70.3622 259.933 70.3837 259.925 70.4108 259.915C70.43 259.908 70.452 259.9 70.4767 259.891C70.4976 259.883 70.5204 259.875 70.5452 259.865C70.574 259.854 70.6054 259.842 70.6394 259.828C70.8347 259.751 71.1144 259.634 71.4686 259.469C72.1771 259.14 73.1835 258.619 74.409 257.845C76.8608 256.297 80.1856 253.735 83.7526 249.659C85.2191 247.982 86.9139 245.196 88.7844 241.764C90.6646 238.314 92.766 234.127 95.0398 229.598L95.0458 229.586C102.024 215.685 110.619 198.58 119.736 188.677C121.511 186.749 124.118 185.382 127.281 184.302C130.441 183.223 134.046 182.466 137.757 181.688L137.785 181.682C141.247 180.956 144.796 180.212 148.034 179.172C151.281 178.13 154.294 176.768 156.649 174.761C162.481 169.79 165.173 162.537 166.42 156.635C167.046 153.67 167.316 151.012 167.429 149.094ZM437 76.5H424V82.5H437V76.5ZM435 80.5H426V78.5H435V80.5ZM490.5 76.5H450.5V82.5H452V98.5H438.551L437.465 100.5H454V80.5H452.5V78.5H488.5V129.5H486.5V196.5H488V197H465.311L450.811 187H447.5V186.5H449.905L432 134.832V110.562L430 114.244V135.168L447.095 184.5H445.5V185.5H420.5V186H398.27L392.77 182.792L391.815 184.55L397.73 188H418V282.398L418.274 282.687C424.432 289.194 429.604 293.802 435.412 297.454C441.061 301.006 447.269 303.627 455.5 306.234V308H383V284.5H291V287H290V283H234.5V284.5H233V283H170V284.5H169.5V282.5H194.5V218.5H192.5V217.5H298V215.5H301.701C301.745 215.685 301.797 215.897 301.858 216.133C302.083 217.005 302.423 218.206 302.886 219.521C303.794 222.103 305.234 225.309 307.322 227.235C309.127 228.9 311.926 230.079 314.16 230.832C315.297 231.215 316.327 231.501 317.074 231.691C317.228 231.731 317.371 231.766 317.5 231.797V237H362V231.823C362.069 231.808 362.142 231.793 362.218 231.776C362.857 231.636 363.739 231.423 364.715 231.131C366.627 230.557 369.053 229.635 370.652 228.258C372.773 226.432 374.21 223.143 375.03 220.835C375.342 219.957 375.576 219.186 375.733 218.633C375.812 218.356 375.871 218.134 375.911 217.979C375.931 217.901 375.946 217.84 375.957 217.798L376 217.617V213.669L374 217.351L373.138 220.187C372.319 222.485 371.025 225.298 369.348 226.742C368.089 227.826 366.015 228.653 364.141 229.215C363.225 229.49 362.393 229.69 361.79 229.822C361.49 229.888 361.247 229.937 361.081 229.968C360.999 229.984 360.935 229.996 360.893 230.004L360.846 230.012L360.835 230.014L360.833 230.014L360 230.155V235H319.5V230.184L318.7 230.02C309.181 227.841 306.119 223.852 303.319 213.5H296V215.5H190.5V220.5H192.5V280.5H167.5V286.5H172V285H231V286.5H236.5V285H288V289H293V286.5H381V310H457.5V304.765L456.798 304.545C448.305 301.893 442.084 299.287 436.476 295.761C430.952 292.286 425.978 287.892 420 281.601V189H420.5V189.5H446.5V189H450.189L464.689 199H490V194.5H488.5V131.5H490.5V76.5ZM382 89.8132V140.262L380 142.123V91.1868L354.814 81.5H341.117L312.007 88.4075L298 102.414V148H301.028C301.048 147.508 301.084 146.849 301.146 146.058C301.286 144.258 301.562 141.767 302.107 139.003C303.189 133.516 305.361 126.774 309.789 122.297C318.124 113.87 327.021 108.874 339.052 109.501C345.094 109.817 350.257 110.695 354.927 112.676C359.61 114.661 363.74 117.729 367.754 122.344C371.88 127.085 374.04 134.698 375.185 140.962C375.508 142.729 375.753 144.405 375.938 145.904L374.12 147.596C373.928 145.801 373.641 143.639 373.217 141.322C372.08 135.097 369.99 127.96 366.246 123.656C362.4 119.236 358.51 116.367 354.147 114.517C349.772 112.662 344.865 111.807 338.948 111.499C327.667 110.91 319.292 115.533 311.211 123.703C307.208 127.75 305.13 134.008 304.069 139.39C303.543 142.06 303.275 144.471 303.139 146.214C303.072 147.085 303.037 147.787 303.019 148.27C303.01 148.511 303.005 148.697 303.003 148.821C303.001 148.884 303.001 148.931 303 148.961L303 148.995L303 149.003V149.004L302.996 150H300.5V169.5H300V192H296V190.5H288V170H296V169.5H295.5V148.5H296V101.586L310.993 86.5925L340.883 79.5H355.186L382 89.8132ZM335.5 177H342.531C341.692 177.781 341.222 178.219 340.383 179H337.5V181.683L335.5 183.545V177ZM297.5 167.5V150.5H298.5V167.5H297.5ZM343.5 133.5H335.5V158.5H343.5V133.5ZM337.5 156.5V135.5H341.5V156.5H337.5ZM298 172V188.5H290V172H298ZM251.5 171.5H232.5V190.5H251.5V171.5ZM234.5 188.5V173.5H249.5V188.5H234.5ZM173 215.5H136.5V261H122.586L111.5 272.086V332.5H125.5V372.5H170V375.5H176.5V372.5H216V408H237.5V370.5H234.5V306.5H231V308.5H172V306.5H166.5V308.5H141V242.5H173V215.5ZM170 310.5H232.5V372.5H235.5V406H218V370.5H174.5V373.5H172V370.5H127.5V330.5H113.5V272.914L123.414 263H138.5V217.5H171V240.5H139V310.5H168.5V308.5H170V310.5ZM525.276 222.5H452.5V264.951L452.838 265.25L452.839 265.251L452.866 265.275L452.955 265.354C452.99 265.385 453.032 265.423 453.082 265.468C453.124 265.506 453.171 265.548 453.222 265.595L453.299 265.665C453.598 265.937 454.032 266.337 454.566 266.842C455.634 267.852 457.103 269.281 458.7 270.955C461.915 274.324 465.583 278.616 467.616 282.467C469.67 286.357 471.147 291.866 472.114 296.471C472.594 298.76 472.943 300.801 473.172 302.269C473.279 302.959 473.36 303.522 473.415 303.924L471.5 304.882V310H477.5V353.5H426.5V374H432V417.5H507.5V407H555V365.5H586.5V324H569.5V248.933L525.276 222.5ZM454.5 224.5H524.724L567.5 250.067V326H584.5V363.5H553V405H505.5V415.5H434V372H428.5V355.5H479.5V308H473.5V306.118L475.578 305.079L475.493 304.38L475.461 304.383L475.488 304.379C475.493 304.379 475.493 304.378 475.493 304.378L475.492 304.376L475.491 304.367L475.487 304.334L475.471 304.208C475.457 304.098 475.436 303.936 475.407 303.727C475.35 303.311 475.264 302.709 475.148 301.961C474.915 300.467 474.56 298.391 474.071 296.06C473.098 291.425 471.576 285.685 469.384 281.533C467.215 277.424 463.383 272.966 460.148 269.575C458.521 267.87 457.027 266.416 455.94 265.388C455.396 264.874 454.953 264.466 454.646 264.186L454.5 264.054V224.5ZM293.5 304.5H287.5V326.5H293.5V304.5ZM289.5 306.5H291.5V324.5H289.5V306.5ZM315.5 304.5H307.5V310.5H315.5V304.5ZM309.5 308.5V306.5H313.5V308.5H309.5ZM338.5 304.5H330.5V310.5H338.5V304.5ZM332.5 308.5V306.5H336.5V308.5H332.5ZM361.5 304.5H353.5V310.5H361.5V304.5ZM355.5 306.5H359.5V308.5H355.5V306.5ZM176.5 407.5H170.5V414H176.5V407.5ZM172.5 412V409.5H174.5V412H172.5ZM550.5 442.5H443.5V466.741C443.263 466.808 442.975 466.891 442.644 466.988C441.657 467.277 440.284 467.693 438.738 468.202C435.662 469.214 431.842 470.611 429.028 472.119C426.214 473.626 422.907 476.046 420.333 478.061C419.04 479.073 417.919 479.993 417.121 480.66C416.722 480.994 416.403 481.265 416.184 481.452C416.113 481.513 416.053 481.565 416.004 481.607L415.932 481.669L415.849 481.741L415.844 481.745L415.843 481.746L415.5 482.045V547.5H407V555H415.5V575.5H441.5V486H550.5V442.5ZM444.759 468.466L444.76 468.466L445.5 468.266V444.5H548.5V484H439.5V573.5H417.5V553H409V549.5H417.5V482.958C417.714 482.776 418.021 482.515 418.404 482.195C419.189 481.538 420.293 480.632 421.566 479.636C424.125 477.633 427.319 475.303 429.972 473.881C432.625 472.46 436.306 471.107 439.363 470.102C440.883 469.601 442.235 469.192 443.206 468.907C443.692 468.765 444.082 468.654 444.35 468.579L444.478 468.543L444.656 468.494L444.755 468.467L444.759 468.466ZM370 505.5H297.5V579.5H323.765L366.765 555H392.5V547.5H370V505.5ZM299.5 507.5H368V549.5H390.5V553H366.235L323.235 577.5H299.5V507.5ZM212.5 553H178V557.5H180V573.5H178V579.5H180V593H178V598.5H180V624.5H193.5V645H212.5V553ZM182 555.5H180V555H210.5V643H195.5V622.5H182V596.5H180V595H182V577.5H180V575.5H182V555.5ZM531.5 585.5V581H532.5V585.5H531.5ZM534.5 579H529.5V587.5H534.5V579ZM414.122 612.5H325.5V645.5H387.5V638H405V645.5H467.5V631H470V624H460.622L414.122 612.5ZM327.5 643.5V614.5H413.878L460.378 626H468V629H465.5V643.5H407V636H385.5V643.5H327.5ZM529.5 630.5V633H534.5V619H529.5V624H528V630.5H529.5ZM530 628.5V626H531.5V621H532.5V631H531.5V628.5H530ZM491.5 624H483.5V630.5H491.5V624ZM485.5 628.5V626H489.5V628.5H485.5ZM512.5 624H504.5V630.5H512.5V624ZM506.5 628.5V626H510.5V628.5H506.5ZM529.5 638.5H522.5V645.5H529.5V638.5ZM524.5 643.5V640.5H527.5V643.5H524.5Z" fill="#454545"/>
<path d="M35.448 313.968V298.896H30V297H42.984V298.896H37.536V313.968H35.448Z" fill="#FF6B00"/>
<path d="M731.088 352.968H729V336H731.088V343.824H733.608L739.128 336H741.528L735.432 344.424L741.576 352.968H739.104L733.776 345.72H731.088V352.968Z" fill="#0085FF"/>
<path d="M749.784 352.968H747.696V337.896H742.248V336H755.232V337.896H749.784V352.968Z" fill="#0085FF"/>
<path d="M562 83V135H511V83H562Z" fill="#7000FF" fill-opacity="0.2"/>
<path fill-rule="evenodd" clip-rule="evenodd" d="M560 133V85H513V133H560ZM562 83H511V135H562V83Z" fill="white" fill-opacity="0.08"/>
<path d="M528 119.532V99H537.106C538.053 99 538.923 99.0967 539.716 99.29C540.528 99.4833 541.234 99.8313 541.833 100.334C542.316 100.721 542.722 101.233 543.051 101.871C543.399 102.49 543.573 103.244 543.573 104.133C543.592 105.08 543.418 105.921 543.051 106.656C542.703 107.391 542.104 108.009 541.253 108.512C541.852 108.686 542.365 108.947 542.79 109.295C543.215 109.643 543.554 110.049 543.805 110.513C544.076 110.977 544.269 111.48 544.385 112.021C544.501 112.562 544.549 113.123 544.53 113.703C544.491 114.631 544.24 115.491 543.776 116.284C543.331 117.057 542.742 117.686 542.007 118.169C541.137 118.768 540.18 119.145 539.136 119.3C538.092 119.455 537.058 119.532 536.033 119.532H528ZM535.917 107.323C536.342 107.323 536.768 107.304 537.193 107.265C537.618 107.207 538.015 107.072 538.382 106.859C538.691 106.666 538.952 106.405 539.165 106.076C539.378 105.747 539.494 105.361 539.513 104.916C539.532 104.452 539.455 104.075 539.281 103.785C539.107 103.495 538.894 103.273 538.643 103.118C538.334 102.925 537.976 102.818 537.57 102.799C537.164 102.76 536.748 102.741 536.323 102.741H532.205V107.323H535.917ZM532.205 115.82H536.033C536.594 115.82 537.183 115.791 537.802 115.733C538.44 115.656 538.981 115.453 539.426 115.124C539.697 114.911 539.919 114.65 540.093 114.341C540.267 114.012 540.354 113.606 540.354 113.123C540.354 112.678 540.257 112.301 540.064 111.992C539.871 111.683 539.629 111.451 539.339 111.296C539.01 111.083 538.633 110.958 538.208 110.919C537.802 110.88 537.377 110.861 536.932 110.861L532.205 110.89V115.82Z" fill="white"/>
<path d="M517 529V580H466V529H517Z" fill="#7000FF" fill-opacity="0.2"/>
<path fill-rule="evenodd" clip-rule="evenodd" d="M515 578V531H468V578H515ZM517 529H466V580H517V529Z" fill="white" fill-opacity="0.08"/>
<path d="M487.061 561.617L485.582 565.532H481L488.946 545H493.702L501.532 565.532H496.921L495.5 561.617H487.061ZM488.279 557.905H494.253L491.295 549.466L488.279 557.905Z" fill="white"/>
</svg>
