<svg width="773" height="675" xmlns="http://www.w3.org/2000/svg" fill="none">
 <defs>
  <linearGradient y2="1.30008" x2="-0.40136" y1="0.07351" x1="0.95815" id="paint0_linear_84_389">
   <stop stop-color="#373D4B"/>
   <stop stop-opacity="0" stop-color="#373D4B" offset="1"/>
  </linearGradient>
 </defs>
 <g>
  <path id="svg_1" fill="#22262F" d="m1.17603,317l19.99997,-98l48,10l5.5,-28l36,8l5,-20l-2.5,-2l27,-46.5c5.162,-6.818 8.816,-8.837 17,-8.5l50.5,6l6,-31.5c6.798,-7.1307 10.756,-9.674 18,-12.5l32.5,0l6,-20l0,-55.5l52.5,0l0,-17.5l39.5,0l0,22.5l98.5,0l37,24l44,0l0,74.5l65,0l0,-49l4.5,0l0,-6.5l-4.5,0l0,-25.5l112,0l0,25.5l-2.5,0l0,3.5l40.5,0l0,107.5l-35.5,0l0,8l35.5,0l0,51.5l-2.5,0l0,3l17,0l0,174l-96.5,0l0,-79l-47,0l0,98.5l-67,0l0,4l60,0l0,3.5l15.5,0l0,137.5l-63,0l0,74l-53.5,0l0,-7.5l-4.5,0l0,28.5l-48.5,0l-1.5,0l-15,0c-95.791,-2.728 -121.993,-34.193 -135,-127l4,-5.5l-108.5,-52.5l-12.5,-9.5l-61.5,-76.5l9,-51.5l-44,-10.5l-11,42l-54.5,-15l7.5,-41l-42.49997,-9.5zm375.49997,-193.5l0,31.25l4.5,0l0,46.25l21,0l0,45.5l-2.5,0l0,3l6.5,0l0,-38.5l75.5,-2l0,24l52.5,0l0,-32.5l12,-18l0,-22.5l-45.5,0l0,14l-31.5,0l0,-71l-19,-29l-116,0l0,4.5l55.5,0l0,45l-13,0zm353,118.5l-155.5,0l0,-37.5l121,0l0,-3l4,0l0,7.5l23.5,0l0,28l7,0l0,5zm-316.5,183l0,9.5l4,0l0,5l19.5,0l0,-2l58.5,0l0,-4l-5.5,0l0,-35.5l31,0l0,-3.5l-1.5,0l0,-91l99.5,0l0,5l16,0l0,-5l1.5,-1l38.5,0l0,-4.5l-158.5,0l0,-8.5l-10,0l0,8.5l-19,0l0,124l-74,3zm100,8.5l27,0l0,4l-7.5,0l0,26.5l10.5,10l9,0l11,12l0,19.5l-11,10.5l-19.5,0l-12,-9.5l0,-69l-7.5,0l0,-4zm-165,79l9.5,19l-7.5,0l0,2.5l5,0c5.04,30.725 9.067,53.373 16.773,69.5c15.388,26.693 43.012,35.48 93.227,33.5l0,7l1.5,0l0,-26.5l41,0l-12.5,-91l-57.5,6l-6,-41.5l-2.5,0l7.5,50.5l-66.5,8.5l-17,-37.5l-5,0zm-10.5,-31l-6,-14.5l-19,8.5l-5,0l-53.5,-24.5l-43.5,-50l29.5,-30l55,51l16,-10.057l1.5,-0.943l0.861,2l28.639,66.5l-4.5,2zm-105.5,-124l-37,13.5l-3.5,-37.5l21.5,-69l43,19l-19.5,61.5l-2,13.5l-2,0.5l-0.5,-1.5zm3.5,-239l21.5,0l-5,21l25,8l-31,86.5l25.5,10l-6.5,16l-46.5,-18.5l31,-98.5l-16,-2l0,-17.5l2,-5zm-121.5,172l42,9l23,-90.5l-43.5,-11l-21.5,92.5zm166,-73l20.5,-58l18.5,-7l21,0l0,2.25l0,2.25l-21,0l-16,6l-17.5,54.5l-5.5,0zm67.5,-62.75l0,4.25l4.5,0l0.5,-48l-6.5,0l0,43.75l1.5,0zm-1.5,71.25l-58,138.5l4.5,0c16.551,-34.863 25.55,-58.204 37.514,-89.236c3.074,-7.972 6.343,-16.451 9.986,-25.764l42.5,0l0,-3l-31.5,0l0,-43.5l-5,0l0,23z" clip-rule="evenodd" fill-rule="evenodd"/>
  <path id="svg_2" fill="#454545" d="m0,317.762l20.3971,-99.946l47.9927,9.999l5.5026,-28.014l36.0496,8.011l4.608,-18.432l-2.671,-2.137l27.463,-47.298l0.037,-0.049c2.61,-3.447 4.925,-5.802 7.71,-7.22c2.798,-1.425 5.954,-1.847 10.128,-1.675l0.039,0.001l49.612,5.895l5.881,-30.874l0.203,-0.213c3.423,-3.59 6.166,-6.0636 8.991,-7.9993c2.831,-1.9392 5.708,-3.3139 9.37,-4.7423l0.175,-0.0684l31.944,0l5.744,-19.1468l0,-56.3532l52.5,0l0,-17.5l41.5,0l0,22.5l97.796,0l37,24l44.704,0l0,74.5l63,0l0,-49l4.5,0l0,-4.5l-4.5,0l0,-27.5l114,0l0,27.5l-2.5,0l0,1.5l40.5,0l0,109.5l-35.5,0l0,6l35.5,0l0,53.5l-2.5,0l0,1l17,0l0,176l-98.5,0l0,-79l-45,0l0,98.5l-67,0l0,2l60,0l0,3.5l15.5,0l0,139.5l-63,0l0,74l-55.5,0l0,-7.5l-2.5,0l0,28.5l-66.014,0l-0.014,0c-47.961,-1.366 -78.787,-9.924 -99.217,-30.007c-20.406,-20.061 -30.239,-51.43 -36.745,-97.854l-0.056,-0.4l3.534,-4.86l-107.513,-52.022l-12.678,-9.635l-61.86,-76.948l8.916,-51.02l-42.133,-10.054l-11.0091,42.033l-56.3593,-15.512l7.4917,-40.955l-42.5193,-9.504zm717.176,-246.762l0,3.5l-10,0l0,-9l10.5,0l0,-23.5l-110,0l0,23.5l4.5,0l0,8.5l-4.5,0l0,49l-67,0l0,-74.5l-43.296,0l-37,-24l-99.204,0l0,-22.5l-37.5,0l0,17.5l-52.5,0l0,54.6468l-6.256,20.8532l-33.055,0c-3.497,1.3721 -6.176,2.6689 -8.791,4.4607c-2.611,1.7883 -5.193,4.0933 -8.471,7.5163l-6.119,32.126l-51.388,-6.105c-3.989,-0.161 -6.742,0.26 -9.1,1.46c-2.367,1.206 -4.451,3.256 -6.986,6.597l-26.537,45.702l2.329,1.863l-5.392,21.567l-35.9502,-7.988l-5.4974,27.986l-48.0073,-10.001l-19.60294,96.054l42.48064,9.496l-7.5082,41.045l52.6406,14.488l10.9918,-41.967l45.866,10.946l-9.084,51.98l61.14,76.052l12.323,9.365l109.486,52.978l-4.465,6.14c6.5,46.16 16.274,76.806 36.11,96.305c19.869,19.532 50.035,28.07 97.857,29.434l13.986,0l0,-7l3.5,0l0,7l46.5,0l0,-28.5l6.5,0l0,7.5l51.5,0l0,-74l63,0l0,-135.5l-15.5,0l0,-3.5l-60,0l0,-6l67,0l0,-98.5l49,0l0,79l94.5,0l0,-172l-17,0l0,-5l2.5,0l0,-49.5l-35.5,0l0,-10l35.5,0l0,-105.5l-38.5,0zm-2,-3.5l-6,0l0,5l6,0l0,-5zm-602.204,223.765l21.961,-94.484l45.459,11.495l-23.484,92.404l-43.936,-9.415zm2.408,-1.53l40.064,8.585l22.516,-88.596l-41.541,-10.505l-21.039,90.516zm75.282,43.659l21.893,-70.262l44.845,19.816l-19.746,62.278l-2.087,14.082l-3.547,0.887l-0.467,-1.403l-37.252,13.592l-3.639,-38.99zm5.389,36.222l36.749,-13.408l0.532,1.597l0.453,-0.113l1.914,-12.918l19.253,-60.722l-41.155,-18.184l-21.107,67.738l3.361,36.01zm13.263,31.342l30.83,-31.352l55.149,51.139l15.081,-9.479l23.302,-56.464l0,-23.802l6.5,0l0,21l-1.5,0l0,3.2l-24.053,57.793l28.863,67.019l-6.342,2.819l-5.999,-14.498l-18.255,8.167l-5.432,0l-53.895,-24.681l-44.249,-50.861zm104.208,9.477l23.154,-55.635l0,-4.8l1.5,0l0,-17l-2.5,0l0,22.198l-22.482,54.476l0.328,0.761zm-1.302,2.033l-17.161,10.787l-54.851,-50.861l-28.17,28.648l42.751,49.139l53.105,24.319l4.569,0l19.744,-8.833l6.001,14.502l2.659,-1.181l-28.647,-66.52zm-94.777,-170.382l30.919,-98.242l-15.686,-1.961l0,-18.576l2.323,-5.807l23.443,0l-5.078,21.33l25.103,8.033l-31.022,86.56l25.539,10.016l-7.255,17.857l-48.286,-19.21zm2.466,-1.172l44.714,17.79l5.746,-14.143l-25.462,-9.984l30.979,-86.44l-24.897,-7.967l4.921,-20.67l-19.557,0l-1.677,4.193l0,16.424l16.314,2.039l-31.081,98.758zm58.853,-22.414l21.126,-59.771l19.105,-7.229l22.183,0l0,2.25l4,0l0,-43.75l8.511,0l-0.521,50l-6.49,0l0,-4.25l-5.5,0l0,2.25l-21.819,0l-15.377,5.766l-17.575,54.734l-7.643,0zm68.414,-64.75l1.5,0l0,4.25l2.51,0l0.48,-46l-4.49,0l0,41.75zm-65.586,62.75l3.357,0l17.425,-54.266l16.623,-6.234l20.181,0l0,-2.5l-19.817,0l-17.895,6.771l-19.874,56.229zm5.083,149l58.503,-139.701l0,-23.799l7,0l0,43.5l31.5,0l0,5l-42.817,0c-3.541,9.057 -6.73,17.327 -9.732,25.114l-0.004,0.01l-0.002,0.006c-11.964,31.032 -20.974,54.402 -37.542,89.299l-0.271,0.571l-6.635,0zm3.006,-2l2.365,0c16.361,-34.511 25.316,-57.737 37.213,-88.596c3.074,-7.972 6.344,-16.453 9.988,-25.768l0.248,-0.636l42.183,0l0,-1l-31.5,0l0,-43.5l-3,0l0,22.201l-57.497,137.299zm43.497,-284l0,-6.5l117.54,0l19.46,29.702l0,70.298l29.5,0l0,-14l47.5,0l0,23.803l-12,18l0,33.197l-54.5,0l0,-23.973l-73.5,1.947l0,38.526l-8.5,0l0,-5l2.5,0l0,-43.5l-21,0l0,-46.25l-4.5,0l0,-33.25l13,0l0,-43l-55.5,0zm2,-2l55.5,0l0,47l-13,0l0,29.25l4.5,0l0,46.25l21,0l0,47.5l-2.5,0l0,1l4.5,0l0,-38.474l77.5,-2.053l0,24.027l50.5,0l0,-31.803l12,-18l0,-21.197l-43.5,0l0,14l-33.5,0l0,-71.702l-18.54,-28.298l-114.46,0l0,2.5zm11.382,434l7.263,0l16.961,37.414l64.755,-8.277l-7.52,-50.637l4.525,0l5.986,41.406l57.507,-6.001l12.788,93.095l-41.147,0l0,26.5l-3.5,0l0,-6.961c-24.655,0.905 -43.933,-0.819 -59.004,-6.093c-15.326,-5.362 -26.272,-14.386 -34.09,-27.947l-0.019,-0.033l-0.017,-0.035c-7.709,-16.134 -11.751,-38.675 -16.719,-68.931l-5.151,0l0,-4.5l6.882,0l-9.5,-19zm3.236,2l9.5,19l-8.118,0l0,0.5l4.849,0l0.138,0.838c5.044,30.75 9.051,53.228 16.671,69.196c7.57,13.114 18.125,21.82 32.999,27.025c14.931,5.224 34.243,6.93 59.304,5.942l0.539,-0.021l0,-19.48l40.853,0l-12.212,-88.905l-57.493,5.999l-6.014,-41.594l-0.474,0l7.479,50.363l-68.245,8.723l-17.039,-37.586l-2.737,0zm62.382,-78l0,-11.46l74,-3l0,-124.04l19,0l0,-8.5l12,0l0,8.5l158.5,0l0,6.5l-39.197,0l-0.803,0.535l0,5.465l-18,0l0,-5l-97.5,0l0,89l1.5,0l0,5.5l-31,0l0,33.5l5.5,0l0,6l-58.5,0l0,2l-21.5,0l0,-5l-4,0zm23.5,3l0,-2l58.5,0l0,-2l-5.5,0l0,-37.5l31,0l0,-1.5l-1.5,0l0,-93l101.5,0l0,5l14,0l0,-4.535l2.197,-1.465l37.803,0l0,-2.5l-158.5,0l0,-8.5l-8,0l0,8.5l-19,0l0,123.96l-74,3l0,7.54l4,0l0,5l17.5,0zm76.5,0l0,-6l29,0l0,6l-7.5,0l0,25.071l9.9,9.429l9.04,0l11.56,12.611l0,20.317l-11.599,11.072l-20.249,0l-12.652,-10.016l0,-68.484l-7.5,0zm2,-2l7.5,0l0,69.516l11.348,8.984l18.751,0l10.401,-9.928l0,-18.683l-10.44,-11.389l-8.96,0l-11.1,-10.571l0,-27.929l7.5,0l0,-2l-25,0l0,2zm0,187l0,-8l6.5,0l0,8l-6.5,0zm2,-2l2.5,0l0,-4l-2.5,0l0,4zm57,-378.5l0,-39.5l121,0l0,-3l6,0l0,7.5l23.5,0l0,28l7,0l0,7l-157.5,0zm2,-2l153.5,0l0,-3l-7,0l0,-28l-23.5,0l0,-7.5l-2,0l0,3l-121,0l0,35.5zm83.5,-167l0,-8.5l9.5,0l0,8.5l-9.5,0zm2,-2l5.5,0l0,-4.5l-5.5,0l0,4.5z" clip-rule="evenodd" fill-rule="evenodd"/>
  <path id="svg_3" fill="#1F2228" d="m1.17603,317l19.99997,-98l48,10l5.5,-28l36,8l5,-20l-2.5,-2l27,-46.5c5.162,-6.818 8.816,-8.837 17,-8.5l50.5,6l6,-31.5c6.798,-7.1307 10.756,-9.674 18,-12.5l32.5,0l6,-20l0,-55.5l52.5,0l0,-17.5l39.5,0l0,22.5l98.5,0l37,24l44,0l0,74.5l65,0l0,-49l4.5,0l0,-6.5l-4.5,0l0,-25.5l112,0l0,25.5l-2.5,0l0,3.5l40.5,0l0,107.5l-35.5,0l0,8l35.5,0l0,23.5l-34,0l-23.5,0l0,-7.5l-4,0l0,3l-121,0l-40,-4l12,-18l0,-22.5l-45.5,0l0,14l-31.5,0l0,-71l-19,-29l-116,0l0,4.5l1,0l0,32.5l11,0l0,43.75l1.5,0l0,4.25l3.5,0l0,44l-5,0l0,23l-58,138.5l4.5,0c0.336,-0.709 0.67,-1.413 1,-2.112l31.921,14.612l-14.421,34.943l-16,10.057l-55,-51l-29.5,30l43.5,50l53.5,24.5l5,0l19,-8.5l6,14.5l4.5,-2l11,33l-5,0l9.5,19l-7.5,0l0,2.5l5,0c5.04,30.725 9.067,53.373 16.773,69.5c13.782,23.906 37.378,33.45 78.227,33.76l0,36.24c-95.791,-2.728 -121.993,-34.193 -135,-127l4,-5.5l-108.5,-52.5l-12.5,-9.5l-61.5,-76.5l9,-51.5l-44,-10.5l-11,42l-54.5,-15l7.5,-41l-42.49997,-9.5zm465.49997,356.5l-1.5,0l0,-7l1.5,0l0,7zm53,-51l-4.5,0l0,-6l4.5,0l0,6zm-363.5,-323l-42,-9l21.5,-92.5l43.5,11l-23,90.5zm101,-181l-21.5,0l-2,5l0,17.5l16,2l-31,98.5l46.5,18.5l6.5,-16l-25.5,-10l31,-86.5l-25,-8l5,-21zm-62,252.5l37,-13.5l0.5,1.5l2,-0.5l2,-13.5l19.5,-61.5l-43,-19l-21.5,69l3.5,37.5zm105.5,-211.5l-20.5,58l5.5,0l17.5,-54.5l16,-6l21,0l0,-2.25l0,-2.25l-21,0l-18.5,7z" clip-rule="evenodd" fill-rule="evenodd"/>
  <path id="svg_4" fill-opacity="0.5" fill="#1F2228" d="m754.176,237l2.5,0l0,-28l-34,0l0,28l7,0l0,5l-155.5,0l0,-37.5l-40,-4l0,32.5l-52.5,0l0,-24l-75.5,2l0,38.5l-6.5,0l0,-3l2.5,0l0,-45.5l-21,0l0,2l-30,0l0,43.5l31.5,0l0,3l-42.5,0c-3.643,9.313 -6.912,17.792 -9.986,25.764l0,0.001c-1.465,3.8 -2.886,7.484 -4.281,11.089c-9.769,25.233 -18.305,46.544 -32.233,76.034l31.921,14.612l9.079,-22l0,-23l4.5,0l0,19l-1.5,0l0,4l-24.139,58l19.165,44.5l30.974,-14l6.5,-2l47,0l0,-2l0,-5l-4,0l0,-9.5l74,-3l0,-124l19,0l0,-8.5l10,0l0,8.5l158.5,0l0,4.5l0,32.5l0,79l96.5,0l0,-174l-17,0l0,-3z"/>
  <path id="svg_5" fill="#1F2228" d="m21.176,219l-19.99997,98l42.49997,9.5l-7.5,41l54.5,15l11,-42l44,10.5l-9,51.5l61.5,76.5l12.5,9.5l108.5,52.5l-4,5.5c13.007,92.807 39.209,124.272 135,127l0,-36.24c-40.849,-0.31 -64.445,-9.854 -78.227,-33.76c-7.706,-16.127 -11.733,-38.775 -16.773,-69.5l-5,0l0,-2.5l7.5,0l-9.5,-19l5,0l-11,-33l-4.5,2l-6,-14.5l-19,8.5l-5,0l-53.5,-24.5l-43.5,-50l29.5,-30l55,51l16,-10.057l1.5,-0.943l0.861,2l24.139,-58l0,-4l1.5,0l0,-19l-4.5,0l0,23l-9.079,22l-31.921,-14.612c-0.33,0.699 -0.664,1.403 -1,2.112l-4.5,0l58,-138.5l0,-23l5,0l0,-44l-3.5,0l0,-4.25l-1.5,0l0,-43.75l-11,0l0,-32.5l-1,0l0,-4.5l116,0l19,29l0,71l31.5,0l0,-14l45.5,0l0,22.5l-12,18l40,4l121,0l0,-3l4,0l0,7.5l23.5,0l34,0l0,-23.5l-35.5,0l0,-8l35.5,0l0,-107.5l-40.5,0l0,-3.5l2.5,0l0,-25.5l-112,0l0,25.5l4.5,0l0,6.5l-4.5,0l0,49l-65,0l0,-74.5l-44,0l-37,-24l-98.5,0l0,-22.5l-39.5,0l0,17.5l-52.5,0l0,55.5l-6,20l-32.5,0c-7.244,2.826 -11.202,5.3693 -18,12.5l-6,31.5l-50.5,-6c-8.184,-0.337 -11.838,1.682 -17,8.5l-27,46.5l2.5,2l-5,20l-36,-8l-5.5,28l-48,-10zm444,454.5l1.5,0l0,-7l-1.5,0l0,7zm50,-51l4.5,0l0,-6l-4.5,0l0,6zm-283,-265l-37,13.5l-3.5,-37.5l21.5,-69l43,19l-19.5,61.5l-2,13.5l-2,0.5l-0.5,-1.5zm-118,-67l42,9l23,-90.5l-43.5,-11l-21.5,92.5zm121.5,-172l21.5,0l-5,21l25,8l-31,86.5l25.5,10l-6.5,16l-46.5,-18.5l31,-98.5l-16,-2l0,-17.5l2,-5zm44.5,99l20.5,-58l18.5,-7l21,0l0,2.25l0,2.25l-21,0l-16,6l-17.5,54.5l-5.5,0z" clip-rule="evenodd" fill-rule="evenodd"/>
  <path id="svg_6" fill="#373D4B" d="m305.676,43.5l0,-25l14,0l0,25l-14,0z"/>
  <path id="svg_7" fill="#373D4B" d="m382.676,220.5l0,-19l9,0l0,19l-9,0z"/>
  <path id="svg_8" fill="#373D4B" d="m432.676,220.5l0,-10l18,0l0,10l-18,0z"/>
  <path id="svg_9" fill="#373D4B" d="m421.676,218.5l0,-7l7,0l0,7l-7,0z"/>
  <path id="svg_10" fill="#373D4B" d="m344.176,251.5c1.933,0 3.5,1.567 3.5,3.5c0,1.933 -1.567,3.5 -3.5,3.5c-1.933,0 -3.5,-1.567 -3.5,-3.5c0,-1.933 1.567,-3.5 3.5,-3.5z"/>
  <path id="svg_11" fill="#373D4B" d="m101.676,340.37l1.768,-8.602l10.362,2.13l-1.767,8.602l-10.363,-2.13z"/>
  <path id="svg_12" fill="#373D4B" d="m122.676,345.37l1.768,-8.602l10.362,2.13l-1.767,8.602l-10.363,-2.13z"/>
  <path id="svg_13" fill="#373D4B" d="m145.676,413.917l3.533,-3.057l12.62,14.583l-3.532,3.057l-12.621,-14.583z"/>
  <path id="svg_14" fill="#373D4B" d="m169.676,443.685l3.533,-3.057l18.88,21.815l-3.533,3.057l-18.88,-21.815z"/>
  <path id="svg_15" fill="#373D4B" d="m267.893,253.085l2.744,-5.934l10.673,4.935l-2.744,5.934l-10.673,-4.935z"/>
  <path id="svg_16" fill="#373D4B" d="m304.937,157.541l-2.271,-6.13l11.027,-4.084l2.27,6.131l-11.026,4.083z"/>
  <path id="svg_17" fill="#373D4B" d="m331.992,257.598l-5.983,-2.635l14.288,-32.437l5.982,2.635l-14.287,32.437z"/>
  <path id="svg_18" fill="#373D4B" d="m345.704,225.224l-6.531,0.276c-0.705,-26.563 -2.16,-41.391 -6.532,-67.724l6.532,-0.276c3.871,26.444 5.256,41.27 6.531,67.724z"/>
  <path id="svg_19" fill="#373D4B" d="m307.946,168.5l-2.27,-6.13l13.418,-4.969l2.27,6.13l-13.418,4.969z"/>
  <path id="svg_20" fill="#373D4B" d="m145.676,346.37l1.768,-8.602l10.362,2.13l-1.767,8.602l-10.363,-2.13z"/>
  <path id="svg_21" fill="#373D4B" d="m152.676,311.37l1.768,-8.602l10.362,2.13l-1.767,8.602l-10.363,-2.13z"/>
  <path id="svg_22" fill="#373D4B" d="m111.676,299.37l1.768,-8.602l10.362,2.13l-1.767,8.602l-10.363,-2.13z"/>
  <path id="svg_23" fill="#373D4B" d="m16.5881,315.041l0.4293,-3.811l19.1855,2.161l-0.4293,3.811l-19.1855,-2.161z"/>
  <path id="svg_24" fill="#373D4B" d="m166.676,183.339l0.348,-3.093l14.297,1.61l-0.349,3.093l-14.296,-1.61z"/>
  <path id="svg_25" fill="#373D4B" d="m163.676,201.89l0.348,-3.094l14.297,1.611l-0.349,3.093l-14.296,-1.61z"/>
  <path id="svg_26" fill="#373D4B" d="m373.676,368.5l0,-21l46,0l0,21l-46,0z"/>
  <path id="svg_27" fill="#373D4B" d="m443.676,319.5l0,-20l43,0l0,20l-43,0z"/>
  <path id="svg_28" fill="#373D4B" d="m457.676,328.5l0,-20l29,0l0,20l-29,0z"/>
  <path id="svg_29" fill="#373D4B" d="m466.676,335.5l0,-20l20,0l0,20l-20,0z"/>
  <path id="svg_30" fill="#373D4B" d="m468.676,422.5l0,-16l18,0l0,16l-18,0z"/>
  <path id="svg_31" fill="#373D4B" d="m475.676,407.5l0,-10l11,0l0,10l-11,0z"/>
  <path id="svg_32" fill="#373D4B" d="m467.676,528.5l0,-18l10,0l0,18l-10,0z"/>
  <path id="svg_33" fill="#373D4B" d="m555.676,590.5l0,-10l17,0l0,10l-17,0z"/>
  <path id="svg_34" fill="#373D4B" d="m581.676,578.5l0,-9l34,0l0,9l-34,0z"/>
  <path id="svg_35" fill="#373D4B" d="m588.676,573.5l0,-21l27,0l0,21l-27,0z"/>
  <path id="svg_36" fill="#373D4B" d="m588.676,534.5l0,-21l9,0l0,21l-9,0z"/>
  <path id="svg_37" fill="#373D4B" d="m607.676,494.5l0,-24l13,0l0,24l-13,0z"/>
  <path id="svg_38" fill="#373D4B" d="m593.676,433.5l0,-28l9,0l0,28l-9,0z"/>
  <path id="svg_39" fill="#373D4B" d="m519.676,395.5l0,-91l23,0l0,91l-23,0z"/>
  <path id="svg_40" fill="#373D4B" d="m542.676,395.5l0,-22l30,0l0,22l-30,0z"/>
  <path id="svg_41" fill="#373D4B" d="m579.676,319.5l0,-15l16,0l0,15l-16,0z"/>
  <path id="svg_42" fill="#373D4B" d="m709.676,349.5l0,-28l10,0l0,28l-10,0z"/>
  <path id="svg_43" fill="#373D4B" d="m679.676,269.5l0,-28l13,0l0,28l-13,0z"/>
  <path id="svg_44" fill="#373D4B" d="m655.676,203.5l0,-20l17,0l0,20l-17,0z"/>
  <path id="svg_45" fill="#373D4B" d="m589.676,203.5l0,-11l27,0l0,11l-27,0z"/>
  <path id="svg_46" fill="#373D4B" d="m607.676,193.5l0,-8l9,0l0,8l-9,0z"/>
  <path id="svg_47" fill="#373D4B" d="m607.676,129.5l0,-25l9,0l0,25l-9,0z"/>
  <path id="svg_48" fill="#373D4B" d="m681.676,154.5l0,-10l14,0l0,10l-14,0z"/>
  <path id="svg_49" fill="#373D4B" d="m691.676,75.5l0,-10l16,0l0,10l-16,0z"/>
  <path id="svg_50" fill="#373D4B" d="m691.676,80.5l0,-10l6,0l0,10l-6,0z"/>
  <path id="svg_51" fill="#373D4B" d="m614.676,71.5l0,-4l4,0l0,4l-4,0z"/>
  <path id="svg_52" fill="#373D4B" d="m723.676,346.5l0,-18l9,0l0,18l-9,0z"/>
  <path id="svg_53" fill="#373D4B" d="m604.676,309.5l0,-5l12,0l0,5l-12,0z"/>
  <path id="svg_54" fill="#373D4B" d="m599.107,365.346l1.867,-0.717l6.819,17.734l-1.867,0.718l-6.819,-17.735z"/>
  <path id="svg_55" fill="#373D4B" d="m650.676,121.5c4.418,0 8,3.582 8,8c0,4.418 -3.582,8 -8,8c-4.418,0 -8,-3.582 -8,-8c0,-4.418 3.582,-8 8,-8z"/>
  <path id="svg_56" fill="#373D4B" d="m322.676,392.985l4.924,-12.031l3.702,1.515l-4.924,12.031l-3.702,-1.515z"/>
  <path id="svg_57" fill="#373D4B" d="m329.676,375.985l1.612,-3.94l3.702,1.515l-1.612,3.94l-3.702,-1.515z"/>
  <path id="svg_58" fill="#373D4B" d="m316.676,410.088l3.875,-1.763l5.193,11.412l-3.875,1.763l-5.193,-11.412z"/>
  <path id="svg_59" fill="#373D4B" d="m323.676,425.474l3.875,-1.763l2.287,5.026l-3.875,1.763l-2.287,-5.026z"/>
  <path id="svg_60" fill="#373D4B" d="m382.676,495.5l-15,-34l3,0l14,0l1.765,4l13.235,30l-17,0z"/>
  <path id="svg_61" fill="#373D4B" d="m358.676,443l9,18.5l3,0l-9,-18.5l-3,0z"/>
  <path id="svg_62" fill="#373D4B" d="m419.176,465.5l0,-4l-34.5,0l1.765,4l32.735,0z"/>
  <path id="svg_63" fill="#373D4B" d="m469.676,113.5l0,-14l14,0l0,14l-14,0z"/>
  <path id="svg_64" fill="#373D4B" d="m469.676,101.5l0,-7l7,0l0,7l-7,0z"/>
  <path id="svg_65" fill="#373D4B" d="m514.676,81.5l0,-24l8,0l0,24l-8,0z"/>
  <path id="svg_66" fill="#373D4B" d="m512.676,73.5l0,-8l3,0l0,8l-3,0z"/>
  <path id="svg_67" fill="#373D4B" d="m512.676,63.5l0,-6l2,0l0,6l-2,0z"/>
  <path id="svg_68" fill="url(#paint0_linear_84_389)" d="m220.7,381.98c-1.096,0.84 -2.665,0.631 -3.505,-0.465c-0.839,-1.097 -0.63,-2.666 0.466,-3.505l17.434,-13.343c1.097,-0.84 2.666,-0.631 3.505,0.465c0.839,1.097 0.631,2.666 -0.466,3.505l-17.434,13.343z"/>
  <path id="svg_69" fill="#454545" d="m695.676,200.5l0,-58l3,0l0,58l-3,0z"/>
  <path id="svg_70" fill="#454545" d="m716.676,145.5l0,-55l3,0l0,55l-3,0z"/>
  <path id="svg_71" fill="#454545" d="m719.676,383.5l0,-111l4,0l0,111l-4,0z"/>
  <path id="svg_72" fill="#454545" d="m572.676,297.5l0,-14l4,0l0,14l-4,0z"/>
  <path id="svg_73" fill="#454545" d="m577.176,242.915l0.152,13.999l-3.908,0l-0.244,-13.956l4,-0.043z"/>
  <path id="svg_74" fill="#454545" d="m564.676,274.5l8,9l4,0l-9.5,-10.5l-2.5,1.5z"/>
  <path id="svg_75" fill="#454545" d="m587.235,266.66l-9.962,-9.776l-3.842,0l10.842,11.384l2.962,-1.608z"/>
  <path id="svg_76" fill="#454545" d="m719.676,145.5l-24,0l0,-3l24,0l0,3z"/>
  <path id="svg_77" fill="#454545" d="m532.676,242.5l0,-9l2,0l0,9l-2,0z"/>
  <path id="svg_78" fill="#454545" d="m333.676,111.5l0,-2l32,0l0,2l-32,0z"/>
  <path id="svg_79" fill="#454545" d="m384.676,111.5l0,-2l5,0l0,2l-5,0z"/>
  <path id="svg_80" fill="#454545" d="m322.676,113.5l0,-4l4,0l0,4l-4,0z"/>
  <path id="svg_81" fill="#454545" d="m352.676,155.5l0,-2l5,0l0,2l-5,0z"/>
  <path id="svg_82" fill="#454545" d="m371.676,155.5l0,-2l5,0l0,2l-5,0z"/>
  <path id="svg_83" fill="#454545" d="m233.676,363.5l0,-4l2,0l0,4l-2,0z"/>
  <path id="svg_84" fill="#454545" d="m238.301,369.731l1,-1l1,1l0,2l-2,-2z"/>
  <path id="svg_85" fill="#454545" d="m198.198,382.5l-3.522,-10.421l1.895,-0.64l3.522,10.421l-1.895,0.64z"/>
  <path id="svg_86" fill="#454545" d="m209.676,401.286l-6.746,-8.689l1.58,-1.226l6.746,8.689l-1.58,1.226z"/>
  <path id="svg_87" fill="#454545" d="m415.676,461.5l0,-21l3.5,0l0,21l-3.5,0z"/>
  <path id="svg_88" fill="#454545" d="m507.676,617.5l0,-2l31,0l0,2l-31,0z"/>
  <path id="svg_89" fill="#454545" d="m566.676,619.5l0,-4l7,0l0,4l-7,0z"/>
  <path id="svg_90" fill="#282C34" d="m374.676,443.5l0,-3l41,0l0,3l-41,0z"/>
  <path id="svg_91" fill="#282C34" d="m351.676,206.5l0,-3l27,0l0,3l-27,0z"/>
  <path id="svg_92" fill="#282C34" d="m352.676,134.5l0,-3l23,0l0,3l-23,0z"/>
  <path id="svg_93" fill="#282C34" d="m534.676,230.5l0,-3l39,0l0,3l-39,0z"/>
  <path id="svg_94" fill="#282C34" d="m723.676,225.5l0,-3l32,0l0,3l-32,0z"/>
  <path id="svg_95" fill="#282C34" d="m656.676,310.5l3,0l0,25l-3,0l0,-25z"/>
  <path id="svg_96" fill="#282C34" d="m353.676,79.5l3,0l0,30l-3,0l0,-30z"/>
  <path id="svg_97" fill="#282C34" d="m352.676,127.5l0,-3l23,0l0,3l-23,0z"/>
  <path id="svg_98" fill="#282C34" d="m534.676,223.5l0,-3l39,0l0,3l-39,0z"/>
  <path id="svg_99" fill="#282C34" d="m723.676,218.5l0,-3l32,0l0,3l-32,0z"/>
  <path id="svg_100" fill="#282C34" d="m663.676,310.5l3,0l0,25l-3,0l0,-25z"/>
  <path id="svg_101" fill="#282C34" d="m534.676,216.5l0,-3l39,0l0,3l-39,0z"/>
  <path id="svg_102" fill="#282C34" d="m534.676,203.5l0,-3l28,4l0,2l-28,-3z"/>
  <path id="svg_103" fill="#282C34" d="m538.176,195.5l1,-3l23.5,8l0,1l-24.5,-6z"/>
  <path id="svg_104" fill="#282C34" d="m542.462,189.637l1.162,-2.243l17.004,9.316l-0.131,0.79l-18.035,-7.863z"/>
  <path id="svg_105" fill="#282C34" d="m723.676,211.5l0,-3l32,0l0,3l-32,0z"/>
  <path id="svg_106" fill="#282C34" d="m670.676,310.5l3,0l0,25l-3,0l0,-25z"/>
  <path id="svg_107" fill="#282C34" d="m360.676,79.5l3,0l0,30l-3,0l0,-30z"/>
  <path id="svg_108" fill="#282C34" d="m299.586,351.689l1.266,-2.72l30.799,14.341l-1.266,2.72l-30.799,-14.341z"/>
  <path id="svg_109" fill="#282C34" d="m339.159,471.001l-1.114,-2.786l25.848,-10.339l1.114,2.786l-25.848,10.339z"/>
  <path id="svg_110" fill="#282C34" d="m302.676,344.16l1.266,-2.72l30.8,14.34l-1.266,2.72l-30.8,-14.34z"/>
  <path id="svg_111" fill="#282C34" d="m335.79,463.591l-1.114,-2.785l26.026,-10.41l1.114,2.785l-26.026,10.41z"/>
  <path id="svg_112" fill="#282C34" d="m374.676,450.5l0,-3l41,0l0,3l-41,0z"/>
  <path id="svg_113" fill="#282C34" d="m351.676,213.5l0,-3l27,0l0,3l-27,0z"/>
  <path id="svg_114" fill="#282C34" d="m352.676,141.5l0,-3l23,0l0,3l-23,0z"/>
  <path id="svg_115" fill="#282C34" d="m534.676,237.5l0,-3l39,0l0,3l-39,0z"/>
  <path id="svg_116" fill="#282C34" d="m723.676,232.5l0,-3l32,0l0,3l-32,0z"/>
  <path id="svg_117" fill="#282C34" d="m649.676,310.5l3,0l0,25l-3,0l0,-25z"/>
  <path id="svg_118" fill="#282C34" d="m346.676,79.5l3,0l0,30l-3,0l0,-30z"/>
  <path id="svg_119" fill="#282C34" d="m339.676,79.5l3,0l0,30l-3,0l0,-30z"/>
  <path id="svg_120" fill="#282C34" d="m378.676,215.5l0,-12l4,0l0,12l-4,0z"/>
  <path id="svg_121" fill="#282C34" d="m296.631,358.035l1.266,-2.72l30.834,14.357l-1.266,2.719l-30.834,-14.356z"/>
  <path id="svg_122" fill="#282C34" d="m341.759,477.5l-1.114,-2.785l25.848,-10.339l1.114,2.785l-25.848,10.339z"/>
  <path id="svg_123" fill="#282C34" d="m374.676,457.5l0,-3l41,0l0,3l-41,0z"/>
  <path id="svg_124" fill="#282C34" d="m336.424,622.5l-1.748,-2.438l33.323,-23.887l1.748,2.438l-33.323,23.887z"/>
  <path id="svg_125" fill="#282C34" d="m340.424,628.5l-1.748,-2.438l33.323,-23.887l1.748,2.438l-33.323,23.887z"/>
  <path id="svg_126" fill="#282C34" d="m344.511,634.5l-1.835,-2.374l32.44,-25.073l1.835,2.374l-32.44,25.073z"/>
  <path id="svg_127" fill="#282C34" d="m349.012,640.039l-1.919,-2.307l31.522,-26.217l1.918,2.306l-31.521,26.218z"/>
  <path id="svg_128" fill="#282C34" d="m354.742,646.602l-2.091,-2.151l29.4,-28.577l2.091,2.151l-29.4,28.577z"/>
  <path id="svg_129" fill="#282C34" d="m360.338,651.989l-2.168,-2.073l28.335,-29.633l2.169,2.073l-28.336,29.633z"/>
  <path id="svg_130" fill="#282C34" d="m367.857,656.449l-2.305,-1.92l25.368,-30.45l2.305,1.921l-25.368,30.449z"/>
  <path id="svg_131" fill="#282C34" d="m376.301,660.441l-2.47,-1.702l22.514,-32.682l2.47,1.702l-22.514,32.682z"/>
  <path id="svg_132" fill="#282C34" d="m383.877,663.453l-2.577,-1.536l19.696,-33.043l2.577,1.536l-19.696,33.043z"/>
  <path id="svg_133" fill="#282C34" d="m390.398,666.19l-2.641,-1.423l18.459,-34.261l2.641,1.423l-18.459,34.261z"/>
  <path id="svg_134" fill="#282C34" d="m397.392,668.5l-2.716,-1.274l16.249,-34.644l2.716,1.274l-16.249,34.644z"/>
  <path id="svg_135" fill="#282C34" d="m405.484,670.5l-2.808,-1.055l13.151,-35l2.809,1.055l-13.152,35z"/>
  <path id="svg_136" fill="#282C34" d="m414.827,671.549l-2.901,-0.761l9.235,-35.215l2.902,0.761l-9.236,35.215z"/>
  <path id="svg_137" fill="#282C34" d="m424.109,672.219l-2.952,-0.533l6.338,-35.085l2.952,0.534l-6.338,35.084z"/>
  <path id="svg_138" fill="#282C34" d="m431.626,672.567l-2.978,-0.368l4.368,-35.383l2.977,0.367l-4.367,35.384z"/>
  <path id="svg_139" fill="#282C34" d="m438.952,673.045l-2.996,-0.147l1.763,-36.151l2.996,0.146l-1.763,36.152z"/>
  <path id="svg_140" fill="#282C34" d="m446.391,673.461l-3,-0.027l0.33,-36.193l3,0.027l-0.33,36.193z"/>
  <path id="svg_141" fill="#282C34" d="m453.676,673.5l-3,-0.027l0.331,-36.193l2.999,0.027l-0.33,36.193z"/>
  <path id="svg_142" fill="#282C34" d="m293.676,364.381l1.266,-2.72l30.325,14.119l-1.267,2.72l-30.324,-14.119z"/>
  <path id="svg_143" fill="#282C34" d="m369.676,461.5l-9,-21l14,0l4,21l-9,0z"/>
  <path id="svg_144" fill="#454545" d="m0,317.762l20.3971,-99.946l47.9927,9.999l5.5026,-28.014l36.0496,8.011l4.608,-18.432l-2.671,-2.137l27.463,-47.298l0.037,-0.049c2.61,-3.447 4.925,-5.802 7.71,-7.22c2.798,-1.425 5.954,-1.847 10.128,-1.675l0.039,0.001l49.612,5.895l5.881,-30.874l0.203,-0.213c3.423,-3.59 6.166,-6.0636 8.991,-7.9993c2.831,-1.9392 5.708,-3.3139 9.37,-4.7423l0.175,-0.0684l31.944,0l5.744,-19.1468l0,-56.3532l52.5,0l0,-17.5l41.5,0l0,22.5l97.796,0l37,24l44.704,0l0,74.5l63,0l0,-49l4.5,0l0,-4.5l-4.5,0l0,-27.5l114,0l0,27.5l-2.5,0l0,1.5l40.5,0l0,109.5l-35.5,0l0,6l35.5,0l0,53.5l-2.5,0l0,1l17,0l0,176l-98.5,0l0,-79l-45,0l0,98.5l-67,0l0,2l60,0l0,3.5l15.5,0l0,139.5l-63,0l0,74l-55.5,0l0,-7.5l-2.5,0l0,28.5l-66.014,0l-0.014,0c-47.961,-1.366 -78.787,-9.924 -99.217,-30.007c-20.406,-20.061 -30.239,-51.43 -36.745,-97.854l-0.056,-0.4l3.534,-4.86l-107.513,-52.022l-12.678,-9.635l-61.86,-76.948l8.916,-51.02l-42.133,-10.054l-11.0091,42.033l-56.3593,-15.512l7.4917,-40.955l-42.5193,-9.504zm717.176,-246.762l0,3.5l-10,0l0,-9l10.5,0l0,-23.5l-110,0l0,23.5l4.5,0l0,8.5l-4.5,0l0,49l-67,0l0,-74.5l-43.296,0l-37,-24l-99.204,0l0,-22.5l-37.5,0l0,17.5l-52.5,0l0,54.6468l-6.256,20.8532l-33.055,0c-3.497,1.3721 -6.176,2.6689 -8.791,4.4607c-2.611,1.7883 -5.193,4.0933 -8.471,7.5163l-6.119,32.126l-51.388,-6.105c-3.989,-0.161 -6.742,0.26 -9.1,1.46c-2.367,1.206 -4.451,3.256 -6.986,6.597l-26.537,45.702l2.329,1.863l-5.392,21.567l-35.9502,-7.988l-5.4974,27.986l-48.0073,-10.001l-19.60294,96.054l42.48064,9.496l-7.5082,41.045l52.6406,14.488l10.9918,-41.967l45.866,10.946l-9.084,51.98l61.14,76.052l12.323,9.365l109.486,52.978l-4.465,6.14c6.5,46.16 16.274,76.806 36.11,96.305c19.869,19.532 50.035,28.07 97.857,29.434l13.986,0l0,-7l3.5,0l0,7l46.5,0l0,-28.5l6.5,0l0,7.5l51.5,0l0,-74l63,0l0,-135.5l-15.5,0l0,-3.5l-60,0l0,-6l67,0l0,-98.5l49,0l0,79l94.5,0l0,-172l-17,0l0,-5l2.5,0l0,-49.5l-35.5,0l0,-10l35.5,0l0,-105.5l-38.5,0zm-2,-3.5l-6,0l0,5l6,0l0,-5zm-602.204,223.765l21.961,-94.484l45.459,11.495l-23.484,92.404l-43.936,-9.415zm2.408,-1.53l40.064,8.585l22.516,-88.596l-41.541,-10.505l-21.039,90.516zm75.282,43.659l21.893,-70.262l44.845,19.816l-19.746,62.278l-2.087,14.082l-3.547,0.887l-0.467,-1.403l-37.252,13.592l-3.639,-38.99zm5.389,36.222l36.749,-13.408l0.532,1.597l0.453,-0.113l1.914,-12.918l19.253,-60.722l-41.155,-18.184l-21.107,67.738l3.361,36.01zm13.263,31.342l30.83,-31.352l55.149,51.139l15.081,-9.479l23.302,-56.464l0,-23.802l6.5,0l0,21l-1.5,0l0,3.2l-24.053,57.793l28.863,67.019l-6.342,2.819l-5.999,-14.498l-18.255,8.167l-5.432,0l-53.895,-24.681l-44.249,-50.861zm104.208,9.477l23.154,-55.635l0,-4.8l1.5,0l0,-17l-2.5,0l0,22.198l-22.482,54.476l0.328,0.761zm-1.302,2.033l-17.161,10.787l-54.851,-50.861l-28.17,28.648l42.751,49.139l53.105,24.319l4.569,0l19.744,-8.833l6.001,14.502l2.659,-1.181l-28.647,-66.52zm-94.777,-170.382l30.919,-98.242l-15.686,-1.961l0,-18.576l2.323,-5.807l23.443,0l-5.078,21.33l25.103,8.033l-31.022,86.56l25.539,10.016l-7.255,17.857l-48.286,-19.21zm2.466,-1.172l44.714,17.79l5.746,-14.143l-25.462,-9.984l30.979,-86.44l-24.897,-7.967l4.921,-20.67l-19.557,0l-1.677,4.193l0,16.424l16.314,2.039l-31.081,98.758zm58.853,-22.414l21.126,-59.771l19.105,-7.229l22.183,0l0,2.25l4,0l0,-43.75l8.511,0l-0.521,50l-6.49,0l0,-4.25l-5.5,0l0,2.25l-21.819,0l-15.377,5.766l-17.575,54.734l-7.643,0zm68.414,-64.75l1.5,0l0,4.25l2.51,0l0.48,-46l-4.49,0l0,41.75zm-65.586,62.75l3.357,0l17.425,-54.266l16.623,-6.234l20.181,0l0,-2.5l-19.817,0l-17.895,6.771l-19.874,56.229zm5.083,149l58.503,-139.701l0,-23.799l7,0l0,43.5l31.5,0l0,5l-42.817,0c-3.54,9.055 -6.729,17.324 -9.731,25.112c-11.967,31.038 -20.98,54.418 -37.549,89.317l-0.271,0.571l-6.635,0zm3.006,-2l2.365,0c16.361,-34.511 25.312,-57.728 37.209,-88.584c3.074,-7.975 6.345,-16.459 9.992,-25.78l0.248,-0.636l42.183,0l0,-1l-31.5,0l0,-43.5l-3,0l0,22.201l-57.497,137.299zm43.497,-284l0,-6.5l117.54,0l19.46,29.702l0,70.298l29.5,0l0,-14l47.5,0l0,23.803l-12,18l0,33.197l-54.5,0l0,-23.973l-73.5,1.947l0,38.526l-8.5,0l0,-5l2.5,0l0,-43.5l-21,0l0,-46.25l-4.5,0l0,-33.25l13,0l0,-43l-55.5,0zm2,-2l55.5,0l0,47l-13,0l0,29.25l4.5,0l0,46.25l21,0l0,47.5l-2.5,0l0,1l4.5,0l0,-38.474l77.5,-2.053l0,24.027l50.5,0l0,-31.803l12,-18l0,-21.197l-43.5,0l0,14l-33.5,0l0,-71.702l-18.54,-28.298l-114.46,0l0,2.5zm11.382,434l7.263,0l16.961,37.414l64.755,-8.277l-7.52,-50.637l4.525,0l5.986,41.406l57.507,-6.001l12.788,93.095l-41.147,0l0,26.5l-3.5,0l0,-6.961c-24.655,0.905 -43.933,-0.819 -59.004,-6.093c-15.326,-5.362 -26.272,-14.386 -34.09,-27.947l-0.019,-0.033l-0.017,-0.035c-7.709,-16.134 -11.751,-38.675 -16.719,-68.931l-5.151,0l0,-4.5l6.882,0l-9.5,-19zm3.236,2l9.5,19l-8.118,0l0,0.5l4.849,0l0.138,0.838c5.044,30.75 9.051,53.228 16.671,69.196c7.57,13.114 18.125,21.82 32.999,27.025c14.931,5.224 34.243,6.93 59.304,5.942l0.539,-0.021l0,-19.48l40.853,0l-12.212,-88.905l-57.493,5.999l-6.014,-41.594l-0.474,0l7.479,50.363l-68.245,8.723l-17.039,-37.586l-2.737,0zm62.382,-78l0,-11.46l74,-3l0,-124.04l19,0l0,-8.5l12,0l0,8.5l158.5,0l0,6.5l-39.197,0l-0.803,0.535l0,5.465l-18,0l0,-5l-97.5,0l0,89l1.5,0l0,5.5l-31,0l0,33.5l5.5,0l0,6l-58.5,0l0,2l-21.5,0l0,-5l-4,0zm23.5,3l0,-2l58.5,0l0,-2l-5.5,0l0,-37.5l31,0l0,-1.5l-1.5,0l0,-93l101.5,0l0,5l14,0l0,-4.535l2.197,-1.465l37.803,0l0,-2.5l-158.5,0l0,-8.5l-8,0l0,8.5l-19,0l0,123.96l-74,3l0,7.54l4,0l0,5l17.5,0zm76.5,0l0,-6l29,0l0,6l-7.5,0l0,25.071l9.9,9.429l9.04,0l11.56,12.611l0,20.317l-11.599,11.072l-20.249,0l-12.652,-10.016l0,-68.484l-7.5,0zm2,-2l7.5,0l0,69.516l11.348,8.984l18.751,0l10.401,-9.928l0,-18.683l-10.44,-11.389l-8.96,0l-11.1,-10.571l0,-27.929l7.5,0l0,-2l-25,0l0,2zm0,187l0,-8l6.5,0l0,8l-6.5,0zm2,-2l2.5,0l0,-4l-2.5,0l0,4zm57,-378.5l0,-39.5l121,0l0,-3l6,0l0,7.5l23.5,0l0,28l7,0l0,7l-157.5,0zm2,-2l153.5,0l0,-3l-7,0l0,-28l-23.5,0l0,-7.5l-2,0l0,3l-121,0l0,35.5zm83.5,-167l0,-8.5l9.5,0l0,8.5l-9.5,0zm2,-2l5.5,0l0,-4.5l-5.5,0l0,4.5z" clip-rule="evenodd" fill-rule="evenodd"/>
  <path id="svg_145" fill-opacity="0.1" fill="#D9D9D9" d="m352.676,168l0,-3l18,18.5l0,3l-18,-18.5z"/>
  <path id="svg_146" fill-opacity="0.1" fill="#D9D9D9" d="m352.676,159l0,-3l18,18.5l0,3l-18,-18.5z"/>
  <path id="svg_147" fill-opacity="0.1" fill="#D9D9D9" d="m370.676,164.5l0,3l-12,-12.333l2.919,0l9.081,9.333z"/>
  <path id="svg_148" fill-opacity="0.1" fill="#D9D9D9" d="m352.676,196.167l0,-3l9.5,9.333l-2.919,0l-6.581,-6.333z"/>
  <path id="svg_149" fill-opacity="0.1" fill="#D9D9D9" d="m352.676,177l0,-3l18,18.5l0,3l-18,-18.5z"/>
  <path id="svg_150" fill-opacity="0.1" fill="#D9D9D9" d="m352.676,186l0,-3l18,18.5l0,1l-1.946,0l-16.054,-16.5z"/>
  <path id="svg_151" fill-opacity="0.1" fill="#D9D9D9" d="m345.393,482.505l34.916,16.252l1.581,-1.05l-0.377,-0.814l-35.204,-16.386l-1.633,0.452l0.717,1.546z"/>
  <path id="svg_152" fill-opacity="0.1" fill="#D9D9D9" d="m377.209,487.618l1.435,3.091l-27.335,-12.723l3.168,-0.95l22.732,10.582z"/>
  <path id="svg_153" fill-opacity="0.1" fill="#D9D9D9" d="m372.907,478.342l1.434,3.092l-14.032,-6.532l3,-1.028l9.598,4.468z"/>
  <path id="svg_154" fill-opacity="0.1" fill="#D9D9D9" d="m349.696,491.781l-1.434,-3.092l27.047,12.59l-3.471,0.808l-22.142,-10.306z"/>
  <path id="svg_155" fill-opacity="0.1" fill="#D9D9D9" d="m354.477,502.087l-1.434,-3.092l12.518,5.827l-3.752,0.678l-7.332,-3.413z"/>
  <path id="svg_156" fill-opacity="0.1" fill="#D9D9D9" d="m394.855,470.583l25.059,18.336l1.416,-0.582l-0.171,-0.703l-25.266,-18.487l-1.363,0.101l0.325,1.335z"/>
  <path id="svg_157" fill-opacity="0.1" fill="#D9D9D9" d="m419.213,479.623l0.649,2.67l-19.619,-14.355l2.655,-0.253l16.315,11.938z"/>
  <path id="svg_158" fill-opacity="0.1" fill="#D9D9D9" d="m417.267,471.612l0.649,2.67l-10.071,-7.369l2.534,-0.342l6.888,5.041z"/>
  <path id="svg_159" fill-opacity="0.1" fill="#D9D9D9" d="m396.801,478.594l-0.649,-2.67l19.412,14.204l-2.871,0.094l-15.892,-11.628z"/>
  <path id="svg_160" fill-opacity="0.1" fill="#D9D9D9" d="m398.963,487.496l-0.649,-2.671l8.985,6.574l-3.074,-0.053l-5.262,-3.85z"/>
  <path id="svg_161" fill="#FF6B00" d="m64.116,287.492l0,-15.072l-5.448,0l0,-1.896l12.984,0l0,1.896l-5.448,0l0,15.072l-2.088,0z"/>
  <path id="svg_162" fill="#0085FF" d="m710.132,338.868l-2.088,0l0,-16.968l2.088,0l0,7.824l2.52,0l5.52,-7.824l2.4,0l-6.096,8.424l6.144,8.544l-2.472,0l-5.328,-7.248l-2.688,0l0,7.248z"/>
  <path id="svg_163" fill="#0085FF" d="m728.828,338.868l-2.088,0l0,-15.072l-5.448,0l0,-1.896l12.984,0l0,1.896l-5.448,0l0,15.072z"/>
  <path id="svg_164" fill-opacity="0.2" fill="#7000FF" d="m608.676,533.5l-74,0l0,-83l74,0l0,83z"/>
  <path id="svg_165" fill-opacity="0.08" fill="white" d="m536.676,531.5l70,0l0,-79l-70,0l0,79zm72,2l0,-83l-74,0l0,83l74,0z" clip-rule="evenodd" fill-rule="evenodd"/>
  <path id="svg_166" fill="white" d="m563.675,502.499l0,-20.532l9.106,0c0.947,0 1.817,0.096 2.61,0.29c0.812,0.193 1.518,0.541 2.117,1.044c0.483,0.386 0.889,0.899 1.218,1.537c0.348,0.618 0.522,1.372 0.522,2.262c0.019,0.947 -0.155,1.788 -0.522,2.523c-0.348,0.734 -0.947,1.353 -1.798,1.856c0.599,0.174 1.112,0.435 1.537,0.783c0.425,0.348 0.764,0.754 1.015,1.218c0.271,0.464 0.464,0.966 0.58,1.508c0.116,0.541 0.164,1.102 0.145,1.682c-0.039,0.928 -0.29,1.788 -0.754,2.581c-0.445,0.773 -1.034,1.401 -1.769,1.885c-0.87,0.599 -1.827,0.976 -2.871,1.131c-1.044,0.154 -2.078,0.232 -3.103,0.232l-8.033,0zm7.917,-12.209c0.425,0 0.851,-0.02 1.276,-0.058c0.425,-0.058 0.822,-0.194 1.189,-0.406c0.309,-0.194 0.57,-0.455 0.783,-0.783c0.213,-0.329 0.329,-0.716 0.348,-1.16c0.019,-0.464 -0.058,-0.841 -0.232,-1.131c-0.174,-0.29 -0.387,-0.513 -0.638,-0.667c-0.309,-0.194 -0.667,-0.3 -1.073,-0.319c-0.406,-0.039 -0.822,-0.058 -1.247,-0.058l-4.118,0l0,4.582l3.712,0zm-3.712,8.497l3.828,0c0.561,0 1.15,-0.029 1.769,-0.087c0.638,-0.078 1.179,-0.281 1.624,-0.609c0.271,-0.213 0.493,-0.474 0.667,-0.783c0.174,-0.329 0.261,-0.735 0.261,-1.218c0,-0.445 -0.097,-0.822 -0.29,-1.131c-0.193,-0.31 -0.435,-0.542 -0.725,-0.696c-0.329,-0.213 -0.706,-0.339 -1.131,-0.377c-0.406,-0.039 -0.831,-0.058 -1.276,-0.058l-4.727,0.029l0,4.93z"/>
  <path id="svg_167" fill-opacity="0.2" fill="#7000FF" d="m691.676,153.5l-84,0l0,-76.0002l84,0l0,76.0002z"/>
  <path id="svg_168" fill-opacity="0.08" fill="white" d="m609.676,151.5l80,0l0,-72.0002l-80,0l0,72.0002zm82,2l0,-76.0002l-84,0l0,76.0002l84,0z" clip-rule="evenodd" fill-rule="evenodd"/>
  <path id="svg_169" fill="white" d="m645.737,121.585l-1.479,3.915l-4.582,0l7.946,-20.532l4.756,0l7.83,20.532l-4.611,0l-1.421,-3.915l-8.439,0zm1.218,-3.712l5.974,0l-2.958,-8.439l-3.016,8.439z"/>
  <rect id="svg_170" height="12.68293" width="7.31707" y="159.57697" x="333.0147" className="map-rect"/>
  <rect id="svg_171" height="8.29268" width="6.82927" y="247.38185" x="327.16104" className="map-rect"/>
  <rect id="svg_172" height="20" width="6.34146" y="171.28429" x="334.96592" className="map-rect"/>
  <rect id="svg_173" height="15.60976" width="7.80488" y="239.57697" x="329.11226" className="map-rect"/>
  <rect id="svg_174" height="14.02715" width="1.58371" y="177.50915" x="341.25367" className="map-rect"/>
  <rect id="svg_175" height="10.85973" width="7.23982" y="191.31005" x="336.72878" className="map-rect"/>
  <rect id="svg_176" height="14.70588" width="8.14479" y="200.58607" x="337.86" className="map-rect"/>
  <rect id="svg_177" height="18.32579" width="9.04977" y="201.94353" x="383.10886" className="map-rect"/>
  <rect id="svg_178" height="9.95475" width="6.78733" y="215.51819" x="338.99123" className="map-rect"/>
  <rect id="svg_179" height="5.88235" width="6.78733" y="233.61773" x="332.65639" className="map-rect"/>
  <rect id="svg_180" height="3.16742" width="2.48869" y="239.0476" x="336.27629" className="map-rect"/>
  <rect id="svg_181" height="6.1086" width="6.1086" y="225.69918" x="338.99123" className="map-rect"/>
  <rect id="svg_182" height="4.97737" width="5.20362" y="229.99782" x="336.72878" className="map-rect"/>
  <rect id="svg_183" height="47.5113" width="27.14932" y="155.33721" x="353.01837" className="map-rect"/>
  <rect id="svg_184" height="24.66063" width="14.93212" y="19.59063" x="305.28083" className="map-rect"/>
  <rect id="svg_185" height="21.26696" width="44.34388" y="298.77609" x="443.28985" className="map-rect"/>
  <rect id="svg_186" height="8.82353" width="31.22171" y="318.68559" x="457.09075" className="map-rect"/>
  <rect id="svg_187" height="9.27602" width="21.9457" y="326.15165" x="466.36677" className="map-rect"/>
  <rect id="svg_188" height="14.93212" width="18.09954" y="406.69462" x="469.0817" className="map-rect"/>
  <rect id="svg_189" height="10.63348" width="11.7647" y="397.64485" x="475.86903" className="map-rect"/>
  <rect id="svg_192" height="13.8009" width="24.88687" y="467.32809" x="343.9686" className="map-rect"/>
  <rect id="svg_193" height="9.04977" width="5.88235" y="468.23307" x="339.21747" className="map-rect"/>
  <rect id="svg_194" height="4.29864" width="17.42081" y="463.48194" x="351.43466" className="map-rect"/>
  <rect id="svg_195" height="12.44344" width="6.33484" y="468.68556" x="367.72425" className="map-rect"/>
  <rect id="svg_196" height="7.46606" width="30.54298" y="481.12899" x="343.74236" className="map-rect"/>
  <rect id="svg_197" height="7.91855" width="34.38913" y="487.91632" x="345.32607" className="map-rect"/>
  <rect id="svg_198" height="10.40724" width="6.56108" y="477.73533" x="372.02289" className="map-rect"/>
  <rect stroke="#000" id="svg_199" height="6.78733" width="33.25791" y="495.38238" x="348.26724" fill="#ff0000"/>
  <rect id="svg_200" height="9.7285" width="29.638" y="499.68103" x="353.01837" className="map-rect"/>
  <rect id="svg_201" height="8.37104" width="5.88235" y="501.94347" x="348.71973" className="map-rect"/>
  <rect id="svg_202" height="11.7647" width="26.01809" y="496.51361" x="382.43013" className="map-rect"/>
  <rect id="svg_203" height="4.97737" width="3.39366" y="491.08374" x="378.81022" className="map-rect"/>
  <rect id="svg_204" height="30.54298" width="12.44344" y="465.97063" x="400.52967" className="map-rect"/>
  <rect id="svg_205" height="4.75113" width="14.25339" y="465.06565" x="386.95502" className="map-rect"/>
  <rect id="svg_206" height="13.34841" width="6.33484" y="470.04302" x="396.00479" className="map-rect"/>
  <rect id="svg_207" height="9.27602" width="4.97737" y="469.36429" x="392.61112" className="map-rect"/>
  <rect id="svg_208" height="4.0724" width="3.61991" y="469.13805" x="390.12244" className="map-rect"/>
  <rect id="svg_209" height="6.1086" width="3.39366" y="481.35524" x="398.26723" className="map-rect"/>
  <rect id="svg_210" height="4.0724" width="4.0724" y="477.50909" x="394.19483" className="map-rect"/>
  <rect id="svg_211" height="3.39366" width="3.39366" y="471.62673" x="391.02741" className="map-rect"/>
  <rect id="svg_212" height="6.78733" width="3.16742" y="485.42764" x="398.94596" className="map-rect"/>
  <rect id="svg_213" height="5.20362" width="5.42986" y="481.12899" x="395.32606" className="map-rect"/>
  <rect id="svg_214" height="3.61991" width="2.94118" y="486.10637" x="397.13601" className="map-rect"/>
  <rect id="svg_215" height="2.48869" width="1.80995" y="493.11994" x="399.6247" className="map-rect"/>
  <rect id="svg_216" height="2.94118" width="1.13122" y="473.88918" x="391.4799" className="map-rect"/>
  <rect id="svg_217" height="3.16742" width="2.71493" y="479.77153" x="394.87357" className="map-rect"/>
  <rect id="svg_218" height="2.0362" width="1.80995" y="478.18782" x="392.15864" className="map-rect"/>
  <rect id="svg_219" height="1.35747" width="0.90498" y="470.04302" x="389.4437" className="map-rect"/>
  <rect id="svg_220" height="11.31221" width="6.33484" y="496.06112" x="406.63827" className="map-rect"/>
  <rect id="svg_221" height="42.08144" width="11.31221" y="465.97063" x="412.97311" className="map-rect"/>
  <rect id="svg_222" height="18.09954" width="11.31221" y="509.86202" x="467.27174" className="map-rect"/>
  <rect id="svg_223" height="20.79208" width="50" y="348.14742" x="372.74351" className="map-rect"/>
  <rect id="svg_225" height="26.23762" width="31.18812" y="552.60287" x="587.09995" className="map-rect"/>
  <rect id="svg_226" height="11.88119" width="16.83168" y="580.32564" x="556.40688" className="map-rect"/>
  <rect id="svg_227" height="25.24752" width="12.87129" y="469.9296" x="608.88213" className="map-rect"/>
  <rect id="svg_228" height="93.06931" width="27.72277" y="303.09792" x="518.28807" className="map-rect"/>
  <rect id="svg_229" height="23.26733" width="27.22772" y="373.89" x="546.01084" className="map-rect"/>
  <rect id="svg_230" height="15.34653" width="16.83168" y="303.09792" x="580.16925" className="map-rect"/>
  <rect id="svg_231" height="28.21782" width="10.39604" y="405.07811" x="594.03064" className="map-rect"/>
  <rect id="svg_232" height="4.9505" width="13.86139" y="303.59297" x="605.91183" className="map-rect"/>
  <rect id="svg_233" height="28.21782" width="14.85149" y="242.20683" x="679.67421" className="map-rect"/>
  <rect id="svg_234" height="21.28713" width="17.32673" y="183.79098" x="656.40688" className="map-rect"/>
  <rect id="svg_235" height="12.87129" width="25.24752" y="191.21673" x="591.55539" className="map-rect"/>
  <rect id="svg_236" height="7.42574" width="10.39604" y="185.27613" x="606.90193" className="map-rect"/>
  <rect id="svg_237" height="27.72277" width="39.10891" y="212.50386" x="535.6148" className="map-rect"/>
  <rect id="svg_238" height="24.75248" width="9.40594" y="105.57316" x="608.38708" className="map-rect"/>
  <rect id="svg_239" height="13.36634" width="13.86139" y="100.12762" x="470.76331" className="map-rect"/>
  <rect id="svg_240" height="24.75248" width="11.38614" y="58.04841" x="513.83262" className="map-rect"/>
  <rect id="svg_242" height="8.91089" width="17.32673" y="66.46425" x="692.05044" className="map-rect"/>
  <rect id="svg_243" height="16.83168" width="25.24752" y="142.20683" x="351.95143" className="map-rect"/>
  <rect id="svg_244" height="10.89109" width="22.77228" y="210.02861" x="432.14945" className="map-rect"/>
  <rect id="svg_245" height="8.41584" width="7.42574" y="211.51376" x="421.75341" className="map-rect"/>
 </g>
</svg>