<svg width="772.0000000000001" height="586" xmlns="http://www.w3.org/2000/svg" fill="none">

 <g>
  <title>Layer 1</title>
  <path id="svg_1" fill="#22262F" d="m69.22202,56.5l0,12l-62,0l0,26.5l-5.5,0l0,34.5l5.5,0l0,35.5l52,0l0,-12.5l47.5,0l0,11l0,1l0,0.5l-45.5,0l0,38.5l-12.5,0l0,56l12.5,0l0,66.5l-50.5,0l0,132.5l28,0l0,2.5l36,0l0,-2.5l25,0l0,-18l36.5,0l0,-27l31.5,0l0,27l2,0l0,41l131.5,0l0,67.5l83.5,0l0,-22.5l88,0l0,-20.5l132.5,0l0,78.5l82.5,0l0,-66l83.5,0l0,-106.5l-105,0l0,-79l-17.5,0l0,-48.5l14.5,0l0,-29l-85.5,0l0,-35.5l38.5,0l0,-132l-114,0l0,-87l-155,0l0,7l-46,0l0,57.5l-45.5,0l0,33l-49.5,0l0,-17.5l-45,0l0,23l-39,0l0,-47.5l-53,0zm83,228l21,0l0,18.5l33,37l8.5,0l0,94.5l47,0l0,-115.5l78,0l0,-66.5l-65,0l0,55.5l-58,0l0,-57.5l-64.5,0l0,34zm290,4.5l0,-24.5l14.5,0l0,49.5l-31.5,0l0,87l-40.5,0l0,-38.5l-25,0l0,-73.5l82.5,0zm-82.5,-24.5l0,12.5l6,0l0,-12.5l-6,0zm-74.5,-64l0,-39.5l-2.5,0l0,-3.5l22,0l0,3.5l37.5,0l0,-47l37.5,0l0,47l2,0l0,3.5l-39.5,0l0,36l-57,0zm146.5,-34l0,12.5l13.5,0l0,-14.5l-16,0l0,2l2.5,0zm-221,-24.5l-37.5,0l0,21.5l0,1.5l0,44l31,0l0,-44.5l6.5,0l0,-22.5zm-137.5,-50.5l0,9l9,0l0,-9l-9,0zm474,82.5l0,24l18,0l0,-24l-18,0zm-15,110.5l0,-10.5l17.5,0l0,10.5l-17.5,0zm-60,111l21.5,0l0,4l115,0l0,56l-136.5,0l0,-60z" clip-rule="evenodd" fill-rule="evenodd"/>
  <path stroke="#1F2228" id="svg_2" fill="none" d="m68.5,56.5l0,12l-62,0l0,26.5l-5.5,0l0,34.5l5.5,0l0,35.5l52,0l2,0l45.5,0l31.5,0l0,44l-35,0l0,71l-13,0l0,61l-43,0l0,-15l-36.5,0l0,132.5l28,0l0,2.5l36,0l0,-2.5l25,0l0,-18l36.5,0l0,-27l31.5,0l0,27l2,0l0,41l89.5,0l0,-47l-44.5,0l0,-94.5l-8.5,0l-33,-37l0,-18.5l-21,0l0,-34l64.5,0l0,37l58,0l0,-35l65,0l0,66.5l20,0l0,-30l82.5,0l0,-24.5l14.5,0l0,14l37,0l0,-14l0,-1.5l37,0l1.5,0l0,-6l2,0l0,-31.5l-2,0l0,-26.5l0,-2l15,0l0,-23l18,0l23,0l0,-41.5l-111.5,0l-12,-12.5l0,-34.5l-14.5,0l0,-74l-15.5,0l0,-10.5l-87.5,0l0,7l0,48l-18.5,0l0,29.5l-26,0l-15.5,0l0,-20l-31.5,0l0,33l-49.5,0l0,-17.5l-45,0l0,23l-39,0l0,-47.5l-53,0zm463,228l17.5,0l99,0l0,48.5l17.5,0l0,79l105,0l0,106.5l-83.5,0l0,66l-82.5,0l0,-78.5l3.5,0l0,-50.5l0,-56l-76.5,0l0,-115zm-359,-142.5l37.5,0l0,22.5l-6.5,0l0,44.5l-31,0l0,-44l0,-1.5l0,-21.5zm112,58.5l0,-39.5l-2.5,0l0,-3.5l22,0l0,3.5l37.5,0l0,-47l37.5,0l0,47l2,0l0,3.5l-39.5,0l0,36l-57,0zm146.5,-34l0,12.5l13.5,0l0,-14.5l-16,0l0,2l2.5,0zm-72,110.5l0,-12.5l6,0l0,12.5l-6,0zm-286.5,-185.5l0,9l9,0l0,-9l-9,0z" clip-rule="evenodd" fill-rule="evenodd"/>
  <path id="svg_3" fill="#373D4B" d="m167.5,366.5l7,0l0,8l-7,0l0,-8z"/>
  <path id="svg_4" fill="#373D4B" d="m126.5,401.5l9,0l0,9l-9,0l0,-9z"/>
  <path id="svg_5" fill="#373D4B" d="m216.5,434.5l9,0l0,9l-9,0l0,-9z"/>
  <path id="svg_6" fill="#373D4B" d="m300.5,461.5l48,0l0,17l-48,0l0,-17z"/>
  <path id="svg_7" fill="#373D4B" d="m300.5,480.5l3,0l0,17l-3,0l0,-17z"/>
  <path id="svg_8" fill="#373D4B" d="m301.5,501.5l6,0l0,41l-6,0l0,-41z"/>
  <path id="svg_9" fill="#373D4B" d="m377.5,507.5l6,0l0,41l-6,0l0,-41z"/>
  <path id="svg_10" fill="#373D4B" d="m377.5,444.5l6,0l0,41l-6,0l0,-41z"/>
  <path id="svg_11" fill="#373D4B" d="m385.5,448.5l11,0l0,23l-11,0l0,-23z"/>
  <path id="svg_12" fill="#373D4B" d="m470.5,455.5l11,0l0,10l-11,0l0,-10z"/>
  <path id="svg_13" fill="#373D4B" d="m460.5,513.5l11,0l0,12l-11,0l0,-12z"/>
  <path id="svg_14" fill="#373D4B" d="m687.5,462.5l9,0l0,9l-9,0l0,-9z"/>
  <path id="svg_15" fill="#373D4B" d="m533.5,250.5l9,0l0,9l-9,0l0,-9z"/>
  <path id="svg_16" fill="#373D4B" d="m533.5,199.5l9,0l0,9l-9,0l0,-9z"/>
  <path id="svg_17" fill="#373D4B" d="m606.5,203.5l9,0l0,16l-9,0l0,-16z"/>
  <path id="svg_18" fill="#373D4B" d="m547.5,88.5l16,0l0,7l-16,0l0,-7z"/>
  <path id="svg_19" fill="#373D4B" d="m487.5,1.5l14,0l0,5l-14,0l0,-5z"/>
  <path id="svg_20" fill="#373D4B" d="m464.5,34.5l8,0l0,16l-8,0l0,-16z"/>
  <path id="svg_21" fill="#373D4B" d="m439.5,34.5l-58,0l0,9l8,0l0,9l50,0l0,-18z" clip-rule="evenodd" fill-rule="evenodd"/>
  <path id="svg_22" fill="#373D4B" d="m402.5,111.5l9,0l0,8l-9,0l0,-8z"/>
  <path id="svg_23" fill="#373D4B" d="m292.5,86.5l9,0l0,9l-9,0l0,-9z"/>
  <path id="svg_24" fill="#373D4B" d="m346.5,13.5l9,0l0,9l-9,0l0,-9z"/>
  <path id="svg_25" fill="#373D4B" d="m427.5,153.5l9,0l0,9l-9,0l0,-9z"/>
  <path id="svg_26" fill="#373D4B" d="m424,204.5l10,0l0,7l-10,0l0,-7z"/>
  <path id="svg_27" fill="#373D4B" d="m757.5,512.5l12,0l0,6l-12,0l0,-6z"/>
  <path id="svg_28" fill="#373D4B" d="m90.5,295.5l18,0l0,48l-18,0l0,-48z"/>
  <path id="svg_29" fill="#373D4B" d="m10.5,429.5l17,0l0,8l-17,0l0,-8z"/>
  <path id="svg_30" fill="#373D4B" d="m212.5,167l-8.5,0l0,11.5l5.5,0l0,-6.5l3,0l0,-5z"/>
  <path id="svg_31" fill-opacity="0.6" fill="#373D4B" d="m381.5,43.5l8,0l0,9l-8,0l0,-9z"/>
  <path id="svg_32" fill-opacity="0.6" fill="#373D4B" d="m38.5,326.5l-8,0l0,9l8,0l0,8l9,0l0,-8l-9,0l0,-9z" clip-rule="evenodd" fill-rule="evenodd"/>
  <path id="svg_33" fill-opacity="0.6" fill="#373D4B" d="m47.5,326.5l-9,0l0,9l9,0l0,-9z"/>
  <path id="svg_34" fill="#373D4B" d="m38.5,326.5l9,0l0,9l-9,0l0,-9z"/>
  <path id="svg_35" fill="#373D4B" d="m79.255,375.5l-44.5529,21.447l7.8073,16.218l34.9665,-16.832l4.8906,10.16l7.7294,-3.721l-4.8907,-10.159l1.8571,-0.894l-7.8073,-16.219zm5.9502,17.113l-0.5356,-1.113l-7.7294,3.721l0.5357,1.112l7.7293,-3.72z" clip-rule="evenodd" fill-rule="evenodd"/>
  <path id="svg_36" fill="#373D4B" d="m84.6696,391.5l-7.7294,3.721l0.5357,1.112l7.7293,-3.72l-0.5356,-1.113z"/>
  <path id="svg_37" fill-opacity="0.6" fill="#373D4B" d="m517.5,139.5l9,0l0,9l-9,0l0,-9z"/>
  <path id="svg_38" fill="#373D4B" d="m517.5,130.5l9,0l0,9l-9,0l0,-9z"/>
  <path id="svg_39" fill-opacity="0.6" fill="#373D4B" d="m508.5,130.5l9,0l0,9l-9,0l0,-9z"/>
  <path id="svg_40" fill-opacity="0.1" fill="#D9D9D9" d="m467.862,125.362l2.121,2.121l25.483,-25.483l-4.242,0l-23.362,23.362zm6.121,6.121l-2.121,-2.121l27.362,-27.362l4.242,0l-29.483,29.483zm3.241,0.517l4.242,0l30,-30l-4.242,0l-30,30zm12.242,0l-4.242,0l30,-30l4.242,0l-30,30zm3.758,0l4.242,0l30,-30l-4.242,0l-30,30zm12.242,0l-4.242,0l30,-30l4.242,0l-30,30zm3.758,0l4.242,0l30,-30l-4.242,0l-30,30zm12.242,0l-4.242,0l30,-30l4.242,0l-30,30zm3.758,0l4.242,0l30,-30l-4.242,0l-30,30zm12.242,0l-4.242,0l30,-30l4.242,0l-30,30zm3.758,0l4.242,0l27.034,-27.034l0,-2.966l-1.276,0l-30,30zm12.242,0l-4.242,0l23.276,-23.276l0,4.242l-19.034,19.034zm3.758,0l4.242,0l11.034,-11.034l0,-4.242l-15.276,15.276zm12.242,0l-4.242,0l7.276,-7.276l0,4.242l-3.034,3.034zm-103.483,-8.517l-1.983,-1.983l0,-0.276l19.224,-19.224l4.242,0l-21.483,21.483zm9.241,-21.483l4.242,0l-15.466,15.466l0,-4.242l11.224,-11.224zm-11.224,7.466l7.466,-7.466l-4.242,0l-3.224,3.224l0,4.242z" clip-rule="evenodd" fill-rule="evenodd"/>
  <path id="svg_41" fill-opacity="0.1" fill="#D9D9D9" d="m90.5,336.066l-4.7249,3.934l4.7249,0l0,-3.934z" clip-rule="evenodd" fill-rule="evenodd"/>
  <path id="svg_42" fill-opacity="0.1" fill="#D9D9D9" d="m74.3882,327l5.731,0l-15.6132,13l-5.7309,0l15.6131,-13zm-3.269,0l-5.731,0l-15.6131,13l5.7309,0l15.6132,-13zm-14.731,0l5.731,0l-14.6192,12.172l0,-4.771l8.8882,-7.401zm-3.269,0l-5.6192,0l0,4.679l5.6192,-4.679zm14.6559,13l15.6131,-13l5.731,0l-15.6132,13l-5.7309,0zm9,0l5.7309,0l7.994,-6.656l0,-4.772l-13.7249,11.428zm13.7249,0l-4.7249,0l4.7249,-3.934l0,3.934z" clip-rule="evenodd" fill-rule="evenodd"/>
  <path id="svg_43" fill-opacity="0.1" fill="#D9D9D9" d="m47.5,331.679l5.6192,-4.679l-5.6192,0l0,4.679z" clip-rule="evenodd" fill-rule="evenodd"/>
  <path id="svg_44" fill-opacity="0.1" fill="#D9D9D9" d="m62.1192,327l-5.731,0l-8.8882,7.401l0,4.771l14.6192,-12.172z" clip-rule="evenodd" fill-rule="evenodd"/>
  <path id="svg_45" fill-opacity="0.1" fill="#D9D9D9" d="m89.1192,327l-15.6132,13l-5.7309,0l15.6131,-13l5.731,0z" clip-rule="evenodd" fill-rule="evenodd"/>
  <path id="svg_46" fill-opacity="0.1" fill="#D9D9D9" d="m76.7751,340l13.7249,-11.428l0,4.772l-7.994,6.656l-5.7309,0z" clip-rule="evenodd" fill-rule="evenodd"/>
  <path id="svg_47" fill-opacity="0.1" fill="#D9D9D9" d="m80.1192,327l-15.6132,13l-5.7309,0l15.6131,-13l5.731,0z" clip-rule="evenodd" fill-rule="evenodd"/>
  <path id="svg_48" fill-opacity="0.1" fill="#D9D9D9" d="m71.1192,327l-15.6132,13l-5.7309,0l15.6131,-13l5.731,0z" clip-rule="evenodd" fill-rule="evenodd"/>
  <path id="svg_49" fill-opacity="0.1" fill="#D9D9D9" d="m540.224,198.5l4.242,0l5.034,5.034l0,4.242l-9.276,-9.276zm-3.758,0l-2.966,0l0,1.276l16,16l0,-4.242l-13.034,-13.034zm-2.966,9.276l0,-4.242l16,16l0,4.242l-16,-16zm0,3.758l0,4.242l16,16l0,-4.242l-16,-16zm0,12.242l0,-4.242l16,16l0,4.242l-16,-16zm0,3.758l0,4.242l16,16l0,-4.242l-16,-16zm0,12.242l0,-4.242l16,16l0,4.242l-16,-16zm0,3.758l0,4.242l16,16l0,-4.242l-16,-16zm0,12.242l0,-4.242l16,16l0,4.242l-16,-16zm0,3.758l0,4.242l9.724,9.724l4.242,0l-13.966,-13.966zm0,12.242l0,-4.242l5.966,5.966l-4.242,0l-1.724,-1.724zm16,-72l-1.276,-1.276l1.276,0l0,1.276z" clip-rule="evenodd" fill-rule="evenodd"/>
  <path id="svg_50" fill-opacity="0.1" fill="#D9D9D9" d="m435.524,1.5l4.809,0l10.153,9l-4.808,0l-10.154,-9zm-0.024,3.75311l0,5.24689l5.919,0l-5.919,-5.24689zm28,16.78289l-13,-11.5235l0,4.2622l13,11.5235l0,-4.2622zm-13,0.7756l0,-4.2622l13,11.5234l0,4.2622l-13,-11.5234zm0,3.7747l0,4.2622l13,11.5234l0,-4.2622l-13,-11.5234zm0,12.299l0,-4.2622l13,11.5235l0,4.2622l-13,-11.5235zm0,3.7747l0,4.2622l13,11.5234l0,-4.2622l-13,-11.5234zm0,12.2991l0,-4.2622l13,11.5234l0,4.2622l-13,-11.5234zm0,3.7746l0,4.2622l13,11.5235l0,-4.2622l-13,-11.5235zm0,12.2991l0,-4.2622l13,11.5234l0,4.2622l-13,-11.5234zm0,3.7747l0,4.2621l7.254,6.4304l4.809,0l-12.063,-10.6925zm0,10.6925l0,-2.6557l2.996,2.6557l-2.996,0zm7.966,-84l-4.808,0l9.842,8.7244l0,-4.26216l-5.034,-4.46224zm4.258,0l0.776,0.68757l0,-0.68757l-0.776,0z" clip-rule="evenodd" fill-rule="evenodd"/>
  <path id="svg_51" fill-opacity="0.1" fill="#D9D9D9" d="m449.5,1.5l-4.909,0l18.909,16.7613l0,-4.2622l-14,-12.4991z"/>
  <path id="svg_52" fill="#282C34" d="m506.5,342.5l4,0l0,56l-4,0l0,-56z"/>
  <path id="svg_53" fill="#282C34" d="m495.5,263.5l4,0l0,15l-4,0l0,-15z"/>
  <path id="svg_54" fill="#282C34" d="m432.5,179.5l4,0l0,16l-4,0l0,-16z"/>
  <path id="svg_55" fill="#282C34" d="m289.5,65.5l4,0l0,18l-4,0l0,-18z"/>
  <path id="svg_56" fill="#282C34" d="m122.5,164.5l4,0l0,42l-4,0l0,-42z"/>
  <path id="svg_57" fill="#282C34" d="m545.5,132.5l4,0l0,41l-4,0l0,-41z"/>
  <path id="svg_58" fill="#282C34" d="m576.5,456.5l4,0l0,49l-4,0l0,-49z"/>
  <path id="svg_59" fill="#282C34" d="m232.5,435.5l4,0l0,45l-4,0l0,-45z"/>
  <path id="svg_60" fill="#282C34" d="m647.5,286.5l0,4l-28,0l0,-4l28,0z"/>
  <path id="svg_61" fill="#282C34" d="m88.5,258.5l0,4l-28,0l0,-4l28,0z"/>
  <path id="svg_62" fill="#282C34" d="m586.5,173.5l0,4l-21,0l0,-4l21,0z"/>
  <path id="svg_63" fill="#282C34" d="m346.5,36.5l0,4l-17,0l0,-4l17,0z"/>
  <path id="svg_64" fill="#282C34" d="m514.5,342.5l4,0l0,56l-4,0l0,-56z"/>
  <path id="svg_65" fill="#282C34" d="m503.5,263.5l4,0l0,15l-4,0l0,-15z"/>
  <path id="svg_66" fill="#282C34" d="m440.5,179.5l4,0l0,16l-4,0l0,-16z"/>
  <path id="svg_67" fill="#282C34" d="m297.5,65.5l4,0l0,18l-4,0l0,-18z"/>
  <path id="svg_68" fill="#282C34" d="m130.5,164.5l4,0l0,42l-4,0l0,-42z"/>
  <path id="svg_69" fill="#282C34" d="m553.5,132.5l4,0l0,41l-4,0l0,-41z"/>
  <path id="svg_70" fill="#282C34" d="m561.5,132.5l4,0l0,41l-4,0l0,-41z"/>
  <path id="svg_71" fill="#282C34" d="m584.5,456.5l4,0l0,49l-4,0l0,-49z"/>
  <path id="svg_72" fill="#282C34" d="m240.5,435.5l4,0l0,45l-4,0l0,-45z"/>
  <path id="svg_73" fill="#282C34" d="m647.5,294.5l0,4l-28,0l0,-4l28,0z"/>
  <path id="svg_74" fill="#282C34" d="m88.5,266.5l0,4l-28,0l0,-4l28,0z"/>
  <path id="svg_75" fill="#282C34" d="m586.5,181.5l0,4l-21,0l0,-4l21,0z"/>
  <path id="svg_76" fill="#282C34" d="m346.5,44.5l0,4l-17,0l0,-4l17,0z"/>
  <path id="svg_77" fill="#282C34" d="m372.5,104.5l0,3l-12,0l0,-3l12,0z"/>
  <path id="svg_78" fill="#282C34" d="m522.5,342.5l4,0l0,56l-4,0l0,-56z"/>
  <path id="svg_79" fill="#282C34" d="m511.5,263.5l4,0l0,15l-4,0l0,-15z"/>
  <path id="svg_80" fill="#282C34" d="m592.5,456.5l4,0l0,49l-4,0l0,-49z"/>
  <path id="svg_81" fill="#282C34" d="m248.5,435.5l4,0l0,45l-4,0l0,-45z"/>
  <path id="svg_82" fill="#282C34" d="m647.5,302.5l0,4l-28,0l0,-4l28,0z"/>
  <path id="svg_83" fill="#282C34" d="m88.5,274.5l0,4l-28,0l0,-4l28,0z"/>
  <path id="svg_84" fill="#282C34" d="m586.5,189.5l0,4l-21,0l0,-4l21,0z"/>
  <path id="svg_85" fill="#282C34" d="m346.5,52.5l0,4l-17,0l0,-4l17,0z"/>
  <path id="svg_86" fill="#282C34" d="m372.5,110.5l0,3l-12,0l0,-3l12,0z"/>
  <path id="svg_87" fill="#282C34" d="m600.5,456.5l4,0l0,49l-4,0l0,-49z"/>
  <path id="svg_88" fill="#282C34" d="m256.5,435.5l4,0l0,45l-4,0l0,-45z"/>
  <path id="svg_89" fill="#282C34" d="m647.5,310.5l0,4l-28,0l0,-4l28,0z"/>
  <path id="svg_90" fill="#282C34" d="m88.5,282.5l0,4l-28,0l0,-4l28,0z"/>
  <path id="svg_91" fill="#454545" d="m345.5,0l157,0l0,87l114,0l0,134l-38.5,0l0,33.5l85.5,0l0,31l-14.5,0l0,46.5l17.5,0l0,79l105,0l0,108.5l-83.5,0l0,66l-84.5,0l0,-78.5l-130.5,0l0,20.5l-88,0l0,22.5l-85.5,0l0,-67.5l-131.5,0l0,-41l-2,0l0,-27l-29.5,0l0,27l-36.5,0l0,18l-25,0l0,2.5l-38,0l0,-2.5l-28,0l0,-134.5l50.5,0l0,-64.5l-12.5,0l0,-58l12.5,0l0,-36.5l-54,0l0,-35.5l-5.5,0l0,-36.5l5.5,0l0,-26.5l62,0l0,-12l55,0l0,47.5l37,0l0,-23l47,0l0,17.5l47.5,0l0,-33l45.5,0l0,-57.5l46,0l0,-7zm-284,166l0,38.5l-12.5,0l0,54l12.5,0l0,68.5l-50.5,0l0,130.5l28,0l0,2.5l34,0l0,-2.5l25,0l0,-18l36.5,0l0,-27l33.5,0l0,27l2,0l0,41l128.5,0l3,0l0,67.5l81.5,0l0,-22.5l88,0l0,-20.5l134.5,0l0,78.5l80.5,0l0,-66l83.5,0l0,-104.5l-105,0l0,-79l-17.5,0l0,-50.5l14.5,0l0,-27l-85.5,0l0,-37.5l38.5,0l0,-130l-114,0l0,-87l-153,0l0,7l-46,0l0,57.5l-45.5,0l0,33l-51.5,0l0,-17.5l-43,0l0,23l-41,0l0,-47.5l-51,0l0,12l-62,0l0,26.5l-5.5,0l0,32.5l5.5,0l0,35.5l50,0l0,-12.5l49.5,0l0,11l31.5,0l0,3.5l-77,0zm43.5,-2l0,-10.5l-45.5,0l0,10.5l45.5,0zm-33.5,-73.5l11,0l0,11l-11,0l0,-11zm2,2l0,7l7,0l0,-7l-7,0zm267,20.5l39.5,0l0,18.5l0,2.5l0,26l2,0l0,5.5l-39.5,0l0,36l-59,0l0,-39.5l-2.5,0l0,-5.5l24,0l0,3.5l35.5,0l0,-47zm39.5,49l-2,0l0,-47l-35.5,0l0,47l-39.5,0l0,-3.5l-20,0l0,1.5l2.5,0l0,39.5l55,0l0,-36l39.5,0l0,-1.5zm-208.5,-21l39.5,0l0,24.5l-6.5,0l0,44.5l-33,0l0,-44l-18,0l0,-3.5l18,0l0,-21.5zm2,2l0,65l29,0l0,-44.5l6.5,0l0,-20.5l-35.5,0zm254,20.5l18,0l0,16.5l-15.5,0l0,-14l-2.5,0l0,-2.5zm16,2l-11.5,0l0,12.5l11.5,0l0,-12.5zm102,7.5l20,0l0,26l-20,0l0,-26zm2,2l0,22l16,0l0,-22l-16,0zm-397,74.5l66.5,0l0,57.5l56,0l0,-55.5l67,0l0,68.5l-78,0l0,54l0,3.5l0,58l-49,0l0,-94.5l-7.948,0l-33.552,-37.619l0,-17.881l-21,0l0,-36zm2,2l0,32l21,0l0,19.119l32.448,36.381l9.052,0l0,94.5l45,0l0,-115.5l78,0l0,-64.5l-63,0l0,55.5l-60,0l0,-57.5l-62.5,0zm205.5,12l8,0l0,14.5l-8,0l0,-14.5zm2,2l0,10.5l4,0l0,-10.5l-4,0zm80.5,-2l16.5,0l0,51.5l-31.5,0l0,87l-42.5,0l0,-38.5l-25,0l0,-2l0,-1.5l0,-72l82.5,0l0,-24.5zm2,2l0,24.5l-82.5,0l0,71.5l25,0l0,38.5l38.5,0l0,-87l31.5,0l0,-47.5l-12.5,0zm88,7.5l19.5,0l0,12.5l-19.5,0l0,-12.5zm2,2l0,8.5l15.5,0l0,-8.5l-15.5,0zm-62,119.5l23.5,0l0,4l115,0l0,58l-138.5,0l0,-62zm2,2l0,58l134.5,0l0,-54l-115,0l0,-4l-19.5,0z" clip-rule="evenodd" fill-rule="evenodd"/>
  <path id="svg_92" fill="#454545" d="m325.5,36.5l4,0l0,51l-26,0l0,42l-4,0l0,-42l-24,0l0,-4l50,0l0,-47zm128.207,118.207l-8.793,8.793l-14.914,0l0,2.5l-27.5,0l0,5l-2,0l0,-5.5l-19.5,0l0,-4l21.5,0l3,0l38.586,0l8.207,-8.207l1.414,1.414zm-201.207,1.793l31,0l0,4l-31,0l0,-4zm148,24.5l4,0l0,21.5l26,0l0,-3.5l-0.5,0l0,-4.5l2,0l0,0.75l115,0l0,3.75l-14,0l-2,0l-97,0l0,7.5l-33.5,0l0,-25.5zm-58,19l-0.5,0l0,-2l2.5,0l0,6.5l15,0l0,2l-17,0l0,-6.5zm-52,1l2,0l0,7.558l10.673,9.702l-1.346,1.48l-11.327,-10.298l0,-8.442zm-189,5l71.5,0l0,4l-67.5,0l0,66l22,0l0,2l-22,0l0,4l-16,0l0,45l-10.5,0l0,-4l7.5,0l0,-45l15,0l0,-72zm98,2.5l5,0l0,11l-5,0l0,-11zm93,28.277l5.857,-9.763l-1.714,-1.028l-6.143,10.237l0,15.777l2,0l0,-15.223zm-93,4.723l5,0l0,10l-5,0l0,-10zm331.5,22l-0.5,0l0,22l90.5,0l0,-2l-71,0l0,-10.5l-16.5,0l0,-9.5l-0.5,0l0,-5.5l-2,0l0,5.5zm17,20l0,-8.5l-15.5,0l0,8.5l15.5,0zm-404.789,-7l7.289,0l0,2l-6.711,0l-13.256,8.346l-1.066,-1.692l13.744,-8.654zm-83.711,46.5l9.5,0l0,4l-9.5,0l0,-4zm105,40.5l3.5,0l0,50l-3.5,0l0,-30.5l-27.5,0l0,29.5l-2,0l0,-31.5l29.5,0l0,-17.5zm482.5,99.5l41,0l0,56l-2,0l0,-54l-37,0l0,42l-44.5,0l0,-2l42.5,0l0,-42z" clip-rule="evenodd" fill-rule="evenodd"/>
  <path id="svg_93" fill="#454545" d="m383,401.5l3.5,0l0,12l-3.5,0l0,-12z"/>
  <path id="svg_94" fill="#454545" d="m382.5,439.5l4,0l0,50l-4,0l0,-50z"/>
  <path id="svg_95" fill="#454545" d="m425.5,398.5l0,-4l45,0l0,4l-45,0z"/>
  <path id="svg_96" fill="#454545" d="m383,505.5l3.5,0l0,21l-3.5,0l0,-21z"/>
  <path id="svg_97" fill="#454545" d="m299,361.5l59,0l0,-1.5l-60.5,0l0,14l-7.5,0l0,1.5l9,0l0,-14z"/>
  <path id="svg_98" fill="#454545" d="m299,361.5l0,14l0,28l1.5,0l0,-40l57.5,0l0,-2l-59,0z"/>
  <path id="svg_99" fill="#454545" d="m299,403.5l0,-28l-9,0l0,2l7.5,0l0,26l1.5,0z"/>
  <path id="svg_100" fill="#454545" d="m298.5,480.5l3,0l0,-42.5l-3,0l0,42.5z"/>
  <path id="svg_101" fill="#454545" d="m270.5,374l-8.5,0l0,3.5l8.5,0l0,-3.5z"/>
  <path id="svg_102" fill="#454545" d="m424.726,117.5l-2.226,2.5l2.5,0l8,-8.5l0,-2.5l-8.274,8.5z"/>
  <path id="svg_103" fill="#454545" d="m402.5,161.5l3,0l0,-41.5l17,0l2.226,-2.5l-22.226,0l0,14l0,2.5l0,27.5z"/>
  <path id="svg_104" fill="#454545" d="m402.5,131.5l-22.5,0l0,2.5l22.5,0l0,-2.5z"/>
  <path id="svg_105" fill="#454545" d="m462.5,19.5l3,0l0,99l-10.5,0l0,1.5l9.414,0l10.5,10.5l33.586,0l0,2l-35.586,0l-7.207,7.207l-1.414,-1.414l7.793,-7.793l-8.5,-8.5l-10.586,0l0,-3.5l-14,0l0,-2l23.5,0l0,-97zm123.5,113l-57,0l0,-2l60.5,0l0,64l-3.5,0l0,-62z" clip-rule="evenodd" fill-rule="evenodd"/>
  <path id="svg_106" fill="#454545" d="m531,199l0,26.5l2,0l0,-26.5l-2,0z"/>
  <path id="svg_107" fill="#FF6B00" d="m727.948,477.468l0,-15.072l-5.448,0l0,-1.896l12.984,0l0,1.896l-5.448,0l0,15.072l-2.088,0z"/>
  <path id="svg_108" fill="#0085FF" d="m31.588,123.468l-2.088,0l0,-16.968l2.088,0l0,7.824l2.52,0l5.52,-7.824l2.4,0l-6.096,8.424l6.144,8.544l-2.472,0l-5.328,-7.248l-2.688,0l0,7.248z"/>
  <path id="svg_109" fill="#0085FF" d="m50.284,123.468l-2.088,0l0,-15.072l-5.448,0l0,-1.896l12.984,0l0,1.896l-5.448,0l0,15.072z"/>
  <path id="svg_110" fill-opacity="0.2" fill="#7000FF" d="m96.5,425.5l-81,0l0,-60l81,0l0,60z"/>
  <path id="svg_111" fill-opacity="0.08" fill="white" d="m17.5,423.5l77,0l0,-56l-77,0l0,56zm79,2l0,-60l-81,0l0,60l81,0z" clip-rule="evenodd" fill-rule="evenodd"/>
  <path id="svg_112" fill="white" d="m47.4983,404.499l0,-20.532l9.106,0c0.9473,0 1.8173,0.097 2.61,0.29c0.812,0.193 1.5177,0.541 2.117,1.044c0.4833,0.387 0.8893,0.899 1.218,1.537c0.348,0.619 0.522,1.373 0.522,2.262c0.0193,0.947 -0.1547,1.788 -0.522,2.523c-0.348,0.735 -0.9473,1.353 -1.798,1.856c0.5993,0.174 1.1117,0.435 1.537,0.783c0.4253,0.348 0.7637,0.754 1.015,1.218c0.2707,0.464 0.464,0.967 0.58,1.508c0.116,0.541 0.1643,1.102 0.145,1.682c-0.0387,0.928 -0.29,1.788 -0.754,2.581c-0.4447,0.773 -1.0343,1.402 -1.769,1.885c-0.87,0.599 -1.827,0.976 -2.871,1.131c-1.044,0.155 -2.0783,0.232 -3.103,0.232l-8.033,0zm7.917,-12.209c0.4253,0 0.8507,-0.019 1.276,-0.058c0.4253,-0.058 0.8217,-0.193 1.189,-0.406c0.3093,-0.193 0.5703,-0.454 0.783,-0.783c0.2127,-0.329 0.3287,-0.715 0.348,-1.16c0.0193,-0.464 -0.058,-0.841 -0.232,-1.131c-0.174,-0.29 -0.3867,-0.512 -0.638,-0.667c-0.3093,-0.193 -0.667,-0.3 -1.073,-0.319c-0.406,-0.039 -0.8217,-0.058 -1.247,-0.058l-4.118,0l0,4.582l3.712,0zm-3.712,8.497l3.828,0c0.5607,0 1.1503,-0.029 1.769,-0.087c0.638,-0.077 1.1793,-0.28 1.624,-0.609c0.2707,-0.213 0.493,-0.474 0.667,-0.783c0.174,-0.329 0.261,-0.735 0.261,-1.218c0,-0.445 -0.0967,-0.822 -0.29,-1.131c-0.1933,-0.309 -0.435,-0.541 -0.725,-0.696c-0.3287,-0.213 -0.7057,-0.338 -1.131,-0.377c-0.406,-0.039 -0.8313,-0.058 -1.276,-0.058l-4.727,0.029l0,4.93z"/>
  <path id="svg_113" fill-opacity="0.2" fill="#7000FF" d="m431.5,87.5l-81,0l0,-62l81,0l0,62z"/>
  <path id="svg_114" fill-opacity="0.08" fill="white" d="m352.5,85.5l77,0l0,-58l-77,0l0,58zm79,2l0,-62l-81,0l0,62l81,0z" clip-rule="evenodd" fill-rule="evenodd"/>
  <path id="svg_115" fill="white" d="m386.561,63.117l-1.479,3.915l-4.582,0l7.946,-20.532l4.756,0l7.83,20.532l-4.611,0l-1.421,-3.915l-8.439,0zm1.218,-3.712l5.974,0l-2.958,-8.439l-3.016,8.439z"/>
  <rect id="svg_116" height="85" width="33" y="2.33333" x="464.99997" stroke="#000" fill="#fff"/>
  <rect id="svg_118" height="27.52668" width="150.41367" y="87.78577" x="465.03333" stroke="#000" fill="#fff"/>
  <rect id="svg_119" height="86.45827" width="14.58332" y="2.1387" x="450.11056" stroke="#000" fill="#fff"/>
  <rect id="svg_120" height="9.37499" width="13.54166" y="1.61787" x="435.00641" stroke="#000" fill="#fff"/>
  <rect id="svg_122" height="15.10416" width="140.10407" y="114.63862" x="475.63138" stroke="#000" fill="#fff"/>
  <rect id="svg_123" height="63.54162" width="25.52082" y="130.78445" x="590.21463" stroke="#000" fill="#fff"/>
  <rect id="svg_124" height="4.04177" width="9.19852" y="115.68365" x="465.83854" stroke="#000" fill="#fff"/>
  <rect id="svg_125" height="1.39371" width="7.94417" y="120.42228" x="466.67477" stroke="#000" fill="#fff"/>
  <rect id="svg_126" height="3.20554" width="3.9024" y="122.65223" x="470.85591" stroke="#000" fill="#fff"/>
  <rect id="svg_127" height="2.78743" width="3.48429" y="126.83337" x="471.97089" stroke="#000" fill="#fff"/>
  <rect id="svg_128" height="3.06617" width="2.64806" y="122.09474" x="467.78974" stroke="#000" fill="#fff"/>
  <rect id="svg_129" height="19.13357" width="59.20578" y="34.07581" x="381.14801" stroke="#000" fill="#fff"/>
  <rect id="svg_130" height="25.63177" width="50.54152" y="193.64259" x="565.62455" stroke="#000" fill="#fff"/>
  <rect id="svg_133" height="81.94946" width="15.88448" y="199.77978" x="549.37906" stroke="#000" fill="#fff"/>
  <rect id="svg_134" height="63.53791" width="9.74729" y="219.27436" x="565.62455" stroke="#000" fill="#fff"/>
  <rect id="svg_135" height="25.27076" width="85.92058" y="256.81949" x="575.37184" stroke="#000" fill="#fff"/>
  <rect id="svg_136" height="76.17329" width="14.44043" y="198.69674" x="533.13357" stroke="#000" fill="#fff"/>
  <rect id="svg_137" height="60.28881" width="22.02166" y="133.35378" x="564.90252" stroke="#000" fill="#fff"/>
  <rect id="svg_138" height="11.19134" width="25.27076" y="283.17328" x="620.8592" stroke="#000" fill="#fff"/>
  <rect id="svg_140" height="16.24549" width="16.96751" y="262.95667" x="511.83393" stroke="#000" fill="#fff"/>
  <rect id="svg_141" height="63.1769" width="72.56318" y="278.48014" x="458.40433" stroke="#000" fill="#fff"/>
  <rect id="svg_142" height="79.06137" width="32.49097" y="315.30324" x="425.07103" stroke="#000" fill="#fff"/>
  <rect id="svg_143" height="54.15162" width="58.12274" y="341.29602" x="458.28402" stroke="#000" fill="#fff"/>
  <rect id="svg_157" height="3.2491" width="22.38267" y="395.08664" x="494.02409" stroke="#1F2228" fill="none"/>
  <rect id="svg_158" height="17.29958" width="45.99155" y="461.43025" x="302.3262" stroke="#1F2228" fill="none"/>
  <rect id="svg_159" height="40.92333" width="5.84619" y="501.20497" x="301.41455" stroke="#1F2228" fill="none"/>
  <rect id="svg_160" height="18.12319" width="2.04617" y="480.15868" x="301.70686" stroke="#261d1e" fill="none"/>
  <rect id="svg_161" height="42.67719" width="5.84619" y="443.61999" x="377.12272" stroke="#261d1e" fill="none"/>
  <rect id="svg_162" height="24.554" width="9.93852" y="448.00463" x="387.06124" stroke="#261d1e" fill="none"/>
  <rect id="svg_163" height="41.50795" width="5.55388" y="507.05116" x="377.99965" stroke="#261d1e" fill="none"/>
  <rect id="svg_164" height="39.46179" width="30.98481" y="320.26537" x="326.55317" stroke="#261d1e" fill="none"/>
  <rect id="svg_165" height="9.3539" width="8.47698" y="434.5584" x="216.64479" stroke="#261d1e" fill="none"/>
  <rect id="svg_166" height="48.81569" width="18.12319" y="294.83445" x="90.65939" stroke="#261d1e" fill="none"/>
  <rect id="svg_167" height="12.86162" width="41.80026" y="327.57311" x="47.7873" stroke="#261d1e" fill="none"/>
  <rect id="svg_168" height="15.78471" width="9.64621" y="327.2808" x="38.43339" stroke="#261d1e" fill="none"/>
  <rect stroke="#261d1e" id="svg_169" height="8.47698" width="6.43081" y="326.98849" x="30.83335" fill="none"/>
  <rect id="svg_172" height="36.53869" width="23.38476" y="286.64978" x="62.40278" stroke="#ff0000" fill="none"/>
  <rect id="svg_174" height="3.2154" width="8.76929" y="323.77309" x="69.4182" fill="#ff0000"/>
  <rect id="svg_175" height="11.69238" width="4.67695" y="166.80288" x="204.75751" fill="#ff0000"/>
  <rect id="svg_176" height="6.43081" width="2.9231" y="166.21826" x="210.11653" stroke="#1F2228" fill="none"/>
  <rect id="svg_177" height="8.18467" width="5.84619" y="87.87931" x="293.13244" stroke="#1F2228" fill="none"/>
  <rect id="svg_178" height="6.43081" width="9.64621" y="110.67945" x="402.45623" stroke="#1F2228" fill="none"/>
  <rect id="svg_179" height="7.60005" width="16.66164" y="132.31035" x="509.73383" stroke="#1F2228" fill="none"/>
  <rect id="svg_180" height="8.76929" width="8.18467" y="140.20271" x="518.2108" stroke="#1F2228" fill="none"/>
  <rect id="svg_181" height="10.81545" width="10.23083" y="514.06659" x="460.82065" stroke="#1F2228" fill="none"/>
  <rect id="svg_182" height="8.76929" width="9.93852" y="456.77392" x="471.6361" stroke="#1F2228" fill="none"/>
 </g>
</svg>