<svg width="723.9999999999999" height="712" xmlns="http://www.w3.org/2000/svg" fill="none">

 <g>
  <path id="svg_1" fill="#22262F" d="m105,1l0,7l-4.5,0l0,37.5l5.5,0l0,86.5l3.5,0l0,41l-86.5,0l0,129.5l-22,0l0,118l148,0l0,142.5l60.5,0l0,3l16,0l0,5l-9.5,0l0,83.5l9.5,0l0,-29.5l10,0l0,20.5l21.5,0l0,-20.5l10.5,0l0,29.5l115,0l0,45l91,0l0,-1.5l55.5,0l0,7l66,0l0,-5.5l69,0l0,11l43,0l0,-131.5l16,0l0,-270.5l-40,0l0,-131l-24.5,0l0,23.5l-43.5,0l0,-33.5l-51,0l0,-25l-21.5,0l0,-6.5l-73,0l0,-17l-51,0l0,29l-25.5,0l0,-29l-1.5,0l0,-17l25,0l0,-54.5l0,-46.5l-311.5,0zm162,147l0,-16l93.5,0l0,16l-93.5,0zm227.5,3.5l-25,0l0,22l17,0l0,11.5l55,0l0,-31l-47,0l0,-2.5zm146.5,72.5l-26,0l0,55.5l26,0l0,-55.5zm-21,88.5l0,21.5l-48.5,0l0,40.5l61,0l0,29l4,0l0,-13.5l14.5,0l0,-42l-4.5,0l0,-35.5l-26.5,0zm61.5,77.5l0,-42l12,0l0,86l-12,0l0,-16.5l5.5,0l0,-27.5l-5.5,0zm-278,-98.5l0,-112.5l46.5,0l0,33l136.5,0l0,50l-40.5,0l0,-11.5l-51.5,0l0,41l-91,0zm-72,75l0,-50l69.5,0l0,50l-69.5,0zm-286.5,0.5l0,-87l64.5,0l0,31.5l13.5,0l0,26l24,0l0,25l-42.5,0l0,4.5l-59.5,0zm286.5,119l0,-88.5l51.5,0l0,31l28,0l0,-3l50,0l0,6l2.5,0l0,3l-2.5,2.5l0,46l-65.5,0l0,38l-14.5,0l0,12.5l-22.5,0l0,-47.5l-27,0zm0.5,143.5l0,-72.5l2.5,0l0,2l48,0l0,70.5l-50.5,0zm168,-38l9.5,0l0,-3.5l30,0l0,3.5l13.5,0l0,58.5l-3,0l0,2.5l9.5,0l0,-2.5l15.5,0l0,7l23,0l0,-2.5l55,0l0,-59.5l-6.5,0l0,-74l2.5,0l0,-20l-48,0l0,-23l-59.5,0l0,26l-41.5,0l0,87.5zm-88,-58l-4.5,0l0,63l4.5,0l0,-63zm-4.5,118.5l0,-36l4.5,0l0,36l-4.5,0z" clip-rule="evenodd" fill-rule="evenodd"/>
  <path id="svg_2" fill="#22262F" d="m466.5,47.5l-50,0l0,54.5l-25,0l0,17l1.5,0l25.5,0l51,0l0,17l73,0l0,6.5l21.5,0l0,25l51,0l0,-24.5l43.5,0l0,34.5l24.5,0l0,-126l-119,0l0,-8l-97.5,0l0,4z"/>
  <path id="svg_3" fill="#22262F" d="m225.5,625l0,29.5l42,0l0,-29.5l-10.5,0l0,20.5l-21.5,0l0,-20.5l-10,0z"/>
  <path id="svg_4" fill="#22262F" d="m225.5,571l0,-5l-16,0l0,88.5l6.5,0l0,-83.5l9.5,0z"/>
  <path id="svg_5" fill="#1F2228" d="m466.5,47.5l-50,0l0,54.5l-25,0l0,17l1.5,0l25.5,0l51,0l0,17l73,0l0,6.5l21.5,0l0,25l51,0l0,-24.5l43.5,0l0,34.5l24.5,0l0,-126l-119,0l0,-8l-97.5,0l0,4z"/>
  <path id="svg_6" fill="#1F2228" d="m225.5,571l0,-5l-16,0l0,88.5l6.5,0l0,-83.5l9.5,0z"/>
  <path id="svg_7" fill="#1F2228" d="m225.5,625l0,29.5l42,0l0,-29.5l-10.5,0l0,20.5l-21.5,0l0,-20.5l-10,0z"/>
  <path id="svg_8" fill="#2F3541" d="m147,337.5l0,25l45.5,0l0,31l89,0l0,-88l-89,0l0,32l-45.5,0z"/>
  <path id="svg_9" fill="#2F3541" d="m109.5,173l-86.5,0l0,124.5l22,0l0,-17.5l64.5,0l0,31.5l13,0l0,-51.5l0,-112l85,0l56,0l3.5,0l0,-16l-3.5,0l-56,0l-94.5,0l-3.5,0l0,41zm-64.5,19.5l4.5,0l42.5,0l0,70l-47,0l0,-70z" clip-rule="evenodd" fill-rule="evenodd"/>
  <path id="svg_10" fill="#2F3541" d="m651,348l0,42l-14.5,0l0,13.5l-2.5,0l0,31l4.5,0l0,19l-37.5,0l0,-19l-137.5,0l-2.5,2.5l0,46l-65.5,0l0,21l104.5,0l41.5,0l0,-26l59.5,0l0,23l48,0l0,-67l32.5,0l0,-16.5l5.5,0l0,-27.5l-5.5,0l0,-42l-30.5,0z"/>
  <path id="svg_11" fill="#2F3541" d="m469.5,151.5l25,0l0,2.5l47,0l0,31l45,0l0,11.5l-11,0l0,15.5l11,0l0,50l-40.5,0l0,50.5l59,0l0,-33l10,0l0,-53l-14.5,0l0,-30l-3,0l0,-11.5l17.5,0l0,-17.5l-51,0l0,-25l-21.5,0l0,-6.5l-73,0l0,15.5z"/>
  <path id="svg_12" fill="#2F3541" d="m149,563l60.5,0l0,3l16,0l0,5l-9.5,0l0,83.5l9.5,0l0,-29.5l10,0l0,20.5l21.5,0l0,-20.5l10.5,0l0,29.5l115,0l0,-25l-50.5,0l0,-72.5l2.5,0l0,2l48,0l0,-25.5l-1.5,0l-22.5,0l0,-47.5l-27,0l0,-88.5l51.5,0l0,-31l-51.5,0l0,-50l29,0l0,-84l8,0l0,-46.5l-8,0l0,-36.5l0,-1.5l-18.5,0l0,148l-26,0l0,55.5l0,51l0,126.5l-147,0l0,-129.5l-38,0l0,-37l-26.5,0l0,4.5l-15,0l0,53.5l59.5,0l0,142.5z"/>
  <path id="svg_13" fill="#2F3541" d="m263.5,132l0,-10.5l-56,0l0,10.5l56,0z"/>
  <path id="svg_14" fill="#2F3541" d="m217.5,119.5l0,-3.5l40.5,0l0,3.5l-40.5,0z"/>
  <path id="svg_15" fill="#2F3541" d="m207.5,148l0,10l56,0l0,-10l-56,0z"/>
  <path id="svg_16" fill="#373D4B" d="m247,234.707c-3,0.5 -16,23.5 -13.5,28c2.5,4.5 4.8,6.093 8,7.293c4,1.5 4,-1 6.5,-4c2.5,-3 4.5,-0.5 7.5,0c3,0.5 10.5,-6 11.5,-7c1,-1 1,-2 3,-3.5c2,-1.5 7,-0.5 9.5,-1c2.5,-0.5 4,-4 5.5,-6c1.5,-2 9.5,-2 12,-2c2,0 0.833,-1.667 0,-2.5c-0.833,-0.167 -2.5,-1 -2.5,-3c0,-1 -2,-3 -2.5,-4c-0.5,-1 -2.5,1 -3,2c-0.4,0.8 -2.833,0.333 -4,0c-1,-1.5 -3.7,-4.5 -6.5,-4.5c-2.8,0 -10.217,2.967 -14,-1c-0.972,-1.019 -0.8,-2.2 -2,-3c-1.5,-1 -6.5,4 -10,6.5c-2.8,2 -2.5,-2.793 -5.5,-2.293z"/>
  <path id="svg_17" fill="#373D4B" d="m250,410.5c0.5,-3 11.5,-1 13.5,-2c1.703,-0.851 5.579,5.544 7.311,7.774c1.063,-2.758 3.589,-8.174 5.189,-7.774c2,0.5 5.5,-0.5 6,2c0.5,2.5 2,3 2.5,5c0.5,2 2.5,2.5 1,4c-1.5,1.5 -2,4 -4,3c-2,-1 -3,-0.5 -4.5,-1.5c-1.5,-1 -1.682,-1.575 -2.5,-1c-0.85,0.597 -1.879,0.755 -2.224,0c0.189,2.58 -0.206,6.16 -2.276,8c-2.125,1.889 -4.1,1.7 -6.5,2.5c-3,1 -8,-0.5 -10,-1c-2,-0.5 -3.5,-5.5 -5.5,-8c-2,-2.5 1.5,-8 2,-11z"/>
  <path id="svg_18" fill="#373D4B" d="m182.5,505.5c1.5,-1.5 3.5,-1 4.5,-1c0.333,0 1,0.4 1,2c0,2 1.5,0.5 3.5,1c2,0.5 2,1 1.5,5c-0.5,4 -2,2 -3.5,3.5l-2.5,2.5c-1.5,1.5 -2,1 -2.5,1.5c-0.5,0.5 -1.5,-0.5 -3.5,0c-2,0.5 -1.5,-1.5 -2.5,-3c-1,-1.5 -1,-2.5 -1,-4l0,-3.5c0,-2 0,-1.5 1.5,-2.5c1.5,-1 2,0 3.5,-1.5z"/>
  <path id="svg_19" fill="#373D4B" d="m485,348c3.2,0.8 4.333,3 4.5,4c0.5,1.167 1.4,3.8 1,5c-0.5,1.5 -1,2.5 -3,4.5c-2,2 -2.5,1.5 -6,1.5c-3.5,0 -2.5,-0.5 -7,0c-4.5,0.5 -3,-1 -6.5,-1.5c-3.5,-0.5 -0.5,-2.5 -1,-4.5c-0.5,-2 1.5,-2 4.5,-2c3,0 1.5,0 2,-1.5c0.5,-1.5 1.5,-1 3.5,-1.5c2,-0.5 1,-1.5 2,-3c1,-1.5 2,-2 6,-1z"/>
  <path id="svg_20" fill="#373D4B" d="m485,387c0.242,-2.244 -4.788,-6.868 -8,-6.5c-3.212,0.368 -12.135,8.319 -11.5,11c0.635,2.681 6.405,10.595 8,11.5c1.595,0.905 8.14,-2.13 9,-4c0.86,-1.87 2.258,-9.756 2.5,-12z"/>
  <path id="svg_21" fill="#373D4B" d="m502.5,391.5c-1,-2 8.5,-7.5 9.5,-6.5c1,1 5.8,6.7 7,7.5c1.5,1 -2.5,8 -4.5,9.5c-1.6,1.2 -11,-8.5 -12,-10.5z"/>
  <path id="svg_22" fill-opacity="0.6" fill="#373D4B" d="m180,497.5c2,0.4 4.167,5.167 5,7.5l-4,2.5l-2,0c-0.8,0 -1.667,-0.333 -2,-0.5c-0.333,-0.167 -1.2,-0.8 -2,-2c-1,-1.499 -1,0 -2,-3.5c-1,-1 -0.5,-1 -1,-3c-0.5,-2 2,-0.5 3,-2.5c1,-2 2.5,1 5,1.5z"/>
  <path id="svg_23" fill-opacity="0.6" fill="#373D4B" d="m196.5,511c-1.2,-1.2 -2.833,-1.5 -3.5,-1.5c-0.667,1.5 -2.1,4.7 -2.5,5.5c-0.5,1 0.5,1 1,1c0.5,0 2,1.5 2.5,1.5c0.5,0 1,1.5 2.5,1.5c1.5,0 1,0.5 2,0c1,-0.5 1,-1 2,-2c1,-1 1,-1 1.5,-3c0.5,-2 -1.5,0 -2.5,0c-1,0 -1.5,-1.5 -3,-3z"/>
  <path id="svg_24" fill-opacity="0.6" fill="#373D4B" d="m274.5,423.5c-1.2,0.4 -2.5,1.167 -3,1.5c-0.5,0.667 -1.5,2.2 -1.5,3c0,1 0.5,0.5 3,1.5c1.5,0.5 2,0.5 4.5,3c1.5,1 1,-0.5 2.5,-1c1.5,-0.5 1,-1 2,-1.5c1,-0.5 0,-1 0,-2l0,-1c-0.333,-0.333 -1.2,-1.5 -2,-3.5c0,-1.5 -1,0 -3,-1c-0.5,-1 -1,0.5 -2.5,1z"/>
  <path id="svg_25" fill-opacity="0.6" fill="#373D4B" d="m512,354l0,4c1.167,0.334 3.7,1 4.5,1c0.8,0 3,-0.666 4,-1l0,-1c-0.333,-0.333 0,-2 0,-3c0,-1.118 -0.5,-2 -1.5,-3.5c-1,-1.5 -2.5,-1 -3,-0.5l-0.323,0.323l-3.677,3.677z"/>
  <rect id="svg_26" fill-opacity="0.6" fill="#22262F" height="48" width="23" y="436" x="462"/>
  <path id="svg_27" fill="#373D4B" d="m230,68l15,0l0,15l-15,0l0,-15z"/>
  <path id="svg_28" fill="#373D4B" d="m107,51l25,0l0,4l-25,0l0,-4z"/>
  <path id="svg_29" fill="#373D4B" d="m155,51l155,0l0,4l-155,0l0,-4z"/>
  <path id="svg_30" fill="#373D4B" d="m332,51l60,0l0,4l-60,0l0,-4z"/>
  <path id="svg_31" fill="#373D4B" d="m344,55l13,0l0,5l-13,0l0,-5z"/>
  <path id="svg_32" fill="#373D4B" d="m346,46l13,0l0,5l-13,0l0,-5z"/>
  <path id="svg_33" fill="#373D4B" d="m352,2l13,0l0,6l-13,0l0,-6z"/>
  <path id="svg_34" fill="#373D4B" d="m257,2l13,0l0,6l-13,0l0,-6z"/>
  <path id="svg_35" fill="#373D4B" d="m250,46l13,0l0,6l-13,0l0,-6z"/>
  <path id="svg_36" fill="#373D4B" d="m259,57l3,0l0,3l-3,0l0,-3z"/>
  <path id="svg_37" fill="#373D4B" d="m212,57l3,0l0,3l-3,0l0,-3z"/>
  <path id="svg_38" fill="#373D4B" d="m293,76l6,0l0,5l-6,0l0,-5z"/>
  <path id="svg_39" fill="#373D4B" d="m174,76l6,0l0,5l-6,0l0,-5z"/>
  <path id="svg_40" fill="#373D4B" d="m259,97l3,0l0,3l-3,0l0,-3z"/>
  <path id="svg_41" fill="#373D4B" d="m212,97l3,0l0,3l-3,0l0,-3z"/>
  <path id="svg_42" fill="#373D4B" d="m162,2l13,0l0,6l-13,0l0,-6z"/>
  <path id="svg_43" fill="#373D4B" d="m106,2l6,0l0,6l-6,0l0,-6z"/>
  <path id="svg_44" fill="#373D4B" d="m106,45l6,0l0,6l-6,0l0,-6z"/>
  <path id="svg_45" fill="#373D4B" d="m370,2l13,0l0,6l-13,0l0,-6z"/>
  <path id="svg_46" fill="#373D4B" d="m275,2l13,0l0,6l-13,0l0,-6z"/>
  <path id="svg_47" fill="#373D4B" d="m271,46l13,0l0,6l-13,0l0,-6z"/>
  <path id="svg_48" fill="#373D4B" d="m318,125l13,0l0,6l-13,0l0,-6z"/>
  <path id="svg_49" fill="#373D4B" d="m339,125l13,0l0,6l-13,0l0,-6z"/>
  <path id="svg_50" fill="#373D4B" d="m180,2l13,0l0,6l-13,0l0,-6z"/>
  <path id="svg_51" fill="#373D4B" d="m366,55l13,0l0,5l-13,0l0,-5z"/>
  <path id="svg_52" fill="#373D4B" d="m366,46l13,0l0,5l-13,0l0,-5z"/>
  <path id="svg_53" fill="#373D4B" d="m576,52l13,0l0,7l-13,0l0,-7z"/>
  <path id="svg_54" fill="#373D4B" d="m425.788,76.3579l7.187,7.7316l-7.277,6.7643l-7.187,-7.7316l7.277,-6.7643z"/>
  <path id="svg_55" fill="#373D4B" d="m504.435,287.246l8.994,9.675l-7.277,6.764l-8.993,-9.675l7.276,-6.764z"/>
  <path id="svg_56" fill="#373D4B" d="m480.892,119l4.539,2.568l-4.892,8.647l-4.539,-2.568l4.892,-8.647z"/>
  <path id="svg_57" fill="#373D4B" d="m637,52l13,0l0,7l-13,0l0,-7z"/>
  <path id="svg_58" fill="#373D4B" d="m239,347c0,1.657 -1.343,3 -3,3c-1.657,0 -3,-1.343 -3,-3c0,-1.657 1.343,-3 3,-3c1.657,0 3,1.343 3,3z"/>
  <path id="svg_59" fill="#373D4B" d="m262,328c0,1.657 -1.343,3 -3,3c-1.657,0 -3,-1.343 -3,-3c0,-1.657 1.343,-3 3,-3c1.657,0 3,1.343 3,3z"/>
  <path id="svg_60" fill="#373D4B" d="m220,328c0,1.657 -1.343,3 -3,3c-1.657,0 -3,-1.343 -3,-3c0,-1.657 1.343,-3 3,-3c1.657,0 3,1.343 3,3z"/>
  <path id="svg_61" fill="#373D4B" d="m262,372c0,1.657 -1.343,3 -3,3c-1.657,0 -3,-1.343 -3,-3c0,-1.657 1.343,-3 3,-3c1.657,0 3,1.343 3,3z"/>
  <path id="svg_62" fill="#373D4B" d="m220,372c0,1.657 -1.343,3 -3,3c-1.657,0 -3,-1.343 -3,-3c0,-1.657 1.343,-3 3,-3c1.657,0 3,1.343 3,3z"/>
  <path id="svg_63" fill="#373D4B" d="m271,343l3,0l0,13l-3,0l0,-13z"/>
  <path id="svg_64" fill="#373D4B" d="m126,311l16,0l0,9l-16,0l0,-9z"/>
  <path id="svg_65" fill="#373D4B" d="m138,260l14,0l0,14l-14,0l0,-14z"/>
  <path id="svg_66" fill="#373D4B" d="m601,445l16,0l0,9l-16,0l0,-9z"/>
  <path id="svg_67" fill="#373D4B" d="m650,464l13,0l0,17l-13,0l0,-17z"/>
  <path id="svg_68" fill="#373D4B" d="m709,503l13,0l0,12l-13,0l0,-12z"/>
  <path id="svg_69" fill="#373D4B" d="m685,581l13,0l0,8l-13,0l0,-8z"/>
  <path id="svg_70" fill="#373D4B" d="m484,653l8,0l0,14l-8,0l0,-14z"/>
  <path id="svg_71" fill="#373D4B" d="m413,584l8,0l0,11l-8,0l0,-11z"/>
  <path id="svg_72" fill="#373D4B" d="m435,555l11,0l0,11l-11,0l0,-11z"/>
  <path id="svg_73" fill="#373D4B" d="m451,506l11,0l0,11l-11,0l0,-11z"/>
  <path id="svg_74" fill="#373D4B" d="m650.353,653.593l11.736,5.592l-3.442,7.222l-11.736,-5.592l3.442,-7.222z"/>
  <path id="svg_75" fill="#373D4B" d="m639.784,656l6.346,3.024l-4.785,10.04l-6.345,-3.024l4.784,-10.04z"/>
  <path id="svg_76" fill="#373D4B" d="m650,481l6,0l0,8l-6,0l0,-8z"/>
  <path id="svg_77" fill="#373D4B" d="m632,421l0,18.5l2.5,0l0,-18.5l-2.5,0z"/>
  <path id="svg_78" fill="#373D4B" d="m647,435l0,19l4,0l0,-19l-4,0z"/>
  <path id="svg_79" fill-opacity="0.6" fill="#373D4B" d="m152,260l14,0l0,14l-14,0l0,-14z"/>
  <path id="svg_80" fill-opacity="0.6" fill="#373D4B" d="m601,435l16,0l0,10l-16,0l0,-10z"/>
  <path id="svg_81" fill-opacity="0.6" fill="#373D4B" d="m634,404l3,0l0,14l-3,0l0,-14z"/>
  <path id="svg_82" fill-opacity="0.6" fill="#373D4B" d="m681,391l5,0l0,26l-5,0l0,-26z"/>
  <path id="svg_83" fill-opacity="0.6" fill="#373D4B" d="m597.41,415.936l9.761,11.828l-5.988,4.941l-9.76,-11.828l5.987,-4.941z"/>
  <path id="svg_84" fill-opacity="0.6" fill="#373D4B" d="m695,503l15,0l0,12l-15,0l0,-12z"/>
  <path id="svg_85" fill-opacity="0.6" fill="#373D4B" d="m695,563l27,0l0,15l-27,0l0,-15z"/>
  <path id="svg_86" fill-opacity="0.6" fill="#373D4B" d="m647,558l6,0l0,36l-6,0l0,-36z"/>
  <path id="svg_87" fill-opacity="0.6" fill="#373D4B" d="m650,481l13,0l0,15l-13,0l0,-15z"/>
  <path id="svg_88" fill-opacity="0.6" fill="#373D4B" d="m455,621l13,0l0,14l-13,0l0,-14z"/>
  <path id="svg_89" fill-opacity="0.6" fill="#373D4B" d="m428,543l7,0l0,19l-7,0l0,-19z"/>
  <path id="svg_90" fill-opacity="0.6" fill="#373D4B" d="m446,555l6,0l0,7l-6,0l0,-7z"/>
  <path id="svg_91" fill-opacity="0.6" fill="#373D4B" d="m413,567l11,0l0,28l-11,0l0,-28z"/>
  <path id="svg_92" fill-opacity="0.6" fill="#373D4B" d="m443,625l2,0l0,24l-2,0l0,-24z"/>
  <path id="svg_93" fill-opacity="0.6" fill="#373D4B" d="m478,625l2,0l0,24l-2,0l0,-24z"/>
  <path id="svg_94" fill-opacity="0.6" fill="#373D4B" d="m478,601l2,0l0,8l-2,0l0,-8z"/>
  <path id="svg_95" fill-opacity="0.6" fill="#373D4B" d="m442,601l2,0l0,15l-2,0l0,-15z"/>
  <path id="svg_96" fill-opacity="0.6" fill="#373D4B" d="m443,603l0,-2l15,0l0,2l-15,0z"/>
  <path id="svg_97" fill-opacity="0.6" fill="#373D4B" d="m467,603l0,-2l12,0l0,2l-12,0z"/>
  <path id="svg_98" fill="#282C34" d="m392,57l20,0l0,3l-20,0l0,-3z"/>
  <path id="svg_99" fill="#282C34" d="m601,226l14,0l0,3l-14,0l0,-3z"/>
  <path id="svg_100" fill="#282C34" d="m652,350l29,0l0,3l-29,0l0,-3z"/>
  <path id="svg_101" fill="#282C34" d="m659,620l9,0l0,3l-9,0l0,-3z"/>
  <path id="svg_102" fill="#282C34" d="m392,64l20,0l0,3l-20,0l0,-3z"/>
  <path id="svg_103" fill="#282C34" d="m601,233l14,0l0,3l-14,0l0,-3z"/>
  <path id="svg_104" fill="#282C34" d="m652,357l29,0l0,3l-29,0l0,-3z"/>
  <path id="svg_105" fill="#282C34" d="m659,627l9,0l0,3l-9,0l0,-3z"/>
  <path id="svg_106" fill="#282C34" d="m236,629l21,0l0,3l-21,0l0,-3z"/>
  <path id="svg_107" fill="#282C34" d="m392,71l20,0l0,3l-20,0l0,-3z"/>
  <path id="svg_108" fill="#282C34" d="m601,240l14,0l0,3l-14,0l0,-3z"/>
  <path id="svg_109" fill="#282C34" d="m652,364l29,0l0,3l-29,0l0,-3z"/>
  <path id="svg_110" fill="#282C34" d="m659,634l9,0l0,3l-9,0l0,-3z"/>
  <path id="svg_111" fill="#282C34" d="m236,636l21,0l0,3l-21,0l0,-3z"/>
  <path id="svg_112" fill="#282C34" d="m659,178l23,0l0,3l-23,0l0,-3z"/>
  <path id="svg_113" fill="#282C34" d="m392,78l20,0l0,3l-20,0l0,-3z"/>
  <path id="svg_114" fill="#282C34" d="m601,247l14,0l0,3l-14,0l0,-3z"/>
  <path id="svg_115" fill="#282C34" d="m652,371l29,0l0,3l-29,0l0,-3z"/>
  <path id="svg_116" fill="#282C34" d="m659,641l9,0l0,3l-9,0l0,-3z"/>
  <path id="svg_117" fill="#282C34" d="m236,643l21,0l0,3l-21,0l0,-3z"/>
  <path id="svg_118" fill="#282C34" d="m659,185l23,0l0,3l-23,0l0,-3z"/>
  <path id="svg_119" fill="#282C34" d="m392,85l20,0l0,3l-20,0l0,-3z"/>
  <path id="svg_120" fill="#282C34" d="m601,254l14,0l0,3l-14,0l0,-3z"/>
  <path id="svg_121" fill="#282C34" d="m652,378l29,0l0,3l-29,0l0,-3z"/>
  <path id="svg_122" fill="#282C34" d="m659,192l23,0l0,3l-23,0l0,-3z"/>
  <path id="svg_123" fill="#282C34" d="m392,92l20,0l0,3l-20,0l0,-3z"/>
  <path id="svg_124" fill="#282C34" d="m601,261l14,0l0,3l-14,0l0,-3z"/>
  <path id="svg_125" fill="#282C34" d="m652,385l29,0l0,3l-29,0l0,-3z"/>
  <path id="svg_126" fill="#282C34" d="m659,199l23,0l0,3l-23,0l0,-3z"/>
  <path id="svg_127" fill="#282C34" d="m392,99l20,0l0,3l-20,0l0,-3z"/>
  <path id="svg_128" fill="#282C34" d="m659,209l23,0l0,3l-23,0l0,-3z"/>
  <path id="svg_129" fill="#282C34" d="m659,216l23,0l0,3l-23,0l0,-3z"/>
  <path id="svg_130" fill="#282C34" d="m659,223l23,0l0,3l-23,0l0,-3z"/>
  <path id="svg_131" fill="#282C34" d="m659,230l23,0l0,3l-23,0l0,-3z"/>
  <path id="svg_132" fill="#454545" d="m104,0l313.5,0l0,46.5l48,0l0,-4l99.5,0l0,8l119,0l0,257l40,0l0,272.5l-16,0l0,131.5l-45,0l0,-11l-67,0l0,5.5l-68,0l0,-7l-53.5,0l0,1.5l-93,0l0,-45l-173,0l0,-91.5l-60.5,0l0,-142.5l-148,0l0,-120l22,0l0,-129.5l86.5,0l0,-39l-3.5,0l0,-86.5l-5.5,0l0,-39.5l4.5,0l0,-7zm6.5,133l0,41l-86.5,0l0,129.5l-22,0l0,116l148,0l0,142.5l60.5,0l0,91.5l173,0l0,45l89,0l0,-1.5l57.5,0l0,7l64,0l0,-5.5l71,0l0,11l41,0l0,-131.5l16,0l0,-268.5l-40,0l0,-257l-119,0l0,-8l-95.5,0l0,4l-52,0l0,-46.5l-309.5,0l0,7l-4.5,0l0,35.5l5.5,0l0,86.5l6,0l0,2l-2.5,0zm281.5,-15l27.5,0l0,31l-27.5,0l0,-31zm2,2l0,27l23.5,0l0,-27l-23.5,0zm-128,11l95.5,0l0,18l-95.5,0l0,-18zm2,2l0,14l91.5,0l0,-14l-91.5,0zm346,9l45.5,0l0,60l-45.5,0l0,-60zm2,2l0,56l41.5,0l0,-56l-41.5,0zm-147.5,6.5l27,0l0,2.5l47,0l0,33l-57,0l0,-11.5l-17,0l0,-24zm2,2l0,20l17,0l0,11.5l53,0l0,-29l-47,0l0,-2.5l-23,0zm-68,25.5l48.5,0l0,33l136.5,0l0,52l-42.5,0l0,-11.5l-49.5,0l0,41l-93,0l0,-114.5zm2,2l0,110.5l89,0l0,-41l53.5,0l0,11.5l38.5,0l0,-48l-136.5,0l0,-33l-44.5,0zm209.5,43l28,0l0,57.5l-28,0l0,-57.5zm2,2l0,53.5l24,0l0,-53.5l-24,0zm-572,54l66.5,0l0,31.5l13.5,0l0,26l24,0l0,27l-42.5,0l0,4.5l-61.5,0l0,-89zm2,2l0,85l57.5,0l0,-4.5l42.5,0l0,-23l-24,0l0,-26l-13.5,0l0,-31.5l-62.5,0zm573,30.5l28.5,0l0,35.5l4.5,0l0,44l-14.5,0l0,13.5l-6,0l0,-29l-61,0l0,-42.5l48.5,0l0,-21.5zm2,2l0,21.5l-48.5,0l0,38.5l61,0l0,29l2,0l0,-13.5l14.5,0l0,-40l-4.5,0l0,-35.5l-24.5,0zm-290.5,2l71.5,0l0,52l-71.5,0l0,-52zm2,2l0,48l67.5,0l0,-48l-67.5,0zm348,29.5l14,0l0,88l-14,0l0,-18.5l5.5,0l0,-25.5l-5.5,0l0,-44zm2,2l0,40l5.5,0l0,29.5l-5.5,0l0,14.5l10,0l0,-84l-10,0zm-352,47.5l53.5,0l0,31l26,0l0,-3l52,0l0,6l2.5,0l0,4.414l-2.5,2.5l0,46.586l-65.5,0l0,38l-14.5,0l0,12.5l-24.5,0l0,-47.5l-27,0l0,-90.5zm2,2l0,86.5l27,0l0,47.5l20.5,0l0,-12.5l14.5,0l0,-38l65.5,0l0,-45.414l2.5,-2.5l0,-1.586l-2.5,0l0,-6l-48,0l0,3l-30,0l0,-31l-49.5,0zm208,78.5l61.5,0l0,23l48,0l0,22l-2.5,0l0,72l6.5,0l0,14l0,1l0,10l0,1l0,35.5l-55,0l0,2.5l-25,0l0,-7l-13.5,0l0,2.5l-11.5,0l0,-4.5l3,0l0,-56.5l-13.5,0l0,-3.5l-28,0l0,3.5l-11.5,0l0,-89.5l41.5,0l0,-26zm2,2l0,26l-41.5,0l0,85.5l7.5,0l0,-3.5l32,0l0,3.5l13.5,0l0,60.5l-3,0l0,0.5l7.5,0l0,-2.5l17.5,0l0,7l21,0l0,-2.5l55,0l0,-57.5l-6.5,0l0,-76l2.5,0l0,-18l-48,0l0,-23l-57.5,0zm-136,53.5l6.5,0l0,65l-6.5,0l0,-65zm2,2l0,61l2.5,0l0,-61l-2.5,0zm-77.5,21.5l4.5,0l0,2l48,0l0,72.5l-52.5,0l0,-74.5zm2.5,2l-0.5,0l0,70.5l48.5,0l0,-68.5l-48,0l0,-2zm73,57l6.5,0l0,38l-6.5,0l0,-38zm2,2l0,34l2.5,0l0,-34l-2.5,0z" clip-rule="evenodd" fill-rule="evenodd"/>
  <path id="svg_133" fill="#454545" d="m602,278l13,0l0,2.5l-10,0l0,31.5l-38.5,0l0,-14l2,0l0,10.5l33.5,0l0,-30.5z"/>
  <path id="svg_134" fill="#454545" d="m566.5,262.5l0,27l2,0l0,-27l-2,0z"/>
  <path id="svg_135" fill="#454545" d="m602,264l0,-52.5l-2.5,0l0,52.5l2.5,0z"/>
  <path id="svg_136" fill="#454545" d="m388,55.5002l4,0l0,62.4998l0.5,0l0,3.5l-4.5,0l0,-65.9998z"/>
  <path id="svg_137" fill="#454545" d="m472,118l-53,0l0,3.5l50,0l0,17.5l25.5,0l0,-3.5l-22.5,0l0,-17.5z"/>
  <path id="svg_138" fill="#454545" d="m148.5,131l117.5,0l0,3.5l-117.5,0l0,-3.5z"/>
  <path id="svg_139" fill="#454545" d="m163.5,149.5l0,-3.5l40.5,0l0,3.5l-40.5,0z"/>
  <path id="svg_140" fill="#454545" d="m106,253.5l0,-80l4.5,0l0,80l-4.5,0z"/>
  <path id="svg_141" fill="#454545" d="m110.5,272l0,7l-4.5,0l0,-7l4.5,0z"/>
  <path id="svg_142" fill="#454545" d="m120,265l0,-95l4.5,0l0,95l-4.5,0z"/>
  <path id="svg_143" fill="#454545" d="m199,363l-51.5,0l0,-3l51.5,0l0,-4l4,0l0,27.5l67.5,0l0,-27.5l4,0l0,31.5l-75.5,0l0,-24.5z"/>
  <path id="svg_144" fill="#454545" d="m199,312.5l75.5,0l0,31l-4,0l0,-27.5l-67.5,0l0,27.5l-4,0l0,-3.5l-22.5,0l0,-4l22.5,0l0,-23.5z"/>
  <path id="svg_145" fill="#454545" d="m299,562.5l-89,0l0,3.5l89,0l0,-3.5z"/>
  <path id="svg_146" fill="#454545" d="m332,562.5l-18,0l0,3.5l18,0l0,-3.5z"/>
  <path id="svg_147" fill="#454545" d="m287,654l0,-51.5l3,0l0,51.5l-3,0z"/>
  <path id="svg_148" fill="#454545" d="m331,503.5l0,52.5l0,1l3,0l0,-53.5l-3,0z"/>
  <path id="svg_149" fill="#454545" d="m331,491l0,-4l3,0l0,4l-3,0z"/>
  <path id="svg_150" fill="#454545" d="m361,210.5l0,-62.5l-3,0l0,62.5l3,0z"/>
  <path id="svg_151" fill="#454545" d="m358,224.5l0,91.5l3,0l0,-90.5l8.5,-8.5l0,-4l-11.5,11.5z"/>
  <path id="svg_152" fill="#454545" d="m341,192l0,-44l4,0l0,44l-4,0z"/>
  <path id="svg_153" fill="#454545" d="m341,294.5l0,-63l3.5,0l0,67l-26,0l0,70l-4.5,0l0,-74l27,0z"/>
  <path id="svg_154" fill="#454545" d="m314,422.5l0,-26l4.5,0l0,26l-4.5,0z"/>
  <path id="svg_155" fill="#454545" d="m314,436.5l4.5,0l0,26.5l-4.5,0l0,-26.5z"/>
  <path id="svg_156" fill="#454545" d="m314,530.5l0,-41l4.5,0l0,41l-4.5,0z"/>
  <path id="svg_157" fill="#454545" d="m409,504.5l0,28.5l3,0l0,-28.5l-3,0z"/>
  <path id="svg_158" fill="#454545" d="m510.5,653l-98,0l0,-3.5l85.5,0l0,-34.5l4,0l0,34.5l8.5,0l0,3.5z"/>
  <path id="svg_159" fill="#454545" d="m499,601l0,-8.5l3.5,0l0,8.5l-3.5,0z"/>
  <path id="svg_160" fill="#454545" d="m530,653l19.5,0l0,-3.5l-19.5,0l0,3.5z"/>
  <path id="svg_161" fill="#454545" d="m601.5,433l-137.5,0l-1.5,3.5l137,0l0,22l2,0l0,-25.5z"/>
  <path id="svg_162" fill="#454545" d="m631.5,421l0,-16.5l2.5,0l0,13l4,0l0,3.5l-6.5,0z"/>
  <path id="svg_163" fill="#454545" d="m647,417.5l0,3.5l20.5,0l0,-3.5l-20.5,0z"/>
  <path id="svg_164" fill="#454545" d="m678,417.5l0,3.5l3.5,0l0,-3.5l-3.5,0z"/>
  <path id="svg_165" fill="#454545" d="m689.5,578l17.5,0l0,4l-17.5,0l0,-4z"/>
  <path id="svg_166" fill="#454545" d="m659,619l-5,0l0,1l4,0l0,24.5l1,0l0,-25.5z"/>
  <path id="svg_167" fill="#454545" d="m669,608l-15,0l0,1l14,0l0,35.5l1,0l0,-36.5z"/>
  <path id="svg_168" fill="#FF6B00" d="m590.448,151.968l0,-15.072l-5.448,0l0,-1.896l12.984,0l0,1.896l-5.448,0l0,15.072l-2.088,0z"/>
  <path id="svg_169" fill="#0085FF" d="m238.088,605.968l-2.088,0l0,-16.968l2.088,0l0,7.824l2.52,0l5.52,-7.824l2.4,0l-6.096,8.424l6.144,8.544l-2.472,0l-5.328,-7.248l-2.688,0l0,7.248z"/>
  <path id="svg_170" fill="#0085FF" d="m256.784,605.968l-2.088,0l0,-15.072l-5.448,0l0,-1.896l12.984,0l0,1.896l-5.448,0l0,15.072z"/>
  <path id="svg_171" fill-opacity="0.2" fill="#7000FF" d="m194,331l-67,0l0,-97l67,0l0,97z"/>
  <path id="svg_172" fill-opacity="0.08" fill="white" d="m128.654,328.5l63.692,0l0,-92.5l-63.692,0l0,92.5zm65.346,2.5l0,-97l-67,0l0,97l67,0z" clip-rule="evenodd" fill-rule="evenodd"/>
  <path id="svg_173" fill="white" d="m152,293.532l0,-20.532l9.106,0c0.947,0 1.817,0.097 2.61,0.29c0.812,0.193 1.518,0.541 2.117,1.044c0.483,0.387 0.889,0.899 1.218,1.537c0.348,0.619 0.522,1.373 0.522,2.262c0.019,0.947 -0.155,1.788 -0.522,2.523c-0.348,0.735 -0.947,1.353 -1.798,1.856c0.599,0.174 1.112,0.435 1.537,0.783c0.425,0.348 0.764,0.754 1.015,1.218c0.271,0.464 0.464,0.967 0.58,1.508c0.116,0.541 0.164,1.102 0.145,1.682c-0.039,0.928 -0.29,1.788 -0.754,2.581c-0.445,0.773 -1.034,1.402 -1.769,1.885c-0.87,0.599 -1.827,0.976 -2.871,1.131c-1.044,0.155 -2.078,0.232 -3.103,0.232l-8.033,0zm7.917,-12.209c0.425,0 0.851,-0.019 1.276,-0.058c0.425,-0.058 0.822,-0.193 1.189,-0.406c0.309,-0.193 0.57,-0.454 0.783,-0.783c0.213,-0.329 0.329,-0.715 0.348,-1.16c0.019,-0.464 -0.058,-0.841 -0.232,-1.131c-0.174,-0.29 -0.387,-0.512 -0.638,-0.667c-0.309,-0.193 -0.667,-0.3 -1.073,-0.319c-0.406,-0.039 -0.822,-0.058 -1.247,-0.058l-4.118,0l0,4.582l3.712,0zm-3.712,8.497l3.828,0c0.561,0 1.15,-0.029 1.769,-0.087c0.638,-0.077 1.179,-0.28 1.624,-0.609c0.271,-0.213 0.493,-0.474 0.667,-0.783c0.174,-0.329 0.261,-0.735 0.261,-1.218c0,-0.445 -0.097,-0.822 -0.29,-1.131c-0.193,-0.309 -0.435,-0.541 -0.725,-0.696c-0.329,-0.213 -0.706,-0.338 -1.131,-0.377c-0.406,-0.039 -0.831,-0.058 -1.276,-0.058l-4.727,0.029l0,4.93z"/>
  <path id="svg_174" fill-opacity="0.2" fill="#7000FF" d="m478,597l-67,0l0,-92l67,0l0,92z"/>
  <path id="svg_175" fill-opacity="0.08" fill="white" d="m412.655,594.5l63.691,0l0,-87.4l-63.691,0l0,87.4zm65.345,2.5l0,-92l-67,0l0,92l67,0z" clip-rule="evenodd" fill-rule="evenodd"/>
  <path id="svg_176" fill="white" d="m440.062,557.617l-1.479,3.915l-4.582,0l7.946,-20.532l4.756,0l7.83,20.532l-4.611,0l-1.421,-3.915l-8.439,0zm1.218,-3.712l5.974,0l-2.958,-8.439l-3.016,8.439z"/>
  <path id="svg_177" fill-opacity="0.1" fill="#D9D9D9" d="m547.897,143l-2.829,0l-2.568,2.568l0,2.829l5.397,-5.397zm2.171,0l-7.568,7.568l0,2.829l10.397,-10.397l-2.829,0zm5,0l-12.568,12.568l0,2.829l15.397,-15.397l-2.829,0zm-12.568,20.397l0,-2.829l17.568,-17.568l2.829,0l-20.397,20.397zm0,2.171l0,2.829l21.5,-21.5l0,-2.829l-21.5,21.5zm0,7.829l0,-2.829l21.5,-21.5l0,2.829l-21.5,21.5zm0,2.171l0,2.829l21.5,-21.5l0,-2.829l-21.5,21.5zm0,7.829l0,-2.829l21.5,-21.5l0,2.829l-21.5,21.5zm0.568,1.603l2.829,0l18.103,-18.103l0,-2.829l-20.932,20.932zm7.829,0l-2.829,0l15.932,-15.932l0,2.829l-13.103,13.103zm2.171,0l2.829,0l8.103,-8.103l0,-2.829l-10.932,10.932zm7.829,0l-2.829,0l5.932,-5.932l0,2.829l-3.103,3.103zm2.171,0l0.932,0l0,-0.932l-0.932,0.932z" clip-rule="evenodd" fill-rule="evenodd"/>
  <path id="svg_178" fill-opacity="0.1" fill="#D9D9D9" d="m565.568,167.5l2.829,0l-4.397,4.397l0,-2.829l1.568,-1.568zm-1.568,11.568l0,2.829l14.397,-14.397l-2.829,0l-11.568,11.568zm0,5.932l0,-0.932l16.568,-16.568l2.829,0l-17.5,17.5l-1.897,0zm4.068,0l2.829,0l17.5,-17.5l-2.829,0l-17.5,17.5zm7.829,0l-2.829,0l17.5,-17.5l2.829,0l-17.5,17.5zm2.171,0l2.829,0l17.5,-17.5l-2.829,0l-17.5,17.5zm7.829,0l-2.829,0l17.5,-17.5l2.829,0l-17.5,17.5zm0.603,1.568l0,2.829l21.897,-21.897l-2.829,0l-19.068,19.068zm0,7.829l0,-2.829l24.068,-24.068l2.829,0l-26.897,26.897zm-7.103,2.103l-3.897,0l0,3.897l3.897,-3.897zm2.171,0l-6.068,6.068l0,2.829l8.897,-8.897l-2.829,0zm-6.068,11.068l0,2.829l22,-22l0,-2.829l-22,22zm4.397,3.432l-2.829,0l20.432,-20.432l0,2.829l-17.603,17.603zm2.171,0l2.829,0l14.5,-14.5l-1.897,0l0,-0.932l-15.432,15.432zm5.432,0l-0.432,0l13.432,-13.432l0,2.829l-11.103,11.103l-1.897,0l0,-0.5zm4.068,0.5l2.829,0l6.103,-6.103l0,-2.829l-8.932,8.932zm7.829,0l-2.829,0l3.932,-3.932l0,2.829l-1.103,1.103zm-1.329,-26.5l2.829,0l13.103,-13.103l0,-2.829l-15.932,15.932zm7.829,0l-2.829,0l10.932,-10.932l0,2.829l-8.103,8.103zm2.171,0l2.829,0l3.103,-3.103l0,-2.829l-5.932,5.932zm5.932,0l-0.932,0l0.932,-0.932l0,0.932zm-50,-8.103l9.397,-9.397l-2.829,0l-6.568,6.568l0,2.829z" clip-rule="evenodd" fill-rule="evenodd"/>
  <path id="svg_179" fill-opacity="0.1" fill="#D9D9D9" d="m474.383,436l4.243,0l-16.626,16.626l0,-4.243l12.383,-12.383zm-12.383,22.383l22.383,-22.383l4.243,0l-26.626,26.626l0,-4.243zm0,10l0,4.243l36.626,-36.626l-4.243,0l-32.383,32.383zm6.626,7.617l-4.243,0l40,-40l4.243,0l-40,40zm5.757,0l4.243,0l40,-40l-4.243,0l-40,40zm14.243,0l-4.243,0l40,-40l4.243,0l-40,40zm5.757,0l4.243,0l40,-40l-4.243,0l-40,40zm14.243,0l-4.243,0l40,-40l4.243,0l-40,40zm5.757,0l4.243,0l31.374,-31.374l0,-4.243l-35.617,35.617zm14.243,0l-4.243,0l25.617,-25.617l0,4.243l-21.374,21.374zm5.757,0l4.243,0l11.374,-11.374l0,-4.243l-15.617,15.617zm14.243,0l-4.243,0l5.617,-5.617l0,4.243l-1.374,1.374zm-80,-40l-4.243,0l-2.383,2.383l0,4.243l6.626,-6.626z" clip-rule="evenodd" fill-rule="evenodd"/>
  <path id="svg_180" fill-opacity="0.1" fill="#D9D9D9" d="m462,478.383l0,4.243l6.626,-6.626l-4.243,0l-2.383,2.383zm0,20l0,4.243l26.626,-26.626l-4.243,0l-22.383,22.383zm7.626,6.617l-4.243,0l29,-29l2.617,0l0,1.626l-27.374,27.374zm5.757,0l4.243,0l17.374,-17.374l0,-4.243l-21.617,21.617zm14.243,0l-4.243,0l11.617,-11.617l0,4.243l-7.374,7.374zm5.757,0l1.617,0l0,-1.617l-1.617,1.617zm-33.383,-12.374l16.626,-16.626l-4.243,0l-12.383,12.383l0,4.243z" clip-rule="evenodd" fill-rule="evenodd"/>
  <path id="svg_181" fill-opacity="0.1" fill="#D9D9D9" d="m450.626,494l-4.243,0l-11,11l4.243,0l11,-11zm-14.243,0l4.243,0l-11,11l-4.243,0l11,-11zm-5.757,0l-4.243,0l-11,11l4.243,0l11,-11zm-14.243,0l4.243,0l-8.626,8.626l0,-4.243l4.383,-4.383zm40,0l-11,11l4.243,0l11,-11l-4.243,0zm-1,11l4.243,0l2.374,-2.374l0,-4.243l-6.617,6.617z" clip-rule="evenodd" fill-rule="evenodd"/>
  <rect id="svg_185" height="21.72619" width="16.36905" y="481.55185" x="395.54124" className="map-rect"/>
  <rect id="svg_186" height="11.60714" width="52.38095" y="481.84947" x="409.23172" className="map-rect"/>
  <rect id="svg_188" height="11.01191" width="52.38095" y="493.45661" x="409.23172" className="map-rect"/>
  <rect id="svg_189" height="71.42857" width="37.79762" y="433.9328" x="460.4222" className="map-rect"/>
  <rect id="svg_191" height="43.45238" width="56.25" y="433.63518" x="495.24359" className="map-rect"/>
  <rect id="svg_192" height="28.57143" width="46.13095" y="476.78995" x="496.13645" className="map-rect"/>
  <rect id="svg_193" height="44.64286" width="51.19048" y="432.74233" x="551.49359" className="map-rect"/>
  <rect id="svg_194" height="49.70238" width="22.02381" y="262.80188" x="545.54121" className="map-rect"/>
  <rect id="svg_195" height="4.16667" width="8.63095" y="476.49233" x="541.37454" className="map-rect"/>
  <rect id="svg_196" height="19.94048" width="12.79762" y="434.82566" x="602.98169" className="map-rect"/>
  <rect id="svg_197" height="20.89947" width="7.67196" y="434.08139" x="598.84784" className="map-rect"/>
  <rect id="svg_199" height="20.63492" width="3.43915" y="434.08139" x="614.72085" className="map-rect"/>
  <rect id="svg_200" height="22.22222" width="47.61904" y="454.45176" x="601.49334" className="map-rect"/>
  <rect id="svg_201" height="2.38095" width="52.38095" y="476.67398" x="549.90604" className="map-rect"/>
  <rect id="svg_203" height="24.33862" width="47.8836" y="476.14488" x="601.22879" className="map-rect"/>
  <rect id="svg_204" height="19.84127" width="10.84656" y="434.34594" x="638.79492" className="map-rect"/>
  <rect id="svg_205" height="33.33333" width="13.75661" y="463.18192" x="649.64148" className="map-rect"/>
  <rect id="svg_206" height="12.16931" width="27.51323" y="503.129" x="695.14413" className="map-rect"/>
  <rect id="svg_207" height="14.02116" width="46.03174" y="420.85388" x="635.09122" className="map-rect"/>
  <rect id="svg_208" height="33.06878" width="49.20635" y="389.3724" x="632.97482" className="map-rect"/>
  <rect id="svg_210" height="30.15873" width="7.67196" y="388.57874" x="680.59386" className="map-rect"/>
  <rect id="svg_211" height="43.91534" width="29.89418" y="347.30891" x="652.02244" className="map-rect"/>
  <rect id="svg_212" height="14.55026" width="8.46561" y="652.59989" x="483.76848" className="map-rect"/>
  <rect id="svg_213" height="50" width="39.41799" y="262.38828" x="566.30815" className="map-rect"/>
  <rect id="svg_214" height="52.1164" width="15.34391" y="211.33008" x="586.14942" className="map-rect"/>
  <rect id="svg_216" height="54.49735" width="16.40212" y="225.88034" x="599.90604" className="map-rect"/>
  <rect id="svg_217" height="16.40212" width="26.45502" y="196.25071" x="575.56741" className="map-rect"/>
  <rect id="svg_218" height="11.64021" width="11.11111" y="185.1396" x="586.41397" className="map-rect"/>
  <rect id="svg_219" height="19.57672" width="72.48677" y="166.09198" x="541.96953" className="map-rect"/>
  <rect id="svg_221" height="25.39682" width="23.80952" y="142.28246" x="540.91133" className="map-rect"/>
  <rect id="svg_222" height="17.98942" width="48.4127" y="135.93326" x="494.35049" className="map-rect"/>
  <rect id="svg_223" height="11.90476" width="26.19047" y="139.10786" x="469.48276" className="map-rect"/>
  <rect id="svg_224" height="17.72487" width="3.1746" y="421.11843" x="631.91662" className="map-rect"/>
  <rect id="svg_225" height="7.93651" width="13.22751" y="581.17133" x="684.82667" className="map-rect"/>
  <rect id="svg_226" height="16.2338" width="27.27278" y="259.2659" x="138.65366" className="map-rect"/>
  <rect id="svg_227" height="15.58444" width="18.18185" y="67.7071" x="228.91357" className="map-rect"/>
 </g>
</svg>