<svg width="753" height="668" xmlns="http://www.w3.org/2000/svg" style="vector-effect: non-scaling-stroke;" stroke="null" fill="none">
 <g stroke="null">
  <path stroke="null" fill-rule="evenodd" clip-rule="evenodd" d="m88.5,351l0,70.5l-24.5,0l0,-13l-63,0l0,-125l87.5,0l0,28l6,0l0,-109l75,0l-2.5,-34l105,-3.5l0,-3.5l5.5,0l0,-7l-6.5,0l-5.5,-27.5l5.5,-1.5l-1,-4.5l-6,1l-5,-30.5l5,-1.5l0,-4l57,-10.5l1,6l5.5,-1.5l-12,-64l60.5,1.5l0,20l59,0l0,3.5l1.5,0l0,-40l98.5,0l0,3.5l36.5,0l0,-3.5l78.5,0l0,34.5l5.5,0l0,26.5l4,0l0,-26.5l29,0l0,195l-1.5,0l0,2.5l65,0l0,107l-36.5,0l0,42.5l-86,0l0,40.5l-7,0l0,17.5l-16.5,0l0,4.5l-4,3c-2.258,22.583 -8.242,33.53 -31.5,48.5c-0.72,18.297 -4.026,28.003 -19.5,43.5l10.5,12l-2,3l2,2.5l3.5,-2.5l20,27l-37,26l-9,-10.5l-2.5,2l2.5,3.5l-11,5l1,2.5l11,-4l12.5,22l-79.5,37.5l-34,-69.5l-2.5,1l8,17.5l-18,10.5l-152.5,0l0,-23l-46.5,0l0,-36l-1.5,0l0,34.5l-53.5,0l0,-7l-11,0l0,-67l-14,0l-52,-49l0,-127l-7,0zm206.5,-122.5l0,-9.5l33,1.5l2.5,-1.5l44.5,11.5l6.5,-17.5l-9,-3l9,-34.5l83.5,-1.5l0.5,-29.5l22,34l2,77.5l-4,-3.5l-10.5,0l-4,28l-4,0l0,-7l-58.5,-3.5l-1.5,7l-43,-5.5l-0.5,-6.5l-66.5,-5.5l0,7l-4.5,0l2.5,-38zm41,-77l0,43.5l16,2.5l11.5,-48.5l-22,0l-4,-3.5l-3.5,0l0,6l2,0zm-136.5,84.5l-5.5,-53.5l65.5,-2l0,48l6.5,0l0,2l-5,4l-61.5,1.5zm35,23.5l6.5,72l-9.5,0l-22.5,29.5l-67.5,4l-6,-98.5l99,-7zm38.5,124.5l0,-50.5l50.5,0l0,17l10.5,0l0,1.5l2.5,0l0,61.5l-2.5,0l0,48l-82,0l0,-77.5l21,0zm197,-35l0,10l-2.5,0l0,51.5l2.5,0l0,7.5l-14,0l0,27l-30.5,0l0,41.5l-4,-2l0,-4l-55,0l0,-33.5l4,0l0,-33.5l-4,0l0,-61.5l93,0l3,-3l7.5,0zm29.5,-79l95.5,0l0,51l-23.5,0l0,87l-69.5,0l0,-89.5l-5.5,0l0,-48.5l0,-4.2l3,4.2zm59,-108l0,16.5l-6,0l0,51.5l55,0l0,-48.5l22,0l0,-13.5l-69.5,0l0,-6l-1.5,0zm67.5,36l33.5,0l0,35l9.5,24l0,54.5l-37,0l0,-54.5l-6,-24l0,-35zm-300.5,343.5l0,5l5,0l0,26l56,0l0,-44.5l37.5,0l0,-12l3.5,-2.5l0,-3.5l-6,0l0,3.5l-91,0l0,28l-5,0zm171.5,-65.5l0,-31l65,0l0,29l-2,0l-61,0l0,2l-2,0z" fill="#1F2228" id="svg_1"/>
  <path stroke="null" d="m436.5,1l0,40l17.5,0l0,11.5l0,11.5l-30.5,79.5l-33.5,2l0,-8.5l-20,1.5l0,10l-6.5,0.5l-8.418,35.5l22.375,6.5l4.043,-15.5l83.5,-1.5l0.5,-29.5l20,-56l18,0l0,47l44.5,0l0,-15.5l10.5,0l0,-20l-10.5,0l0,-10l-13,0l0,-12l13,0l0,-73.5l-13,0l0,-3.5l-98.5,0z" fill="#2F3541" id="svg_2"/>
  <path stroke="null" d="m687,230.5l1.5,0l0,-68.5l-29,0l0,36l0,35l9.5,24l0,54.5l-37,0l0,-54.5l-6,-24l0,-3l-18.5,0l-17,0l0,34l-46,0l0,6l50.5,0l0,51l-23.5,0l0,87l-69.5,0l0,-89.5l-5.5,0l0,49l-29,0l0,43l2.5,0l0,7.5l-14,0l0,27l11.5,0l0,22l29.5,0l0,-22l65,0l0,29l-2,0l-61,0l0,2l-2,0l0,6.5l51,0c6.205,-0.591 9.082,-1.874 14,-4.5l12,16.188c20.372,-13.831 25.859,-24.783 28,-46.188l4,-3l0,-4.5l16.5,0l0,-17.5l7,0l0,-40.5l86,0l0,-42.5l36.5,0l0,-107l-65,0l0,-2.5z" fill="#2F3541" id="svg_3"/>
  <path stroke="null" d="m172.5,601l53.5,0l0,-25.5l-64.5,0l0,18.5l11,0l0,7z" fill="#2F3541" id="svg_4"/>
  <path stroke="null" d="m376.5,591l0,-18.5l-21.5,0l0,15.5l-26,0l0,3l47.5,0z" fill="#2F3541" id="svg_5"/>
  <path stroke="null" d="m376.5,591l0,-18.5l-21.5,0l0,15.5l-26,0l0,3l47.5,0z" fill="#22262F" id="svg_6"/>
  <path stroke="null" fill-rule="evenodd" clip-rule="evenodd" d="m271.78912,165.06546l-105,3.5l1.029,14l25.971,0l65.5,-2l0,48l6.5,0l0,2l-5,4l-61.5,1.5l2,25.833l33,-2.333l6.5,72l-9.5,0l-22.5,29.5l-37,2.193l0,60.807l17,0l30.5,120l62,0l0,6.5l49,0l0,-4l-5,0l0,-5l5,0l0,-28l91,0l0,-3.5l6,0l0,3.5l58.5,-15l11,-3.5l0,-12.5l0,-6.5l0,-9l-29.5,0l0,-22l-11.5,0l-30.5,0l0,41.5l-4,-2l0,-4l-55,0l0,-33.5l4,0l0,-33.5l-4,0l0,-61.5l93,0l3,-3l7.5,0l0,10l-2.5,0l0,8.5l29,0l0,-49l0,-48.5l0,-4.2l-7,-9.8l-4,-3.5l-10.5,0l-4,28l-4,0l0,-7l-58.5,-3.5l-1.5,7l-43,-5.5l-0.5,-6.5l-66.5,-5.5l0,7l-4.5,0l2.5,-38l0,-9.5l33,1.5l2.5,-1.5l44.5,11.5l6.5,-17.5l-9,-3l4.957,-19l-22.375,-6.5l-3.082,13l-16,-2.5l0,-43.5l-2,0l0,-6l3.5,0l4,3.5l11,0l-25,-132.7025l-12,-0.2975l12,64l-5.5,1.5l-1,-6l-57,10.5l0,4l-5,1.5l5,30.5l6,-1l1,4.5l-5.5,1.5l5.5,27.5l6.5,0l0,7l-5.5,0l0,3.5zm26.5,-44c-1.451,-1.306 -1.451,-3.694 0,-5c1.306,-1.176 3.194,-1.176 4.5,0c1.451,1.306 1.451,3.694 0,5c-1.306,1.176 -3.194,1.176 -4.5,0zm5,34.5c-1.451,-1.306 -1.451,-3.694 0,-5c1.306,-1.176 3.194,-1.176 4.5,0c1.451,1.306 1.451,3.694 0,5c-1.306,1.176 -3.194,1.176 -4.5,0zm25,-39.5l0,-4.5l4.5,0l0,4.5l-4.5,0zm-55.5,268l0,-50.5l50.5,0l0,17l10.5,0l0,1.5l2.5,0l0,61.5l-2.5,0l0,48l-82,0l0,-77.5l21,0z" fill="#22262F" id="svg_7"/>
  <path stroke="null" d="m571.5,1l0,3.5l-10,0l0,85.5l31.5,0l0,18l4,0l0,-3l24,0l0,3l3,0l0,-18l31.5,0l0,-28l0,-26.5l-5.5,0l0,-34.5l-78.5,0z" fill="#22262F" id="svg_8"/>
  <path stroke="null" d="m151.5,365l4,0l0,60l-4,0l0,-60z" fill="#282C34" id="svg_9"/>
  <path stroke="null" d="m173.823,225.23l3.994,-0.146l3.388,38.77l-3.993,0.146l-3.389,-38.77z" fill="#282C34" id="svg_10"/>
  <path stroke="null" d="m339.763,194l3.796,0.826l-10.262,24.869l-3.797,-0.826l10.263,-24.869z" fill="#282C34" id="svg_11"/>
  <path stroke="null" d="m569.5,231l4,0l0,33l-4,0l0,-33z" fill="#282C34" id="svg_12"/>
  <path stroke="null" d="m563.5,231l4,0l0,33l-4,0l0,-33z" fill="#282C34" id="svg_13"/>
  <path stroke="null" d="m557.5,231l4,0l0,33l-4,0l0,-33z" fill="#282C34" id="svg_14"/>
  <path stroke="null" d="m332.5,573l4,0l0,15l-4,0l0,-15z" fill="#282C34" id="svg_15"/>
  <path stroke="null" d="m445.5,446l4,0l0,21l-4,0l0,-21z" fill="#282C34" id="svg_16"/>
  <path stroke="null" d="m162.5,581l4,0l0,12l-4,0l0,-12z" fill="#282C34" id="svg_17"/>
  <path stroke="null" d="m176.5,557l0,4l-14,0l0,-4l14,0z" fill="#282C34" id="svg_18"/>
  <path stroke="null" d="m329.5,547l0,4l-48,0l0,-4l48,0z" fill="#282C34" id="svg_19"/>
  <path stroke="null" d="m496.5,373l0,4l-28,0l0,-4l28,0z" fill="#282C34" id="svg_20"/>
  <path stroke="null" d="m292.5,241l0,4l-28,0l0,-4l28,0z" fill="#282C34" id="svg_21"/>
  <path stroke="null" d="m195.02,185.545l0.12,3.998l-25.699,0.915l-0.12,-3.998l25.699,-0.915z" fill="#282C34" id="svg_22"/>
  <path stroke="null" d="m377.5,190.457l-1.173,3.77l-21.309,-8.457l1.173,-3.77l21.309,8.457z" fill="#282C34" id="svg_23"/>
  <path stroke="null" d="m626.5,206l0,4l-19,0l0,-4l19,0z" fill="#282C34" id="svg_24"/>
  <path stroke="null" d="m688.5,129l0,4l-29,0l0,-4l29,0z" fill="#282C34" id="svg_25"/>
  <path stroke="null" d="m496.5,367l0,4l-28,0l0,-4l28,0z" fill="#282C34" id="svg_26"/>
  <path stroke="null" d="m292.5,235l0,4l-28,0l0,-4l28,0z" fill="#282C34" id="svg_27"/>
  <path stroke="null" d="m626.5,200l0,4l-19,0l0,-4l19,0z" fill="#282C34" id="svg_28"/>
  <path stroke="null" d="m688.5,123l0,4l-29,0l0,-4l29,0z" fill="#282C34" id="svg_29"/>
  <path stroke="null" d="m157.5,365l4,0l0,60l-4,0l0,-60z" fill="#282C34" id="svg_30"/>
  <path stroke="null" d="m179.814,225.011l3.993,-0.146l3.389,38.769l-3.994,0.147l-3.388,-38.77z" fill="#282C34" id="svg_31"/>
  <path stroke="null" d="m345.458,195.24l3.796,0.826l-10.262,24.869l-3.797,-0.827l10.263,-24.868z" fill="#282C34" id="svg_32"/>
  <path stroke="null" d="m575.5,231l4,0l0,33l-4,0l0,-33z" fill="#282C34" id="svg_33"/>
  <path stroke="null" d="m338.5,573l4,0l0,15l-4,0l0,-15z" fill="#282C34" id="svg_34"/>
  <path stroke="null" d="m451.5,446l4,0l0,21l-4,0l0,-21z" fill="#282C34" id="svg_35"/>
  <path stroke="null" d="m168.5,581l4,0l0,12l-4,0l0,-12z" fill="#282C34" id="svg_36"/>
  <path stroke="null" d="m176.5,563l0,4l-14,0l0,-4l14,0z" fill="#282C34" id="svg_37"/>
  <path stroke="null" d="m329.5,553l0,4l-48,0l0,-4l48,0z" fill="#282C34" id="svg_38"/>
  <path stroke="null" d="m496.5,379l0,4l-28,0l0,-4l28,0z" fill="#282C34" id="svg_39"/>
  <path stroke="null" d="m195.2,191.542l0.12,3.998l-25.699,0.914l-0.12,-3.998l25.699,-0.914z" fill="#282C34" id="svg_40"/>
  <path stroke="null" d="m375.741,196.111l-1.173,3.77l-21.309,-8.457l1.173,-3.77l21.309,8.457z" fill="#282C34" id="svg_41"/>
  <path stroke="null" d="m626.5,212l0,4l-19,0l0,-4l19,0z" fill="#282C34" id="svg_42"/>
  <path stroke="null" d="m688.5,135l0,4l-29,0l0,-4l29,0z" fill="#282C34" id="svg_43"/>
  <path stroke="null" d="m163.5,365l4,0l0,60l-4,0l0,-60z" fill="#282C34" id="svg_44"/>
  <path stroke="null" d="m185.804,224.792l3.994,-0.146l3.388,38.769l-3.993,0.146l-3.389,-38.769z" fill="#282C34" id="svg_45"/>
  <path stroke="null" d="m350.953,196.963l3.796,0.826l-10.063,24.385l-3.796,-0.827l10.063,-24.384z" fill="#282C34" id="svg_46"/>
  <path stroke="null" d="m581.5,231l4,0l0,33l-4,0l0,-33z" fill="#282C34" id="svg_47"/>
  <path stroke="null" d="m344.5,573l4,0l0,15l-4,0l0,-15z" fill="#282C34" id="svg_48"/>
  <path stroke="null" d="m457.5,446l4,0l0,21l-4,0l0,-21z" fill="#282C34" id="svg_49"/>
  <path stroke="null" d="m174.5,581l4,0l0,12l-4,0l0,-12z" fill="#282C34" id="svg_50"/>
  <path stroke="null" d="m176.5,569l0,4l-14,0l0,-4l14,0z" fill="#282C34" id="svg_51"/>
  <path stroke="null" d="m329.5,559l0,4l-48,0l0,-4l48,0z" fill="#282C34" id="svg_52"/>
  <path stroke="null" d="m496.5,385l0,4l-28,0l0,-4l28,0z" fill="#282C34" id="svg_53"/>
  <path stroke="null" d="m195.38,197.539l0.12,3.998l-25.699,0.914l-0.12,-3.997l25.699,-0.915z" fill="#282C34" id="svg_54"/>
  <path stroke="null" d="m373.982,201.766l-1.173,3.77l-21.309,-8.457l1.173,-3.77l21.309,8.457z" fill="#282C34" id="svg_55"/>
  <path stroke="null" d="m626.5,218l0,4l-19,0l0,-4l19,0z" fill="#282C34" id="svg_56"/>
  <path stroke="null" d="m688.5,141l0,4l-29,0l0,-4l29,0z" fill="#282C34" id="svg_57"/>
  <path stroke="null" d="m451.5,19l0,4l-14,0l0,-4l14,0z" fill="#282C34" id="svg_58"/>
  <path stroke="null" d="m451.5,2l4,0l0,13l-4,0l0,-13z" fill="#282C34" id="svg_59"/>
  <path stroke="null" d="m169.5,365l4,0l0,60l-4,0l0,-60z" fill="#282C34" id="svg_60"/>
  <path stroke="null" d="m191.795,224.573l3.993,-0.146l3.389,38.769l-3.994,0.146l-3.388,-38.769z" fill="#282C34" id="svg_61"/>
  <path stroke="null" d="m587.5,231l4,0l0,33l-4,0l0,-33z" fill="#282C34" id="svg_62"/>
  <path stroke="null" d="m350.5,573l4,0l0,15l-4,0l0,-15z" fill="#282C34" id="svg_63"/>
  <path stroke="null" d="m463.5,446l4,0l0,21l-4,0l0,-21z" fill="#282C34" id="svg_64"/>
  <path stroke="null" d="m180.5,581l4,0l0,12l-4,0l0,-12z" fill="#282C34" id="svg_65"/>
  <path stroke="null" d="m176.5,575l0,4l-14,0l0,-4l14,0z" fill="#282C34" id="svg_66"/>
  <path stroke="null" d="m329.5,565l0,4l-48,0l0,-4l48,0z" fill="#282C34" id="svg_67"/>
  <path stroke="null" d="m496.5,391l0,4l-28,0l0,-4l28,0z" fill="#282C34" id="svg_68"/>
  <path stroke="null" d="m626.5,224l0,4l-19,0l0,-4l19,0z" fill="#282C34" id="svg_69"/>
  <path stroke="null" d="m688.5,147l0,4l-29,0l0,-4l29,0z" fill="#282C34" id="svg_70"/>
  <path stroke="null" d="m451.5,25l0,4l-14,0l0,-4l14,0z" fill="#282C34" id="svg_71"/>
  <path stroke="null" d="m457.5,2l4,0l0,13l-4,0l0,-13z" fill="#282C34" id="svg_72"/>
  <path stroke="null" d="m688.5,153l0,4l-29,0l0,-4l29,0z" fill="#282C34" id="svg_73"/>
  <path stroke="null" d="m451.5,31l0,4l-14,0l0,-4l14,0z" fill="#282C34" id="svg_74"/>
  <path stroke="null" d="m688.5,159l0,4l-29,0l0,-4l29,0z" fill="#282C34" id="svg_75"/>
  <path stroke="null" d="m451.5,37l0,4l-14,0l0,-4l14,0z" fill="#282C34" id="svg_76"/>
  <path stroke="null" d="m186.5,581l4,0l0,12l-4,0l0,-12z" fill="#282C34" id="svg_77"/>
  <path stroke="null" d="m192.5,581l4,0l0,12l-4,0l0,-12z" fill="#282C34" id="svg_78"/>
  <path stroke="null" d="m198.5,581l4,0l0,12l-4,0l0,-12z" fill="#282C34" id="svg_79"/>
  <path stroke="null" fill-rule="evenodd" clip-rule="evenodd" d="m601.5,455.976l-21.409,-8.633c-0.196,0.854 -0.395,1.689 -0.599,2.505l20.847,9.867l1.161,-3.215l0,-0.524zm-23.112,-2.036c0.231,-0.788 0.456,-1.597 0.676,-2.426l20.585,10.112l-1.724,4.773l-19.537,-12.459zm-0.635,2.078c-0.3,0.94 -0.609,1.848 -0.929,2.726l18.776,14.095l1.327,-3.675l-19.174,-13.146zm-2.774,7.222c0.258,-0.555 0.509,-1.124 0.755,-1.709l0.453,-0.531l17.796,14.72l-2.856,3.427l-16.148,-15.907zm-1.202,2.401c-0.569,1.055 -1.166,2.05 -1.794,2.988l15.283,15.055l0.234,-0.184l2.673,-3.208l-16.396,-14.651zm-5.203,7.226c0.787,-0.809 1.534,-1.677 2.243,-2.606l14.879,14.656l-3.563,2.8l-13.559,-14.85zm-2.387,2.178c-0.693,0.558 -1.413,1.082 -2.163,1.573l13.94,14.374l2.696,-2.118l-14.473,-13.829zm-8.359,4.662c1.372,-0.51 2.666,-1.085 3.888,-1.73l14.559,14.342l-2.775,2.181l-0.379,0.273l-15.293,-15.066zm-2.099,0.714c-1.415,0.437 -2.907,0.817 -4.481,1.145l16.981,16.729l3.261,-2.348l-15.761,-15.526z" fill="#282C34" id="svg_80"/>
  <path stroke="null" d="m566.615,499.457l-17.115,-16.957l-5.5,0l19.5,19.425l3.115,-2.468z" fill="#282C34" id="svg_81"/>
  <path stroke="null" d="m618,101.5l0,4l-19,0l0,-4l19,0z" fill="#282C34" id="svg_82"/>
  <path stroke="null" d="m618,95.5l0,4l-19,0l0,-4l19,0z" fill="#282C34" id="svg_83"/>
  <path stroke="null" d="m618,107.5l0,4l-19,0l0,-4l19,0z" fill="#282C34" id="svg_84"/>
  <path stroke="null" d="m650,65l4,0l0,13l-4,0l0,-13z" fill="#282C34" id="svg_85"/>
  <path stroke="null" d="m656,65l4,0l0,13l-4,0l0,-13z" fill="#282C34" id="svg_86"/>
  <path stroke="null" d="m5.5,286l15,0l0,11l-15,0l0,-11z" fill="#373D4B" id="svg_87"/>
  <path stroke="null" d="m22.5,286l15,0l0,11l-15,0l0,-11z" fill="#373D4B" id="svg_88"/>
  <path stroke="null" d="m95.5,230l12,0l0,17l-12,0l0,-17z" fill="#373D4B" id="svg_89"/>
  <path stroke="null" d="m290.5,315l11,0l0,18l-11,0l0,-18z" fill="#373D4B" id="svg_90"/>
  <path stroke="null" d="m254.5,462l10,0l0,10l-10,0l0,-10z" fill="#373D4B" id="svg_91"/>
  <path stroke="null" d="m268.5,486l31,0l0,14l-31,0l0,-14z" fill="#373D4B" id="svg_92"/>
  <path stroke="null" d="m265.5,526l20,0l0,15l-20,0l0,-15z" fill="#373D4B" id="svg_93"/>
  <path stroke="null" d="m348.5,505l18,0l0,8l-18,0l0,-8z" fill="#373D4B" id="svg_94"/>
  <path stroke="null" d="m476.5,467l19,0l0,8l-19,0l0,-8z" fill="#373D4B" id="svg_95"/>
  <path stroke="null" d="m471.5,574.26l17.928,-10.007l5.021,8.997l-17.928,10.006l-5.021,-8.996z" fill="#373D4B" id="svg_96"/>
  <path stroke="null" d="m480.215,580.142l7.488,-4.179l7.108,12.734l-7.488,4.18l-7.108,-12.735z" fill="#373D4B" id="svg_97"/>
  <path stroke="null" d="m477.5,592.179l7.488,-4.179l7.108,12.734l-7.488,4.18l-7.108,-12.735z" fill="#373D4B" id="svg_98"/>
  <path stroke="null" d="m450.474,619.925l13.52,-7.546l2.808,5.03l-13.52,7.546l-2.808,-5.03z" fill="#373D4B" id="svg_99"/>
  <path stroke="null" d="m521.919,557.079l9.101,-5.079l3.571,6.399l-9.1,5.079l-3.572,-6.399z" fill="#373D4B" id="svg_100"/>
  <path stroke="null" d="m485.5,475l10,0l0,9l-10,0l0,-9z" fill="#373D4B" id="svg_101"/>
  <path stroke="null" d="m355.5,471l11,0l0,10l-11,0l0,-10z" fill="#373D4B" id="svg_102"/>
  <path stroke="null" d="m266.5,587l7,0l0,15l-7,0l0,-15z" fill="#373D4B" id="svg_103"/>
  <path stroke="null" d="m418.322,561.188l6.99,-0.366l0.366,6.99l-6.99,0.366l-0.366,-6.99z" fill="#373D4B" id="svg_104"/>
  <path stroke="null" d="m428.5,544.366l6.99,-0.366l0.845,16.113l-6.99,0.367l-0.845,-16.114z" fill="#373D4B" id="svg_105"/>
  <path stroke="null" d="m436.5,512.408l6.573,-2.408l7.927,11.5l-6.573,2.408l-7.927,-11.5z" fill="#373D4B" id="svg_106"/>
  <path stroke="null" d="m201.2,458.862l24.03,-6.189l8.344,32.402l-24.03,6.189l-8.344,-32.402z" fill="#373D4B" id="svg_107"/>
  <path stroke="null" d="m292.5,267l9,0l0,10l-9,0l0,-10z" fill="#373D4B" id="svg_108"/>
  <path stroke="null" d="m220.5,494c0,2.761 -2.239,5 -5,5c-2.761,0 -5,-2.239 -5,-5c0,-2.761 2.239,-5 5,-5c2.761,0 5,2.239 5,5z" fill="#373D4B" id="svg_109"/>
  <path stroke="null" d="m181.5,443.434l10.727,-2.434l2.213,9.752l-10.727,2.434l-2.213,-9.752z" fill="#373D4B" id="svg_110"/>
  <path stroke="null" d="m182.5,435.901l8.377,-1.901l1.728,7.616l-8.377,1.9l-1.728,-7.615z" fill="#373D4B" id="svg_111"/>
  <path stroke="null" d="m184.5,431.187l5.232,-1.187l1.079,4.756l-5.232,1.187l-1.079,-4.756z" fill="#373D4B" id="svg_112"/>
  <path stroke="null" d="m188.5,428.5c0,1.381 -1.119,2.5 -2.5,2.5c-1.381,0 -2.5,-1.119 -2.5,-2.5c0,-1.381 1.119,-2.5 2.5,-2.5c1.381,0 2.5,1.119 2.5,2.5z" fill="#373D4B" id="svg_113"/>
  <path stroke="null" d="m96.5,371l17,0l0,28l-17,0l0,-28z" fill="#373D4B" id="svg_114"/>
  <path stroke="null" d="m96.5,401l17,0l0,28l-17,0l0,-28z" fill="#373D4B" id="svg_115"/>
  <path stroke="null" d="m96.5,431l17,0l0,28l-17,0l0,-28z" fill="#373D4B" id="svg_116"/>
  <path stroke="null" d="m420.5,89c0,12.703 -10.297,23 -23,23c-12.703,0 -23,-10.297 -23,-23c0,-12.7025 10.297,-23 23,-23c12.703,0 23,10.2975 23,23z" fill="#373D4B" id="svg_117"/>
  <path stroke="null" d="m511.5,82l16,0l0,6l-16,0l0,-6z" fill="#373D4B" id="svg_118"/>
  <path stroke="null" d="m547.5,49l10,0l0,28l-10,0l0,-28z" fill="#373D4B" id="svg_119"/>
  <path stroke="null" d="m535.5,77l13,0l0,2l-13,0l0,-2z" fill="#373D4B" id="svg_120"/>
  <path stroke="null" d="m572.5,71l29,0l0,11l-29,0l0,-11z" fill="#373D4B" id="svg_121"/>
  <path stroke="null" d="m638.5,79l16,0l0,10l-16,0l0,-10z" fill="#373D4B" id="svg_122"/>
  <path stroke="null" d="m660.5,51l15,0l0,9l-15,0l0,-9z" fill="#373D4B" id="svg_123"/>
  <path stroke="null" d="m630.5,42l0,-40l2,0l0,10l5,0l0,21.5l2,0l0,8.5l-9,0z" fill="#373D4B" id="svg_124"/>
  <path stroke="null" d="m612.5,154l11,0l0,13l-11,0l0,-13z" fill="#373D4B" id="svg_125"/>
  <path stroke="null" d="m488.5,176l13,0l0,15l-13,0l0,-15z" fill="#373D4B" id="svg_126"/>
  <path stroke="null" d="m512.5,136l12,0l0,14l-12,0l0,-14z" fill="#373D4B" id="svg_127"/>
  <path stroke="null" d="m399.5,147l16,0l0,5l-16,0l0,-5z" fill="#373D4B" id="svg_128"/>
  <path stroke="null" d="m521.5,542c0,2.209 -1.791,4 -4,4c-2.209,0 -4,-1.791 -4,-4c0,-2.209 1.791,-4 4,-4c2.209,0 4,1.791 4,4z" fill="#373D4B" id="svg_129"/>
  <path stroke="null" d="m493.5,562c0,2.209 -1.791,4 -4,4c-2.209,0 -4,-1.791 -4,-4c0,-2.209 1.791,-4 4,-4c2.209,0 4,1.791 4,4z" fill="#373D4B" id="svg_130"/>
  <path stroke="null" fill-rule="evenodd" clip-rule="evenodd" d="m447.195,82.6266l-1.632,4.2266l21.914,-11.3712l-2.607,-2.0273l-17.675,9.1719zm-4.046,10.4793l1.632,-4.2266l23.945,-12.4255l2.607,2.0272l-28.184,14.6249zm-0.782,2.026l-1.632,4.2266l34.454,-17.8784l-2.607,-2.0272l-30.215,15.679zm-4.046,10.4791l1.632,-4.226l36.485,-18.9331l0.062,0.0481l2.172,2.1724l-40.351,20.9386zm-0.782,2.026l-1.632,4.227l46.057,-23.8997l-2.225,-2.2252l-42.2,21.8979zm-4.046,10.479l1.632,-4.226l47.966,-24.89l2.909,0l-0.867,2.3202l-51.64,26.7958zm-0.782,2.027l-1.632,4.226l51.735,-26.8455l1.567,-4.1933l-51.67,26.8128zm-4.046,10.479l1.632,-4.227l51.765,-26.8614l-1.567,4.1934l-51.83,26.895zm-0.782,2.026l-1.632,4.226l51.925,-26.944l1.567,-4.193l-51.86,26.911zm-4.046,10.479l1.632,-4.227l51.955,-26.96l-1.567,4.194l-52.02,26.993zm1.57,0.806l6.988,-0.247l41.143,-21.349l1.567,-4.193l-49.698,25.789zm17.327,-0.612l-6.989,0.247l37.041,-19.221l-1.567,4.193l-28.485,14.781zm3.35,-0.118l6.989,-0.247l15.827,-8.212l1.567,-4.194l-24.383,12.653zm17.327,-0.612l-6.988,0.247l11.725,-6.085l-1.567,4.194l-3.17,1.644zm-15.434,-61.9907l15.644,-8.1176l-2.607,-2.0273l-11.405,5.9183l-1.632,4.2266zm2.414,-6.2527l9.374,-4.864l-2.607,-2.0273l-5.135,2.6647l-1.632,4.2266zm3.609,-9.3476l1.909,1.4845l-3.104,1.6105l1.195,-3.095z" fill="#D9D9D9" fill-opacity="0.1" id="svg_131"/>
  <path stroke="null" fill-rule="evenodd" clip-rule="evenodd" d="m535.563,4l-0.063,0l0,0.06256l0.063,-0.06256zm2.171,0l-2.234,2.23413l0,2.82843l5.063,-5.06256l-2.829,0zm-2.234,10.0626l0,-2.8285l7.234,-7.2341l2.829,0l-10.063,10.0626zm0,2.1715l0,2.8285l12,-12.00004l0,-2.82843l-12,11.99997zm0,7.8285l0,-2.8285l12,-11.99997l0,2.82847l-12,12zm0,2.1715l0,2.8285l12,-12l0,-2.8285l-12,12zm0,7.8285l0,-2.8285l12,-12l0,2.8285l-12,12zm0,2.1715l0,2.8285l12,-12l0,-2.8285l-12,12zm0,7.8285l0,-2.8285l12,-12l0,2.8285l-12,12zm0,2.1715l0,2.8285l12,-12l0,-2.8285l-12,12zm0,7.8285l0,-2.8285l12,-12l0,2.8285l-12,12zm0,2.1715l0,2.8285l12,-12l0,-2.8285l-12,12zm0,7.8285l0,-2.8285l12,-12l0,2.8285l-12,12zm0,2.1715l0,2.8285l12,-12l0,-2.8285l-12,12zm0,7.8285l0,-2.8285l12,-12l0,2.8285l-12,12zm0,2.1715l0,0.7659l2.063,0l9.937,-9.9374l0,-2.8285l-12,12zm7.063,0.7659l-2.829,0l7.766,-7.7659l0,2.8285l-4.937,4.9374zm2.171,0l2.766,0l0,-2.7659l-2.766,2.7659z" fill="#D9D9D9" fill-opacity="0.1" id="svg_132"/>
  <path stroke="null" fill-rule="evenodd" clip-rule="evenodd" d="m390,137l-5.238,0.511l-14.62,7.586l0.337,3.205l19.521,-10.129l0,-1.173zm-7.237,9.928l-8.65,1.109l15.887,-8.244l0,3.38l-7.237,3.755zm4.147,-0.532l3.09,-0.396l0,-1.207l-3.09,1.603zm-14.015,-7.727l8.021,-0.783l-10.936,5.675l-0.337,-3.205l3.252,-1.687z" fill="#D9D9D9" fill-opacity="0.1" id="svg_133"/>
  <path stroke="null" fill-rule="evenodd" clip-rule="evenodd" d="m435.5,0l100.5,0l0,3.5l34.5,0l0,-3.5l80.5,0l0,34.5l5.5,0l0,26.5l2,0l0,-26.5l31,0l0,197l-1.5,0l0,0.5l65,0l0,109l-36.5,0l0,42.5l-86,0l0,40.5l-7,0l0,17.5l-16.5,0l0,4l-4.049,3.037c-1.146,11.14 -3.237,19.578 -7.98,27.101c-4.74,7.516 -12.065,14.021 -23.493,21.421c-0.38,8.947 -1.41,15.948 -4.276,22.635c-2.838,6.62 -7.441,12.854 -14.836,20.349l10.391,11.875l-2.019,3.028l0.951,1.19l3.53,-2.521l21.195,28.614l-38.582,27.111l-8.962,-10.455l-1.006,0.804l2.656,3.719l-11.237,5.107l0.286,0.714l10.883,-3.957l13.45,23.672l-81.367,38.381l-34.025,-69.552l-0.664,0.266l7.94,17.369l-19.016,11.092l-153.77,0l0,-23l-46.5,0l0,-1.5l-55,0l0,-7l-11,0l0,-67l-13.397,0l-52.603,-49.568l0,-126.432l-5,0l0,70.5l-26.5,0l0,-13l-63,0l0,-127l89.5,0l0,28l4,0l0,-109l74.924,0l-2.498,-33.965l105.074,-3.502l0,-3.533l5.5,0l0,-5l-6.32,0l-5.844,-29.219l5.481,-1.495l-0.588,-2.644l-6.054,1.009l-5.304,-32.3563l5.129,-1.5387l0,-4.0886l58.819,-10.8351l0.985,5.9118l3.543,-0.9662l-12.058,-64.3082l62.711,1.5548l0,19.9755l58.5,0l0,-36.5zm252,229.5l0,-193l-27,0l0,26.5l-6,0l0,-26.5l-5.5,0l0,-34.5l-76.5,0l0,3.5l-38.5,0l0,-3.5l-96.5,0l0,40l-3.5,0l0,-3.5l-59,0l0,-20.0245l-58.289,-1.4452l11.942,63.6918l-7.457,2.0338l-1.015,-6.0882l-55.181,10.1649l0,3.9114l-4.871,1.4613l4.696,28.6437l5.946,-0.991l1.412,6.356l-5.519,1.505l5.156,25.781l6.68,0l0,9l-5.5,0l0,3.467l-104.926,3.498l2.502,34.035l-75.076,0l0,109l-8,0l0,-28l-85.5,0l0,123l63,0l0,13l22.5,0l0,-70.5l9,0l0,127.568l51.397,48.432l14.603,0l0,67l11,0l0,7l51.5,0l0,-34.5l3.5,0l0,36l46.5,0l0,23l151.23,0l16.984,-9.908l-8.06,-17.631l4.336,-1.734l33.975,69.448l77.633,-36.619l-11.55,-20.327l-11.117,4.042l-1.714,-4.286l10.763,-4.893l-2.344,-3.281l3.994,-3.196l9.038,10.545l35.418,-24.889l-18.805,-25.386l-3.47,2.479l-3.049,-3.81l1.981,-2.972l-10.611,-12.127l0.66,-0.662c7.692,-7.703 12.291,-13.9 15.071,-20.387c2.78,-6.486 3.78,-13.344 4.138,-22.445l0.02,-0.52l0.438,-0.282c11.579,-7.453 18.748,-13.837 23.32,-21.088c4.565,-7.24 6.603,-15.444 7.726,-26.671l0.044,-0.436l3.951,-2.964l0,-5l16.5,0l0,-17.5l7,0l0,-40.5l86,0l0,-42.5l36.5,0l0,-105l-65,0l0,-4.5l1.5,0zm-360,-119l6.5,0l0,6.5l-6.5,0l0,-6.5zm2,2l0,2.5l2.5,0l0,-2.5l-2.5,0zm-31.669,2.757c1.687,-1.518 4.151,-1.518 5.838,0c1.893,1.703 1.893,4.783 0,6.486c-1.687,1.518 -4.151,1.518 -5.838,0c-1.893,-1.703 -1.893,-4.783 0,-6.486zm4.5,1.486c-0.926,-0.833 -2.236,-0.833 -3.162,0c-1.01,0.909 -1.01,2.605 0,3.514c0.926,0.833 2.236,0.833 3.162,0c1.01,-0.909 1.01,-2.605 0,-3.514zm162.225,24.457l23.936,36.993l2,77.475l9.523,13.332l95.985,0l0,53l-23.5,0l0,87l-71.5,0l0,-89.5l-5.5,0l0,-53.38l-6.746,-9.444l-3.63,-3.176l-9.257,0l-4,28l-5.867,0l0,-7.058l-56.702,-3.392l-1.513,7.059l-44.72,-5.72l-0.497,-6.463l-64.568,-5.34l0,6.914l-6.568,0l2.434,-37l0.134,-2.033l0,-1.467l0,-9.046l33.744,1.533l2.601,-1.56l44.032,11.379l5.825,-15.684l-8.906,-2.969l9.428,-36.139l83.293,-1.496l0.539,-31.818zm23.885,112.545l-1.933,-74.938l-20.064,-31.007l-0.461,27.182l-83.707,1.504l-8.572,32.861l9.094,3.031l-7.175,19.316l-44.968,-11.621l-2.399,1.44l-32.256,-1.467l0,8.487l-2.432,36.967l2.432,0l0,-7.086l68.432,5.66l0.503,6.537l41.28,5.28l1.487,-6.941l60.298,3.608l0,6.942l2.133,0l4,-28l11.743,0l2.565,2.245zm9.059,15.175l0,48.58l5.5,0l0,89.5l67.5,0l0,-87l23.5,0l0,-49l-95.015,0l-1.485,-2.08zm-164.5,-124.42l4.876,0l4,3.5l22.889,0l-12.005,50.631l-17.76,-2.775l0,-43.356l-2,0l0,-8zm2,6l2,0l0,43.644l14.24,2.225l10.995,-46.369l-21.111,0l-4,-3.5l-2.124,0l0,4zm-32.169,-0.743c1.687,-1.518 4.151,-1.518 5.838,0c1.893,1.703 1.893,4.783 0,6.486c-1.687,1.518 -4.151,1.518 -5.838,0c-1.893,-1.703 -1.893,-4.783 0,-6.486zm4.5,1.486c-0.926,-0.833 -2.236,-0.833 -3.162,0c-1.01,0.909 -1.01,2.605 0,3.514c0.926,0.833 2.236,0.833 3.162,0c1.01,-0.909 1.01,-2.605 0,-3.514zm250.169,9.757l3.5,0l0,6l69.5,0l0,15.5l-22,0l0,48.5l-57,0l0,-53.5l6,0l0,-16.5zm2,8l0,10.5l-6,0l0,49.5l53,0l0,-48.5l22,0l0,-11.5l-69,0zm-299,10.469l0,48.031l6.5,0l0,3.481l-5.639,4.51l-62.761,1.531l-5.705,-55.489l67.605,-2.064zm-65.395,3.998l5.295,51.511l60.239,-1.469l4.361,-3.49l0,-0.519l-6.5,0l0,-47.969l-63.395,1.936zm429.895,13.533l30.5,0l5,0l0,35.809l9.5,24l0,55.691l-39,0l0,-55.377l-6,-24l0,-36.123zm2,2l0,33.877l6,24l0,53.623l35,0l0,-53.309l-9.5,-24l0,-34.191l-31.5,0zm-391.592,59.433l6.686,74.067l-10.099,0l-22.478,29.471l-68.954,4.086l-6.121,-100.485l100.966,-7.139zm-98.85,8.995l5.879,96.515l66.046,-3.914l22.522,-29.529l8.901,0l-6.314,-69.933l-97.034,6.861zm135.442,65.072l52.5,0l0,17l10.5,0l0,1.5l2.5,0l0,63.5l-2.5,0l0,48l-84,0l0,-79.5l21,0l0,-50.5zm61,19l-10.5,0l0,-17l-48.5,0l0,50.5l-21,0l0,75.5l80,0l0,-48l2.5,0l0,-59.5l-2.5,0l0,-1.5zm129.086,-3.5l8.914,0l0,12l-2.5,0l0,49.5l2.5,0l0,9.5l-14,0l0,27l-30.5,0l0,42.118l-6,-3l0,-3.618l-55,0l0,-35.5l4,0l0,-31.5l-4,0l0,-63.5l93.586,0l3,-3zm0.828,2l-3,3l-92.414,0l0,59.5l4,0l0,35.5l-4,0l0,31.5l55,0l0,4.382l2,1l0,-40.882l30.5,0l0,-27l14,0l0,-5.5l-2.5,0l0,-53.5l2.5,0l0,-8l-6.086,0zm33.086,94l67,0l0,31l-63,0l0,2l-4,0l0,-33zm2,2l0,27l63,0l0,-27l-63,0zm-77.5,63l8,0l0,5.015l-3.5,2.5l0,12.485l-37.5,0l0,44.5l-58,0l0,-26l-5,0l0,-7l5,0l0,-28l91,0l0,-3.5zm2,2l0,3.5l-91,0l0,28l-5,0l0,3l5,0l0,26l54,0l0,-44.5l37.5,0l0,-11.515l3.5,-2.5l0,-1.985l-4,0z" fill="#454545" id="svg_134"/>
  <path stroke="null" d="m655.5,197l5,0l0,-116l-5,0l0,116z" fill="#454545" id="svg_135"/>
  <path stroke="null" d="m116.5,222l81,0l0,4l-81,0l0,-4z" fill="#454545" id="svg_136"/>
  <path stroke="null" d="m115.5,222l4,0l0,33l-4,0l0,-33z" fill="#454545" id="svg_137"/>
  <path stroke="null" d="m176.5,574l49,0l0,3l-49,0l0,-3z" fill="#454545" id="svg_138"/>
  <path stroke="null" d="m215.5,541l70,0l0,6l-70,0l0,-6z" fill="#454545" id="svg_139"/>
  <path stroke="null" d="m303.5,541l5,0l0,6l-5,0l0,-6z" fill="#454545" id="svg_140"/>
  <path stroke="null" fill-rule="evenodd" clip-rule="evenodd" d="m426.55,515.746l17.218,-4.782l-0.536,-1.927l-18.782,5.217l0.583,9.132l-1.014,-0.082l-1.029,5.148l3.663,35.59l2.887,-1.444l-2.99,-46.852z" fill="#454545" id="svg_141"/>
  <path stroke="null" fill-rule="evenodd" clip-rule="evenodd" d="m475.5,446l-19,0l0,-2l19,0l0,2z" fill="#454545" id="svg_142"/>
  <path stroke="null" fill-rule="evenodd" clip-rule="evenodd" d="m490.5,444l6.5,0l0,2l-6.5,0l0,-2z" fill="#454545" id="svg_143"/>
  <path stroke="null" fill-rule="evenodd" clip-rule="evenodd" d="m496.5,494.382l0,-17.882l2,0l0,18.213l5.431,8.69l-3.797,1.898l-5.092,-8.147l-18.288,4.813l-0.509,-1.934l18.9,-4.974l1.355,-0.677z" fill="#454545" id="svg_144"/>
  <path stroke="null" fill-rule="evenodd" clip-rule="evenodd" d="m517.271,526.618l27.137,39.98l2.018,-1.417l1.149,1.637l-4.847,3.402l0.054,0.108l-14.45,10.004l3.03,5.162l-1.724,1.012l-2.955,-5.032l-4.114,2.848l-1.138,-1.644l4.995,-3.458l13.743,-9.647l-0.04,-0.079l-25.999,-40.783l3.141,-2.093z" fill="#454545" id="svg_145"/>
  <path stroke="null" d="m192,425l31,116l-7.5,0l-4.167,-17.5l-0.952,-4l-22.381,-94l4,-0.5z" fill="#454545" id="svg_146"/>
  <path stroke="null" d="m225,546l3.5,0l0,7l-3.5,0l0,-7z" fill="#454545" id="svg_147"/>
  <path stroke="null" d="m498.5,622.787l12.245,-6.787l1.454,2.624l-12.245,6.787l-1.454,-2.624z" fill="#454545" id="svg_148"/>
  <path stroke="null" fill-rule="evenodd" clip-rule="evenodd" d="m333.06,200.158l2,-5.5l1.88,0.684l-2,5.5l-1.88,-0.684zm-1.064,13.432l-0.5,5.5l-1.992,-0.181l0.5,-5.5l1.992,0.181z" fill="#454545" id="svg_149"/>
  <path stroke="null" d="m461.5,641.787l21.324,-11.82l1.455,2.624l-21.325,11.82l-1.454,-2.624z" fill="#454545" id="svg_150"/>
  <path stroke="null" fill-rule="evenodd" clip-rule="evenodd" d="m376.08,148.997l-12.5,1l-0.16,-1.994l12.5,-1l0.16,1.994z" fill="#454545" id="svg_151"/>
  <path stroke="null" fill-rule="evenodd" clip-rule="evenodd" d="m390.94,135.929l0.502,8.776l44.509,-2.204l0.098,1.998l-50.5,2.5l-0.098,-1.998l3.993,-0.197l-0.384,-6.732l-18.51,1.354l0.449,8.522l-1.998,0.105l-0.551,-10.479l22.49,-1.645z" fill="#454545" id="svg_152"/>
  <path stroke="null" fill-rule="evenodd" clip-rule="evenodd" d="m464.571,143l-14,1.5l-0.213,-1.989l14.213,-1.511l0,2z" fill="#454545" id="svg_153"/>
  <path stroke="null" fill-rule="evenodd" clip-rule="evenodd" d="m451.5,15l6,0l0,35l24.086,0l2,-2l5.414,0l0,8.5l-5.414,0l-2,-2l-26.586,0l0,10.5l-20,0l0,-12l2,0l0,10l16,0l0,-9l-1.5,0l0,-39z" fill="#454545" id="svg_154"/>
  <path stroke="null" fill-rule="evenodd" clip-rule="evenodd" d="m536,37l0,52l10,0l0,2l-12,0l0,-1.5l-51.373,0l-7.782,-6.7443l1.31,-1.5114l7.218,6.2557l50.627,0l0,-50.5l2,0z" fill="#454545" id="svg_155"/>
  <path stroke="null" fill-rule="evenodd" clip-rule="evenodd" d="m458.793,70.7072l-6,-6l1.414,-1.4142l6,6l-1.414,1.4142z" fill="#454545" id="svg_156"/>
  <path stroke="null" fill-rule="evenodd" clip-rule="evenodd" d="m534,24l0,-18.5l2,0l0,18.5l-2,0z" fill="#454545" id="svg_157"/>
  <path stroke="null" d="m159.5,526l0,-6.5l21.5,0l0,4l-18.5,0l0,2.5l-3,0z" fill="#454545" id="svg_158"/>
  <path stroke="null" d="m210.381,519.5l-17.381,0l0,4l18.333,0l-0.952,-4z" fill="#454545" id="svg_159"/>
  <path stroke="null" d="m294,228.467l0,-1.467l-12,0l0,3.5l11.866,0l0.134,-2.033z" fill="#454545" id="svg_160"/>
  <path stroke="null" d="m42.948,357.968l0,-15.072l-5.448,0l0,-1.896l12.984,0l0,1.896l-5.448,0l0,15.072l-2.088,0z" fill="#FF6B00" id="svg_161"/>
  <path stroke="null" d="m700.588,297.968l-2.088,0l0,-16.968l2.088,0l0,7.824l2.52,0l5.52,-7.824l2.4,0l-6.096,8.424l6.144,8.544l-2.472,0l-5.328,-7.248l-2.688,0l0,7.248z" fill="#0085FF" id="svg_162"/>
  <path stroke="null" d="m719.284,297.968l-2.088,0l0,-15.072l-5.448,0l0,-1.896l12.984,0l0,1.896l-5.448,0l0,15.072z" fill="#0085FF" id="svg_163"/>
  <path stroke="null" d="m527.5,607l-81,0l0,-60l81,0l0,60z" fill="#7000FF" fill-opacity="0.2" id="svg_164"/>
  <path stroke="null" fill-rule="evenodd" clip-rule="evenodd" d="m448.5,605l77,0l0,-56l-77,0l0,56zm79,2l0,-60l-81,0l0,60l81,0z" fill="white" fill-opacity="0.08" id="svg_165"/>
  <path stroke="null" d="m478.5,587.532l0,-20.532l9.106,0c0.947,0 1.817,0.097 2.61,0.29c0.812,0.193 1.518,0.541 2.117,1.044c0.483,0.387 0.889,0.899 1.218,1.537c0.348,0.619 0.522,1.373 0.522,2.262c0.019,0.947 -0.155,1.788 -0.522,2.523c-0.348,0.735 -0.947,1.353 -1.798,1.856c0.599,0.174 1.112,0.435 1.537,0.783c0.425,0.348 0.764,0.754 1.015,1.218c0.271,0.464 0.464,0.967 0.58,1.508c0.116,0.541 0.164,1.102 0.145,1.682c-0.039,0.928 -0.29,1.788 -0.754,2.581c-0.445,0.773 -1.034,1.402 -1.769,1.885c-0.87,0.599 -1.827,0.976 -2.871,1.131c-1.044,0.155 -2.078,0.232 -3.103,0.232l-8.033,0zm7.917,-12.209c0.425,0 0.851,-0.019 1.276,-0.058c0.425,-0.058 0.822,-0.193 1.189,-0.406c0.309,-0.193 0.57,-0.454 0.783,-0.783c0.213,-0.329 0.329,-0.715 0.348,-1.16c0.019,-0.464 -0.058,-0.841 -0.232,-1.131c-0.174,-0.29 -0.387,-0.512 -0.638,-0.667c-0.309,-0.193 -0.667,-0.3 -1.073,-0.319c-0.406,-0.039 -0.822,-0.058 -1.247,-0.058l-4.118,0l0,4.582l3.712,0zm-3.712,8.497l3.828,0c0.561,0 1.15,-0.029 1.769,-0.087c0.638,-0.077 1.179,-0.28 1.624,-0.609c0.271,-0.213 0.493,-0.474 0.667,-0.783c0.174,-0.329 0.261,-0.735 0.261,-1.218c0,-0.445 -0.097,-0.822 -0.29,-1.131c-0.193,-0.309 -0.435,-0.541 -0.725,-0.696c-0.329,-0.213 -0.706,-0.338 -1.131,-0.377c-0.406,-0.039 -0.831,-0.058 -1.276,-0.058l-4.727,0.029l0,4.93z" fill="white" id="svg_166"/>
  <path stroke="null" d="m629.5,117l-56,0l0,-111l56,0l0,111z" fill="#7000FF" fill-opacity="0.2" id="svg_167"/>
  <path stroke="null" fill-rule="evenodd" clip-rule="evenodd" d="m574.883,113.419l53.234,0l0,-103.83835l-53.234,0l0,103.83835zm54.617,3.581l0,-111l-56,0l0,111l56,0z" fill="white" fill-opacity="0.08" id="svg_168"/>
  <path stroke="null" d="m597.561,68.617l-1.479,3.915l-4.582,0l7.946,-20.532l4.756,0l7.83,20.532l-4.611,0l-1.421,-3.915l-8.439,0zm1.218,-3.712l5.974,0l-2.958,-8.439l-3.016,8.439z" fill="white" id="svg_169"/>
  <rect className="map-rect" id="svg_171" height="44.21769" width="40.81632" y="90.60847" x="505.47628"/>
  <rect className="map-rect" id="svg_173" height="16.32653" width="14.96599" y="134.82615" x="511.59873"/>
  <rect className="map-rect" id="svg_174" height="12.92517" width="12.92517" y="152.51323" x="612.95927"/>
  <rect className="map-rect" id="svg_175" height="20.40816" width="12.2449" y="100.13228" x="546.97288"/>
  <rect className="map-rect" id="svg_176" height="14.28571" width="95.23809" y="1.49282" x="438.80961"/>
  <rect className="map-rect" id="svg_177" height="34.69388" width="77.55102" y="15.77854" x="457.17696"/>
  <rect className="map-rect" id="svg_178" height="24.48979" width="14.28571" y="16.45881" x="449.69397"/>
  <rect className="map-rect" id="svg_184" height="26.53061" width="19.72789" y="14.41799" x="437.44907"/>
  <rect className="map-rect" id="svg_188" height="11.56463" width="6.12245" y="1.49282" x="437.44907"/>
  <rect className="map-rect" id="svg_190" height="8.84354" width="7.48299" y="40.9486" x="452.41506"/>
  <rect className="map-rect" id="svg_191" height="6.12245" width="4.7619" y="9.65609" x="436.7688"/>
  <rect className="map-rect" id="svg_195" height="4.91069" width="81.69604" y="49.26058" x="452.81379"/>
  <rect className="map-rect" id="svg_196" height="10.26781" width="80.35676" y="55.51055" x="455.04592"/>
  <rect className="map-rect" id="svg_197" height="20.08919" width="50.89261" y="66.67121" x="484.51006"/>
  <rect className="map-rect" id="svg_198" height="4.46426" width="31.69628" y="87.20683" x="504.59925"/>
  <rect className="map-rect" id="svg_199" height="4.46426" width="20.53562" y="84.52827" x="484.51006"/>
  <rect className="map-rect" id="svg_200" height="9.82138" width="4.01784" y="54.6177" x="453.26021"/>
  <rect className="map-rect" id="svg_201" height="8.92853" width="29.01772" y="72.47475" x="572.45607"/>
  <rect className="map-rect" id="svg_202" height="73.66036" width="13.83922" y="4.17151" x="535.40268"/>
  <rect className="map-rect" id="svg_203" height="3.12499" width="79.4639" y="53.27842" x="457.72448"/>
  <rect className="map-rect" id="svg_204" height="12.05351" width="5.35712" y="3.72508" x="531.83126"/>
  <rect className="map-rect" id="svg_205" height="29.01772" width="7.58925" y="48.81415" x="550.13475"/>
  <rect className="map-rect" id="svg_206" height="12.05351" width="25.44631" y="65.77836" x="459.06376"/>
  <rect className="map-rect" id="svg_207" height="9.82138" width="21.8749" y="77.83187" x="461.74231"/>
  <rect className="map-rect" id="svg_208" height="22.76775" width="9.82138" y="64.8855" x="453.26021"/>
  <rect className="map-rect" id="svg_209" height="8.92853" width="16.51778" y="79.17115" x="638.52718"/>
  <rect className="map-rect" id="svg_210" height="29.46414" width="8.03568" y="11.76076" x="630.49151"/>
  <rect className="map-rect" id="svg_211" height="8.92853" width="14.28565" y="51.04628" x="660.8485"/>
  <rect className="map-rect" id="svg_212" height="17.41063" width="3.12499" y="70.24262" x="451.02808"/>
  <rect className="map-rect" id="svg_213" height="28.57129" width="38.8391" y="144.34941" x="425.58177"/>
  <rect className="map-rect" id="svg_214" height="26.33916" width="49.10691" y="147.02797" x="377.81414"/>
  <rect className="map-rect" id="svg_215" height="5.35712" width="86.60673" y="171.58142" x="379.15342"/>
  <rect className="map-rect" id="svg_216" height="3.12499" width="45.08907" y="143.90298" x="380.4927"/>
  <rect className="map-rect" id="svg_217" height="8.03568" width="18.30348" y="138.54587" x="370.67132"/>
  <rect className="map-rect" id="svg_218" height="27.67844" width="14.73207" y="149.70653" x="364.42135"/>
  <rect className="map-rect" id="svg_220" height="2.23213" width="12.49994" y="147.02797" x="364.86778"/>
  <rect className="map-rect" id="svg_221" height="18.30348" width="33.48198" y="126.49235" x="430.93889"/>
  <rect className="map-rect" id="svg_225" height="23.21417" width="25.44631" y="105.06388" x="438.97457"/>
  <rect className="map-rect" id="svg_226" height="19.64276" width="14.73207" y="86.7604" x="450.13523"/>
  <rect className="map-rect" id="svg_227" height="5.80354" width="6.6964" y="138.99229" x="426.0282"/>
  <rect className="map-rect" id="svg_229" height="6.24997" width="5.80354" y="120.68881" x="433.17102"/>
  <rect className="map-rect" id="svg_230" height="24.55345" width="12.49994" y="86.7604" x="464.42087"/>
  <rect className="map-rect" id="svg_231" height="13.83922" width="9.37496" y="92.11752" x="443.88526"/>
  <rect className="map-rect" id="svg_232" height="18.74991" width="6.6964" y="110.421" x="464.42087"/>
  <rect className="map-rect" id="svg_233" height="15.1785" width="5.35712" y="85.86755" x="476.92081"/>
  <rect className="map-rect" id="svg_234" height="6.24997" width="5.35712" y="85.42112" x="446.56382"/>
  <rect className="map-rect" id="svg_235" height="8.03568" width="5.80354" y="127.83163" x="465.31373"/>
  <rect className="map-rect" id="svg_236" height="5.35712" width="3.57141" y="136.76016" x="464.8673"/>
  <rect className="map-rect" id="svg_239" height="6.6964" width="5.80354" y="109.97457" x="471.11727"/>
  <rect className="map-rect" id="svg_240" height="3.57141" width="3.57141" y="100.15319" x="477.36724"/>
  <rect className="map-rect" id="svg_241" height="8.4821" width="1.78571" y="87.65325" x="482.72436"/>
  <rect className="map-rect" id="svg_244" height="2.67856" width="2.23213" y="140.778" x="424.24249"/>
  <rect className="map-rect" id="svg_245" height="7.14282" width="7.58925" y="113.54599" x="433.61745"/>
  <rect className="map-rect" id="svg_246" height="6.24997" width="6.6964" y="99.70677" x="440.31385"/>
  <rect className="map-rect" id="svg_247" height="4.91069" width="7.58925" y="80.064" x="447.45667"/>
  <rect className="map-rect" id="svg_248" height="5.35712" width="1.78571" y="74.26046" x="449.24237"/>
  <rect className="map-rect" id="svg_249" height="7.14282" width="3.12499" y="114.88526" x="471.5637"/>
  <rect className="map-rect" id="svg_251" height="4.91069" width="4.46426" y="87.20683" x="444.33168"/>
  <rect className="map-rect" id="svg_253" height="4.46426" width="5.35712" y="94.79608" x="441.2067"/>
  <rect className="map-rect" id="svg_255" height="4.91069" width="11.16066" y="108.63529" x="435.40315"/>
  <rect className="map-rect" id="svg_256" height="7.14282" width="8.92853" y="131.40304" x="426.92105"/>
  <rect className="map-rect" id="svg_257" height="6.24997" width="3.12499" y="120.24238" x="431.38532"/>
  <rect className="map-rect" id="svg_258" height="6.24997" width="4.46426" y="102.83175" x="475.58153"/>
  <rect className="map-rect" id="svg_259" height="3.57141" width="2.23213" y="122.02809" x="471.11727"/>
  <rect className="map-rect" id="svg_260" height="3.57141" width="3.12499" y="127.83163" x="428.70676"/>
  <rect className="map-rect" id="svg_261" height="27.23201" width="4.46426" y="150.59938" x="361.74279"/>
  <rect className="map-rect" id="svg_263" height="20.98204" width="2.67856" y="157.29578" x="359.95709"/>
  <rect className="map-rect" id="svg_264" height="10.71423" width="4.01784" y="168.01001" x="356.8321"/>
  <rect className="map-rect" id="svg_266" height="8.03568" width="24.55345" y="176.93854" x="357.27853"/>
  <rect className="map-rect" id="svg_269" height="6.6964" width="2.67856" y="178.27782" x="355.0464"/>
  <rect className="map-rect" id="svg_270" height="6.6964" width="2.67856" y="161.31361" x="357.27853"/>
  <rect className="map-rect" style="vector-effect: non-scaling-stroke;" id="svg_271" height="11.60709" width="19.19634" y="186.31349" x="354.15355"/>
  <rect className="map-rect" id="svg_272" height="0" width="0.44643" y="182.74208" x="355.0464"/>
  <rect className="map-rect" id="svg_274" height="7.14282" width="25.89273" y="180.50995" x="353.70712"/>
  <rect className="map-rect" id="svg_275" height="9.37496" width="7.58925" y="188.99205" x="350.58213"/>
  <rect className="map-rect" id="svg_276" height="9.82138" width="5.80354" y="187.20635" x="373.34988"/>
  <rect className="map-rect" id="svg_277" height="6.6964" width="22.76775" y="198.36701" x="351.92141"/>
  <rect className="map-rect" id="svg_278" height="23.21417" width="16.9642" y="195.68845" x="337.18934"/>
  <rect className="map-rect" id="svg_279" height="19.19634" width="5.35712" y="199.25986" x="334.06435"/>
  <rect className="map-rect" id="svg_280" height="19.19634" width="18.74991" y="204.61698" x="354.15354"/>
  <rect className="map-rect" id="svg_281" height="4.46426" width="17.41063" y="218.4562" x="340.76075"/>
  <rect className="map-rect" id="svg_282" height="2.67856" width="9.37496" y="218.4562" x="332.72508"/>
  <rect className="map-rect" id="svg_283" height="9.82138" width="9.82138" y="210.42052" x="372.90345"/>
  <rect className="map-rect" id="svg_284" height="16.07135" width="4.46426" y="195.68845" x="374.24273"/>
  <rect className="map-rect" id="svg_285" height="10.26781" width="6.24997" y="201.93842" x="370.67132"/>
  <rect className="map-rect" id="svg_286" height="4.46426" width="26.78559" y="221.13476" x="349.24285"/>
  <rect className="map-rect" id="svg_287" height="3.57141" width="22.76775" y="225.59902" x="356.8321"/>
  <rect className="map-rect" transform="rotate(0.784818 378.261 221.135)" id="svg_288" height="8.03568" width="6.24997" y="217.11692" x="375.13559"/>
  <rect className="map-rect" id="svg_289" height="4.46426" width="7.14282" y="220.2419" x="344.77859"/>
  <rect className="map-rect" id="svg_290" height="3.12499" width="4.46426" y="219.79548" x="338.52862"/>
  <rect className="map-rect" id="svg_291" height="4.01784" width="8.03568" y="226.9383" x="367.99276"/>
  <rect className="map-rect" id="svg_292" height="3.12499" width="4.46426" y="223.36689" x="353.70712"/>
  <rect className="map-rect" id="svg_293" height="29.91057" width="2.67856" y="141.67085" x="463.97445"/>
  <rect className="map-rect" id="svg_295" height="18.30348" width="12.05351" y="313.99145" x="290.31456"/>
  <rect className="map-rect" id="svg_296" height="9.82138" width="9.37496" y="267.5631" x="292.10027"/>
  <rect className="map-rect" id="svg_298" height="13.83922" width="29.91057" y="485.86563" x="269.33252"/>
  <rect className="map-rect" id="svg_299" height="14.28565" width="21.42847" y="526.04401" x="265.31468"/>
  <rect className="map-rect" id="svg_300" height="9.37496" width="9.37496" y="470.68713" x="355.49282"/>
  <rect className="map-rect" id="svg_301" height="8.92853" width="18.30348" y="504.16911" x="348.79643"/>
  <rect className="map-rect" id="svg_302" height="21.42847" width="46.42835" y="577.38305" x="178.26153"/>
  <rect className="map-rect" id="svg_304" height="6.24997" width="47.76763" y="573.36521" x="176.92225"/>
  <rect className="map-rect" id="svg_305" height="19.64276" width="18.74991" y="573.36521" x="162.19018"/>
  <rect className="map-rect" id="svg_307" height="7.14282" width="8.03568" y="592.56155" x="171.56513"/>
  <rect className="map-rect" id="svg_309" height="14.28565" width="8.03568" y="586.758" x="266.20754"/>
  <rect className="map-rect" id="svg_310" height="7.14282" width="48.21405" y="475.15139" x="498.34928"/>
  <rect className="map-rect" id="svg_311" height="15.1785" width="31.69628" y="394.79464" x="468.88514"/>
  <rect className="map-rect" id="svg_312" height="18.30348" width="26.78559" y="447.02653" x="469.77799"/>
  <rect className="map-rect" id="svg_313" height="36.16054" width="30.357" y="409.97314" x="470.22442"/>
  <rect className="map-rect" id="svg_314" height="24.99988" width="13.83922" y="418.90166" x="456.83162"/>
  <rect className="map-rect" id="svg_315" height="8.92853" width="19.64276" y="465.77644" x="476.92081"/>
  <rect className="map-rect" id="svg_316" height="6.24997" width="10.71423" y="476.49067" x="484.95649"/>
  <rect className="map-rect" id="svg_318" height="37.94625" width="26.33916" y="161.76004" x="661.29493"/>
  <rect className="map-rect" id="svg_319" height="6.24997" width="48.66048" y="263.99169" x="545.22406"/>
  <rect className="map-rect" id="svg_320" height="30.80342" width="32.1427" y="231.40256" x="592.54526"/>
  <rect className="map-rect" id="svg_322" height="31.69628" width="18.30348" y="231.40256" x="573.79535"/>
  <rect className="map-rect" id="svg_323" height="30.357" width="10.26781" y="231.84899" x="623.34868"/>
  <rect className="map-rect" id="svg_324" height="9.82138" width="41.96408" y="260.86671" x="592.09883"/>
  <rect className="map-rect" id="svg_325" height="13.83922" width="11.60709" y="176.04569" x="490.31361"/>
  <rect className="map-rect" id="svg_326" height="16.07135" width="8.4821" y="543.45464" x="428.70676"/>
  <rect className="map-rect" id="svg_327" height="5.80354" width="7.14282" y="561.3117" x="418.88538"/>
  <rect className="map-rect" id="svg_328" height="17.85706" width="21.42847" y="573.36521" x="355.49282"/>
  <rect className="map-rect" id="svg_331" height="79.4639" width="6.6964" y="318.00929" x="495.67072"/>
  <rect className="map-rect" id="svg_337" height="9.09091" width="27.27273" y="257.76583" x="573.9764" />
  <rect className="map-rect" id="svg_338" height="13.63636" width="12.5" y="74.81127" x="481.36276" />
  <rect className="map-rect" id="svg_339" height="15.34091" width="56.25" y="60.03855" x="481.36276" />
  <rect className="map-rect" id="svg_340" height="43.75" width="13.63636" y="12.31127" x="528.52185" />
  <rect className="map-rect" id="svg_341" height="9.09091" width="9.65909" y="127.084" x="460.34003" />
  <rect className="map-rect" id="svg_342" height="6.81818" width="6.25" y="217.42492" x="370.5673" />
  <rect className="map-rect" id="svg_343" height="6.81818" width="5.68182" y="194.69764" x="371.13548" />
  <rect className="map-rect" id="svg_345" height="28.97727" width="10.22727" y="48.10673" x="547.27185" />
  <rect className="map-rect" id="svg_349" height="7.30769" width="30.76922" y="83.7592" x="504.399" />
  <rect className="map-rect" id="svg_350" height="20.38461" width="6.92307" y="100.29766" x="543.24514" />
  <rect className="map-rect" id="svg_351" height="5.38461" width="13.07692" y="196.45146" x="358.24523" />
  <rect className="map-rect" id="svg_352" height="5.38461" width="13.07692" y="146.45148" x="364.78368" />
  <rect className="map-rect" id="svg_353" height="3.02325" width="3.48837" y="223.17158" x="374.74053" />
  <rect className="map-rect" id="svg_354" height="7.44185" width="4.18604" y="115.72986" x="468.92646" />
  <rect className="map-rect" id="svg_355" height="3.48837" width="3.95348" y="52.24157" x="454.27531" />
  <rect className="map-rect" id="svg_356" height="1.86046" width="6.0465" y="84.56711" x="447.29858" />
  <rect className="map-rect" id="svg_357" height="3.02325" width="3.95348" y="97.82291" x="440.78696" />
  <rect className="map-rect" id="svg_358" height="3.02325" width="4.4186" y="137.5903" x="426.60093" />
  <rect className="map-rect" id="svg_359" height="3.25581" width="3.48837" y="141.07867" x="423.57768" />
  <rect className="map-rect" id="svg_360" height="5.81395" width="2.55814" y="135.03216" x="463.34507" />
  <rect className="map-rect" id="svg_361" height="3.25581" width="1.6279" y="124.3345" x="470.55436" />
  <rect className="map-rect" id="svg_362" height="3.72093" width="2.55814" y="99.45081" x="476.60087" />
  <rect className="map-rect" id="svg_363" height="8.60464" width="1.6279" y="87.3578" x="482.41481" />
  <rect className="map-rect" id="svg_364" height="1.86046" width="2.55814" y="91.07873" x="448.46137" />
  <rect className="map-rect" id="svg_365" height="1.6279" width="2.55814" y="78.28805" x="449.62416" />
  <rect className="map-rect" id="svg_366" height="13.95347" width="1.39535" y="52.00901" x="453.8102" />
  <rect className="map-rect" id="svg_367" height="2.55814" width="2.32558" y="106.19499" x="437.53115" />
  <rect className="map-rect" id="svg_368" height="3.48837" width="0.23256" y="101.54383" x="439.85673" />
  <rect className="map-rect" id="svg_369" height="1.57593" width="2.72206" y="140.66678" x="463.16165" />
  <rect className="map-rect" id="svg_370" height="1.7192" width="3.0086" y="145.82437" x="378.3479" />
  <rect className="map-rect" id="svg_371" height="1.7192" width="2.149" y="136.08225" x="466.33737" />
  <rect className="map-rect" id="svg_372" height="2.149" width="1.00287" y="108.43182" x="476.36603" />
  <rect className="map-rect" id="svg_373" height="43.55301" width="4.72779" y="90.95331" x="503.72992" />
  <rect className="map-rect" id="svg_374" height="1.43266" width="1.00287" y="88.80431" x="484.24568" />
  <rect className="map-rect" id="svg_375" height="2.00573" width="25.6447" y="445.6811" x="470.4921" />
  <rect className="map-rect"  id="svg_376" height="2.00573" width="18.91117" y="464.30575" x="477.36889" />
  <rect className="map-rect" id="svg_377" height="9.16905" width="10.60172" y="474.62093" x="485.53508" />
  <rect className="map-rect" id="svg_378" height="1.57593" width="4.72779" y="566.45474" x="419.2027" />
  <rect className="map-rect" id="svg_379" height="1.14613" width="45.12894" y="598.2599" x="179.66119" />
  <rect className="map-rect" id="svg_383" height="12.41498" width="1.146" y="397.13133" x="500.80945" />
 </g>

</svg>