<svg width="806" height="696" viewBox="0 0 806 696" fill="none" xmlns="http://www.w3.org/2000/svg">
<path fill-rule="evenodd" clip-rule="evenodd" d="M752 353H782V356.5H805V259H736C736 259 730 257 723 249C720.229 245.833 716.405 238.215 711.848 229.137C704.894 215.284 696.233 198.03 687 188C683.12 183.786 675.842 182.259 668.449 180.709C661.486 179.249 654.422 177.768 650 174C638.822 164.474 639.5 146 639.5 146H531.5V93.5L499.5 32H369V1H290V15H286.5V1H252.5V14L204 56.5V182.5H254V207H204V290.5H114.5L55.5 265.5L1 290V375C1 375 9.7688 396.154 20 406C30.4542 416.06 38.5 421 50 423C61.5 425 87.5 423 98.5 416.5C109.5 410 118 395 118 395H217V495.5L242.5 521.5C245.229 524.275 247.311 525.443 252.5 526.5H275V544.5H272.5V540.5H235V626H256V663H272.5V660.5H277.5V663H295.5V660.5H300V663H316.5V660.5H321.5V663H337.5V660.5H342.5V663H380V695H439V663H489.5L520.5 682H567L584.5 670.5H656V614H653V597.5H650.5V594H653V578.5H650.5V574.5H653V558H650.5V552.5H663C663 552.5 679.323 546.603 687.5 539.5C696.618 531.579 705 514 705 514V479.5H700V447.5H718.5V432.5H752V353ZM504 149H509V102L494.5 87.5L465 80.5H451L425 90.5V154.5H427V152.5H430.5C430.5 152.5 431.131 132.045 439 123C446.86 113.966 455.041 111.124 467 110.5C478.656 109.892 487.292 114.702 495.5 123C503.931 131.524 504 149 504 149ZM353 81.5H354.5V77.5H316.5V130.5H318.5V195.5H317V198H341L355.5 188H359.5V185.5H357.5L375 135V102.5H376.5V99.5H353V81.5ZM381 81.5V77.5H370V81.5H381ZM469.5 157.5H463.5V134.5H469.5V157.5ZM469.5 201.5V178H463.5V201.5H469.5ZM516 171H509V169.5H507V191H509V189.5H517V171H516ZM572.5 189.5V172.5H555.5V189.5H572.5ZM431 178.5L426 176.5L408 187H385V188H387V282C374.741 294.951 366.575 300.168 349.5 305.5V309H424V285.5H514V288H517V284H570.5V285.5H574V284H635V285.5H637.5V281.5H612.5V219.5H614.5V216.5H509V214.5H503.5C503.5 214.5 501.789 223.004 498 226.5C494.721 229.525 487.5 231 487.5 231V236H445V231C445 231 438.858 229.961 436 227.5C432.691 224.651 431 217.5 431 217.5V178.5ZM378.5 373H373V416.5H299.5V406H252V364.5H220.5V325H237.5V249.5L281 223.5H352.5V264.5C352.5 264.5 341.703 274.04 337.5 282C333.254 290.042 331.5 304.5 331.5 304.5L333.5 305.5V309H327.5V354.5H378.5V373ZM378 443.5C378 443.5 379.424 457.674 386 462C389.72 464.447 392.589 464.11 397 463.5C404.117 462.516 409.5 451.5 409.5 451.5H442.5V469.5H479.5L506.5 476.5H521L538 495.5L546 518.5H574.5V504H650.5C650.5 504 659.941 500.344 664.5 496C669.883 490.871 674 479.5 674 479.5H677.5V447.5H634.5V442H629.5V447.5H555.5V456.5H516.5V398.5H514.5V400.5H482V398.5H444V400.5H414V398.5H410.5V443.5H378ZM398 548.5V554H389.5V574.5H365.5V485H256.5V443.5H361.5V467.5C361.5 467.5 371.033 470.071 376.5 473C381.967 475.929 389.5 482.5 389.5 482.5V548.5H398ZM414.5 548.5V554H439.5L482.5 578.5H507.5V506.5H437V548.5H414.5ZM627 554H594.5V644H611.5V623.5H625V597.5H627V594H625V578.5H627V574.5H625V556.5H627V554ZM337 625V630H339.5V644.5H400V637H419.5V644.5H479.5V613.5H392L345.5 625H337ZM668.5 216.5H634V241.5H666V309.5H638.5V307.5H635V309.5H574V307.5H572.5V371.5H569.5V407H589V371.5H630.5V374.5H635V371.5H679.5V331.5H693.5V272.5L683 262H668.5V216.5ZM272.5 586.5V580H275.5V586.5H272.5ZM275.5 625H277V629.5H275.5V632H272.5V620H275.5V625ZM300.5 625H294.5V629.5H300.5V625ZM315.5 629.5V625H321.5V629.5H315.5Z" fill="#22262F"/>
<path fill-rule="evenodd" clip-rule="evenodd" d="M336.5 223.5H307V198H317H336.5V223.5ZM365.5 485V530H343V510.5H340V494H343V485H365.5ZM634.5 408.5V413H630.5V408.5H634.5Z" fill="#1F2228"/>
<path fill-rule="evenodd" clip-rule="evenodd" d="M718.5 447.5V432.5H718.211V241.5C716.309 238.025 714.174 233.771 711.848 229.137C704.894 215.284 696.233 198.03 687 188C683.12 183.786 675.842 182.259 668.449 180.709C661.486 179.249 654.422 177.768 650 174C638.822 164.474 639.5 146 639.5 146H597.5V216.5H614.5V219.5H612.5V226.5H634V216.5H668.5V262H683L693.5 272.5V331.5H679.5V371.5H635V374.5H630.5V371.5H589V407H569.5V371.5H572.5V314.5H544V284H517V288H514V285.5H424V309H371.5V328H327.5V354.5H378.5V373H373V416.5H299.5V406H252V364.5H220.5V325H237.5V290.5H204H114.5L55.5 265.5L1 290V375C1 375 9.7688 396.154 20 406C30.4542 416.06 38.5 421 50 423C61.5 425 87.5 423 98.5 416.5C109.5 410 118 395 118 395H217V495.5L242.5 521.5C245.229 524.275 247.311 525.443 252.5 526.5H275V544.5H272.5V540.5H235V626H256V663H272.5V660.5H277.5V663H295.5V660.5H300V663H316.5V660.5H321.5V663H337.5V660.5H342.5V663H380V695H439V663H489.5L520.5 682H567L584.5 670.5H656V614H653V597.5H650.5V594H653V578.5H650.5V574.5H653V558H650.5V552.5H663C663 552.5 679.323 546.603 687.5 539.5C696.618 531.579 705 514 705 514V479.5H700V447.5H718.5ZM337 625V630H339.5V644.5H400V637H419.5V644.5H479.5V613.5H392L345.5 625H337ZM321.5 625H315.5V629.5H321.5V625ZM300.5 625H294.5V629.5H300.5V625ZM277 625H275.5V620H272.5V632H275.5V629.5H277V625ZM272.5 586.5V580H275.5V586.5H272.5ZM594.5 554H627V556.5H625V574.5H627V578.5H625V594H627V597.5H625V623.5H611.5V644H594.5V554ZM414.5 548.5V554H439.5L482.5 578.5H507.5V506.5H437V548.5H414.5ZM398 548.5V554H389.5V574.5H365.5V530H343V510.5H340V494H343V485H256.5V443.5H361.5V467.5C361.5 467.5 371.033 470.071 376.5 473C381.967 475.929 389.5 482.5 389.5 482.5V548.5H398ZM378 443.5C378 443.5 379.424 457.674 386 462C389.72 464.447 392.589 464.11 397 463.5C404.117 462.516 409.5 451.5 409.5 451.5H442.5V469.5H479.5L506.5 476.5H521L538 495.5L546 518.5H574.5V504H650.5C650.5 504 659.941 500.344 664.5 496C669.883 490.871 674 479.5 674 479.5H677.5V447.5H634.5V442H629.5V447.5H555.5V456.5H516.5V398.5H514.5V400.5H482V398.5H444V400.5H414V398.5H410.5V443.5H378ZM634.5 408.5V413H630.5V408.5H634.5Z" fill="#1F2228"/>
<path d="M499.5 32L531.5 93.5V119.75H509V102L494.5 87.5L465 80.5H451L425 90.5V101H399V77.5H381H370H369V32H499.5Z" fill="#1F2228"/>
<path d="M634.5 225.5H612.5V228.5H634.5V225.5Z" fill="#282C34"/>
<path d="M564.5 383.5H530.5V386.5H564.5V383.5Z" fill="#282C34"/>
<path d="M650.5 572.5H627.5V575.5H650.5V572.5Z" fill="#282C34"/>
<path d="M382.5 247.5H356.5V250.5H382.5V247.5Z" fill="#282C34"/>
<path d="M351.5 308.5H328.5V311.5H351.5V308.5Z" fill="#282C34"/>
<path d="M488.501 479.634V502.634H491.501V479.634H488.501Z" fill="#282C34"/>
<path d="M463.5 644.5V663.5H466.5V644.5H463.5Z" fill="#282C34"/>
<path d="M359.5 644.5V663.5H362.5V644.5H359.5Z" fill="#282C34"/>
<path d="M481.5 479.634V502.634H484.5V479.634H481.5Z" fill="#282C34"/>
<path d="M456.5 644.5V663.5H459.5V644.5H456.5Z" fill="#282C34"/>
<path d="M352.5 644.5V663.5H355.5V644.5H352.5Z" fill="#282C34"/>
<path d="M449.5 644.5V663.5H452.5V644.5H449.5Z" fill="#282C34"/>
<path d="M345.5 644.5V663.5H348.5V644.5H345.5Z" fill="#282C34"/>
<path d="M442.5 644.5V663.5H445.5V644.5H442.5Z" fill="#282C34"/>
<path d="M338.5 644.5V660.5H341.5V644.5H338.5Z" fill="#282C34"/>
<path d="M237.5 264.5H204.5V267.5H237.5V264.5Z" fill="#282C34"/>
<path d="M564.5 369.5H530.5V372.5H564.5V369.5Z" fill="#282C34"/>
<path d="M650.5 558.5H627.5V561.5H650.5V558.5Z" fill="#282C34"/>
<path d="M382.5 233.5H356.5V236.5H382.5V233.5Z" fill="#282C34"/>
<path d="M237.5 250.5H204.5V253.5H237.5V250.5Z" fill="#282C34"/>
<path d="M721.5 283.5V337.5H724.5V283.5H721.5Z" fill="#282C34"/>
<path d="M656.5 372.5V447.5H659.5V372.5H656.5Z" fill="#282C34"/>
<path d="M642.5 372.5V447.5H645.5V372.5H642.5Z" fill="#282C34"/>
<path d="M634.5 232.5H612.5V235.5H634.5V232.5Z" fill="#282C34"/>
<path d="M564.5 390.5H530.5V393.5H564.5V390.5Z" fill="#282C34"/>
<path d="M650.5 579.5H627.5V582.5H650.5V579.5Z" fill="#282C34"/>
<path d="M382.5 254.5H356.5V257.5H382.5V254.5Z" fill="#282C34"/>
<path d="M351.5 315.5H328.5V318.5H351.5V315.5Z" fill="#282C34"/>
<path d="M495.5 479.567V502.567H498.5V479.567H495.5Z" fill="#282C34"/>
<path d="M470.5 644.5V663.5H473.5V644.5H470.5Z" fill="#282C34"/>
<path d="M366.5 644.5V663.5H369.5V644.5H366.5Z" fill="#282C34"/>
<path d="M237.5 271.5H204.5V274.5H237.5V271.5Z" fill="#282C34"/>
<path d="M564.5 376.5H530.5V379.5H564.5V376.5Z" fill="#282C34"/>
<path d="M650.5 565.5H627.5V568.5H650.5V565.5Z" fill="#282C34"/>
<path d="M382.5 240.5H356.5V243.5H382.5V240.5Z" fill="#282C34"/>
<path d="M237.5 257.5H204.5V260.5H237.5V257.5Z" fill="#282C34"/>
<path d="M728.5 283.5V337.5H731.5V283.5H728.5Z" fill="#282C34"/>
<path d="M663.5 372.5V447.5H666.5V372.5H663.5Z" fill="#282C34"/>
<path d="M649.5 372.5V447.5H652.5V372.5H649.5Z" fill="#282C34"/>
<path d="M634.5 239.5H612.5V242.5H634.5V239.5Z" fill="#282C34"/>
<path d="M564.5 397.5H530.5V400.5H564.5V397.5Z" fill="#282C34"/>
<path d="M650.5 586.5H627.5V589.5H650.5V586.5Z" fill="#282C34"/>
<path d="M382.5 261.5H356.5V264.5H382.5V261.5Z" fill="#282C34"/>
<path d="M351.5 322.5H328.5V325.5H351.5V322.5Z" fill="#282C34"/>
<path d="M271.5 592.5H235.5V595.5H271.5V592.5Z" fill="#282C34"/>
<path d="M272.5 628.5H256.5V631.5H272.5V628.5Z" fill="#282C34"/>
<path d="M271.5 599.5H235.5V602.5H271.5V599.5Z" fill="#282C34"/>
<path d="M272.5 635.5H256.5V638.5H272.5V635.5Z" fill="#282C34"/>
<path d="M502.5 479.5V502.5H505.5V479.5H502.5Z" fill="#282C34"/>
<path d="M477.5 644.5V663.5H480.5V644.5H477.5Z" fill="#282C34"/>
<path d="M373.5 644.5V663.5H376.5V644.5H373.5Z" fill="#282C34"/>
<path d="M237.5 278.5H204.5V281.5H237.5V278.5Z" fill="#282C34"/>
<path d="M237.5 285.5H204.5V288.5H237.5V285.5Z" fill="#282C34"/>
<path d="M735.5 283.5V337.5H738.5V283.5H735.5Z" fill="#282C34"/>
<path d="M670.5 372.5V447.5H673.5V372.5H670.5Z" fill="#282C34"/>
<path d="M531.5 123.5H509.5V126.5H531.5V123.5Z" fill="#282C34"/>
<path d="M531.5 130.5H509.5V133.5H531.5V130.5Z" fill="#282C34"/>
<path d="M531.5 137.5H509.5V140.5H531.5V137.5Z" fill="#282C34"/>
<path d="M531.5 144.5H509.5V147.5H531.5V144.5Z" fill="#282C34"/>
<path d="M593.5 171.5V146.5H590.5V171.5H593.5Z" fill="#282C34"/>
<path d="M593.5 215.5V190.5H590.5V215.5H593.5Z" fill="#282C34"/>
<path d="M586.5 171.5V146.5H583.5V171.5H586.5Z" fill="#282C34"/>
<path d="M586.5 215.5V190.5H583.5V215.5H586.5Z" fill="#282C34"/>
<path d="M579.5 171.5V146.5H576.5V171.5H579.5Z" fill="#282C34"/>
<path d="M579.5 215.5V190.5H576.5V215.5H579.5Z" fill="#282C34"/>
<path d="M252.5 137.5H211.5V141.5H252.5V137.5Z" fill="#282C34"/>
<path d="M252.5 179.5V138.5H248.5V179.5H252.5Z" fill="#282C34"/>
<path d="M245.5 179.5V145.5H241.5V179.5H245.5Z" fill="#282C34"/>
<path d="M245.5 144.5H211.5V148.5H245.5V144.5Z" fill="#282C34"/>
<path d="M363.5 33.5H353.5V36.5H363.5V33.5Z" fill="#282C34"/>
<path d="M363.5 26.5H353.5V29.5H363.5V26.5Z" fill="#282C34"/>
<path d="M324.5 29.5V1.5H321.5V29.5H324.5Z" fill="#282C34"/>
<path d="M317.5 29.5V1.5H314.5V29.5H317.5Z" fill="#282C34"/>
<path d="M257.323 482.349L255.565 480.541L228.357 506.994L232 510.5L257.323 482.349Z" fill="#282C34"/>
<path d="M260 485.5L257 485L233.5 512.5L237 516.5L260 485.5Z" fill="#282C34"/>
<path d="M264.5 485.5L262 485.5L239.5 518.5L243.5 523L264.5 485.5Z" fill="#282C34"/>
<path d="M269.5 485.5H267L246 524.5L251 526.5L269.5 485.5Z" fill="#282C34"/>
<path d="M273 485.5H271L254.5 527.5H260L273 485.5Z" fill="#282C34"/>
<path d="M277 485.5L274.5 485.5L262.5 527.5L268.5 527.5L277 485.5Z" fill="#282C34"/>
<path d="M650.5 503.484H646.807L669 550.434L675.5 547.5L650.5 503.484Z" fill="#282C34"/>
<path d="M656.5 501.056L653.029 502.295L678.5 546L685 542L656.5 501.056Z" fill="#282C34"/>
<path d="M663.5 497.465L659.5 499L688.5 538.5L694.5 532L663.5 497.465Z" fill="#282C34"/>
<path d="M668 490.5L666 494.156L697.5 528L702 520L668 490.5Z" fill="#282C34"/>
<path d="M672 485L669.5 488.5L705 515.5L705.5 507L672 485Z" fill="#282C34"/>
<path d="M673.5 479.265L672.645 483.402L704.321 502.295L705.5 492L673.5 479.265Z" fill="#282C34"/>
<path d="M668.32 219.728L669 222.5L695.75 199.738L693 196.5L668.32 219.728Z" fill="#282C34"/>
<path d="M666.706 216.325L669 217L691.75 194.496L689 191L666.706 216.325Z" fill="#282C34"/>
<path d="M662.401 216.387L664.793 216.352L687 188.5L683.5 185.5L662.401 216.387Z" fill="#282C34"/>
<path d="M657.618 216.455L660.01 216.421L680 184.5L675.5 182.966L657.618 216.455Z" fill="#282C34"/>
<path d="M654.27 216.502L656.183 216.475L672 182L667.5 181L654.27 216.502Z" fill="#282C34"/>
<path d="M650.444 216.557L652.835 216.523L665.5 181L661 179.5L650.444 216.557Z" fill="#282C34"/>
<path d="M547.568 559.55L517.641 557.457L517.432 560.45L547.359 562.543L547.568 559.55Z" fill="#282C34"/>
<path d="M547.568 565.55L517.641 563.457L517.432 566.45L547.359 568.543L547.568 565.55Z" fill="#282C34"/>
<path d="M547.568 571.55L517.641 569.457L517.432 572.45L547.359 574.543L547.568 571.55Z" fill="#282C34"/>
<path d="M547.568 577.55L517.641 575.457L517.432 578.45L547.359 580.543L547.568 577.55Z" fill="#282C34"/>
<path d="M549.5 555.5H546.5V580.5H549.5V555.5Z" fill="#282C34"/>
<path d="M612.5 644.5H608.5V670.5H612.5V644.5Z" fill="#282C34"/>
<path d="M618.159 644.453L614.16 644.558L614.841 670.549L618.84 670.444L618.159 644.453Z" fill="#282C34"/>
<path d="M624.159 644.453L620.16 644.558L620.841 670.549L624.84 670.444L624.159 644.453Z" fill="#282C34"/>
<path d="M378.5 446.5H361.5V449.5H378.5V446.5Z" fill="#282C34"/>
<path d="M379.5 452.5L361.615 454.013L362 460.5L380.081 455.027L379.5 452.5Z" fill="#282C34"/>
<path d="M381.289 457.483L361 465.5L367 470L382.663 459.682L381.289 457.483Z" fill="#282C34"/>
<path d="M386 462L374.5 472.5L379 475.5L389 463L386 462Z" fill="#282C34"/>
<path d="M22.5 343.5C22.5 366.696 41.304 385.5 64.5 385.5C78.1057 385.5 90.2004 379.031 97.8756 369C103.286 361.93 106.5 353.09 106.5 343.5C106.5 336.461 104.769 329.827 101.708 324C94.6838 310.624 80.6573 301.5 64.5 301.5C41.304 301.5 22.5 320.304 22.5 343.5Z" fill="#373D4B"/>
<path d="M106.5 343.5C106.5 336.461 104.769 329.827 101.708 324H138V369H97.8756C103.286 361.93 106.5 353.09 106.5 343.5Z" fill="#373D4B"/>
<path d="M70.5 418V412.5H54.5V418H70.5Z" fill="#373D4B"/>
<path d="M163 350H193V344.5H195.5V339H163V350Z" fill="#373D4B"/>
<path d="M274.5 152V150H266.5V163H296V152H274.5Z" fill="#373D4B"/>
<path d="M282 2C278 15.5 264 16 261 2H282Z" fill="#373D4B"/>
<path d="M177.5 291.5H158.5V297.5H177.5V291.5Z" fill="#373D4B"/>
<path d="M36.6337 274.089L23.5103 280.21L26.5361 286.698L39.6595 280.577L36.6337 274.089Z" fill="#373D4B"/>
<path d="M369.5 76.5H363.5V84.5H369.5V76.5Z" fill="#373D4B"/>
<path d="M387.5 76.5H381.5V88.5H387.5V76.5Z" fill="#373D4B"/>
<path d="M346.5 29.5H340.5V35.5H346.5V29.5Z" fill="#373D4B"/>
<path d="M368.5 1.5H340.5V5.5H368.5V1.5Z" fill="#373D4B"/>
<path d="M229.5 72.5C229.5 74.1569 230.843 75.5 232.5 75.5C234.157 75.5 235.5 74.1569 235.5 72.5C235.5 70.8431 234.157 69.5 232.5 69.5C230.843 69.5 229.5 70.8431 229.5 72.5Z" fill="#373D4B"/>
<path d="M230.5 124.5C230.5 125.605 231.395 126.5 232.5 126.5C233.605 126.5 234.5 125.605 234.5 124.5C234.5 123.395 233.605 122.5 232.5 122.5C231.395 122.5 230.5 123.395 230.5 124.5Z" fill="#373D4B"/>
<path d="M298.5 87.8052L285.399 80.5L281.99 86.6137L295.091 93.9189L298.5 87.8052Z" fill="#373D4B"/>
<path d="M265.5 118.805L252.959 111.812L249.55 117.926L262.091 124.919L265.5 118.805Z" fill="#373D4B"/>
<path d="M257.5 119.5H243.5V134.5H257.5V119.5Z" fill="#373D4B"/>
<path d="M359.5 309.5H351.5V316.5H359.5V309.5Z" fill="#373D4B"/>
<path d="M488.5 331.5H445.5V374.5H488.5V331.5Z" fill="#373D4B"/>
<path d="M658.5 251.5H648.5V268.5H658.5V251.5Z" fill="#373D4B"/>
<path d="M544.5 284.5H531.5V292.5H544.5V284.5Z" fill="#373D4B"/>
<path d="M544.5 291.5H536.5V295.5H544.5V291.5Z" fill="#373D4B"/>
<path d="M410.5 414.5H402.5V422.5H410.5V414.5Z" fill="#373D4B"/>
<path d="M266.5 437.008L257.632 430.5L254.082 435.337L262.95 441.845L266.5 437.008Z" fill="#373D4B"/>
<path d="M310.5 566.5H297.5V574.5H310.5V566.5Z" fill="#373D4B"/>
<path d="M340.5 564.5H332.5V577.5H340.5V564.5Z" fill="#373D4B"/>
<path d="M316.5 521.836L311.005 517.5L303.571 526.92L309.067 531.257L316.5 521.836Z" fill="#373D4B"/>
<path d="M284.5 529.5H275.5V537.5H284.5V529.5Z" fill="#373D4B"/>
<path d="M346.5 485.5H342.5V494.5H346.5V485.5Z" fill="#373D4B"/>
<path d="M346.5 510.5H342.5V533.5H346.5V510.5Z" fill="#373D4B"/>
<path d="M365.5 533.5V529.5H342.5V533.5H365.5Z" fill="#373D4B"/>
<path d="M418.5 600.5H400.5V612.5H418.5V600.5Z" fill="#373D4B"/>
<path d="M432.5 606.5H420.5V612.5H432.5V606.5Z" fill="#373D4B"/>
<path d="M341.5 618.5H336.5V624.5H341.5V618.5Z" fill="#373D4B"/>
<path d="M276.5 632.5H271.5V640.5H276.5V632.5Z" fill="#373D4B"/>
<path d="M276.5 613.5H271.5V619.5H276.5V613.5Z" fill="#373D4B"/>
<path d="M777.5 346.5C777.5 349.261 779.739 351.5 782.5 351.5C785.261 351.5 787.5 349.261 787.5 346.5C787.5 343.739 785.261 341.5 782.5 341.5C779.739 341.5 777.5 343.739 777.5 346.5Z" fill="#373D4B"/>
<path d="M744.5 346.5C744.5 349.261 746.739 351.5 749.5 351.5C752.261 351.5 754.5 349.261 754.5 346.5C754.5 343.739 752.261 341.5 749.5 341.5C746.739 341.5 744.5 343.739 744.5 346.5Z" fill="#373D4B"/>
<path d="M719.5 407.5C719.5 410.261 721.739 412.5 724.5 412.5C727.261 412.5 729.5 410.261 729.5 407.5C729.5 404.739 727.261 402.5 724.5 402.5C721.739 402.5 719.5 404.739 719.5 407.5Z" fill="#373D4B"/>
<path d="M719.5 422.5C719.5 425.261 721.739 427.5 724.5 427.5C727.261 427.5 729.5 425.261 729.5 422.5C729.5 419.739 727.261 417.5 724.5 417.5C721.739 417.5 719.5 419.739 719.5 422.5Z" fill="#373D4B"/>
<path d="M732.5 424.5C732.5 427.261 734.739 429.5 737.5 429.5C740.261 429.5 742.5 427.261 742.5 424.5C742.5 421.739 740.261 419.5 737.5 419.5C734.739 419.5 732.5 421.739 732.5 424.5Z" fill="#373D4B"/>
<path d="M707.5 441.5C707.5 444.261 709.739 446.5 712.5 446.5C715.261 446.5 717.5 444.261 717.5 441.5C717.5 438.739 715.261 436.5 712.5 436.5C709.739 436.5 707.5 438.739 707.5 441.5Z" fill="#373D4B"/>
<path d="M738.5 337.5H716.5V339.5H738.5V337.5Z" fill="#373D4B"/>
<path d="M718.5 339.5H716.5V381.5H718.5V339.5Z" fill="#373D4B"/>
<path d="M460.5 62.5H454.5V79.5H460.5V62.5Z" fill="#373D4B"/>
<path d="M558.5 556.5H551.5V563.5H558.5V556.5Z" fill="#373D4B"/>
<path d="M568.5 587.5H561.5V594.5H568.5V587.5Z" fill="#373D4B"/>
<path d="M590.5 594.5H583.5V601.5H590.5V594.5Z" fill="#373D4B"/>
<path d="M588.5 607.5H583.5V620.5H588.5V607.5Z" fill="#373D4B"/>
<path d="M588.5 630.5H583.5V643.5H588.5V630.5Z" fill="#373D4B"/>
<path d="M562.5 632.5H555.5V647.5H562.5V632.5Z" fill="#373D4B"/>
<path d="M548.5 632.5H541.5V647.5H548.5V632.5Z" fill="#373D4B"/>
<path d="M530.5 632.5H523.5V647.5H530.5V632.5Z" fill="#373D4B"/>
<path d="M622.5 624.5H612.5V634.5H622.5V624.5Z" fill="#373D4B"/>
<path d="M655.5 634.5H649.5V649.5H655.5V634.5Z" fill="#373D4B"/>
<path d="M436.5 513.5H430.5V530.5H436.5V513.5Z" fill="#373D4B"/>
<path d="M583.5 544.5H580.5V551.5H583.5V544.5Z" fill="#373D4B"/>
<path d="M589.5 555.5H584.5V563.5H589.5V555.5Z" fill="#373D4B"/>
<path d="M591.5 561.5H589.5V563.5H591.5V561.5Z" fill="#373D4B"/>
<path d="M718.5 399V430.5H716.5V399H718.5Z" fill="#373D4B"/>
<path fill-rule="evenodd" clip-rule="evenodd" d="M517.5 398.5V455.5H554.5V446.5H628.5V441H635.5V446.5H678.5V480.5H674.691C674.569 480.816 674.403 481.235 674.198 481.736C673.722 482.897 673.03 484.5 672.167 486.265C670.457 489.766 668.018 494.029 665.19 496.724C662.796 499.006 659.181 501.06 656.236 502.524C654.75 503.263 653.41 503.864 652.441 504.28C651.956 504.488 651.563 504.65 651.291 504.761C651.155 504.816 651.048 504.859 650.975 504.888L650.892 504.921L650.87 504.929L650.864 504.932L650.862 504.932L650.687 505H575.5V519.5H545.289L537.121 496.018L520.553 477.5H506.372L479.372 470.5H441.5V452.5H410.108C409.943 452.81 409.708 453.236 409.41 453.743C408.779 454.817 407.86 456.263 406.709 457.745C404.455 460.646 401.116 463.94 397.137 464.491C394.953 464.793 393.021 465.049 391.157 464.893C389.25 464.733 387.443 464.146 385.45 462.835C383.618 461.63 382.199 459.779 381.098 457.764C379.993 455.741 379.174 453.489 378.573 451.405C377.971 449.317 377.58 447.371 377.339 445.949C377.219 445.237 377.136 444.654 377.082 444.247C377.074 444.185 377.067 444.126 377.06 444.072C377.045 443.95 377.033 443.85 377.024 443.774C377.018 443.719 377.013 443.677 377.01 443.648L377.006 443.614L377.005 443.604L377.005 443.601C377.005 443.601 377.005 443.6 377.043 443.596L377.005 443.6L376.895 442.5H409.5V398.5H408.5V352.5H413.5V397.5H415V399.5H443V397.5H483V399.5H513.5V398.5H512.5V352.5H518.5V398.5H517.5ZM514.5 354.5H516.5V396.5H514.5V354.5ZM633.5 443H630.5V448.5H556.5V457.5H515.5V401.5H481V399.5H445V401.5H413V399.5H411.5V444.5H379.136C379.182 444.816 379.24 445.191 379.311 445.616C379.543 446.986 379.919 448.854 380.495 450.851C381.072 452.851 381.842 454.953 382.853 456.805C383.869 458.664 385.094 460.207 386.55 461.165C388.277 462.301 389.765 462.769 391.325 462.9C392.928 463.034 394.637 462.817 396.863 462.509C400.001 462.076 402.913 459.37 405.129 456.517C406.213 455.122 407.085 453.752 407.686 452.73C407.985 452.22 408.217 451.798 408.372 451.506C408.449 451.36 408.508 451.246 408.546 451.171C408.566 451.133 408.58 451.104 408.589 451.086L408.599 451.066L408.601 451.061L408.876 450.5H409.389H443.5V468.5H479.628L506.628 475.5H521.447L538.879 494.982L546.711 517.5H573.5V503H650.31L650.326 502.993C650.384 502.97 650.455 502.942 650.538 502.908C650.8 502.802 651.18 502.644 651.652 502.442C652.596 502.037 653.901 501.452 655.345 500.734C658.261 499.284 661.646 497.338 663.81 495.276C666.365 492.842 668.676 488.855 670.37 485.387C671.209 483.67 671.883 482.109 672.347 480.977C672.579 480.412 672.758 479.955 672.879 479.64C672.939 479.483 672.985 479.362 673.015 479.28L673.049 479.188L673.057 479.166L673.059 479.161L673.06 479.16L673.299 478.5H676.5V448.5H633.5V443ZM411.5 396.5H410.5V354.5H411.5V396.5Z" fill="#454545"/>
<path d="M375.5 101.5V100.5H368.535L367.449 98.5H377.5V103.5H376V114.244L374 110.562V101.5H375.5Z" fill="#454545"/>
<path d="M431.5 152.531L431.47 153.5H428V155.5H424V140.262L426 142.123V151.5H429.547C429.58 150.916 429.636 150.088 429.725 149.074C429.807 148.157 429.916 147.086 430.062 145.904L431.88 147.596C431.816 148.19 431.762 148.744 431.718 149.251C431.628 150.268 431.573 151.092 431.541 151.66C431.525 151.944 431.514 152.163 431.508 152.311L431.504 152.403L431.501 152.478L431.5 152.519L431.5 152.529L431.5 152.531Z" fill="#454545"/>
<path d="M464.5 200.5H468.5V181.683L470.5 183.545V202.5H462.5V177H463.469C464.308 177.781 464.778 178.219 465.617 179H464.5V200.5Z" fill="#454545"/>
<path d="M430 179.177L426.082 177.61L414.185 184.55L413.23 182.792L425.918 175.39L432 177.823V217.351L430 213.669V179.177Z" fill="#454545"/>
<path fill-rule="evenodd" clip-rule="evenodd" d="M289 0H370V31H500.107L532.5 93.2554V145H640.537L640.499 146.036L640.499 146.038L640.499 146.045L640.498 146.08L640.497 146.135L640.495 146.226C640.493 146.357 640.491 146.552 640.493 146.806C640.496 147.314 640.513 148.055 640.567 148.976C640.676 150.82 640.935 153.376 641.537 156.221C642.745 161.938 645.304 168.684 650.649 173.239C652.716 175 655.445 176.263 658.577 177.268C661.707 178.273 665.161 178.998 668.654 179.731L668.69 179.738C672.36 180.508 676.078 181.287 679.365 182.409C682.659 183.534 685.632 185.037 687.736 187.323C697.064 197.456 705.771 214.803 712.694 228.594L712.742 228.688C715.023 233.232 717.109 237.39 718.972 240.807C720.845 244.244 722.448 246.85 723.753 248.341C727.186 252.265 730.361 254.703 732.659 256.155C733.809 256.88 734.74 257.36 735.375 257.656C735.693 257.804 735.936 257.905 736.096 257.969C736.126 257.98 736.153 257.991 736.177 258H806V357.5H781V354H753V433.5H719.5V448.5H701V478.5H706V514.226L705.903 514.43L705 514C705.903 514.43 705.902 514.432 705.902 514.432L705.901 514.434L705.896 514.445L705.877 514.485C705.86 514.519 705.835 514.57 705.803 514.637C705.738 514.77 705.642 514.966 705.517 515.216C705.267 515.718 704.901 516.442 704.434 517.335C703.499 519.119 702.156 521.582 700.526 524.295C697.283 529.694 692.841 536.185 688.156 540.255C683.955 543.904 677.721 547.202 672.604 549.571C670.033 550.761 667.72 551.727 666.05 552.396C665.215 552.73 664.539 552.991 664.072 553.168C663.838 553.256 663.656 553.324 663.532 553.37C663.47 553.393 663.423 553.41 663.39 553.422L663.344 553.439L663.341 553.44L663.34 553.44L663.175 553.5H651.5V557H654V575.5H651.5V577.5H654V595H651.5V596.5H654V613H657V671.5H584.799L567.299 683H520.218L489.218 664H440V696H379V664H341.5V661.5H338.5V664H320.5V661.5H317.5V664H299V661.5H296.5V664H276.5V661.5H273.5V664H255V627H234V539.5H273.5V543.5H274V527.5H252.399L252.3 527.48C249.668 526.944 247.75 526.365 246.123 525.535C244.484 524.698 243.195 523.633 241.787 522.201L241.786 522.2L216 495.909V396H118.573C118.542 396.053 118.507 396.111 118.471 396.172C118.212 396.603 117.832 397.223 117.341 397.986C116.361 399.512 114.939 401.613 113.168 403.921C109.643 408.517 104.674 414.013 99.0087 417.361C93.3175 420.724 83.889 422.866 74.5508 423.931C65.1898 424.999 55.7095 425.008 49.8287 423.985C38.0646 421.939 29.8456 416.863 19.3066 406.721C14.0704 401.682 9.2597 393.812 5.78064 387.278C4.03381 383.997 2.60931 381.027 1.62134 378.877C1.1272 377.801 0.741882 376.93 0.479614 376.327C0.348511 376.025 0.248169 375.79 0.180359 375.63L0.129272 375.509L0.10321 375.448L0.0767822 375.384L0.0762329 375.383L0 375.199V289.353L55.4882 264.409L114.703 289.5H203V206H253V183.5H203V56.0467L251.5 13.5467V0H287.5V14H289V0ZM638.571 149.094C638.52 148.237 638.5 147.526 638.494 147H530.5V93.7446L498.893 33H368V2H291V16H285.5V2H253.5V14.4533L205 56.9533V181.5H255V208H205V291.5H114.297L55.5118 266.591L2 290.647V374.799L2.02161 374.85L2.09656 375.026C2.15479 375.162 2.22742 375.331 2.3139 375.53C2.57117 376.122 2.95087 376.98 3.43866 378.042C4.41455 380.165 5.82172 383.099 7.54602 386.338C11.0091 392.842 15.6984 400.473 20.6934 405.279C31.0627 415.258 38.9354 420.061 50.1713 422.015C55.7905 422.992 65.0602 423.001 74.3242 421.944C83.611 420.884 92.6825 418.776 97.9913 415.639C103.326 412.487 108.107 407.233 111.582 402.704C113.311 400.449 114.701 398.395 115.659 396.905C116.137 396.16 116.507 395.557 116.756 395.142C116.812 395.05 116.861 394.966 116.905 394.893C116.959 394.802 117.003 394.726 117.038 394.667C117.069 394.613 117.093 394.572 117.108 394.545L117.125 394.515L117.13 394.507L117.417 394H218V495.091L243.213 520.799C244.534 522.142 245.652 523.048 247.032 523.754C248.408 524.456 250.099 524.986 252.601 525.5H276V545.5H271.5V541.5H236V625H257V662H271.5V659.5H278.5V662H294.5V659.5H301V662H315.5V659.5H322.5V662H336.5V659.5H343.5V662H381V694H438V662H489.782L520.782 681H566.701L584.201 669.5H655V615H652V598.5H649.5V593H652V579.5H649.5V573.5H652V559H649.5V551.5H662.823L662.839 551.494C662.958 551.45 663.135 551.384 663.363 551.298C663.82 551.124 664.484 550.869 665.307 550.539C666.952 549.88 669.232 548.928 671.764 547.756C676.852 545.401 682.868 542.199 686.844 538.745C691.277 534.894 695.586 528.635 698.812 523.265C700.417 520.593 701.741 518.165 702.662 516.406C703.123 515.527 703.483 514.816 703.727 514.325C703.846 514.086 703.938 513.899 704 513.771V480.5H699V446.5H717.5V431.5H751V352H783V355.5H804V260H735.838L735.683 259.948L735.682 259.948L735.68 259.947L735.673 259.945L735.654 259.938C735.638 259.933 735.616 259.925 735.589 259.915C735.57 259.908 735.548 259.9 735.523 259.891C735.502 259.883 735.48 259.875 735.455 259.865C735.426 259.854 735.395 259.842 735.361 259.828C735.165 259.751 734.886 259.634 734.531 259.469C733.823 259.14 732.816 258.619 731.591 257.845C729.139 256.297 725.814 253.735 722.247 249.659C720.781 247.982 719.086 245.196 717.216 241.764C715.335 238.314 713.234 234.127 710.96 229.598L710.954 229.586C703.976 215.685 695.381 198.58 686.264 188.677C684.489 186.749 681.882 185.382 678.719 184.302C675.559 183.223 671.954 182.466 668.243 181.688L668.215 181.682C664.753 180.956 661.204 180.212 657.966 179.172C654.719 178.13 651.706 176.768 649.351 174.761C643.519 169.79 640.827 162.537 639.58 156.635C638.954 153.67 638.684 151.012 638.571 149.094ZM369 76.5H382V82.5H369V76.5ZM371 80.5H380V78.5H371V80.5ZM315.5 76.5H355.5V82.5H354V98.5H367.449L368.535 100.5H352V80.5H353.5V78.5H317.5V129.5H319.5V196.5H318V197H340.689L355.189 187H358.5V186.5H356.095L374 134.832V110.562L376 114.244V135.168L358.905 184.5H360.5V185.5H385.5V186H407.73L413.23 182.792L414.185 184.55L408.27 188H388V282.398L387.726 282.687C381.568 289.194 376.396 293.802 370.588 297.454C364.939 301.006 358.731 303.627 350.5 306.234V308H423V284.5H515V287H516V283H571.5V284.5H573V283H636V284.5H636.5V282.5H611.5V218.5H613.5V217.5H508V215.5H504.299C504.255 215.685 504.203 215.897 504.142 216.133C503.917 217.005 503.577 218.206 503.114 219.521C502.206 222.103 500.766 225.309 498.678 227.235C496.873 228.9 494.074 230.079 491.84 230.832C490.703 231.215 489.673 231.501 488.926 231.691C488.772 231.731 488.629 231.766 488.5 231.797V237H444V231.823C443.931 231.808 443.858 231.793 443.782 231.776C443.143 231.636 442.261 231.423 441.285 231.131C439.373 230.557 436.947 229.635 435.348 228.258C433.227 226.432 431.79 223.143 430.97 220.835C430.658 219.957 430.424 219.186 430.267 218.633C430.188 218.356 430.129 218.134 430.089 217.979C430.069 217.901 430.054 217.84 430.043 217.798L430 217.617V213.669L432 217.351L432.862 220.187C433.681 222.485 434.975 225.298 436.652 226.742C437.911 227.826 439.985 228.653 441.859 229.215C442.775 229.49 443.607 229.69 444.21 229.822C444.51 229.888 444.753 229.937 444.919 229.968C445.001 229.984 445.065 229.996 445.107 230.004L445.154 230.012L445.165 230.014L445.167 230.014L446 230.155V235H486.5V230.184L487.3 230.02C496.819 227.841 499.881 223.852 502.681 213.5H510V215.5H615.5V220.5H613.5V280.5H638.5V286.5H634V285H575V286.5H569.5V285H518V289H513V286.5H425V310H348.5V304.765L349.202 304.545C357.695 301.893 363.916 299.287 369.524 295.761C375.048 292.286 380.022 287.892 386 281.601V189H385.5V189.5H359.5V189H355.811L341.311 199H316V194.5H317.5V131.5H315.5V76.5ZM424 89.8132V140.262L426 142.123V91.1868L451.186 81.5H464.883L493.993 88.4075L508 102.414V148H504.972C504.952 147.508 504.916 146.849 504.854 146.058C504.714 144.258 504.438 141.767 503.893 139.003C502.811 133.516 500.639 126.774 496.211 122.297C487.876 113.87 478.979 108.874 466.948 109.501C460.906 109.817 455.743 110.695 451.073 112.676C446.39 114.661 442.26 117.729 438.246 122.344C434.12 127.085 431.96 134.698 430.815 140.962C430.492 142.729 430.247 144.405 430.062 145.904L431.88 147.596C432.072 145.801 432.359 143.639 432.783 141.322C433.92 135.097 436.01 127.96 439.754 123.656C443.6 119.236 447.49 116.367 451.853 114.517C456.228 112.662 461.135 111.807 467.052 111.499C478.333 110.91 486.708 115.533 494.789 123.703C498.792 127.75 500.87 134.008 501.931 139.39C502.457 142.06 502.725 144.471 502.861 146.214C502.928 147.085 502.963 147.787 502.981 148.27C502.99 148.511 502.995 148.697 502.997 148.821C502.999 148.884 502.999 148.931 503 148.961L503 148.995L503 149.003V149.004L503.004 150H505.5V169.5H506V192H510V190.5H518V170H510V169.5H510.5V148.5H510V101.586L495.007 86.5925L465.117 79.5H450.814L424 89.8132ZM470.5 177H463.469C464.308 177.781 464.778 178.219 465.617 179H468.5V181.683L470.5 183.545V177ZM508.5 167.5V150.5H507.5V167.5H508.5ZM462.5 133.5H470.5V158.5H462.5V133.5ZM468.5 156.5V135.5H464.5V156.5H468.5ZM508 172V188.5H516V172H508ZM554.5 171.5H573.5V190.5H554.5V171.5ZM571.5 188.5V173.5H556.5V188.5H571.5ZM633 215.5H669.5V261H683.414L694.5 272.086V332.5H680.5V372.5H636V375.5H629.5V372.5H590V408H568.5V370.5H571.5V306.5H575V308.5H634V306.5H639.5V308.5H665V242.5H633V215.5ZM636 310.5H573.5V372.5H570.5V406H588V370.5H631.5V373.5H634V370.5H678.5V330.5H692.5V272.914L682.586 263H667.5V217.5H635V240.5H667V310.5H637.5V308.5H636V310.5ZM280.724 222.5H353.5V264.951L353.162 265.25L353.161 265.251L353.134 265.275L353.045 265.354C353.01 265.385 352.968 265.423 352.918 265.468C352.876 265.506 352.829 265.548 352.778 265.595L352.701 265.665C352.402 265.937 351.968 266.337 351.434 266.842C350.366 267.852 348.897 269.281 347.3 270.955C344.085 274.324 340.417 278.616 338.384 282.467C336.33 286.357 334.853 291.866 333.886 296.471C333.406 298.76 333.057 300.801 332.828 302.269C332.721 302.959 332.64 303.522 332.585 303.924L334.5 304.882V310H328.5V353.5H379.5V374H374V417.5H298.5V407H251V365.5H219.5V324H236.5V248.933L280.724 222.5ZM351.5 224.5H281.276L238.5 250.067V326H221.5V363.5H253V405H300.5V415.5H372V372H377.5V355.5H326.5V308H332.5V306.118L330.422 305.079L330.507 304.38L330.539 304.383L330.512 304.379C330.507 304.379 330.507 304.378 330.507 304.378L330.508 304.376L330.509 304.367L330.513 304.334L330.529 304.208C330.543 304.098 330.564 303.936 330.593 303.727C330.65 303.311 330.736 302.709 330.852 301.961C331.085 300.467 331.44 298.391 331.929 296.06C332.902 291.425 334.424 285.685 336.616 281.533C338.785 277.424 342.617 272.966 345.852 269.575C347.479 267.87 348.973 266.416 350.06 265.388C350.604 264.874 351.047 264.466 351.354 264.186L351.5 264.054V224.5ZM512.5 304.5H518.5V326.5H512.5V304.5ZM516.5 306.5H514.5V324.5H516.5V306.5ZM490.5 304.5H498.5V310.5H490.5V304.5ZM496.5 308.5V306.5H492.5V308.5H496.5ZM467.5 304.5H475.5V310.5H467.5V304.5ZM473.5 308.5V306.5H469.5V308.5H473.5ZM444.5 304.5H452.5V310.5H444.5V304.5ZM450.5 306.5H446.5V308.5H450.5V306.5ZM629.5 407.5H635.5V414H629.5V407.5ZM633.5 412V409.5H631.5V412H633.5ZM255.5 442.5H362.5V466.741C362.737 466.808 363.025 466.891 363.356 466.988C364.343 467.277 365.716 467.693 367.262 468.202C370.338 469.214 374.158 470.611 376.972 472.119C379.786 473.626 383.093 476.046 385.667 478.061C386.96 479.073 388.081 479.993 388.879 480.66C389.278 480.994 389.597 481.265 389.816 481.452C389.887 481.513 389.947 481.565 389.996 481.607L390.068 481.669L390.151 481.741L390.156 481.745L390.157 481.746L390.5 482.045V547.5H399V555H390.5V575.5H364.5V486H255.5V442.5ZM361.241 468.466L361.24 468.466L360.5 468.266V444.5H257.5V484H366.5V573.5H388.5V553H397V549.5H388.5V482.958C388.286 482.776 387.979 482.515 387.596 482.195C386.811 481.538 385.707 480.632 384.434 479.636C381.875 477.633 378.681 475.303 376.028 473.881C373.375 472.46 369.694 471.107 366.637 470.102C365.117 469.601 363.765 469.192 362.794 468.907C362.308 468.765 361.918 468.654 361.65 468.579L361.522 468.543L361.344 468.494L361.245 468.467L361.241 468.466ZM436 505.5H508.5V579.5H482.235L439.235 555H413.5V547.5H436V505.5ZM506.5 507.5H438V549.5H415.5V553H439.765L482.765 577.5H506.5V507.5ZM593.5 553H628V557.5H626V573.5H628V579.5H626V593H628V598.5H626V624.5H612.5V645H593.5V553ZM624 555.5H626V555H595.5V643H610.5V622.5H624V596.5H626V595H624V577.5H626V575.5H624V555.5ZM274.5 585.5V581H273.5V585.5H274.5ZM271.5 579H276.5V587.5H271.5V579ZM391.878 612.5H480.5V645.5H418.5V638H401V645.5H338.5V631H336V624H345.378L391.878 612.5ZM478.5 643.5V614.5H392.122L345.622 626H338V629H340.5V643.5H399V636H420.5V643.5H478.5ZM276.5 630.5V633H271.5V619H276.5V624H278V630.5H276.5ZM276 628.5V626H274.5V621H273.5V631H274.5V628.5H276ZM314.5 624H322.5V630.5H314.5V624ZM320.5 628.5V626H316.5V628.5H320.5ZM293.5 624H301.5V630.5H293.5V624ZM299.5 628.5V626H295.5V628.5H299.5ZM276.5 638.5H283.5V645.5H276.5V638.5ZM281.5 643.5V640.5H278.5V643.5H281.5Z" fill="#454545"/>
<path d="M770.552 313.968V298.896H776V297H763.016V298.896H768.464V313.968H770.552Z" fill="#FF6B00"/>
<path d="M52.856 352.968H50.768V336H52.856V343.824H55.376L60.896 336H63.296L57.2 344.424L63.344 352.968H60.872L55.544 345.72H52.856V352.968Z" fill="#0085FF"/>
<path d="M71.552 352.968H69.464V337.896H64.016V336H77V337.896H71.552V352.968Z" fill="#0085FF"/>
<path d="M244 83V135H295V83H244Z" fill="#7000FF" fill-opacity="0.2"/>
<path fill-rule="evenodd" clip-rule="evenodd" d="M246 133V85H293V133H246ZM244 83H295V135H244V83Z" fill="white" fill-opacity="0.08"/>
<path d="M261.466 119.532V99H270.572C271.519 99 272.389 99.0967 273.182 99.29C273.994 99.4833 274.699 99.8313 275.299 100.334C275.782 100.721 276.188 101.233 276.517 101.871C276.865 102.49 277.039 103.244 277.039 104.133C277.058 105.08 276.884 105.921 276.517 106.656C276.169 107.391 275.569 108.009 274.719 108.512C275.318 108.686 275.83 108.947 276.256 109.295C276.681 109.643 277.019 110.049 277.271 110.513C277.541 110.977 277.735 111.48 277.851 112.021C277.967 112.562 278.015 113.123 277.996 113.703C277.957 114.631 277.706 115.491 277.242 116.284C276.797 117.057 276.207 117.686 275.473 118.169C274.603 118.768 273.646 119.145 272.602 119.3C271.558 119.455 270.523 119.532 269.499 119.532H261.466ZM269.383 107.323C269.808 107.323 270.233 107.304 270.659 107.265C271.084 107.207 271.48 107.072 271.848 106.859C272.157 106.666 272.418 106.405 272.631 106.076C272.843 105.747 272.959 105.361 272.979 104.916C272.998 104.452 272.921 104.075 272.747 103.785C272.573 103.495 272.36 103.273 272.109 103.118C271.799 102.925 271.442 102.818 271.036 102.799C270.63 102.76 270.214 102.741 269.789 102.741H265.671V107.323H269.383ZM265.671 115.82H269.499C270.059 115.82 270.649 115.791 271.268 115.733C271.906 115.656 272.447 115.453 272.892 115.124C273.162 114.911 273.385 114.65 273.559 114.341C273.733 114.012 273.82 113.606 273.82 113.123C273.82 112.678 273.723 112.301 273.53 111.992C273.336 111.683 273.095 111.451 272.805 111.296C272.476 111.083 272.099 110.958 271.674 110.919C271.268 110.88 270.842 110.861 270.398 110.861L265.671 110.89V115.82Z" fill="white"/>
<path d="M289 529V580H340V529H289Z" fill="#7000FF" fill-opacity="0.2"/>
<path fill-rule="evenodd" clip-rule="evenodd" d="M291 578V531H338V578H291ZM289 529H340V580H289V529Z" fill="white" fill-opacity="0.08"/>
<path d="M318.939 561.617L320.418 565.532H325L317.054 545H312.298L304.468 565.532H309.079L310.5 561.617H318.939ZM317.721 557.905H311.747L314.705 549.466L317.721 557.905Z" fill="white"/>
</svg>
