<svg width="640" height="720" viewBox="0 0 640 720" fill="none" xmlns="http://www.w3.org/2000/svg">
<path fill-rule="evenodd" clip-rule="evenodd" d="M476 59.5H519V85.5L533 85.5V198.5H514V241H638.5V461H526V507.5H530.5L515.5 572.5H463.5V579.5H443V572.5H427L409.5 557H385V578H393.5L393.5 698.5H385V707.5H306V715H240.5L224 719H183.5V653.5H138V602.5H123V540L127.5 536.5H141.5V534.5H123L115 543V572.5H75V459.5H102V414H33V264.5H100.5V243.5H33V186H53V182.5H33V153.5H1V69H17L26.5 47H107V1L237.5 1V13L259 13V1L344.5 1V62.5H323.5V94H365.5V109L358 116.5H360L368 109V69.5H351.5V50.5H349.5V10.5H351.5V1L425.5 1V74H476V59.5ZM470.5 201L480 167.5H415V144.5H409.5V207L319 207V197H316V211H338.5V214.5H353.5V211L419 211V316.5H416.5V393H574V309L560 297H462V201H470.5ZM358.5 318H316.5V336.5L306 348H289.5L278.5 336.5V318H266V323.5L274 332.5V366H197.5V379.5H274V464.5H276L276 603H330.5V591H323V491H353V487.5H295.5L295.5 377H338V386H343V377H358.5V318ZM353.5 272V258H339.5V272H353.5ZM386 446H481V491.5H372V487H386V446ZM337 408.5H341V431.5H383V444.5H337V408.5ZM128 32.5V73H107V51.5L124.5 51.5V32.5H128ZM180.5 191.5V162H174.5V183H78.5V187H90.5V203.5H96.5V187H174.5V191.5H180.5ZM156 219.5H145V312H96.5V349.5H145L145 500L128.5 504.5L130 507L148 503.5L156 492.5L156 465L229 465V424.5L156 424.5V323.5L227.5 323.5V321.5H236.5L246.5 327V324.5L236.5 319H226V309.5L213.5 300.5L212.5 302L223.5 309.5V319L156 319V219.5ZM174.5 62.5L283.5 62.5V68H275V159H366.5V132L373.5 123H377.5L369 132.5V162.5H262.5V204H291V213.5H226V269.5L240 283.5L238 285.5L224.5 272H218.5V264H195.5V250.5H220.5V111H180.5V120.5H174.5V62.5Z" fill="#22262F"/>
<path d="M604.44 356.98V341.908H598.992V340.012H611.976V341.908H606.528V356.98H604.44Z" fill="#FF6B00"/>
<path d="M51.456 346.356H49.368V329.388H51.456V337.212H53.976L59.496 329.388H61.896L55.8 337.812L61.944 346.356H59.472L54.144 339.108H51.456V346.356Z" fill="#0085FF"/>
<path d="M70.152 346.356H68.064V331.284H62.616V329.388H75.6V331.284H70.152V346.356Z" fill="#0085FF"/>
<path d="M526 507.5V461H481V491.5H408V518H349.5V529H323V591H330.5V603H276V464.5H274V465H156L156 492.5L148 503.5L130 507L128.5 504.5L145 500L145 459.5H75L75 572.5H115V543L123 534.5H141.5V536.5H127.5L123 540V602.5H138V653.5H183.5V719H224L240.5 715H306V707.5H385V698.5H393.5L393.5 578H385V557H409.5L427 572.5H443V579.5H463.5V572.5H515.5L530.5 507.5H526Z" fill="#1F2228"/>
<path fill-rule="evenodd" clip-rule="evenodd" d="M53 187V182.5H33V153.5H1V69H17L26.5 47H107V1L237.5 1V13L259 13V1L344.5 1V62.5H323.5V94H365.5V109L358 116.5H360L368 109V69.5H351.5V50.5H349.5V10.5H351.5V1L425.5 1V74H443V167.5H415V144.5H409.5V207H369V132.5L377.5 123H373.5L366.5 132V159L275 159V68H283.5V62.5L174.5 62.5V120.5H180.5V111L220.5 111V162H174.5V183H78.5V187H53ZM128 73V32.5H124.5V51.5L107 51.5V73H128Z" fill="#1F2228"/>
<path d="M468 74.5V166.5H416V74.5H468Z" fill="url(#paint0_linear_67_204)"/>
<path d="M344 162.5V206.5H373V162.5H344Z" fill="url(#paint1_linear_67_204)"/>
<path d="M220 189.5H181V161.5H220V189.5Z" fill="url(#paint2_linear_67_204)"/>
<path d="M144 431.5H103V462.5H144V431.5Z" fill="url(#paint3_linear_67_204)"/>
<path d="M274 431.5H229V465.5H274V431.5Z" fill="url(#paint4_linear_67_204)"/>
<path d="M525 447.5H482V472.5H525V447.5Z" fill="url(#paint5_linear_67_204)"/>
<path d="M371 492.5V518H409V492.5H371Z" fill="url(#paint6_linear_67_204)"/>
<path d="M288.5 111H276V139H288.5V111Z" fill="#373D4B"/>
<path d="M322.5 104.5V95H331V104.5H322.5Z" fill="#373D4B"/>
<path d="M405.5 43H395V47H374V27H395V31H405.5V43Z" fill="#373D4B"/>
<path d="M469 90V75H477.5V90H469Z" fill="#373D4B"/>
<path d="M482.5 139.5V106H491.5V139.5H482.5Z" fill="#373D4B"/>
<path d="M524.5 405V394H503V405H524.5Z" fill="#373D4B"/>
<path d="M617 433V460H570V433H617Z" fill="#373D4B"/>
<path d="M521.5 508.5V463.5H525V508.5H521.5Z" fill="#373D4B"/>
<path d="M486 468.5H482V442H486V468.5Z" fill="#373D4B"/>
<path d="M486 473.5H482V492.5H475.5V499.5H482V505H486V473.5Z" fill="#373D4B"/>
<path d="M354.5 253V273.5H368.5V281H376V253H354.5Z" fill="#373D4B"/>
<path d="M369 331.5H359.5V316H369V331.5Z" fill="#373D4B"/>
<path d="M329 445.5H336V422.5H329V445.5Z" fill="#373D4B"/>
<path d="M320 188.5V206H329V188.5H320Z" fill="#373D4B"/>
<path d="M244.5 228.5H267.5V239H244.5V228.5Z" fill="#373D4B"/>
<path d="M278 305.5V316.5H267.5V305.5H278Z" fill="#373D4B"/>
<path d="M335.5 507H324V517.5H335.5V507Z" fill="#373D4B"/>
<path d="M340.5 596H331.5V604.5H340.5V596Z" fill="#373D4B"/>
<path d="M275 618.5V604H309.5V618.5H275Z" fill="#373D4B"/>
<path d="M345 639.5H339.5V653.5H217V671H222V677.5H230.5V671H274V679.5H294V671H339.5V666H345V639.5Z" fill="#373D4B"/>
<path d="M184.5 620V652.5H159C157.4 652.5 158.333 637.833 159 630.5H169.5V603H222V620H184.5Z" fill="#373D4B"/>
<path d="M222 510H275V523H222V510Z" fill="#373D4B"/>
<path d="M212 479.5V466H179.5V479.5H212Z" fill="#373D4B"/>
<path d="M163 480.5H157V466H163V480.5Z" fill="#373D4B"/>
<path d="M144 202.5V188H97.5V202.5H144Z" fill="#373D4B"/>
<path d="M181.5 151.5V161H173V151.5H181.5Z" fill="#373D4B"/>
<path d="M181.5 121.5H173V130.5H181.5V121.5Z" fill="#373D4B"/>
<path d="M173.5 46V61.5L224 61.5V46H173.5Z" fill="#373D4B"/>
<path d="M152 165.5V182H119.5V171H128V165.5H152Z" fill="#373D4B"/>
<path d="M35 132V95.5H27V132H35Z" fill="#373D4B"/>
<path d="M99 68.5L104 74L94.5 82.5L89.5 76.5L99 68.5Z" fill="#373D4B"/>
<path d="M115.5 132L88 113L82.5 119.5L116.5 143.5L128 130L122 125L115.5 132Z" fill="#373D4B"/>
<path d="M198 547.94L186.407 565.315L179.752 560.875L191.345 543.5L198 547.94Z" fill="#373D4B"/>
<path d="M202.762 541.696L219.126 554.678L214.154 560.945L197.79 547.964L202.762 541.696Z" fill="#373D4B"/>
<path d="M456 74.5V166.5H453V74.5H456Z" fill="#1F2228"/>
<path d="M453 74.5V166.5H450V74.5H453Z" fill="#282C34"/>
<path d="M450 74.5V166.5H447V74.5H450Z" fill="#1F2228"/>
<path d="M447 74.5V166.5H444V74.5H447Z" fill="#282C34"/>
<path d="M88 181.5H41V178.5H88V181.5Z" fill="#1F2228"/>
<path d="M88 178.5H41V175.5H88V178.5Z" fill="#282C34"/>
<path d="M88 175.5H41V172.5H88V175.5Z" fill="#1F2228"/>
<path d="M88 172.5H41V169.5H88V172.5Z" fill="#282C34"/>
<path d="M145 449.5H102V446.5H145V449.5Z" fill="#1F2228"/>
<path d="M145 437.5H102V434.5H145V437.5Z" fill="#1F2228"/>
<path d="M145 425.5H102V422.5H145V425.5Z" fill="#1F2228"/>
<path d="M145 461.5H102V458.5H145V461.5Z" fill="#1F2228"/>
<path d="M145 446.5H102V443.5H145V446.5Z" fill="#282C34"/>
<path d="M145 434.5H102V431.5H145V434.5Z" fill="#282C34"/>
<path d="M145 422.5H102V419.5H145V422.5Z" fill="#282C34"/>
<path d="M145 458.5H102V455.5H145V458.5Z" fill="#282C34"/>
<path d="M145 443.5H102V440.5H145V443.5Z" fill="#1F2228"/>
<path d="M145 431.5H102V428.5H145V431.5Z" fill="#1F2228"/>
<path d="M145 419.5H102V416.5H145V419.5Z" fill="#1F2228"/>
<path d="M145 455.5H102V452.5H145V455.5Z" fill="#1F2228"/>
<path d="M145 440.5H102V437.5H145V440.5Z" fill="#282C34"/>
<path d="M145 428.5H102V425.5H145V428.5Z" fill="#282C34"/>
<path d="M145 416.5H102V413.5H145V416.5Z" fill="#282C34"/>
<path d="M145 452.5H102V449.5H145V452.5Z" fill="#282C34"/>
<path d="M404 497.5V512.5H401V497.5H404Z" fill="#282C34"/>
<path d="M397 497.5V512.5H394V497.5H397Z" fill="#282C34"/>
<path d="M390 497.5V512.5H387V497.5H390Z" fill="#282C34"/>
<path d="M383 497.5V512.5H380V497.5H383Z" fill="#282C34"/>
<path fill-rule="evenodd" clip-rule="evenodd" d="M639.5 240V462H527V506.5H531.757L516.296 573.5H464.5V580.5H442V573.5H426.621L409.121 558H386V577H394.5L394.5 699.5H386V708.5H307V716H240.62L224.119 720H182.5V654.5H137V603.5H122V539.511L127.157 535.5H123.432L116 543.397V573.5H74V458.5H101V415H32V263.5H99.5V244.5H32V185H52V183.5H32V154.5H0V68H16.3425L25.8426 46H106V0L238.5 0V12L258 12V0L345.5 0V63.5H324.5V93H366.5V109.036L367 108.567V70.5H350.5V51.5L348.5 51.5V9.5H350.5V0L426.5 0V73H475V58.5H520V84.5L534 84.5V199.5H515V240H639.5ZM350.5 11.5V49.5H352.5V68.5H369V109.433L360.395 117.5H355.586L364.5 108.586V95H322.5V61.5H343.5V2L260 2V14L236.5 14V2L108 2V48H27.1575L17.6574 70H2V152.5H34V181.5H54V187H34V242.5H101.5V265.5H34V413H103V460.5H76V571.5H114V542.603L122.568 533.5H142.5V537.5H127.843L124 540.489V601.5H139V652.5H184.5V718H223.88L240.381 714H305V706.5H384V697.5H392.5L392.5 579H384V556H409.879L427.379 571.5H444V578.5H462.5V571.5H514.704L529.243 508.5H525V460H637.5V242H513V197.5H532V86.5L518 86.5V60.5H477V75H424.5V2L352.5 2V11.5H350.5ZM575 308.54V394H415.5V315.5H418V212L354.5 212V215.5H337.5V212H315V196H320V206L408.5 206V143.5H416V166.5H481.323L471.256 202H463V296H560.37L575 308.54ZM573 309.46L559.63 298H461V200H469.744L478.677 168.5H414V145.5H410.5V208L318 208V198H317V210H339.5V213.5H352.5V210L420 210V317.5H417.5V392H573V309.46ZM482 445V492.5H371V486H385V445H482ZM480 447H387V488H373V490.5H480V447ZM384 430.5V445.5H336V407.5H342V430.5H384ZM382 432.5H340V409.5H338V443.5H382V432.5ZM379.737 122L370 132.882V163.5H263.5V203H292V214.5H227V269.086L241.414 283.5L238 286.914L224.086 273H217.5V265H194.5V249.5H219.5V112H181.5V121.5H173.5V61.5L284.5 61.5V69H276V158H365.5V131.657L373.011 122H379.737ZM375.263 124H373.989L367.5 132.343V160H274V67H282.5V63.5L175.5 63.5V119.5H179.5V110H221.5V251.5H196.5V263H219.5V271H224.914L238 284.086L238.586 283.5L225 269.914V212.5H290V205H261.5V161.5H368V132.118L375.263 124ZM359.5 317V378H344V387H337V378H296.5L296.5 486.5H354V492H324V590H331.5V604H275V465.5H273L273 380.5H196.5V365H273V332.88L265 323.88V317H279.5V336.099L289.927 347H305.559L315.5 336.112V317H359.5ZM275 463.5H277L277 602H329.5V592H322V490H352V488.5H294.5L294.5 376H339V385H342V376H357.5V319H317.5V336.888L306.441 349H289.073L277.5 336.901V319H267V323.12L275 332.12V367H198.5V378.5H275V463.5ZM354.5 257V273H338.5V257H354.5ZM352.5 259H340.5V271H352.5V259ZM247.5 323.909V328.691L236.243 322.5H228.5V324.5L157 324.5V423.5L230 423.5L230 466L157 466V492.825L148.577 504.406L129.503 508.115L126.963 503.883L144 499.236L144 350.5H95.5V311H144V218.5H157V318L222.5 318V310.029L211.119 302.269L213.243 299.083L227 308.988V318H236.757L247.5 323.909ZM226.5 322.5V320.5H236.757L245.5 325.309V325.091L236.243 320H225V310.012L224.5 309.652V320L155 320V220.5H146V313H97.5V348.5H146L146 500.764L130.037 505.117L130.497 505.885L147.423 502.594L155 492.175L155 464L228 464V425.5L155 425.5V322.5L226.5 322.5ZM181.5 161V192.5H173.5V188H97.5V204.5H89.5V188H77.5V182H173.5V161H181.5ZM179.5 190.5V163H175.5V184H79.5V186H91.5V202.5H95.5V186H175.5V190.5H179.5ZM129 31.5V74H106V50.5L123.5 50.5V31.5H129ZM127 33.5H125.5C125.5 40.92 125.5 45.08 125.5 52.5L108 52.5V72H127C127 56.9648 127 48.5352 127 33.5Z" fill="#454545"/>
<path d="M232 528.5V593.5H167V528.5H232Z" fill="#7000FF" fill-opacity="0.2"/>
<path fill-rule="evenodd" clip-rule="evenodd" d="M230 591.5V530.5H169V591.5H230ZM232 528.5H167V593.5H232V528.5Z" fill="white" fill-opacity="0.08"/>
<path d="M154 110.5V157.5H77V110.5H154Z" fill="#7000FF" fill-opacity="0.2"/>
<path fill-rule="evenodd" clip-rule="evenodd" d="M152 155.5V112.5H79V155.5H152ZM154 110.5H77V157.5H154V110.5Z" fill="white" fill-opacity="0.08"/>
<path d="M107.999 144.295V123.763H117.105C118.052 123.763 118.922 123.86 119.715 124.053C120.527 124.247 121.233 124.595 121.832 125.097C122.315 125.484 122.721 125.996 123.05 126.634C123.398 127.253 123.572 128.007 123.572 128.896C123.591 129.844 123.417 130.685 123.05 131.419C122.702 132.154 122.103 132.773 121.252 133.275C121.851 133.449 122.364 133.71 122.789 134.058C123.214 134.406 123.553 134.812 123.804 135.276C124.075 135.74 124.268 136.243 124.384 136.784C124.5 137.326 124.548 137.886 124.529 138.466C124.49 139.394 124.239 140.255 123.775 141.047C123.33 141.821 122.741 142.449 122.006 142.932C121.136 143.532 120.179 143.909 119.135 144.063C118.091 144.218 117.057 144.295 116.032 144.295H107.999ZM115.916 132.086C116.341 132.086 116.767 132.067 117.192 132.028C117.617 131.97 118.014 131.835 118.381 131.622C118.69 131.429 118.951 131.168 119.164 130.839C119.377 130.511 119.493 130.124 119.512 129.679C119.531 129.215 119.454 128.838 119.28 128.548C119.106 128.258 118.893 128.036 118.642 127.881C118.333 127.688 117.975 127.582 117.569 127.562C117.163 127.524 116.747 127.504 116.322 127.504H112.204V132.086H115.916ZM112.204 140.583H116.032C116.593 140.583 117.182 140.554 117.801 140.496C118.439 140.419 118.98 140.216 119.425 139.887C119.696 139.675 119.918 139.414 120.092 139.104C120.266 138.776 120.353 138.37 120.353 137.886C120.353 137.442 120.256 137.065 120.063 136.755C119.87 136.446 119.628 136.214 119.338 136.059C119.009 135.847 118.632 135.721 118.207 135.682C117.801 135.644 117.376 135.624 116.931 135.624L112.204 135.653V140.583Z" fill="white"/>
<path d="M196.061 567.351L194.582 571.266H190L197.946 550.734H202.702L210.532 571.266H205.921L204.5 567.351H196.061ZM197.279 563.639H203.253L200.295 555.2L197.279 563.639Z" fill="white"/>
<defs>
<linearGradient id="paint0_linear_67_204" x1="468" y1="120.5" x2="416" y2="120.5" gradientUnits="userSpaceOnUse">
<stop stop-color="#22262F"/>
<stop offset="1" stop-color="#1F2228"/>
</linearGradient>
<linearGradient id="paint1_linear_67_204" x1="344" y1="184.5" x2="373" y2="184.5" gradientUnits="userSpaceOnUse">
<stop stop-color="#22262F"/>
<stop offset="1" stop-color="#1F2228"/>
</linearGradient>
<linearGradient id="paint2_linear_67_204" x1="200.5" y1="189.5" x2="200.5" y2="161.5" gradientUnits="userSpaceOnUse">
<stop stop-color="#22262F"/>
<stop offset="1" stop-color="#1F2228"/>
</linearGradient>
<linearGradient id="paint3_linear_67_204" x1="123.5" y1="431.5" x2="123.5" y2="462.5" gradientUnits="userSpaceOnUse">
<stop stop-color="#22262F"/>
<stop offset="1" stop-color="#1F2228"/>
</linearGradient>
<linearGradient id="paint4_linear_67_204" x1="251.5" y1="431.5" x2="251.5" y2="465.5" gradientUnits="userSpaceOnUse">
<stop stop-color="#22262F"/>
<stop offset="1" stop-color="#1F2228"/>
</linearGradient>
<linearGradient id="paint5_linear_67_204" x1="503.5" y1="447.5" x2="503.5" y2="472.5" gradientUnits="userSpaceOnUse">
<stop stop-color="#22262F"/>
<stop offset="1" stop-color="#1F2228"/>
</linearGradient>
<linearGradient id="paint6_linear_67_204" x1="371" y1="505" x2="409" y2="505" gradientUnits="userSpaceOnUse">
<stop stop-color="#22262F"/>
<stop offset="1" stop-color="#1F2228"/>
<stop offset="1" stop-color="#181A1E"/>
</linearGradient>
</defs>
</svg>
