<svg width="640" height="720" viewBox="0 0 640 720" fill="none" xmlns="http://www.w3.org/2000/svg">
<path fill-rule="evenodd" clip-rule="evenodd" d="M476.5 660.5H519.5V634.5H533.5V521.5H514.5V479H639V259H526.5V212.5H531L516 147.5H464V140.5H443.5V147.5H427.5L410 163H385.5V142H394L394 21.5H385.5V12.5H306.5V5H241L224.5 1H184V66.5H138.5V117.5H123.5V180L128 183.5H142V185.5H123.5L115.5 177V147.5H75.5V260.5H102.5V306H33.5V455.5H101V476.5H33.5V534H53.5V537.5H33.5V566.5H1.5V651H17.5L27 673H107.5V719H238V707H259.5V719H345V657.5H324V626H366V611L358.5 603.5H360.5L368.5 611V650.5H352V669.5H350V709.5H352V719H426V646H476.5V660.5ZM471 519L480.5 552.5H415.5V575.5H410V513H319.5V523H316.5V509H339V505.5H354V509H419.5V403.5H417V327H574.5V411L560.5 423H462.5V519H471ZM359 402H317V383.5L306.5 372H290L279 383.5V402H266.5V396.5L274.5 387.5V354H198V340.5H274.5V255.5H276.5L276.5 117H331V129H323.5V229H353.5V232.5H296L296 343H338.5V334H343.5V343H359V402ZM354 448V462H340V448H354ZM386.5 274H481.5V228.5H372.5V233H386.5V274ZM337.5 311.5H341.5V288.5H383.5V275.5H337.5V311.5ZM128.5 687.5V647H107.5V668.5H125V687.5H128.5ZM181 528.5V558H175V537H79V533H91V516.5H97V533H175V528.5H181ZM156.5 500.5H145.5V408H97V370.5H145.5L145.5 220L129 215.5L130.5 213L148.5 216.5L156.5 227.5L156.5 255L229.5 255V295.5L156.5 295.5V396.5L228 396.5V398.5H237L247 393V395.5L237 401H226.5V410.5L214 419.5L213 418L224 410.5V401L156.5 401V500.5ZM175 657.5H284V652H275.5V561H367V588L374 597H378L369.5 587.5V557.5H263V516H291.5V506.5H226.5V450.5L240.5 436.5L238.5 434.5L225 448H219V456H196V469.5H221V609H181V599.5H175V657.5Z" fill="#22262F"/>
<path d="M607.028 379.988V364.916H612.476V363.02H599.492V364.916H604.94V379.988H607.028Z" fill="#FF6B00"/>
<path d="M51.956 390.612H49.868V373.644H51.956V381.468H54.476L59.996 373.644H62.396L56.3 382.068L62.444 390.612H59.972L54.644 383.364H51.956V390.612Z" fill="#0085FF"/>
<path d="M70.652 390.612H68.564V375.54H63.116V373.644H76.1V375.54H70.652V390.612Z" fill="#0085FF"/>
<path d="M526.5 212.5V259H481.5V228.5H408.5V202H350V191H323.5V129H331V117H276.5V255.5H274.5V255H156.5L156.5 227.5L148.5 216.5L130.5 213L129 215.5L145.5 220L145.5 260.5H75.5L75.5 147.5H115.5V177L123.5 185.5H142V183.5H128L123.5 180V117.5H138.5V66.5H184V1H224.5L241 5H306.5V12.5H385.5V21.5H394L394 142H385.5V163H410L427.5 147.5H443.5V140.5H464V147.5H516L531 212.5H526.5Z" fill="#1F2228"/>
<path fill-rule="evenodd" clip-rule="evenodd" d="M53.5 533V537.5H33.5V566.5H1.5V651H17.5L27 673H107.5V719H238V707H259.5V719H345V657.5H324V626H366V611L358.5 603.5H360.5L368.5 611V650.5H352V669.5H350V709.5H352V719H426V646H443.5V552.5H415.5V575.5H410V513H369.5V587.5L378 597H374L367 588V561H275.5V652H284V657.5H175V599.5H181V609H221V558H175V537H79V533H53.5ZM128.5 647V687.5H125V668.5H107.5V647H128.5Z" fill="#1F2228"/>
<path d="M468.5 645.5V553.5H416.5V645.5H468.5Z" fill="url(#paint0_linear_68_362)"/>
<path d="M344.5 557.5V513.5H373.5V557.5H344.5Z" fill="url(#paint1_linear_68_362)"/>
<path d="M220.5 530.5H181.5V558.5H220.5V530.5Z" fill="url(#paint2_linear_68_362)"/>
<path d="M144.5 288.5H103.5V257.5H144.5V288.5Z" fill="url(#paint3_linear_68_362)"/>
<path d="M274.5 288.5H229.5V254.5H274.5V288.5Z" fill="url(#paint4_linear_68_362)"/>
<path d="M525.5 272.5H482.5V247.5H525.5V272.5Z" fill="url(#paint5_linear_68_362)"/>
<path d="M371.5 227.5V202H409.5V227.5H371.5Z" fill="url(#paint6_linear_68_362)"/>
<path d="M289 609H276.5V581H289V609Z" fill="#373D4B"/>
<path d="M323 615.5V625H331.5V615.5H323Z" fill="#373D4B"/>
<path d="M406 677H395.5V673H374.5V693H395.5V689H406V677Z" fill="#373D4B"/>
<path d="M469.5 630V645H478V630H469.5Z" fill="#373D4B"/>
<path d="M483 580.5V614H492V580.5H483Z" fill="#373D4B"/>
<path d="M525 315V326H503.5V315H525Z" fill="#373D4B"/>
<path d="M617.5 287V260H570.5V287H617.5Z" fill="#373D4B"/>
<path d="M522 211.5V256.5H525.5V211.5H522Z" fill="#373D4B"/>
<path d="M486.5 251.5H482.5V278H486.5V251.5Z" fill="#373D4B"/>
<path d="M486.5 246.5H482.5V227.5H476V220.5H482.5V215H486.5V246.5Z" fill="#373D4B"/>
<path d="M355 467V446.5H369V439H376.5V467H355Z" fill="#373D4B"/>
<path d="M369.5 388.5H360V404H369.5V388.5Z" fill="#373D4B"/>
<path d="M329.5 274.5H336.5V297.5H329.5V274.5Z" fill="#373D4B"/>
<path d="M320.5 531.5V514H329.5V531.5H320.5Z" fill="#373D4B"/>
<path d="M245 491.5H268V481H245V491.5Z" fill="#373D4B"/>
<path d="M278.5 414.5V403.5H268V414.5H278.5Z" fill="#373D4B"/>
<path d="M336 213H324.5V202.5H336V213Z" fill="#373D4B"/>
<path d="M341 124H332V115.5H341V124Z" fill="#373D4B"/>
<path d="M275.5 101.5V116H310V101.5H275.5Z" fill="#373D4B"/>
<path d="M345.5 80.5H340V66.5H217.5V49H222.5V42.5H231V49H274.5V40.5H294.5V49H340V54H345.5V80.5Z" fill="#373D4B"/>
<path d="M185 100V67.5H159.5C157.9 67.5 158.833 82.1667 159.5 89.5H170V117H222.5V100H185Z" fill="#373D4B"/>
<path d="M222.5 210H275.5V197H222.5V210Z" fill="#373D4B"/>
<path d="M212.5 240.5V254H180V240.5H212.5Z" fill="#373D4B"/>
<path d="M163.5 239.5H157.5V254H163.5V239.5Z" fill="#373D4B"/>
<path d="M144.5 517.5V532H98V517.5H144.5Z" fill="#373D4B"/>
<path d="M182 568.5V559H173.5V568.5H182Z" fill="#373D4B"/>
<path d="M182 598.5H173.5V589.5H182V598.5Z" fill="#373D4B"/>
<path d="M174 674V658.5H224.5V674H174Z" fill="#373D4B"/>
<path d="M152.5 554.5V538H120V549H128.5V554.5H152.5Z" fill="#373D4B"/>
<path d="M35.5 588V624.5H27.5V588H35.5Z" fill="#373D4B"/>
<path d="M99.5 651.5L104.5 646L95 637.5L90 643.5L99.5 651.5Z" fill="#373D4B"/>
<path d="M116 588L88.5 607L83 600.5L117 576.5L128.5 590L122.5 595L116 588Z" fill="#373D4B"/>
<path d="M198.5 172.06L186.907 154.685L180.252 159.125L191.845 176.5L198.5 172.06Z" fill="#373D4B"/>
<path d="M203.262 178.304L219.626 165.322L214.654 159.055L198.29 172.036L203.262 178.304Z" fill="#373D4B"/>
<path d="M456.5 645.5V553.5H453.5V645.5H456.5Z" fill="#1F2228"/>
<path d="M453.5 645.5V553.5H450.5V645.5H453.5Z" fill="#282C34"/>
<path d="M450.5 645.5V553.5H447.5V645.5H450.5Z" fill="#1F2228"/>
<path d="M447.5 645.5V553.5H444.5V645.5H447.5Z" fill="#282C34"/>
<path d="M88.5 538.5H41.5V541.5H88.5V538.5Z" fill="#1F2228"/>
<path d="M88.5 541.5H41.5V544.5H88.5V541.5Z" fill="#282C34"/>
<path d="M88.5 544.5H41.5V547.5H88.5V544.5Z" fill="#1F2228"/>
<path d="M88.5 547.5H41.5V550.5H88.5V547.5Z" fill="#282C34"/>
<path d="M145.5 270.5H102.5V273.5H145.5V270.5Z" fill="#1F2228"/>
<path d="M145.5 282.5H102.5V285.5H145.5V282.5Z" fill="#1F2228"/>
<path d="M145.5 294.5H102.5V297.5H145.5V294.5Z" fill="#1F2228"/>
<path d="M145.5 258.5H102.5V261.5H145.5V258.5Z" fill="#1F2228"/>
<path d="M145.5 273.5H102.5V276.5H145.5V273.5Z" fill="#282C34"/>
<path d="M145.5 285.5H102.5V288.5H145.5V285.5Z" fill="#282C34"/>
<path d="M145.5 297.5H102.5V300.5H145.5V297.5Z" fill="#282C34"/>
<path d="M145.5 261.5H102.5V264.5H145.5V261.5Z" fill="#282C34"/>
<path d="M145.5 276.5H102.5V279.5H145.5V276.5Z" fill="#1F2228"/>
<path d="M145.5 288.5H102.5V291.5H145.5V288.5Z" fill="#1F2228"/>
<path d="M145.5 300.5H102.5V303.5H145.5V300.5Z" fill="#1F2228"/>
<path d="M145.5 264.5H102.5V267.5H145.5V264.5Z" fill="#1F2228"/>
<path d="M145.5 279.5H102.5V282.5H145.5V279.5Z" fill="#282C34"/>
<path d="M145.5 291.5H102.5V294.5H145.5V291.5Z" fill="#282C34"/>
<path d="M145.5 303.5H102.5V306.5H145.5V303.5Z" fill="#282C34"/>
<path d="M145.5 267.5H102.5V270.5H145.5V267.5Z" fill="#282C34"/>
<path d="M404.5 222.5V207.5H401.5V222.5H404.5Z" fill="#282C34"/>
<path d="M397.5 222.5V207.5H394.5V222.5H397.5Z" fill="#282C34"/>
<path d="M390.5 222.5V207.5H387.5V222.5H390.5Z" fill="#282C34"/>
<path d="M383.5 222.5V207.5H380.5V222.5H383.5Z" fill="#282C34"/>
<path fill-rule="evenodd" clip-rule="evenodd" d="M640 480V258H527.5V213.5H532.257L516.796 146.5H465V139.5H442.5V146.5H427.121L409.621 162H386.5V143H395L395 20.5H386.5V11.5H307.5V4H241.12L224.619 0H183V65.5H137.5V116.5H122.5V180.489L127.657 184.5H123.932L116.5 176.603V146.5H74.5V261.5H101.5V305H32.5V456.5H100V475.5H32.5V535H52.5V536.5H32.5V565.5H0.5V652H16.8425L26.3426 674H106.5V720H239V708H258.5V720H346V656.5H325V627H367V610.964L367.5 611.433V649.5H351V668.5H349V710.5H351V720H427V647H475.5V661.5H520.5V635.5H534.5V520.5H515.5V480H640ZM351 708.5V670.5H353V651.5H369.5V610.567L360.895 602.5H356.086L365 611.414V625H323V658.5H344V718H260.5V706H237V718H108.5V672H27.6575L18.1574 650H2.5V567.5H34.5V538.5H54.5V533H34.5V477.5H102V454.5H34.5V307H103.5V259.5H76.5V148.5H114.5V177.397L123.068 186.5H143V182.5H128.343L124.5 179.511V118.5H139.5V67.5H185V2H224.38L240.881 6H305.5V13.5H384.5V22.5H393L393 141H384.5V164H410.379L427.879 148.5H444.5V141.5H463V148.5H515.204L529.743 211.5H525.5V260H638V478H513.5V522.5H532.5V633.5H518.5V659.5H477.5V645H425V718H353V708.5H351ZM575.5 411.46V326H416V404.5H418.5V508H355V504.5H338V508H315.5V524H320.5V514H409V576.5H416.5V553.5H481.823L471.756 518H463.5V424H560.87L575.5 411.46ZM573.5 410.54L560.13 422H461.5V520H470.244L479.177 551.5H414.5V574.5H411V512H318.5V522H317.5V510H340V506.5H353V510H420.5V402.5H418V328H573.5V410.54ZM482.5 275V227.5H371.5V234H385.5V275H482.5ZM480.5 273H387.5V232H373.5V229.5H480.5V273ZM384.5 289.5V274.5H336.5V312.5H342.5V289.5H384.5ZM382.5 287.5H340.5V310.5H338.5V276.5H382.5V287.5ZM380.237 598L370.5 587.118V556.5H264V517H292.5V505.5H227.5V450.914L241.914 436.5L238.5 433.086L224.586 447H218V455H195V470.5H220V608H182V598.5H174V658.5H285V651H276.5V562H366V588.343L373.511 598H380.237ZM375.763 596H374.489L368 587.657V560H274.5V653H283V656.5H176V600.5H180V610H222V468.5H197V457H220V449H225.414L238.5 435.914L239.086 436.5L225.5 450.086V507.5H290.5V515H262V558.5H368.5V587.882L375.763 596ZM360 403V342H344.5V333H337.5V342H297L297 233.5H354.5V228H324.5V130H332V116H275.5V254.5H273.5L273.5 339.5H197V355H273.5V387.12L265.5 396.12V403H280V383.901L290.427 373H306.059L316 383.888V403H360ZM275.5 256.5H277.5L277.5 118H330V128H322.5V230H352.5V231.5H295L295 344H339.5V335H342.5V344H358V401H318V383.112L306.941 371H289.573L278 383.099V401H267.5V396.88L275.5 387.88V353H199V341.5H275.5V256.5ZM355 463V447H339V463H355ZM353 461H341V449H353V461ZM248 396.091V391.309L236.743 397.5H229V395.5L157.5 395.5V296.5L230.5 296.5L230.5 254L157.5 254V227.175L149.077 215.594L130.003 211.885L127.463 216.117L144.5 220.764L144.5 369.5H96V409H144.5V501.5H157.5V402L223 402V409.971L211.619 417.731L213.743 420.917L227.5 411.012V402H237.257L248 396.091ZM227 397.5V399.5H237.257L246 394.691V394.909L236.743 400H225.5V409.988L225 410.348V400L155.5 400V499.5H146.5V407H98V371.5H146.5L146.5 219.236L130.537 214.883L130.997 214.115L147.923 217.406L155.5 227.825L155.5 256L228.5 256V294.5L155.5 294.5V397.5L227 397.5ZM182 559V527.5H174V532H98V515.5H90V532H78V538H174V559H182ZM180 529.5V557H176V536H80V534H92V517.5H96V534H176V529.5H180ZM129.5 688.5V646H106.5V669.5H124V688.5H129.5ZM127.5 686.5H126V667.5H108.5V648H127.5V686.5Z" fill="#454545"/>
<path d="M232.5 191.5V126.5H167.5V191.5H232.5Z" fill="#7000FF" fill-opacity="0.2"/>
<path fill-rule="evenodd" clip-rule="evenodd" d="M230.5 128.5V189.5H169.5V128.5H230.5ZM232.5 191.5H167.5V126.5H232.5V191.5Z" fill="white" fill-opacity="0.08"/>
<path d="M154.5 609.5V562.5H77.5V609.5H154.5Z" fill="#7000FF" fill-opacity="0.2"/>
<path fill-rule="evenodd" clip-rule="evenodd" d="M152.5 564.5V607.5H79.5V564.5H152.5ZM154.5 609.5H77.5V562.5H154.5V609.5Z" fill="white" fill-opacity="0.08"/>
<path d="M108.499 596.237V575.705H117.605C118.552 575.705 119.422 575.801 120.215 575.995C121.027 576.188 121.733 576.536 122.332 577.039C122.815 577.425 123.221 577.938 123.55 578.576C123.898 579.194 124.072 579.948 124.072 580.838C124.091 581.785 123.917 582.626 123.55 583.361C123.202 584.095 122.603 584.714 121.752 585.217C122.351 585.391 122.864 585.652 123.289 586C123.714 586.348 124.053 586.754 124.304 587.218C124.575 587.682 124.768 588.184 124.884 588.726C125 589.267 125.048 589.828 125.029 590.408C124.99 591.336 124.739 592.196 124.275 592.989C123.83 593.762 123.241 594.39 122.506 594.874C121.636 595.473 120.679 595.85 119.635 596.005C118.591 596.159 117.557 596.237 116.532 596.237H108.499ZM116.416 584.028C116.841 584.028 117.267 584.008 117.692 583.97C118.117 583.912 118.514 583.776 118.881 583.564C119.19 583.37 119.451 583.109 119.664 582.781C119.877 582.452 119.993 582.065 120.012 581.621C120.031 581.157 119.954 580.78 119.78 580.49C119.606 580.2 119.393 579.977 119.142 579.823C118.833 579.629 118.475 579.523 118.069 579.504C117.663 579.465 117.247 579.446 116.822 579.446H112.704V584.028H116.416ZM112.704 592.525H116.532C117.093 592.525 117.682 592.496 118.301 592.438C118.939 592.36 119.48 592.157 119.925 591.829C120.196 591.616 120.418 591.355 120.592 591.046C120.766 590.717 120.853 590.311 120.853 589.828C120.853 589.383 120.756 589.006 120.563 588.697C120.37 588.387 120.128 588.155 119.838 588.001C119.509 587.788 119.132 587.662 118.707 587.624C118.301 587.585 117.876 587.566 117.431 587.566L112.704 587.595V592.525Z" fill="white"/>
<path d="M204.971 165.351L206.45 169.266H211.032L203.086 148.734H198.33L190.5 169.266H195.111L196.532 165.351H204.971ZM203.753 161.639H197.779L200.737 153.2L203.753 161.639Z" fill="white"/>
<defs>
<linearGradient id="paint0_linear_68_362" x1="468.5" y1="599.5" x2="416.5" y2="599.5" gradientUnits="userSpaceOnUse">
<stop stop-color="#22262F"/>
<stop offset="1" stop-color="#1F2228"/>
</linearGradient>
<linearGradient id="paint1_linear_68_362" x1="344.5" y1="535.5" x2="373.5" y2="535.5" gradientUnits="userSpaceOnUse">
<stop stop-color="#22262F"/>
<stop offset="1" stop-color="#1F2228"/>
</linearGradient>
<linearGradient id="paint2_linear_68_362" x1="201" y1="530.5" x2="201" y2="558.5" gradientUnits="userSpaceOnUse">
<stop stop-color="#22262F"/>
<stop offset="1" stop-color="#1F2228"/>
</linearGradient>
<linearGradient id="paint3_linear_68_362" x1="124" y1="288.5" x2="124" y2="257.5" gradientUnits="userSpaceOnUse">
<stop stop-color="#22262F"/>
<stop offset="1" stop-color="#1F2228"/>
</linearGradient>
<linearGradient id="paint4_linear_68_362" x1="252" y1="288.5" x2="252" y2="254.5" gradientUnits="userSpaceOnUse">
<stop stop-color="#22262F"/>
<stop offset="1" stop-color="#1F2228"/>
</linearGradient>
<linearGradient id="paint5_linear_68_362" x1="504" y1="272.5" x2="504" y2="247.5" gradientUnits="userSpaceOnUse">
<stop stop-color="#22262F"/>
<stop offset="1" stop-color="#1F2228"/>
</linearGradient>
<linearGradient id="paint6_linear_68_362" x1="371.5" y1="215" x2="409.5" y2="215" gradientUnits="userSpaceOnUse">
<stop stop-color="#22262F"/>
<stop offset="1" stop-color="#1F2228"/>
<stop offset="1" stop-color="#181A1E"/>
</linearGradient>
</defs>
</svg>
