<svg width="791" height="572" viewBox="0 0 791 572" fill="none" xmlns="http://www.w3.org/2000/svg">
<path fill-rule="evenodd" clip-rule="evenodd" d="M300 112.5L300 95.5L331.5 95.5V71H345.5V1H497.5V58L505.5 55H580V70H561.5V333H614.5H789.5V441.5H679.5V499H633.5V501.5H615V499H552L507 396.5L484.5 350.5V333H458V312H461V291.5H458V283V267H449.5V245H458V225H449.5V198.5H413.5V186.5H408V190L293.5 190V151.5H225V112.5H300ZM482 205H522.5V171.5H482V205ZM413.5 160.5H482V151L408 151.5V167H413.5V160.5ZM453.5 127V120H391.5L391.5 70H377C382.489 63.2694 385.797 56.6647 391 52C401.486 42.5987 411.679 39.0274 422.5 39C430.935 38.9786 439.948 40.6265 448.5 46.5C454.22 50.4285 459.182 57.975 465.5 64.5H473V62.5H477V65.5L463 71.5L463 127H453.5Z" fill="#1F2228"/>
<path d="M440 556.5V571H381.5V522.5H403.5V444.5H427.5V449H457V523.5V534H463.5V556.5H440Z" fill="#1F2228"/>
<path d="M615 501.5V524.5H590V556.5H583V564.5H552V556.5H463.5V534H543.5V527.5H552V523.5H457V449H499.5V396.5H507L552 499H615V501.5Z" fill="#1F2228"/>
<path d="M149 520.5H1V438L70 391.5L104 324V239H110V139L115.5 133.5L106 124L128 104L135 111L154.5 92.5L176.5 112.5H225V151.5H176.5L147 186.5V239H152.5V328L265.5 363L307 309.5V220.5L293.5 190L408 190V283H458V291.5H461V312H458V333H484.5V350.5H408.5H352V435H262.5L228 408H140V488.5H158H204L224 488.5V508.5H149V520.5Z" fill="#1F2228"/>
<path fill-rule="evenodd" clip-rule="evenodd" d="M580 109H666V206.5H622V282.5H614.5V333H561.5V70H580V109ZM602 172H637.5V165H602V172ZM580 141.5H637.5V135H580V141.5Z" fill="#1F2228"/>
<path fill-rule="evenodd" clip-rule="evenodd" d="M300 112.5L300 95.5L331.5 95.5V71H345.5V1H497.5V58L505.5 55H580V70H561.5V333H614.5H789.5V441.5H679.5V499H633.5V501.5H615V499H552L507 396.5L484.5 350.5V333H458V312H461V291.5H458V283V267H449.5V245H458V225H449.5V198.5H413.5V186.5H408V190L293.5 190V151.5H225V112.5H300ZM482 205H522.5V171.5H482V205ZM413.5 160.5H482V151L408 151.5V167H413.5V160.5ZM453.5 127V120H391.5L391.5 70H377C382.489 63.2694 385.797 56.6647 391 52C401.486 42.5987 411.679 39.0274 422.5 39C430.935 38.9786 439.948 40.6265 448.5 46.5C454.22 50.4285 459.182 57.975 465.5 64.5H473V62.5H477V65.5L463 71.5L463 127H453.5Z" fill="#22262F"/>
<path d="M440 556.5V571H381.5V522.5H403.5V444.5H427.5V449H457V523.5V534H463.5V556.5H440Z" fill="#22262F"/>
<path d="M259.5 476V512H253.5L250 504.5L233 512H224L207 524V528H202.5L199 531.5H149V520.5V508.5H224V488.5L204 488.5V437.5H158V488.5H140V408H228L262.5 435H352V350.5H408.5V357.5H396V367H403.5V360.5H454V444.5H427.5H403.5V398.5H396V435C387.185 459.445 379.686 468.331 362.5 477L259.5 476Z" fill="#2F3541"/>
<path fill-rule="evenodd" clip-rule="evenodd" d="M580 109H666V206.5H622H602V236.5H578V333H561.5V70H580V109ZM602 172H637.5V165H602V172ZM580 141.5H637.5V135H580V141.5Z" fill="#2F3541"/>
<path d="M651 351.5V333.5H607V351.5H651Z" fill="#373D4B" fill-opacity="0.76"/>
<path d="M607 438.5V351.5H589V438.5H607Z" fill="#373D4B" fill-opacity="0.76"/>
<path d="M764 377.5V333.5H729V377.5H764Z" fill="#373D4B" fill-opacity="0.76"/>
<path d="M708 403.5V369.5H664V403.5H708Z" fill="#373D4B" fill-opacity="0.76"/>
<path d="M708 351.5V333.5H664V351.5H708Z" fill="#373D4B"/>
<path d="M585 345.5V333.5H583V345.5H585Z" fill="#373D4B"/>
<path d="M585 346.5V344.5H563V346.5H585Z" fill="#373D4B"/>
<path d="M648 453.5C646.343 453.5 645 454.843 645 456.5C645 458.157 646.343 459.5 648 459.5C649.657 459.5 651 458.157 651 456.5C651 454.843 649.657 453.5 648 453.5Z" fill="#373D4B"/>
<path d="M642 451.5C640.343 451.5 639 452.843 639 454.5C639 456.157 640.343 457.5 642 457.5C643.657 457.5 645 456.157 645 454.5C645 452.843 643.657 451.5 642 451.5Z" fill="#373D4B"/>
<path d="M629 461.5C627.343 461.5 626 462.843 626 464.5C626 466.157 627.343 467.5 629 467.5C630.657 467.5 632 466.157 632 464.5C632 462.843 630.657 461.5 629 461.5Z" fill="#373D4B"/>
<path d="M632 462.5C630.343 462.5 629 463.843 629 465.5C629 467.157 630.343 468.5 632 468.5C633.657 468.5 635 467.157 635 465.5C635 463.843 633.657 462.5 632 462.5Z" fill="#373D4B"/>
<path d="M629 467.5C627.343 467.5 626 468.843 626 470.5C626 472.157 627.343 473.5 629 473.5C630.657 473.5 632 472.157 632 470.5C632 468.843 630.657 467.5 629 467.5Z" fill="#373D4B"/>
<path d="M493 334.5C491.343 334.5 490 335.843 490 337.5C490 339.157 491.343 340.5 493 340.5C494.657 340.5 496 339.157 496 337.5C496 335.843 494.657 334.5 493 334.5Z" fill="#373D4B"/>
<path d="M493 341.5C491.343 341.5 490 342.843 490 344.5C490 346.157 491.343 347.5 493 347.5C494.657 347.5 496 346.157 496 344.5C496 342.843 494.657 341.5 493 341.5Z" fill="#373D4B"/>
<path d="M500 522.5V504.5H456V522.5H500Z" fill="#373D4B" fill-opacity="0.68"/>
<path d="M500 467.5V449.5H456V467.5H500Z" fill="#373D4B" fill-opacity="0.68"/>
<rect width="5" height="22" transform="matrix(0 -1 -1 0 590 356.5)" fill="#373D4B" fill-opacity="0.5"/>
<rect width="5" height="39" transform="matrix(0 -1 -1 0 540 351.5)" fill="#373D4B" fill-opacity="0.5"/>
<rect width="10" height="10" transform="matrix(0 -1 -1 0 516 346.5)" fill="#373D4B" fill-opacity="0.5"/>
<rect width="9" height="9" transform="matrix(0 -1 -1 0 331 169.5)" fill="#373D4B" fill-opacity="0.5"/>
<rect width="22" height="10" transform="matrix(0 -1 -1 0 511 373.5)" fill="#373D4B" fill-opacity="0.5"/>
<rect width="30.3678" height="11.4536" transform="matrix(0.700714 -0.713443 -0.713443 -0.700714 481.91 318.782)" fill="#373D4B" fill-opacity="0.5"/>
<rect width="16" height="35" transform="matrix(0 -1 -1 0 519 171.5)" fill="#373D4B" fill-opacity="0.5"/>
<rect width="16" height="9" transform="matrix(0 -1 -1 0 369 23.5)" fill="#373D4B" fill-opacity="0.5"/>
<rect width="8" height="7" transform="matrix(0 -1 -1 0 453 432.5)" fill="#373D4B" fill-opacity="0.5"/>
<rect width="7" height="7" transform="matrix(0 -1 -1 0 402 570.5)" fill="#373D4B" fill-opacity="0.5"/>
<rect width="7.78944" height="7" transform="matrix(0.644827 -0.764329 -0.764329 -0.644827 243.977 429.733)" fill="#373D4B" fill-opacity="0.5"/>
<rect width="25.2165" height="13.4252" transform="matrix(0.830389 -0.557184 -0.557184 -0.830389 46.0605 426.5)" fill="#373D4B" fill-opacity="0.5"/>
<rect width="26.1577" height="6.73055" transform="matrix(0.714945 -0.69918 -0.69918 -0.714945 139.502 118.52)" fill="#373D4B" fill-opacity="0.5"/>
<rect width="32.0346" height="18.0678" transform="matrix(0.830389 -0.557184 -0.557184 -0.830389 19.3989 450.299)" fill="#373D4B" fill-opacity="0.5"/>
<circle cx="3" cy="3" r="3" transform="matrix(0 -1 -1 0 590 422.5)" fill="#373D4B"/>
<circle cx="3" cy="3" r="3" transform="matrix(0 -1 -1 0 584 422.5)" fill="#373D4B" fill-opacity="0.5"/>
<rect width="18" height="38" rx="9" transform="matrix(0 -1 -1 0 596 498.5)" fill="#373D4B" fill-opacity="0.5"/>
<rect width="37" height="13" transform="matrix(-0.500828 -0.865547 -0.865547 0.500828 578 480.989)" fill="#373D4B" fill-opacity="0.5"/>
<rect width="4.96851" height="13" transform="matrix(-0.500828 -0.865547 -0.865547 0.500828 583 462.989)" fill="#373D4B" fill-opacity="0.5"/>
<rect width="4.96851" height="9.2421" transform="matrix(-0.500828 -0.865547 -0.865547 0.500828 543.748 455.871)" fill="#373D4B" fill-opacity="0.5"/>
<path d="M553 539.5V528.5H544V539.5H553Z" fill="#373D4B"/>
<path d="M395 570.5V558.5H382V570.5H395Z" fill="#373D4B"/>
<path d="M238.737 425.345L243 420.454L233.2 411.912L228.937 416.803L238.737 425.345Z" fill="#373D4B"/>
<path d="M371 357.5V351.5H353V357.5H371Z" fill="#373D4B"/>
<path d="M453 443.5V432.5H440V443.5H453Z" fill="#373D4B"/>
<path d="M407 252.5V246.5H390V252.5H407Z" fill="#373D4B"/>
<path d="M407 225.5V188.5H388V225.5H407Z" fill="#373D4B"/>
<path d="M388 225.5V211.5H381V225.5H388Z" fill="#373D4B"/>
<path d="M331 161.5V152.5H322V161.5H331Z" fill="#373D4B"/>
<path d="M369 7.5V2.5H360V7.5H369Z" fill="#373D4B"/>
<path d="M485 22.5V2.5H476V22.5H485Z" fill="#373D4B"/>
<path d="M510 171.5V166.5H501V171.5H510Z" fill="#373D4B"/>
<path d="M446 125.5V120.5H400V125.5H446Z" fill="#373D4B"/>
<path d="M421 150.5V148.5H408V150.5H421Z" fill="#373D4B"/>
<path d="M391 134.5V128.5H388V134.5H391Z" fill="#373D4B"/>
<path d="M327 150.5V145.5H324V150.5H327Z" fill="#373D4B"/>
<path d="M316 150.5V145.5H313V150.5H316Z" fill="#373D4B"/>
<path d="M324 150.5V141.5C324 139.291 322.209 137.5 320 137.5C317.791 137.5 316 139.291 316 141.5V150.5H324Z" fill="#373D4B"/>
<path d="M352.825 317.542L341.044 311.17L327.08 336.989L338.86 343.361L352.825 317.542Z" fill="#373D4B"/>
<path d="M387 351.5V349.5H360V351.5H387Z" fill="#373D4B"/>
<path d="M351 433.5H353V365.5H351V433.5Z" fill="#373D4B"/>
<path d="M334 435.5V433.5H262V435.5H334Z" fill="#373D4B"/>
<path d="M262 435.5V433.5L229 407.5V409.5L262 435.5Z" fill="#373D4B"/>
<path d="M229 409.5V407.5H139V409.5H229Z" fill="#373D4B"/>
<path d="M158 489.5V487.5H139V489.5H158Z" fill="#373D4B"/>
<path d="M224 509.5V507.5H149V509.5H224Z" fill="#373D4B"/>
<path d="M139 489.5H141V409.5H139V489.5Z" fill="#373D4B"/>
<path d="M148 526.5H150V507.5H148V526.5Z" fill="#373D4B"/>
<path d="M222 509.5H224V468.5H222V509.5Z" fill="#373D4B"/>
<path d="M305 104.5C302.791 104.5 301 106.291 301 108.5C301 110.709 302.791 112.5 305 112.5C307.209 112.5 309 110.709 309 108.5C309 106.291 307.209 104.5 305 104.5Z" fill="#373D4B"/>
<path d="M518 55.5C515.791 55.5 514 57.2909 514 59.5C514 61.7091 515.791 63.5 518 63.5C520.209 63.5 522 61.7091 522 59.5C522 57.2909 520.209 55.5 518 55.5Z" fill="#373D4B"/>
<path d="M510 55.5C507.791 55.5 506 57.2909 506 59.5C506 61.7091 507.791 63.5 510 63.5C512.209 63.5 514 61.7091 514 59.5C514 57.2909 512.209 55.5 510 55.5Z" fill="#373D4B"/>
<path d="M502 57.5C499.791 57.5 498 59.2909 498 61.5C498 63.7091 499.791 65.5 502 65.5C504.209 65.5 506 63.7091 506 61.5C506 59.2909 504.209 57.5 502 57.5Z" fill="#373D4B"/>
<path d="M508 210.5V207H499V210.5H508Z" fill="#373D4B"/>
<path d="M166 507.5V488.5H163V507.5H166Z" fill="#282C34"/>
<path d="M486 556.5V534.5H483V556.5H486Z" fill="#282C34"/>
<path d="M649 498.5V476.5H646V498.5H649Z" fill="#282C34"/>
<path d="M203.757 478.504H222.757V475.504H203.757V478.504Z" fill="#282C34"/>
<path d="M334 426.5H351V423.5H334V426.5Z" fill="#282C34"/>
<path d="M159 507.5V488.5H156V507.5L159 507.5Z" fill="#282C34"/>
<path d="M479 556.5V534.5H476V556.5H479Z" fill="#282C34"/>
<path d="M642 498.5V476.5H639V498.5H642Z" fill="#282C34"/>
<path d="M472 556.5V534.5H469V556.5H472Z" fill="#282C34"/>
<path d="M465 556.5V534.5H462V556.5H465Z" fill="#282C34"/>
<path d="M203.514 471.509H222.514V468.509H203.514V471.509Z" fill="#282C34"/>
<path d="M334 419.5H351V416.5H334V419.5Z" fill="#282C34"/>
<path d="M334 412.5H351V409.5H334V412.5Z" fill="#282C34"/>
<path d="M334 405.5H351V402.5H334V405.5Z" fill="#282C34"/>
<path d="M334 398.5H351V395.5H334V398.5Z" fill="#282C34"/>
<path d="M307 214.5H373V211.5H307V214.5Z" fill="#282C34"/>
<path d="M307 255.5H373V252.5H307V255.5Z" fill="#282C34"/>
<path d="M404 469.5H422V466.5H404V469.5Z" fill="#282C34"/>
<path d="M661 474.5H679V471.5H661V474.5Z" fill="#282C34"/>
<path d="M546 364.5H560V361.5H546V364.5Z" fill="#282C34"/>
<path d="M334 391.5H351V388.5H334V391.5Z" fill="#282C34"/>
<path d="M307 207.5H373V204.5H307V207.5Z" fill="#282C34"/>
<path d="M307 248.5H373V245.5H307V248.5Z" fill="#282C34"/>
<path d="M404 462.5H422V459.5H404V462.5Z" fill="#282C34"/>
<path d="M661 467.5H679V464.5H661V467.5Z" fill="#282C34"/>
<path d="M546 357.5H560V354.5H546V357.5Z" fill="#282C34"/>
<path d="M508 302.5H560V299.5H508V302.5Z" fill="#282C34"/>
<path d="M104 249.5H153V246.5H104V249.5Z" fill="#282C34"/>
<path d="M334 384.5H351V381.5H334V384.5Z" fill="#282C34"/>
<path d="M307 200.5H373V197.5H307V200.5Z" fill="#282C34"/>
<path d="M383 186.5V151.5H380V186.5H383Z" fill="#282C34"/>
<path d="M226 151.5V113.5H223V151.5H226Z" fill="#282C34"/>
<path d="M560 69.5V56.5H557V69.5H560Z" fill="#282C34"/>
<path d="M562 84.5H579V81.5H562V84.5Z" fill="#282C34"/>
<path d="M404 455.5H422V452.5H404V455.5Z" fill="#282C34"/>
<path d="M661 460.5H679V457.5H661V460.5Z" fill="#282C34"/>
<path d="M546 350.5H560V347.5H546V350.5Z" fill="#282C34"/>
<path d="M508 295.5H560V292.5H508V295.5Z" fill="#282C34"/>
<path d="M104 242.5H153V239.5H104V242.5Z" fill="#282C34"/>
<path d="M334 377.5H351V374.5H334V377.5Z" fill="#282C34"/>
<path d="M307 193.5H373V190.5H307V193.5Z" fill="#282C34"/>
<path d="M376 186.5V151.5H373V186.5H376Z" fill="#282C34"/>
<path d="M219 151.5V113.5H216V151.5H219Z" fill="#282C34"/>
<path d="M212 151.5V113.5H209V151.5H212Z" fill="#282C34"/>
<path d="M205 151.5V113.5H202V151.5H205Z" fill="#282C34"/>
<path d="M198 151.5V113.5H195V151.5H198Z" fill="#282C34"/>
<path d="M553 69.5V56.5H550V69.5H553Z" fill="#282C34"/>
<path d="M562 77.5H579V74.5H562V77.5Z" fill="#282C34"/>
<path d="M546 69.5V56.5H543V69.5H546Z" fill="#282C34"/>
<path d="M404 448.5H422V445.5H404V448.5Z" fill="#282C34"/>
<path d="M173 507.5V488.5H170V507.5H173Z" fill="#282C34"/>
<path d="M493 556.5V534.5H490V556.5H493Z" fill="#282C34"/>
<path d="M656 498.5V476.5H653V498.5H656Z" fill="#282C34"/>
<path d="M204 485.5H223V482.5H204V485.5Z" fill="#282C34"/>
<path d="M334 433.5H351V430.5H334V433.5Z" fill="#282C34"/>
<path d="M303 155H311.5V152H303V155Z" fill="#282C34"/>
<path d="M303 162.5H311.5V159.5H303V162.5Z" fill="#282C34"/>
<path d="M579 285.5V284.5H458V285.5H579Z" fill="#454545" fill-opacity="0.6"/>
<path d="M622 225.5V224.5H602V225.5H622Z" fill="#454545" fill-opacity="0.6"/>
<path d="M562 70.5V69.5H539V70.5H562Z" fill="#454545" fill-opacity="0.6"/>
<path d="M561 333.5H562V204.5H561V333.5Z" fill="#454545" fill-opacity="0.6"/>
<path d="M561 196.5H562V171.5H561V196.5Z" fill="#454545" fill-opacity="0.6"/>
<path d="M561 109.5H562V70.5H561V109.5Z" fill="#454545" fill-opacity="0.6"/>
<path d="M508 302.5V292.5H498V302.5H508Z" fill="#454545"/>
<path d="M508 257.5V247.5H498V257.5H508Z" fill="#454545"/>
<path d="M443 490.5V449.5H439V490.5H443Z" fill="#454545"/>
<path d="M443 555.5V550.5H439V555.5H443Z" fill="#454545"/>
<path d="M636 498.5V475.5H634V498.5H636Z" fill="#454545"/>
<path d="M598 283.5H614V281.5H598V283.5Z" fill="#454545"/>
<path d="M523 172.5H540V170.5H523V172.5Z" fill="#454545"/>
<path d="M484 170.5V127.5H481V170.5H484Z" fill="#454545"/>
<path d="M455 151.5V146.5H453V151.5H455Z" fill="#454545"/>
<path d="M455 136.5V126.5H453V136.5H455Z" fill="#454545"/>
<path d="M392.5 137.5V120.5H390.5V137.5H392.5Z" fill="#454545"/>
<path d="M293 152.5H302V150.5H293V152.5Z" fill="#454545"/>
<path d="M331 96.5H353V94.5H331V96.5Z" fill="#454545"/>
<path d="M111 240H118V236H111V240Z" fill="#454545"/>
<path d="M139.5 240H146.5V236H139.5V240Z" fill="#454545"/>
<path d="M373 96.5H391V94.5H373V96.5Z" fill="#454545"/>
<path d="M371 71H378.5V69H371V71Z" fill="#454545"/>
<path d="M345.5 72H353V70H345.5V72Z" fill="#454545"/>
<path d="M523.5 206H531.5V204H523.5V206Z" fill="#454545"/>
<path d="M531 334.5H567V332.5H531V334.5Z" fill="#454545"/>
<path d="M457 334.5H498V332.5H457V334.5Z" fill="#454545"/>
<path d="M486 351.5V332.5H484V351.5H486Z" fill="#454545"/>
<path d="M459 333.5V311.5H457V333.5H459Z" fill="#454545"/>
<path d="M461 312.5V290.5H459V312.5H461Z" fill="#454545"/>
<path d="M459 291.5V269.5H457V291.5H459Z" fill="#454545"/>
<path fill-rule="evenodd" clip-rule="evenodd" d="M580 252.5V250.5H578V255.5H580V254.5H579V252.5H580ZM580 252.5V254.5H606V252.5H580Z" fill="#454545"/>
<path d="M577 283.5V281.5H578V282.5H579V283.5H577Z" fill="#454545"/>
<path d="M580 282.5H579V281.5H580V282.5Z" fill="#454545"/>
<path fill-rule="evenodd" clip-rule="evenodd" d="M581 204.5V222.5H579V206.5H543V204.5H579V206.5H580V204.5H581Z" fill="#454545"/>
<path d="M603 237.5H601V235.5H603V237.5Z" fill="#454545"/>
<path d="M580 204.5V206.5H579V204.5H580Z" fill="#454545"/>
<path fill-rule="evenodd" clip-rule="evenodd" d="M602 205.5H601V235.5H603V207.5H602V205.5ZM603 205.5V207.5H621V205.5H603ZM601 235.5H579V237.5H601V235.5Z" fill="#454545"/>
<path d="M602 205.5H603V207.5H602V205.5Z" fill="#454545"/>
<path fill-rule="evenodd" clip-rule="evenodd" d="M601 173H553V171H579V141.5H581V171H601V173ZM581 171V171.5H579V171H581Z" fill="#454545"/>
<path d="M581 171.5H579V171H581V171.5Z" fill="#454545"/>
<path fill-rule="evenodd" clip-rule="evenodd" d="M390.5 152.5L313 152.5V150.5L390.5 150.5V144.5H392.5V150.5H407V152.5H392.5V150.5H390.5V152.5Z" fill="#454545"/>
<path d="M392.5 152.5H390.5V150.5H392.5V152.5Z" fill="#454545"/>
<path fill-rule="evenodd" clip-rule="evenodd" d="M456 524.5V528.5H443V538.5H439V528.5H443V524.5H439V519.5H443V524.5H456Z" fill="#454545"/>
<path d="M439 528.5V524.5H443V528.5H439Z" fill="#454545"/>
<path fill-rule="evenodd" clip-rule="evenodd" d="M790.5 332V442.5H680.5V500H634.5V502.5H616V525.5H591V557.5H584V565.5H551V557.5H441V572H380.5V521.5H402.5V399.5H397V435.175L396.941 435.339C392.52 447.598 388.397 456.054 383.168 462.543C377.924 469.052 371.62 473.52 362.95 477.893L362.733 478.002L260.5 477.01V513H252.863L249.508 505.81L233.211 513H224.317L208 524.518V529H202.914L199.414 532.5H148V521.5H0V437.468L69.2244 390.817L103 323.762V238H109V138.586L114.086 133.5L104.551 123.966L128.033 102.619L135.018 109.604L154.485 91.1353L176.887 111.5H299L299 94.5L330.5 94.5V70H344.5V0H498.5V56.557L505.319 54H581V108H667V207.5H623V283.5H615.5V332H790.5ZM678.5 440.5H788.5V334H613.5V281.5H621V205.5H665V110H579V56H505.681L496.5 59.443V2H346.5V72H332.5V96.5L301 96.5L301 113.5H176.113L154.515 93.8646L134.982 112.396L127.967 105.381L107.449 124.034L116.914 133.5L111 139.414V240H105V324.238L70.7756 392.183L2 438.532V519.5H150V530.5H198.586L202.086 527H206V523.482L223.683 511H232.789L250.492 503.19L254.137 511H258.5V474.99L362.266 475.998C370.669 471.738 376.647 467.449 381.611 461.288C386.609 455.085 390.629 446.921 395 434.825V397.5H404.5V523.5H382.5V570H439V555.5H553V563.5H582V555.5H589V523.5H614V500.5H550.842L506 397.5H500.5V450H426.5V443.5H453V361.5H404.5V368H395V356.5H407.5V349.5H485.124L508.37 397.026L508.5 397L552.5 498H632.5V500.5H633V498H678.5V440.5ZM638.5 164V173H601V164H638.5ZM603 171H636.5V166H603V171ZM638.5 134V142.5H579V134H638.5ZM581 140.5H636.5V136H581V140.5ZM456 522.5H553V528.5H544.5V535H456V522.5ZM542.5 526.5H551V524.5H458V533H542.5V526.5ZM523.5 170.5V206H481V170.5H523.5ZM483 204H521.5V172.5H483V204ZM498.5 395.5H505.398L483.876 351.5H409.5V358.5H397V366H402.5V359.5H455V445.5H428.5V448H498.5V395.5ZM483 149.993V161.5H414.5V168H407V150.507L483 149.993ZM412.5 159.5H481V152.007L409 152.493V166H412.5V159.5ZM478 61.5V66.1594L464 72.1594L464 128H452.5V121H390.5L390.5 71H374.894L376.225 69.368C378.353 66.7591 380.143 64.1777 381.869 61.6884L381.877 61.6773C382.351 60.9941 382.82 60.3179 383.289 59.65C385.458 56.5663 387.641 53.6687 390.332 51.2554C400.989 41.7015 411.415 38.0281 422.497 38C431.07 37.9783 440.299 39.6549 449.066 45.6757C452.043 47.7205 454.787 50.6788 457.534 53.8745C458.273 54.7333 459.011 55.609 459.756 56.4929C461.725 58.8271 463.74 61.2175 465.925 63.5H472V61.5H478ZM476 63.5H474V65.5H465.076L464.782 65.1956C462.432 62.7684 460.258 60.1903 458.189 57.737C457.453 56.8641 456.73 56.0071 456.018 55.1782C453.274 51.9872 450.677 49.2081 447.934 47.3243C439.596 41.5981 430.801 39.9789 422.503 40C411.944 40.0267 401.984 43.496 391.668 52.7446C389.156 54.996 387.083 57.7331 384.925 60.8007C384.468 61.451 384.006 62.1168 383.536 62.7949C382.157 64.7838 380.705 66.8783 379.068 69H392.5L392.5 119H454.5V126H462L462 70.8406L476 64.8406V63.5ZM459 266V284H407V185.5H414.5V197.5H450.5V224H459V246H450.5V266H459ZM457 282V268H448.5V244H457V226H448.5V199.5H412.5V187.5H409V282H457ZM308 220.289V309.842L265.866 364.16L151.5 328.737V240H146V186.135L176.035 150.5H294.5V189.789L308 220.289ZM265.134 361.84L306 309.158V220.711L292.5 190.211V152.5H176.965L148 186.865V238H153.5V327.263L265.134 361.84ZM205 436.5V489.5H157V436.5H205ZM159 487.5H203V438.5H159V487.5Z" fill="#454545"/>
<path d="M632.5 498H633V500.5H632.5V498Z" fill="#454545"/>
<path fill-rule="evenodd" clip-rule="evenodd" d="M614 334H574V332H577V283.5H579V282.5H578V281.5V272.5H580V281.5H584V283.5H579V332H614V334ZM580 281.5V282.5H579V281.5H580ZM579 332H577V333.5H579V332Z" fill="#454545"/>
<path d="M579 333.5H577V332H579V333.5Z" fill="#454545"/>
<path d="M579 254.5V252.5H580V254.5H579Z" fill="#454545"/>
<path fill-rule="evenodd" clip-rule="evenodd" d="M661 477V448.5H659V475H635V448.5H633V477H661Z" fill="#454545"/>
<rect width="21" height="21" rx="4" transform="matrix(0 -1 -1 0 530 125.5)" fill="#4B5263"/>
<rect width="4" height="7" transform="matrix(0 -1 -1 0 523 129.5)" fill="#373D4B"/>
<rect width="4" height="2" transform="matrix(0 -1 -1 0 509 117.5)" fill="#373D4B"/>
<rect width="4" height="2" transform="matrix(0 -1 -1 0 532 117.5)" fill="#373D4B"/>
<rect width="2" height="4" transform="matrix(0 -1 -1 0 521 104.5)" fill="#373D4B"/>
<path d="M74.472 476.492V461.42H69.024V459.524H82.008V461.42H76.56V476.492H74.472Z" fill="#FF6B00"/>
<path d="M734.488 409.868H732.4V392.9H734.488V400.724H737.008L742.528 392.9H744.928L738.832 401.324L744.976 409.868H742.504L737.176 402.62H734.488V409.868Z" fill="#0085FF"/>
<path d="M753.184 409.868H751.096V394.796H745.648V392.9H758.632V394.796H753.184V409.868Z" fill="#0085FF"/>
<path d="M489 83.5V150.5H554V83.5L489 83.5Z" fill="#7000FF" fill-opacity="0.2"/>
<path fill-rule="evenodd" clip-rule="evenodd" d="M490.675 148.846V85.1543L552.66 85.1543V148.846H490.675ZM489 83.5L554 83.5V150.5H489V83.5Z" fill="white" fill-opacity="0.08"/>
<path d="M512.467 125.499V104.967H521.573C522.52 104.967 523.39 105.063 524.183 105.257C524.995 105.45 525.701 105.798 526.3 106.301C526.783 106.687 527.189 107.2 527.518 107.838C527.866 108.456 528.04 109.21 528.04 110.1C528.059 111.047 527.885 111.888 527.518 112.623C527.17 113.357 526.571 113.976 525.72 114.479C526.319 114.653 526.832 114.914 527.257 115.262C527.682 115.61 528.021 116.016 528.272 116.48C528.543 116.944 528.736 117.446 528.852 117.988C528.968 118.529 529.016 119.09 528.997 119.67C528.958 120.598 528.707 121.458 528.243 122.251C527.798 123.024 527.209 123.652 526.474 124.136C525.604 124.735 524.647 125.112 523.603 125.267C522.559 125.421 521.525 125.499 520.5 125.499H512.467ZM520.384 113.29C520.809 113.29 521.235 113.27 521.66 113.232C522.085 113.174 522.482 113.038 522.849 112.826C523.158 112.632 523.419 112.371 523.632 112.043C523.845 111.714 523.961 111.327 523.98 110.883C523.999 110.419 523.922 110.042 523.748 109.752C523.574 109.462 523.361 109.239 523.11 109.085C522.801 108.891 522.443 108.785 522.037 108.766C521.631 108.727 521.215 108.708 520.79 108.708H516.672V113.29H520.384ZM516.672 121.787H520.5C521.061 121.787 521.65 121.758 522.269 121.7C522.907 121.622 523.448 121.419 523.893 121.091C524.164 120.878 524.386 120.617 524.56 120.308C524.734 119.979 524.821 119.573 524.821 119.09C524.821 118.645 524.724 118.268 524.531 117.959C524.338 117.649 524.096 117.417 523.806 117.263C523.477 117.05 523.1 116.924 522.675 116.886C522.269 116.847 521.844 116.828 521.399 116.828L516.672 116.857V121.787Z" fill="white"/>
<path d="M528 435.5V510.5H590V435.5H528Z" fill="#7000FF" fill-opacity="0.2"/>
<path fill-rule="evenodd" clip-rule="evenodd" d="M529.685 508.648V437.352H588.585V508.648H529.685ZM528 435.5H590V510.5H528V435.5Z" fill="white" fill-opacity="0.08"/>
<path d="M554.529 479.585L553.05 483.5H548.468L556.414 462.968H561.17L569 483.5H564.389L562.968 479.585H554.529ZM555.747 475.873H561.721L558.763 467.434L555.747 475.873Z" fill="white"/>
</svg>
