<svg width="791" height="572" viewBox="0 0 791 572" fill="none" xmlns="http://www.w3.org/2000/svg">
<path fill-rule="evenodd" clip-rule="evenodd" d="M490.5 112.5L490.5 95.5L459 95.5V71H445V1H293V58L285 55H210.5V70H229V333H176H1L1 441.5H111L111 499H157V501.5H175.5V499H238.5L283.5 396.5L306 350.5V333H332.5V312H329.5V291.5H332.5V283V267H341V245H332.5V225H341V198.5H377V186.5H382.5V190L497 190V151.5H565.5V112.5H490.5ZM308.5 205H268V171.5H308.5V205ZM377 160.5H308.5V151L382.5 151.5V167H377V160.5ZM337 127V120H399L399 70H413.5C408.011 63.2694 404.703 56.6647 399.5 52C389.014 42.5988 378.82 39.0274 368 39C359.565 38.9786 350.552 40.6265 342 46.5C336.28 50.4285 331.318 57.975 325 64.5H317.5V62.5H313.5V65.5L327.5 71.5L327.5 127H337Z" fill="#1F2228"/>
<path d="M350.5 556.5V571H409V522.5H387V444.5H363V449H333.5V523.5V534H327V556.5H350.5Z" fill="#1F2228"/>
<path d="M175.5 501.5V524.5H200.5V556.5H207.5V564.5H238.5V556.5H327V534H247V527.5H238.5V523.5H333.5V449H291V396.5H283.5L238.5 499H175.5V501.5Z" fill="#1F2228"/>
<path d="M641.5 520.5H789.5V438L720.5 391.5L686.5 324V239H680.5V139L675 133.5L684.5 124L662.5 104L655.5 111L636 92.5L614 112.5H565.5V151.5H614L643.5 186.5V239H638V328L525 363L483.5 309.5V220.5L497 190L382.5 190V283H332.5V291.5H329.5V312H332.5V333H306V350.5H382H438.5V435H528L562.5 408H650.5V488.5H632.5H586.5L566.5 488.5V508.5H641.5V520.5Z" fill="#1F2228"/>
<path fill-rule="evenodd" clip-rule="evenodd" d="M210.5 109H124.5V206.5H168.5V282.5H176V333H229V70H210.5V109ZM188.5 172H153V165H188.5V172ZM210.5 141.5H153V135H210.5V141.5Z" fill="#1F2228"/>
<path fill-rule="evenodd" clip-rule="evenodd" d="M490.5 112.5L490.5 95.5L459 95.5V71H445V1H293V58L285 55H210.5V70H229V333H176H1L1 441.5H111L111 499H157V501.5H175.5V499H238.5L283.5 396.5L306 350.5V333H332.5V312H329.5V291.5H332.5V283V267H341V245H332.5V225H341V198.5H377V186.5H382.5V190L497 190V151.5H565.5V112.5H490.5ZM308.5 205H268V171.5H308.5V205ZM377 160.5H308.5V151L382.5 151.5V167H377V160.5ZM337 127V120H399L399 70H413.5C408.011 63.2694 404.703 56.6647 399.5 52C389.014 42.5988 378.82 39.0274 368 39C359.565 38.9786 350.552 40.6265 342 46.5C336.28 50.4285 331.318 57.975 325 64.5H317.5V62.5H313.5V65.5L327.5 71.5L327.5 127H337Z" fill="#22262F"/>
<path d="M350.5 556.5V571H409V522.5H387V444.5H363V449H333.5V523.5V534H327V556.5H350.5Z" fill="#22262F"/>
<path d="M531 476V512H537L540.5 504.5L557.5 512H566.5L583.5 524V528H588L591.5 531.5H641.5V520.5V508.5H566.5V488.5L586.5 488.5V437.5H632.5V488.5H650.5V408H562.5L528 435H438.5V350.5H382V357.5H394.5V367H387V360.5H336.5V444.5H363H387V398.5H394.5V435C403.315 459.445 410.814 468.331 428 477L531 476Z" fill="#2F3541"/>
<path fill-rule="evenodd" clip-rule="evenodd" d="M210.5 109H124.5V206.5H168.5H188.5V236.5H212.5V333H229V70H210.5V109ZM188.5 172H153V165H188.5V172ZM210.5 141.5H153V135H210.5V141.5Z" fill="#2F3541"/>
<path d="M139.5 351.5V333.5H183.5V351.5H139.5Z" fill="#373D4B" fill-opacity="0.76"/>
<path d="M183.5 438.5V351.5H201.5V438.5H183.5Z" fill="#373D4B" fill-opacity="0.76"/>
<path d="M26.5 377.5L26.5 333.5H61.5V377.5H26.5Z" fill="#373D4B" fill-opacity="0.76"/>
<path d="M82.5 403.5V369.5H126.5V403.5H82.5Z" fill="#373D4B" fill-opacity="0.76"/>
<path d="M82.5 351.5V333.5H126.5V351.5H82.5Z" fill="#373D4B"/>
<path d="M205.5 345.5V333.5H207.5V345.5H205.5Z" fill="#373D4B"/>
<path d="M205.5 346.5V344.5H227.5V346.5H205.5Z" fill="#373D4B"/>
<path d="M142.5 453.5C144.157 453.5 145.5 454.843 145.5 456.5C145.5 458.157 144.157 459.5 142.5 459.5C140.843 459.5 139.5 458.157 139.5 456.5C139.5 454.843 140.843 453.5 142.5 453.5Z" fill="#373D4B"/>
<path d="M148.5 451.5C150.157 451.5 151.5 452.843 151.5 454.5C151.5 456.157 150.157 457.5 148.5 457.5C146.843 457.5 145.5 456.157 145.5 454.5C145.5 452.843 146.843 451.5 148.5 451.5Z" fill="#373D4B"/>
<path d="M161.5 461.5C163.157 461.5 164.5 462.843 164.5 464.5C164.5 466.157 163.157 467.5 161.5 467.5C159.843 467.5 158.5 466.157 158.5 464.5C158.5 462.843 159.843 461.5 161.5 461.5Z" fill="#373D4B"/>
<path d="M158.5 462.5C160.157 462.5 161.5 463.843 161.5 465.5C161.5 467.157 160.157 468.5 158.5 468.5C156.843 468.5 155.5 467.157 155.5 465.5C155.5 463.843 156.843 462.5 158.5 462.5Z" fill="#373D4B"/>
<path d="M161.5 467.5C163.157 467.5 164.5 468.843 164.5 470.5C164.5 472.157 163.157 473.5 161.5 473.5C159.843 473.5 158.5 472.157 158.5 470.5C158.5 468.843 159.843 467.5 161.5 467.5Z" fill="#373D4B"/>
<path d="M297.5 334.5C299.157 334.5 300.5 335.843 300.5 337.5C300.5 339.157 299.157 340.5 297.5 340.5C295.843 340.5 294.5 339.157 294.5 337.5C294.5 335.843 295.843 334.5 297.5 334.5Z" fill="#373D4B"/>
<path d="M297.5 341.5C299.157 341.5 300.5 342.843 300.5 344.5C300.5 346.157 299.157 347.5 297.5 347.5C295.843 347.5 294.5 346.157 294.5 344.5C294.5 342.843 295.843 341.5 297.5 341.5Z" fill="#373D4B"/>
<path d="M290.5 522.5V504.5H334.5V522.5H290.5Z" fill="#373D4B" fill-opacity="0.68"/>
<path d="M290.5 467.5V449.5H334.5V467.5H290.5Z" fill="#373D4B" fill-opacity="0.68"/>
<rect x="200.5" y="356.5" width="5" height="22" transform="rotate(-90 200.5 356.5)" fill="#373D4B" fill-opacity="0.5"/>
<rect x="250.5" y="351.5" width="5" height="39" transform="rotate(-90 250.5 351.5)" fill="#373D4B" fill-opacity="0.5"/>
<rect x="274.5" y="346.5" width="10" height="10" transform="rotate(-90 274.5 346.5)" fill="#373D4B" fill-opacity="0.5"/>
<rect x="459.5" y="169.5" width="9" height="9" transform="rotate(-90 459.5 169.5)" fill="#373D4B" fill-opacity="0.5"/>
<rect x="279.5" y="373.5" width="22" height="10" transform="rotate(-90 279.5 373.5)" fill="#373D4B" fill-opacity="0.5"/>
<rect x="308.59" y="318.782" width="30.3678" height="11.4536" transform="rotate(-134.484 308.59 318.782)" fill="#373D4B" fill-opacity="0.5"/>
<rect x="271.5" y="171.5" width="16" height="35" transform="rotate(-90 271.5 171.5)" fill="#373D4B" fill-opacity="0.5"/>
<rect x="421.5" y="23.5" width="16" height="9" transform="rotate(-90 421.5 23.5)" fill="#373D4B" fill-opacity="0.5"/>
<rect x="337.5" y="432.5" width="8" height="7" transform="rotate(-90 337.5 432.5)" fill="#373D4B" fill-opacity="0.5"/>
<rect x="388.5" y="570.5" width="7" height="7" transform="rotate(-90 388.5 570.5)" fill="#373D4B" fill-opacity="0.5"/>
<rect x="546.523" y="429.733" width="7.78944" height="7" transform="rotate(-130.153 546.523 429.733)" fill="#373D4B" fill-opacity="0.5"/>
<rect x="744.439" y="426.5" width="25.2165" height="13.4252" transform="rotate(-146.139 744.439 426.5)" fill="#373D4B" fill-opacity="0.5"/>
<rect x="650.998" y="118.52" width="26.1577" height="6.73055" transform="rotate(-135.639 650.998 118.52)" fill="#373D4B" fill-opacity="0.5"/>
<rect x="771.101" y="450.299" width="32.0346" height="18.0678" transform="rotate(-146.139 771.101 450.299)" fill="#373D4B" fill-opacity="0.5"/>
<circle cx="203.5" cy="419.5" r="3" transform="rotate(-90 203.5 419.5)" fill="#373D4B"/>
<circle cx="209.5" cy="419.5" r="3" transform="rotate(-90 209.5 419.5)" fill="#373D4B" fill-opacity="0.5"/>
<rect x="194.5" y="498.5" width="18" height="38" rx="9" transform="rotate(-90 194.5 498.5)" fill="#373D4B" fill-opacity="0.5"/>
<rect x="212.5" y="480.989" width="37" height="13" transform="rotate(-59.9452 212.5 480.989)" fill="#373D4B" fill-opacity="0.5"/>
<rect x="207.5" y="462.989" width="4.96851" height="13" transform="rotate(-59.9452 207.5 462.989)" fill="#373D4B" fill-opacity="0.5"/>
<rect x="246.752" y="455.871" width="4.96851" height="9.2421" transform="rotate(-59.9452 246.752 455.871)" fill="#373D4B" fill-opacity="0.5"/>
<path d="M237.5 539.5V528.5H246.5V539.5H237.5Z" fill="#373D4B"/>
<path d="M395.5 570.5V558.5H408.5V570.5H395.5Z" fill="#373D4B"/>
<path d="M551.763 425.345L547.5 420.454L557.3 411.912L561.563 416.803L551.763 425.345Z" fill="#373D4B"/>
<path d="M419.5 357.5V351.5H437.5V357.5H419.5Z" fill="#373D4B"/>
<path d="M337.5 443.5V432.5H350.5V443.5H337.5Z" fill="#373D4B"/>
<path d="M383.5 252.5V246.5H400.5V252.5H383.5Z" fill="#373D4B"/>
<path d="M383.5 225.5V188.5H402.5V225.5H383.5Z" fill="#373D4B"/>
<path d="M402.5 225.5V211.5H409.5V225.5H402.5Z" fill="#373D4B"/>
<path d="M459.5 161.5V152.5H468.5V161.5H459.5Z" fill="#373D4B"/>
<path d="M421.5 7.5V2.5H430.5V7.5H421.5Z" fill="#373D4B"/>
<path d="M305.5 22.5V2.5H314.5V22.5H305.5Z" fill="#373D4B"/>
<path d="M280.5 171.5V166.5H289.5V171.5H280.5Z" fill="#373D4B"/>
<path d="M344.5 125.5V120.5H390.5V125.5H344.5Z" fill="#373D4B"/>
<path d="M369.5 150.5V148.5H382.5V150.5H369.5Z" fill="#373D4B"/>
<path d="M399.5 134.5V128.5H402.5V134.5H399.5Z" fill="#373D4B"/>
<path d="M463.5 150.5V145.5H466.5V150.5H463.5Z" fill="#373D4B"/>
<path d="M474.5 150.5V145.5H477.5V150.5H474.5Z" fill="#373D4B"/>
<path d="M466.5 150.5V141.5C466.5 139.291 468.291 137.5 470.5 137.5C472.709 137.5 474.5 139.291 474.5 141.5V150.5H466.5Z" fill="#373D4B"/>
<path d="M437.675 317.542L449.456 311.17L463.42 336.989L451.64 343.361L437.675 317.542Z" fill="#373D4B"/>
<path d="M403.5 351.5V349.5H430.5V351.5H403.5Z" fill="#373D4B"/>
<path d="M439.5 433.5H437.5V365.5H439.5V433.5Z" fill="#373D4B"/>
<path d="M456.5 435.5V433.5H528.5V435.5H456.5Z" fill="#373D4B"/>
<path d="M528.5 435.5V433.5L561.5 407.5V409.5L528.5 435.5Z" fill="#373D4B"/>
<path d="M561.5 409.5V407.5H651.5V409.5H561.5Z" fill="#373D4B"/>
<path d="M632.5 489.5V487.5H651.5V489.5H632.5Z" fill="#373D4B"/>
<path d="M566.5 509.5V507.5H641.5V509.5H566.5Z" fill="#373D4B"/>
<path d="M651.5 489.5H649.5V409.5H651.5V489.5Z" fill="#373D4B"/>
<path d="M642.5 526.5H640.5V507.5H642.5V526.5Z" fill="#373D4B"/>
<path d="M568.5 509.5H566.5V468.5H568.5V509.5Z" fill="#373D4B"/>
<path d="M485.5 104.5C487.709 104.5 489.5 106.291 489.5 108.5C489.5 110.709 487.709 112.5 485.5 112.5C483.291 112.5 481.5 110.709 481.5 108.5C481.5 106.291 483.291 104.5 485.5 104.5Z" fill="#373D4B"/>
<path d="M272.5 55.5C274.709 55.5 276.5 57.2908 276.5 59.5C276.5 61.7091 274.709 63.5 272.5 63.5C270.291 63.5 268.5 61.7091 268.5 59.5C268.5 57.2908 270.291 55.5 272.5 55.5Z" fill="#373D4B"/>
<path d="M280.5 55.5C282.709 55.5 284.5 57.2908 284.5 59.5C284.5 61.7091 282.709 63.5 280.5 63.5C278.291 63.5 276.5 61.7091 276.5 59.5C276.5 57.2908 278.291 55.5 280.5 55.5Z" fill="#373D4B"/>
<path d="M288.5 57.5C290.709 57.5 292.5 59.2909 292.5 61.5C292.5 63.7091 290.709 65.5 288.5 65.5C286.291 65.5 284.5 63.7091 284.5 61.5C284.5 59.2909 286.291 57.5 288.5 57.5Z" fill="#373D4B"/>
<path d="M282.5 210.5V207H291.5V210.5H282.5Z" fill="#373D4B"/>
<path d="M624.5 507.5V488.5H627.5V507.5H624.5Z" fill="#282C34"/>
<path d="M304.5 556.5V534.5H307.5V556.5H304.5Z" fill="#282C34"/>
<path d="M141.5 498.5V476.5H144.5V498.5H141.5Z" fill="#282C34"/>
<path d="M586.743 478.504H567.743V475.504H586.743V478.504Z" fill="#282C34"/>
<path d="M456.5 426.5H439.5V423.5H456.5V426.5Z" fill="#282C34"/>
<path d="M631.5 507.5V488.5H634.5V507.5L631.5 507.5Z" fill="#282C34"/>
<path d="M311.5 556.5V534.5H314.5V556.5H311.5Z" fill="#282C34"/>
<path d="M148.5 498.5V476.5H151.5V498.5H148.5Z" fill="#282C34"/>
<path d="M318.5 556.5V534.5H321.5V556.5H318.5Z" fill="#282C34"/>
<path d="M325.5 556.5V534.5H328.5V556.5H325.5Z" fill="#282C34"/>
<path d="M586.986 471.509H567.986V468.509H586.986V471.509Z" fill="#282C34"/>
<path d="M456.5 419.5H439.5V416.5H456.5V419.5Z" fill="#282C34"/>
<path d="M456.5 412.5H439.5V409.5H456.5V412.5Z" fill="#282C34"/>
<path d="M456.5 405.5H439.5V402.5H456.5V405.5Z" fill="#282C34"/>
<path d="M456.5 398.5H439.5V395.5H456.5V398.5Z" fill="#282C34"/>
<path d="M483.5 214.5H417.5V211.5H483.5V214.5Z" fill="#282C34"/>
<path d="M483.5 255.5H417.5V252.5H483.5V255.5Z" fill="#282C34"/>
<path d="M386.5 469.5H368.5V466.5H386.5V469.5Z" fill="#282C34"/>
<path d="M129.5 474.5H111.5V471.5H129.5V474.5Z" fill="#282C34"/>
<path d="M244.5 364.5H230.5V361.5H244.5V364.5Z" fill="#282C34"/>
<path d="M456.5 391.5H439.5V388.5H456.5V391.5Z" fill="#282C34"/>
<path d="M483.5 207.5H417.5V204.5H483.5V207.5Z" fill="#282C34"/>
<path d="M483.5 248.5H417.5V245.5H483.5V248.5Z" fill="#282C34"/>
<path d="M386.5 462.5H368.5V459.5H386.5V462.5Z" fill="#282C34"/>
<path d="M129.5 467.5H111.5V464.5H129.5V467.5Z" fill="#282C34"/>
<path d="M244.5 357.5H230.5V354.5H244.5V357.5Z" fill="#282C34"/>
<path d="M282.5 302.5H230.5V299.5H282.5V302.5Z" fill="#282C34"/>
<path d="M686.5 249.5H637.5V246.5H686.5V249.5Z" fill="#282C34"/>
<path d="M456.5 384.5H439.5V381.5H456.5V384.5Z" fill="#282C34"/>
<path d="M483.5 200.5H417.5V197.5H483.5V200.5Z" fill="#282C34"/>
<path d="M407.5 186.5V151.5H410.5V186.5H407.5Z" fill="#282C34"/>
<path d="M564.5 151.5V113.5H567.5V151.5H564.5Z" fill="#282C34"/>
<path d="M230.5 69.5V56.5H233.5V69.5H230.5Z" fill="#282C34"/>
<path d="M228.5 84.5H211.5V81.5H228.5V84.5Z" fill="#282C34"/>
<path d="M386.5 455.5H368.5V452.5H386.5V455.5Z" fill="#282C34"/>
<path d="M129.5 460.5H111.5V457.5H129.5V460.5Z" fill="#282C34"/>
<path d="M244.5 350.5H230.5V347.5H244.5V350.5Z" fill="#282C34"/>
<path d="M282.5 295.5H230.5V292.5H282.5V295.5Z" fill="#282C34"/>
<path d="M686.5 242.5H637.5V239.5H686.5V242.5Z" fill="#282C34"/>
<path d="M456.5 377.5H439.5V374.5H456.5V377.5Z" fill="#282C34"/>
<path d="M483.5 193.5H417.5V190.5H483.5V193.5Z" fill="#282C34"/>
<path d="M414.5 186.5V151.5H417.5V186.5H414.5Z" fill="#282C34"/>
<path d="M571.5 151.5V113.5H574.5V151.5H571.5Z" fill="#282C34"/>
<path d="M578.5 151.5V113.5H581.5V151.5H578.5Z" fill="#282C34"/>
<path d="M585.5 151.5V113.5H588.5V151.5H585.5Z" fill="#282C34"/>
<path d="M592.5 151.5V113.5H595.5V151.5H592.5Z" fill="#282C34"/>
<path d="M237.5 69.5V56.5H240.5V69.5H237.5Z" fill="#282C34"/>
<path d="M228.5 77.5H211.5V74.5H228.5V77.5Z" fill="#282C34"/>
<path d="M244.5 69.5V56.5H247.5V69.5H244.5Z" fill="#282C34"/>
<path d="M386.5 448.5H368.5V445.5H386.5V448.5Z" fill="#282C34"/>
<path d="M617.5 507.5V488.5H620.5V507.5H617.5Z" fill="#282C34"/>
<path d="M297.5 556.5V534.5H300.5V556.5H297.5Z" fill="#282C34"/>
<path d="M134.5 498.5V476.5H137.5V498.5H134.5Z" fill="#282C34"/>
<path d="M586.5 485.5H567.5V482.5H586.5V485.5Z" fill="#282C34"/>
<path d="M456.5 433.5H439.5V430.5H456.5V433.5Z" fill="#282C34"/>
<path d="M487.5 155H479V152H487.5V155Z" fill="#282C34"/>
<path d="M487.5 162.5H479V159.5H487.5V162.5Z" fill="#282C34"/>
<path d="M211.5 285.5V284.5H332.5V285.5H211.5Z" fill="#454545" fill-opacity="0.6"/>
<path d="M168.5 225.5V224.5H188.5V225.5H168.5Z" fill="#454545" fill-opacity="0.6"/>
<path d="M228.5 70.5V69.5H251.5V70.5H228.5Z" fill="#454545" fill-opacity="0.6"/>
<path d="M229.5 333.5H228.5V204.5H229.5V333.5Z" fill="#454545" fill-opacity="0.6"/>
<path d="M229.5 196.5H228.5V171.5H229.5V196.5Z" fill="#454545" fill-opacity="0.6"/>
<path d="M229.5 109.5H228.5V70.5H229.5V109.5Z" fill="#454545" fill-opacity="0.6"/>
<path d="M282.5 302.5V292.5H292.5V302.5H282.5Z" fill="#454545"/>
<path d="M282.5 257.5V247.5H292.5V257.5H282.5Z" fill="#454545"/>
<path d="M347.5 490.5V449.5H351.5V490.5H347.5Z" fill="#454545"/>
<path d="M347.5 555.5V550.5H351.5V555.5H347.5Z" fill="#454545"/>
<path d="M154.5 498.5V475.5H156.5V498.5H154.5Z" fill="#454545"/>
<path d="M192.5 283.5H176.5V281.5H192.5V283.5Z" fill="#454545"/>
<path d="M267.5 172.5H250.5V170.5H267.5V172.5Z" fill="#454545"/>
<path d="M306.5 170.5V127.5H309.5V170.5H306.5Z" fill="#454545"/>
<path d="M335.5 151.5V146.5H337.5V151.5H335.5Z" fill="#454545"/>
<path d="M335.5 136.5V126.5H337.5V136.5H335.5Z" fill="#454545"/>
<path d="M398 137.5V120.5H400V137.5H398Z" fill="#454545"/>
<path d="M497.5 152.5H488.5V150.5H497.5V152.5Z" fill="#454545"/>
<path d="M459.5 96.5H437.5V94.5H459.5V96.5Z" fill="#454545"/>
<path d="M679.5 240H672.5V236H679.5V240Z" fill="#454545"/>
<path d="M651 240H644V236H651V240Z" fill="#454545"/>
<path d="M417.5 96.5H399.5V94.5H417.5V96.5Z" fill="#454545"/>
<path d="M419.5 71H412V69H419.5V71Z" fill="#454545"/>
<path d="M445 72H437.5V70H445V72Z" fill="#454545"/>
<path d="M267 206H259V204H267V206Z" fill="#454545"/>
<path d="M259.5 334.5H223.5V332.5H259.5V334.5Z" fill="#454545"/>
<path d="M333.5 334.5H292.5V332.5H333.5V334.5Z" fill="#454545"/>
<path d="M304.5 351.5V332.5H306.5V351.5H304.5Z" fill="#454545"/>
<path d="M331.5 333.5V311.5H333.5V333.5H331.5Z" fill="#454545"/>
<path d="M329.5 312.5V290.5H331.5V312.5H329.5Z" fill="#454545"/>
<path d="M331.5 291.5V269.5H333.5V291.5H331.5Z" fill="#454545"/>
<path fill-rule="evenodd" clip-rule="evenodd" d="M210.5 252.5V250.5H212.5V255.5H210.5V254.5H211.5V252.5H210.5ZM210.5 252.5V254.5H184.5V252.5H210.5Z" fill="#454545"/>
<path d="M213.5 283.5V281.5H212.5V282.5H211.5V283.5H213.5Z" fill="#454545"/>
<path d="M210.5 282.5H211.5V281.5H210.5V282.5Z" fill="#454545"/>
<path fill-rule="evenodd" clip-rule="evenodd" d="M209.5 204.5V222.5H211.5V206.5H247.5V204.5H211.5V206.5H210.5V204.5H209.5Z" fill="#454545"/>
<path d="M187.5 237.5H189.5V235.5H187.5V237.5Z" fill="#454545"/>
<path d="M210.5 204.5V206.5H211.5V204.5H210.5Z" fill="#454545"/>
<path fill-rule="evenodd" clip-rule="evenodd" d="M188.5 205.5H189.5V235.5H187.5V207.5H188.5V205.5ZM187.5 205.5V207.5H169.5V205.5H187.5ZM189.5 235.5H211.5V237.5H189.5V235.5Z" fill="#454545"/>
<path d="M188.5 205.5H187.5V207.5H188.5V205.5Z" fill="#454545"/>
<path fill-rule="evenodd" clip-rule="evenodd" d="M189.5 173H237.5V171H211.5V141.5H209.5V171H189.5V173ZM209.5 171V171.5H211.5V171H209.5Z" fill="#454545"/>
<path d="M209.5 171.5H211.5V171H209.5V171.5Z" fill="#454545"/>
<path fill-rule="evenodd" clip-rule="evenodd" d="M400 152.5L477.5 152.5V150.5L400 150.5V144.5H398V150.5H383.5V152.5H398V150.5H400V152.5Z" fill="#454545"/>
<path d="M398 152.5H400V150.5H398V152.5Z" fill="#454545"/>
<path fill-rule="evenodd" clip-rule="evenodd" d="M334.5 524.5V528.5H347.5V538.5H351.5V528.5H347.5V524.5H351.5V519.5H347.5V524.5H334.5Z" fill="#454545"/>
<path d="M351.5 528.5V524.5H347.5V528.5H351.5Z" fill="#454545"/>
<path fill-rule="evenodd" clip-rule="evenodd" d="M0 332L0 442.5H110L110 500H156V502.5H174.5V525.5H199.5V557.5H206.5V565.5H239.5V557.5H349.5V572H410V521.5H388V399.5H393.5V435.175L393.559 435.339C397.98 447.598 402.103 456.054 407.332 462.543C412.576 469.052 418.88 473.52 427.55 477.893L427.767 478.002L530 477.01V513H537.637L540.992 505.81L557.289 513H566.183L582.5 524.518V529H587.586L591.086 532.5H642.5V521.5H790.5V437.468L721.276 390.817L687.5 323.762V238H681.5V138.586L676.414 133.5L685.949 123.966L662.467 102.619L655.482 109.604L636.015 91.1353L613.613 111.5H491.5L491.5 94.5L460 94.5V70H446V0H292V56.557L285.181 54H209.5V108H123.5V207.5H167.5V283.5H175V332H0ZM112 440.5H2L2 334H177V281.5H169.5V205.5H125.5V110H211.5V56H284.819L294 59.443V2H444V72H458V96.5L489.5 96.5L489.5 113.5H614.387L635.985 93.8646L655.518 112.396L662.533 105.381L683.051 124.034L673.586 133.5L679.5 139.414V240H685.5V324.238L719.724 392.183L788.5 438.532V519.5H640.5V530.5H591.914L588.414 527H584.5V523.482L566.817 511H557.711L540.008 503.19L536.363 511H532V474.99L428.234 475.998C419.831 471.738 413.853 467.449 408.889 461.288C403.891 455.085 399.871 446.921 395.5 434.825V397.5H386V523.5H408V570H351.5V555.5H237.5V563.5H208.5V555.5H201.5V523.5H176.5V500.5H239.658L284.5 397.5H290V450H364V443.5H337.5V361.5H386V368H395.5V356.5H383V349.5H305.376L282.13 397.026L282 397L238 498H158V500.5H157.5V498H112L112 440.5ZM152 164V173H189.5V164H152ZM187.5 171H154V166H187.5V171ZM152 134V142.5H211.5V134H152ZM209.5 140.5H154V136H209.5V140.5ZM334.5 522.5H237.5V528.5H246V535H334.5V522.5ZM248 526.5H239.5V524.5H332.5V533H248V526.5ZM267 170.5V206H309.5V170.5H267ZM307.5 204H269V172.5H307.5V204ZM292 395.5H285.102L306.624 351.5H381V358.5H393.5V366H388V359.5H335.5V445.5H362V448H292V395.5ZM307.5 149.993V161.5H376V168H383.5V150.507L307.5 149.993ZM378 159.5H309.5V152.007L381.5 152.493V166H378V159.5ZM312.5 61.5V66.1594L326.5 72.1594L326.5 128H338V121H400L400 71H415.606L414.275 69.368C412.147 66.7591 410.357 64.1777 408.631 61.6884L408.623 61.6773C408.149 60.9941 407.68 60.3179 407.211 59.65C405.042 56.5663 402.859 53.6687 400.168 51.2554C389.511 41.7015 379.085 38.0281 368.003 38C359.43 37.9783 350.201 39.6549 341.434 45.6757C338.457 47.7205 335.713 50.6788 332.966 53.8745C332.227 54.7333 331.489 55.609 330.744 56.4929C328.775 58.8271 326.76 61.2175 324.575 63.5H318.5V61.5H312.5ZM314.5 63.5H316.5V65.5H325.424L325.718 65.1956C328.068 62.7684 330.242 60.1903 332.311 57.737C333.047 56.8641 333.77 56.0071 334.482 55.1782C337.226 51.9872 339.823 49.2081 342.566 47.3243C350.904 41.5981 359.699 39.9789 367.997 40C378.556 40.0267 388.516 43.496 398.832 52.7446C401.344 54.996 403.417 57.7331 405.575 60.8007C406.032 61.451 406.494 62.1168 406.964 62.7949C408.343 64.7838 409.795 66.8783 411.432 69H398L398 119H336V126H328.5L328.5 70.8406L314.5 64.8406V63.5ZM331.5 266V284H383.5V185.5H376V197.5H340V224H331.5V246H340V266H331.5ZM333.5 282V268H342V244H333.5V226H342V199.5H378V187.5H381.5V282H333.5ZM482.5 220.289V309.842L524.634 364.16L639 328.737V240H644.5V186.135L614.465 150.5H496V189.789L482.5 220.289ZM525.366 361.84L484.5 309.158V220.711L498 190.211V152.5H613.535L642.5 186.865V238H637V327.263L525.366 361.84ZM585.5 436.5V489.5H633.5V436.5H585.5ZM631.5 487.5H587.5V438.5H631.5V487.5Z" fill="#454545"/>
<path d="M158 498H157.5V500.5H158V498Z" fill="#454545"/>
<path fill-rule="evenodd" clip-rule="evenodd" d="M176.5 334H216.5V332H213.5V283.5H211.5V282.5H212.5V281.5V272.5H210.5V281.5H206.5V283.5H211.5V332H176.5V334ZM210.5 281.5V282.5H211.5V281.5H210.5ZM211.5 332H213.5V333.5H211.5V332Z" fill="#454545"/>
<path d="M211.5 333.5H213.5V332H211.5V333.5Z" fill="#454545"/>
<path d="M211.5 254.5V252.5H210.5V254.5H211.5Z" fill="#454545"/>
<path fill-rule="evenodd" clip-rule="evenodd" d="M129.5 477V448.5H131.5V475H155.5V448.5H157.5V477H129.5Z" fill="#454545"/>
<rect x="260.5" y="125.5" width="21" height="21" rx="4" transform="rotate(-90 260.5 125.5)" fill="#4B5263"/>
<rect x="267.5" y="129.5" width="4" height="7" transform="rotate(-90 267.5 129.5)" fill="#373D4B"/>
<rect x="281.5" y="117.5" width="4" height="2" transform="rotate(-90 281.5 117.5)" fill="#373D4B"/>
<rect x="258.5" y="117.5" width="4" height="2" transform="rotate(-90 258.5 117.5)" fill="#373D4B"/>
<rect x="269.5" y="104.5" width="2" height="4" transform="rotate(-90 269.5 104.5)" fill="#373D4B"/>
<path d="M713.94 476.492V461.42H708.492V459.524H721.476V461.42H716.028V476.492H713.94Z" fill="#FF6B00"/>
<path d="M33.956 409.868H31.868V392.9H33.956V400.724H36.476L41.996 392.9H44.396L38.3 401.324L44.444 409.868H41.972L36.644 402.62H33.956V409.868Z" fill="#0085FF"/>
<path d="M52.652 409.868H50.564V394.796H45.116V392.9H58.1V394.796H52.652V409.868Z" fill="#0085FF"/>
<path d="M301.5 83.5V150.5H236.5V83.5L301.5 83.5Z" fill="#7000FF" fill-opacity="0.2"/>
<path fill-rule="evenodd" clip-rule="evenodd" d="M299.825 148.846V85.1543L237.84 85.1543L237.84 148.846H299.825ZM301.5 83.5L236.5 83.5V150.5H301.5V83.5Z" fill="white" fill-opacity="0.08"/>
<path d="M261.499 125.499V104.967H270.605C271.552 104.967 272.422 105.063 273.215 105.257C274.027 105.45 274.733 105.798 275.332 106.301C275.815 106.687 276.221 107.2 276.55 107.838C276.898 108.456 277.072 109.21 277.072 110.1C277.091 111.047 276.917 111.888 276.55 112.623C276.202 113.357 275.603 113.976 274.752 114.479C275.351 114.653 275.864 114.914 276.289 115.262C276.714 115.61 277.053 116.016 277.304 116.48C277.575 116.944 277.768 117.446 277.884 117.988C278 118.529 278.048 119.09 278.029 119.67C277.99 120.598 277.739 121.458 277.275 122.251C276.83 123.024 276.241 123.652 275.506 124.136C274.636 124.735 273.679 125.112 272.635 125.267C271.591 125.421 270.557 125.499 269.532 125.499H261.499ZM269.416 113.29C269.841 113.29 270.267 113.27 270.692 113.232C271.117 113.174 271.514 113.038 271.881 112.826C272.19 112.632 272.451 112.371 272.664 112.043C272.877 111.714 272.993 111.327 273.012 110.883C273.031 110.419 272.954 110.042 272.78 109.752C272.606 109.462 272.393 109.239 272.142 109.085C271.833 108.891 271.475 108.785 271.069 108.766C270.663 108.727 270.247 108.708 269.822 108.708H265.704V113.29H269.416ZM265.704 121.787H269.532C270.093 121.787 270.682 121.758 271.301 121.7C271.939 121.622 272.48 121.419 272.925 121.091C273.196 120.878 273.418 120.617 273.592 120.308C273.766 119.979 273.853 119.573 273.853 119.09C273.853 118.645 273.756 118.268 273.563 117.959C273.37 117.649 273.128 117.417 272.838 117.263C272.509 117.05 272.132 116.924 271.707 116.886C271.301 116.847 270.876 116.828 270.431 116.828L265.704 116.857V121.787Z" fill="white"/>
<path d="M262.5 435.5V510.5H200.5L200.5 435.5H262.5Z" fill="#7000FF" fill-opacity="0.2"/>
<path fill-rule="evenodd" clip-rule="evenodd" d="M260.815 508.648V437.352H201.915L201.915 508.648H260.815ZM262.5 435.5H200.5L200.5 510.5H262.5V435.5Z" fill="white" fill-opacity="0.08"/>
<path d="M227.561 479.585L226.082 483.5H221.5L229.446 462.968H234.202L242.032 483.5H237.421L236 479.585H227.561ZM228.779 475.873H234.753L231.795 467.434L228.779 475.873Z" fill="white"/>
</svg>
