<svg width="773" height="675" viewBox="0 0 773 675" fill="none" xmlns="http://www.w3.org/2000/svg">
<path fill-rule="evenodd" clip-rule="evenodd" d="M771 317L751 219L703 229L697.5 201L661.5 209L656.5 189L659 187L632 140.5C626.838 133.682 623.184 131.663 615 132L564.5 138L558.5 106.5C551.702 99.3693 547.744 96.826 540.5 94H508L502 74V18.5H449.5V1H410V23.5H311.5L274.5 47.5H230.5V122H165.5V73H161V66.5H165.5V41H53.4999V66.5H55.9999V70H15.4999V177.5H50.9999V185.5H15.4999V237H17.9999V240H0.999939V414H97.4999V335H144.5V433.5H211.5V437.5H151.5V441H136V578.5H199V652.5H252.5V645H257V673.5H305.5H307H322C417.791 670.772 443.993 639.307 457 546.5L453 541L561.5 488.5L574 479L635.5 402.5L626.5 351L670.5 340.5L681.5 382.5L736 367.5L728.5 326.5L771 317ZM395.5 123.5V154.75H391V201H370L370 246.5H372.5V249.5H366V211L290.5 209L290.5 233H238V200.5L226 182.5V160H271.5V174H303V103L322 74H438V78.5H382.5V123.5H395.5ZM42.4999 242H198V204.5H76.9999V201.5H72.9999V209H49.4999V237H42.4999V242ZM359 425V434.5H355V439.5H335.5V437.5H277V433.5H282.5V398H251.5V394.5H253V303.5H153.5V308.5H137.5V303.5L136 302.5H97.4999V298H256V289.5H266V298H285V422L359 425ZM259 433.5H232V437.5H239.5V464L229 474H220L209 486V505.5L220 516H239.5L251.5 506.5V437.5H259V433.5ZM424 512.5L414.5 531.5H422V534H417C411.96 564.725 407.933 587.373 400.227 603.5C384.839 630.193 357.215 638.98 307 637V644H305.5V617.5H264.5L277 526.5L334.5 532.5L340.5 491H343L335.5 541.5L402 550L419 512.5H424ZM434.5 481.5L440.5 467L459.5 475.5H464.5L518 451L561.5 401L532 371L477 422L461 411.943L459.5 411L458.639 413L430 479.5L434.5 481.5ZM540 357.5L577 371L580.5 333.5L559 264.5L516 283.5L535.5 345L537.5 358.5L539.5 359L540 357.5ZM536.5 118.5H515L520 139.5L495 147.5L526 234L500.5 244L507 260L553.5 241.5L522.5 143L538.5 141V123.5L536.5 118.5ZM658 290.5L616 299.5L593 209L636.5 198L658 290.5ZM492 217.5L471.5 159.5L453 152.5H432V154.75V157H453L469 163L486.5 217.5H492ZM424.5 154.75V159H420L419.5 111H426V154.75H424.5ZM426 226L484 364.5H479.5C462.949 329.637 453.95 306.296 441.986 275.264C438.912 267.292 435.643 258.813 432 249.5H389.5V246.5H421L421 203H426L426 226Z" fill="#22262F"/>
<path fill-rule="evenodd" clip-rule="evenodd" d="M772.176 317.762L751.779 217.816L703.786 227.815L698.284 199.801L662.234 207.812L657.626 189.38L660.297 187.243L632.834 139.945L632.797 139.896C630.187 136.449 627.872 134.094 625.087 132.676C622.289 131.251 619.133 130.829 614.959 131.001L614.92 131.002L565.308 136.897L559.427 106.023L559.224 105.81C555.801 102.22 553.058 99.7464 550.233 97.8107C547.402 95.8715 544.525 94.4968 540.863 93.0684L540.688 93H508.744L503 73.8532V17.5H450.5V0H409V22.5H311.204L274.204 46.5H229.5V121H166.5V72H162V67.5H166.5V40H52.4999V67.5H54.9999V69H14.4999V178.5H49.9999V184.5H14.4999V238H16.9999V239H-6.10352e-05V415H98.4999V336H143.5V434.5H210.5V436.5H150.5V440H135V579.5H198V653.5H253.5V646H256V674.5H322.014L322.028 674.5C369.989 673.134 400.815 664.576 421.245 644.493C441.652 624.432 451.484 593.063 457.99 546.639L458.046 546.239L454.512 541.379L562.025 489.357L574.703 479.722L636.563 402.774L627.647 351.754L669.78 341.7L680.789 383.733L737.148 368.221L729.657 327.266L772.176 317.762ZM54.9999 71V74.5H64.9999V65.5H54.4999V42H164.5V65.5H160V74H164.5V123H231.5V48.5H274.796L311.796 24.5H411V2H448.5V19.5H501V74.1468L507.256 95H540.311C543.808 96.3721 546.487 97.6689 549.102 99.4607C551.713 101.249 554.295 103.554 557.573 106.977L563.692 139.103L615.08 132.998C619.069 132.837 621.822 133.258 624.18 134.458C626.547 135.664 628.631 137.714 631.166 141.055L657.703 186.757L655.374 188.62L660.766 210.187L696.716 202.199L702.214 230.185L750.221 220.184L769.824 316.238L727.343 325.734L734.851 366.779L682.211 381.267L671.219 339.3L625.353 350.246L634.437 402.226L573.297 478.278L560.974 487.643L451.488 540.621L455.953 546.761C449.453 592.921 439.679 623.567 419.843 643.066C399.974 662.598 369.808 671.136 321.986 672.5H308V665.5H304.5V672.5H258V644H251.5V651.5H200V577.5H137V442H152.5V438.5H212.5V432.5H145.5V334H96.4999V413H1.99994V241H18.9999V236H16.4999V186.5H51.9999V176.5H16.4999V71H54.9999ZM56.9999 67.5H62.9999V72.5H56.9999V67.5ZM659.204 291.265L637.243 196.781L591.784 208.276L615.268 300.68L659.204 291.265ZM656.796 289.735L616.732 298.32L594.216 209.724L635.757 199.219L656.796 289.735ZM581.514 333.394L559.621 263.132L514.776 282.948L534.522 345.226L536.609 359.308L540.156 360.195L540.623 358.792L577.875 372.384L581.514 333.394ZM576.125 369.616L539.376 356.208L538.844 357.805L538.391 357.692L536.477 344.774L517.224 284.052L558.379 265.868L579.486 333.606L576.125 369.616ZM562.862 400.958L532.032 369.606L476.883 420.745L461.802 411.266L438.5 354.802V331H432V352H433.5V355.2L457.553 412.993L428.69 480.012L435.032 482.831L441.031 468.333L459.286 476.5H464.718L518.613 451.819L562.862 400.958ZM458.654 410.435L435.5 354.8V350H434V333H436.5V355.198L458.982 409.674L458.654 410.435ZM459.956 412.468L477.117 423.255L531.968 372.394L560.138 401.042L517.387 450.181L464.282 474.5H459.713L439.969 465.667L433.968 480.169L431.309 478.988L459.956 412.468ZM554.733 242.086L523.814 143.844L539.5 141.883V123.307L537.177 117.5H513.734L518.812 138.83L493.709 146.863L524.731 233.423L499.193 243.439L506.447 261.296L554.733 242.086ZM552.267 240.914L507.553 258.704L501.807 244.561L527.269 234.577L496.29 148.137L521.187 140.17L516.266 119.5H535.823L537.5 123.693V140.117L521.186 142.156L552.267 240.914ZM493.414 218.5L472.288 158.729L453.183 151.5H431V153.75H427V110H418.489L419.01 160H425.5V155.75H431V158H452.819L468.196 163.766L485.771 218.5H493.414ZM425 153.75H423.5V158H420.99L420.51 112H425V153.75ZM490.586 216.5H487.229L469.804 162.234L453.181 156H433V153.5H452.817L470.712 160.271L490.586 216.5ZM485.503 365.5L427 225.799L427 202H420L420 245.5H388.5V250.5H431.317C434.858 259.557 438.047 267.827 441.049 275.614L441.053 275.624L441.055 275.63C453.019 306.662 462.029 330.032 478.597 364.929L478.868 365.5H485.503ZM482.497 363.5H480.132C463.771 328.989 454.816 305.763 442.919 274.904C439.845 266.932 436.575 258.451 432.931 249.136L432.683 248.5H390.5V247.5H422L422 204H425L425 226.201L482.497 363.5ZM439 79.5V73H321.46L302 102.702V173H272.5V159H225V182.803L237 200.803V234H291.5L291.5 210.027L365 211.974V250.5H373.5V245.5H371L371 202H392V155.75H396.5V122.5H383.5V79.5H439ZM437 77.5H381.5V124.5H394.5V153.75H390V200H369L369 247.5H371.5V248.5H367L367 210.026L289.5 207.973L289.5 232H239V200.197L227 182.197V161H270.5V175H304V103.298L322.54 75H437V77.5ZM425.618 511.5H418.355L401.394 548.914L336.639 540.637L344.159 490H339.634L333.648 531.406L276.141 525.405L263.353 618.5H304.5V645H308V638.039C332.655 638.944 351.933 637.22 367.004 631.946C382.33 626.584 393.276 617.56 401.094 603.999L401.113 603.966L401.13 603.931C408.839 587.797 412.881 565.256 417.849 535H423V530.5H416.118L425.618 511.5ZM422.382 513.5L412.882 532.5H421V533H416.151L416.013 533.838C410.969 564.588 406.962 587.066 399.342 603.034C391.772 616.148 381.217 624.854 366.343 630.059C351.412 635.283 332.1 636.989 307.039 636.001L306.5 635.98V616.5H265.647L277.859 527.595L335.352 533.594L341.366 492H341.84L334.361 542.363L402.606 551.086L419.645 513.5H422.382ZM360 435.5V424.04L286 421.04V297H267V288.5H255V297H96.4999V303.5H135.697L136.5 304.035V309.5H154.5V304.5H252V393.5H250.5V399H281.5V432.5H276V438.5H334.5V440.5H356V435.5H360ZM336.5 438.5V436.5H278V434.5H283.5V397H252.5V395.5H254V302.5H152.5V307.5H138.5V302.965L136.303 301.5H98.4999V299H257V290.5H265V299H284V422.96L358 425.96V433.5H354V438.5H336.5ZM260 438.5V432.5H231V438.5H238.5V463.571L228.6 473H219.56L208 485.611V505.928L219.599 517H239.848L252.5 506.984V438.5H260ZM258 436.5H250.5V506.016L239.152 515H220.401L210 505.072V486.389L220.44 475H229.4L240.5 464.429V436.5H233V434.5H258V436.5ZM258 623.5V615.5H251.5V623.5H258ZM256 621.5H253.5V617.5H256V621.5ZM199 243V203.5H77.9999V200.5H71.9999V208H48.4999V236H41.4999V243H199ZM197 241H43.4999V238H50.4999V210H73.9999V202.5H75.9999V205.5H197V241ZM113.5 74V65.5H104V74H113.5ZM111.5 72H106V67.5H111.5V72Z" fill="#454545"/>
<path fill-rule="evenodd" clip-rule="evenodd" d="M771 317L751 219L703 229L697.5 201L661.5 209L656.5 189L659 187L632 140.5C626.838 133.682 623.184 131.663 615 132L564.5 138L558.5 106.5C551.702 99.3693 547.744 96.826 540.5 94H508L502 74V18.5H449.5V1H410V23.5H311.5L274.5 47.5H230.5V122H165.5V73H161V66.5H165.5V41H53.4999V66.5H55.9999V70H15.4999V177.5H50.9999V185.5H15.4999V209H49.4999H72.9999V201.5H76.9999V204.5H198L238 200.5L226 182.5V160H271.5V174H303V103L322 74H438V78.5H437V111H426V154.75H424.5V159H421V203H426L426 226L484 364.5H479.5C479.164 363.791 478.83 363.087 478.5 362.388L446.579 377L461 411.943L477 422L532 371L561.5 401L518 451L464.5 475.5H459.5L440.5 467L434.5 481.5L430 479.5L419 512.5H424L414.5 531.5H422V534H417C411.96 564.725 407.933 587.373 400.227 603.5C386.445 627.406 362.849 636.95 322 637.26V673.5C417.791 670.772 443.993 639.307 457 546.5L453 541L561.5 488.5L574 479L635.5 402.5L626.5 351L670.5 340.5L681.5 382.5L736 367.5L728.5 326.5L771 317ZM305.5 673.5H307V666.5H305.5V673.5ZM252.5 622.5H257V616.5H252.5V622.5ZM616 299.5L658 290.5L636.5 198L593 209L616 299.5ZM515 118.5H536.5L538.5 123.5V141L522.5 143L553.5 241.5L507 260L500.5 244L526 234L495 147.5L520 139.5L515 118.5ZM577 371L540 357.5L539.5 359L537.5 358.5L535.5 345L516 283.5L559 264.5L580.5 333.5L577 371ZM471.5 159.5L492 217.5H486.5L469 163L453 157H432V154.75V152.5H453L471.5 159.5Z" fill="#1F2228"/>
<path d="M17.9999 237H15.4999V209H49.4999V237H42.4999V242H198V204.5L238 200.5V233H290.5L290.5 209L366 211V249.5H372.5V246.5H370L370 201H391V203H421L421 246.5H389.5V249.5H432C435.643 258.813 438.912 267.292 441.986 275.264L441.986 275.265C443.451 279.065 444.872 282.749 446.267 286.354C456.036 311.587 464.572 332.898 478.5 362.388L446.579 377L437.5 355V332H433V351H434.5V355L458.639 413L439.474 457.5L408.5 443.5L402 441.5H355V439.5V434.5H359V425L285 422V298H266V289.5H256V298H97.4999V302.5V335V414H0.999939V240H17.9999V237Z" fill="#1F2228" fill-opacity="0.5"/>
<path fill-rule="evenodd" clip-rule="evenodd" d="M751 219L771 317L728.5 326.5L736 367.5L681.5 382.5L670.5 340.5L626.5 351L635.5 402.5L574 479L561.5 488.5L453 541L457 546.5C443.993 639.307 417.791 670.772 322 673.5V637.26C362.849 636.95 386.445 627.406 400.227 603.5C407.933 587.373 411.96 564.725 417 534H422V531.5H414.5L424 512.5H419L430 479.5L434.5 481.5L440.5 467L459.5 475.5H464.5L518 451L561.5 401L532 371L477 422L461 411.943L459.5 411L458.639 413L434.5 355V351H433V332H437.5V355L446.579 377L478.5 362.388C478.83 363.087 479.164 363.791 479.5 364.5H484L426 226L426 203H421V159H424.5V154.75H426V111H437V78.5H438V74H322L303 103V174H271.5V160H226V182.5L238 200.5L198 204.5H76.9999V201.5H72.9999V209H49.4999H15.4999V185.5H50.9999V177.5H15.4999V70H55.9999V66.5H53.4999V41H165.5V66.5H161V73H165.5V122H230.5V47.5H274.5L311.5 23.5H410V1H449.5V18.5H502V74L508 94H540.5C547.744 96.826 551.702 99.3693 558.5 106.5L564.5 138L615 132C623.184 131.663 626.838 133.682 632 140.5L659 187L656.5 189L661.5 209L697.5 201L703 229L751 219ZM307 673.5H305.5V666.5H307V673.5ZM257 622.5H252.5V616.5H257V622.5ZM540 357.5L577 371L580.5 333.5L559 264.5L516 283.5L535.5 345L537.5 358.5L539.5 359L540 357.5ZM658 290.5L616 299.5L593 209L636.5 198L658 290.5ZM536.5 118.5H515L520 139.5L495 147.5L526 234L500.5 244L507 260L553.5 241.5L522.5 143L538.5 141V123.5L536.5 118.5ZM492 217.5L471.5 159.5L453 152.5H432V154.75V157H453L469 163L486.5 217.5H492Z" fill="#1F2228"/>
<path d="M466.5 43.5V18.5H452.5V43.5H466.5Z" fill="#373D4B"/>
<path d="M389.5 220.5V201.5H380.5V220.5H389.5Z" fill="#373D4B"/>
<path d="M339.5 220.5V210.5H321.5V220.5H339.5Z" fill="#373D4B"/>
<path d="M350.5 218.5V211.5H343.5V218.5H350.5Z" fill="#373D4B"/>
<path d="M428 251.5C426.067 251.5 424.5 253.067 424.5 255C424.5 256.933 426.067 258.5 428 258.5C429.933 258.5 431.5 256.933 431.5 255C431.5 253.067 429.933 251.5 428 251.5Z" fill="#373D4B"/>
<path d="M670.5 340.37L668.732 331.768L658.37 333.898L660.137 342.5L670.5 340.37Z" fill="#373D4B"/>
<path d="M649.5 345.37L647.732 336.768L637.37 338.898L639.137 347.5L649.5 345.37Z" fill="#373D4B"/>
<path d="M626.5 413.917L622.967 410.86L610.346 425.443L613.879 428.5L626.5 413.917Z" fill="#373D4B"/>
<path d="M602.5 443.685L598.967 440.628L580.087 462.443L583.62 465.5L602.5 443.685Z" fill="#373D4B"/>
<path d="M504.283 253.085L501.539 247.151L490.866 252.086L493.61 258.02L504.283 253.085Z" fill="#373D4B"/>
<path d="M467.239 157.541L469.51 151.411L458.483 147.327L456.213 153.458L467.239 157.541Z" fill="#373D4B"/>
<path d="M440.184 257.598L446.167 254.963L431.879 222.526L425.897 225.161L440.184 257.598Z" fill="#373D4B"/>
<path d="M426.472 225.224L433.003 225.5C433.707 198.937 435.163 184.109 439.535 157.776L433.003 157.5C429.132 183.944 427.747 198.77 426.472 225.224Z" fill="#373D4B"/>
<path d="M464.23 168.5L466.5 162.37L453.082 157.401L450.812 163.531L464.23 168.5Z" fill="#373D4B"/>
<path d="M626.5 346.37L624.732 337.768L614.37 339.898L616.137 348.5L626.5 346.37Z" fill="#373D4B"/>
<path d="M619.5 311.37L617.732 302.768L607.37 304.898L609.137 313.5L619.5 311.37Z" fill="#373D4B"/>
<path d="M660.5 299.37L658.732 290.768L648.37 292.898L650.137 301.5L660.5 299.37Z" fill="#373D4B"/>
<path d="M755.588 315.041L755.159 311.23L735.973 313.391L736.402 317.202L755.588 315.041Z" fill="#373D4B"/>
<path d="M605.5 183.339L605.152 180.246L590.855 181.856L591.204 184.949L605.5 183.339Z" fill="#373D4B"/>
<path d="M608.5 201.89L608.152 198.796L593.855 200.407L594.204 203.5L608.5 201.89Z" fill="#373D4B"/>
<path d="M398.5 368.5V347.5H352.5V368.5H398.5Z" fill="#373D4B"/>
<path d="M328.5 319.5V299.5L285.5 299.5V319.5L328.5 319.5Z" fill="#373D4B"/>
<path d="M314.5 328.5V308.5L285.5 308.5V328.5L314.5 328.5Z" fill="#373D4B"/>
<path d="M305.5 335.5V315.5L285.5 315.5V335.5H305.5Z" fill="#373D4B"/>
<path d="M303.5 422.5V406.5H285.5V422.5H303.5Z" fill="#373D4B"/>
<path d="M296.5 407.5V397.5H285.5V407.5H296.5Z" fill="#373D4B"/>
<path d="M304.5 528.5V510.5H294.5V528.5H304.5Z" fill="#373D4B"/>
<path d="M216.5 590.5V580.5H199.5V590.5H216.5Z" fill="#373D4B"/>
<path d="M190.5 578.5V569.5H156.5V578.5H190.5Z" fill="#373D4B"/>
<path d="M183.5 573.5V552.5H156.5V573.5H183.5Z" fill="#373D4B"/>
<path d="M183.5 534.5V513.5H174.5V534.5H183.5Z" fill="#373D4B"/>
<path d="M164.5 494.5V470.5H151.5V494.5H164.5Z" fill="#373D4B"/>
<path d="M178.5 433.5V405.5H169.5V433.5H178.5Z" fill="#373D4B"/>
<path d="M252.5 395.5V304.5H229.5V395.5H252.5Z" fill="#373D4B"/>
<path d="M229.5 395.5V373.5H199.5V395.5H229.5Z" fill="#373D4B"/>
<path d="M192.5 319.5V304.5H176.5V319.5H192.5Z" fill="#373D4B"/>
<path d="M62.4999 349.5V321.5H52.4999V349.5L62.4999 349.5Z" fill="#373D4B"/>
<path d="M92.4999 269.5V241.5H79.4999V269.5H92.4999Z" fill="#373D4B"/>
<path d="M116.5 203.5V183.5H99.4999V203.5H116.5Z" fill="#373D4B"/>
<path d="M182.5 203.5V192.5H155.5V203.5H182.5Z" fill="#373D4B"/>
<path d="M164.5 193.5V185.5H155.5V193.5H164.5Z" fill="#373D4B"/>
<path d="M164.5 129.5V104.5H155.5V129.5H164.5Z" fill="#373D4B"/>
<path d="M90.4999 154.5V144.5H76.4999V154.5H90.4999Z" fill="#373D4B"/>
<path d="M80.4999 75.5V65.5H64.4999V75.5H80.4999Z" fill="#373D4B"/>
<path d="M80.4999 80.5V70.5H74.4999V80.5H80.4999Z" fill="#373D4B"/>
<path d="M157.5 71.5V67.5H153.5V71.5H157.5Z" fill="#373D4B"/>
<path d="M48.4999 346.5V328.5H39.4999V346.5H48.4999Z" fill="#373D4B"/>
<path d="M167.5 309.5V304.5H155.5V309.5H167.5Z" fill="#373D4B"/>
<path d="M173.069 365.346L171.202 364.629L164.383 382.363L166.25 383.081L173.069 365.346Z" fill="#373D4B"/>
<path d="M121.5 121.5C117.082 121.5 113.5 125.082 113.5 129.5C113.5 133.918 117.082 137.5 121.5 137.5C125.918 137.5 129.5 133.918 129.5 129.5C129.5 125.082 125.918 121.5 121.5 121.5Z" fill="#373D4B"/>
<path d="M449.5 392.985L444.576 380.954L440.874 382.469L445.798 394.5L449.5 392.985Z" fill="#373D4B"/>
<path d="M442.5 375.985L440.888 372.045L437.185 373.56L438.798 377.5L442.5 375.985Z" fill="#373D4B"/>
<path d="M455.5 410.088L451.625 408.325L446.432 419.737L450.307 421.5L455.5 410.088Z" fill="#373D4B"/>
<path d="M448.5 425.474L444.625 423.711L442.338 428.737L446.213 430.5L448.5 425.474Z" fill="#373D4B"/>
<path d="M389.5 495.5L404.5 461.5H401.5H387.5L385.735 465.5L372.5 495.5H389.5Z" fill="#373D4B"/>
<path d="M413.5 443L404.5 461.5H401.5L410.5 443H413.5Z" fill="#373D4B"/>
<path d="M353 465.5V461.5H387.5L385.735 465.5H353Z" fill="#373D4B"/>
<path d="M302.5 113.5V99.5L288.5 99.5V113.5L302.5 113.5Z" fill="#373D4B"/>
<path d="M302.5 101.5V94.5H295.5V101.5H302.5Z" fill="#373D4B"/>
<path d="M257.5 81.5V57.5H249.5V81.5H257.5Z" fill="#373D4B"/>
<path d="M259.5 73.5V65.5H256.5V73.5H259.5Z" fill="#373D4B"/>
<path d="M259.5 63.5V57.5H257.5V63.5H259.5Z" fill="#373D4B"/>
<path d="M551.476 381.98C552.572 382.82 554.141 382.611 554.981 381.515C555.82 380.418 555.611 378.849 554.515 378.01L537.081 364.667C535.984 363.827 534.415 364.036 533.576 365.132C532.737 366.229 532.945 367.798 534.042 368.637L551.476 381.98Z" fill="url(#paint0_linear_92_142)"/>
<path d="M76.4999 200.5L76.4999 142.5H73.4999L73.4999 200.5H76.4999Z" fill="#454545"/>
<path d="M55.4999 145.5V90.5H52.4999V145.5H55.4999Z" fill="#454545"/>
<path d="M52.4999 383.5V272.5H48.4999V383.5H52.4999Z" fill="#454545"/>
<path d="M199.5 297.5V283.5H195.5V297.5H199.5Z" fill="#454545"/>
<path d="M195 242.915L194.848 256.914L198.756 256.914L199 242.958L195 242.915Z" fill="#454545"/>
<path d="M207.5 274.5L199.5 283.5H195.5L205 273L207.5 274.5Z" fill="#454545"/>
<path d="M184.941 266.66L194.903 256.884L198.745 256.884L187.903 268.268L184.941 266.66Z" fill="#454545"/>
<path d="M52.4999 145.5H76.4999V142.5H52.4999V145.5Z" fill="#454545"/>
<path d="M239.5 242.5V233.5H237.5V242.5H239.5Z" fill="#454545"/>
<path d="M438.5 111.5V109.5H406.5V111.5H438.5Z" fill="#454545"/>
<path d="M387.5 111.5V109.5H382.5V111.5H387.5Z" fill="#454545"/>
<path d="M449.5 113.5V109.5H445.5V113.5H449.5Z" fill="#454545"/>
<path d="M419.5 155.5V153.5H414.5V155.5H419.5Z" fill="#454545"/>
<path d="M400.5 155.5V153.5H395.5V155.5H400.5Z" fill="#454545"/>
<path d="M538.5 363.5V359.5H536.5V363.5H538.5Z" fill="#454545"/>
<path d="M533.875 369.731L532.875 368.731L531.875 369.731V371.731L533.875 369.731Z" fill="#454545"/>
<path d="M573.978 382.5L577.5 372.079L575.605 371.439L572.083 381.86L573.978 382.5Z" fill="#454545"/>
<path d="M562.5 401.286L569.246 392.597L567.666 391.371L560.92 400.06L562.5 401.286Z" fill="#454545"/>
<path d="M356.5 461.5V440.5H353V461.5H356.5Z" fill="#454545"/>
<path d="M264.5 617.5V615.5H233.5V617.5H264.5Z" fill="#454545"/>
<path d="M205.5 619.5V615.5H198.5V619.5H205.5Z" fill="#454545"/>
<path d="M397.5 443.5V440.5H356.5V443.5H397.5Z" fill="#282C34"/>
<path d="M420.5 206.5V203.5H393.5V206.5H420.5Z" fill="#282C34"/>
<path d="M419.5 134.5V131.5H396.5V134.5H419.5Z" fill="#282C34"/>
<path d="M237.5 230.5V227.5H198.5V230.5H237.5Z" fill="#282C34"/>
<path d="M48.4999 225.5V222.5H16.4999V225.5H48.4999Z" fill="#282C34"/>
<path d="M115.5 310.5H112.5V335.5H115.5V310.5Z" fill="#282C34"/>
<path d="M418.5 79.5H415.5V109.5H418.5V79.5Z" fill="#282C34"/>
<path d="M419.5 127.5V124.5H396.5V127.5H419.5Z" fill="#282C34"/>
<path d="M237.5 223.5V220.5H198.5V223.5H237.5Z" fill="#282C34"/>
<path d="M48.4999 218.5V215.5H16.4999V218.5H48.4999Z" fill="#282C34"/>
<path d="M108.5 310.5H105.5V335.5H108.5V310.5Z" fill="#282C34"/>
<path d="M237.5 216.5V213.5H198.5V216.5H237.5Z" fill="#282C34"/>
<path d="M237.5 203.5V200.5L209.5 204.5V206.5L237.5 203.5Z" fill="#282C34"/>
<path d="M234 195.5L233 192.5L209.5 200.5V201.5L234 195.5Z" fill="#282C34"/>
<path d="M229.714 189.637L228.552 187.394L211.548 196.71L211.679 197.5L229.714 189.637Z" fill="#282C34"/>
<path d="M48.4999 211.5L48.4999 208.5H16.4999L16.4999 211.5H48.4999Z" fill="#282C34"/>
<path d="M101.5 310.5H98.4999V335.5H101.5V310.5Z" fill="#282C34"/>
<path d="M411.5 79.5H408.5L408.5 109.5H411.5L411.5 79.5Z" fill="#282C34"/>
<path d="M472.591 351.689L471.324 348.969L440.525 363.31L441.791 366.03L472.591 351.689Z" fill="#282C34"/>
<path d="M433.017 471.001L434.131 468.215L408.283 457.876L407.169 460.662L433.017 471.001Z" fill="#282C34"/>
<path d="M469.5 344.16L468.234 341.44L437.434 355.78L438.7 358.5L469.5 344.16Z" fill="#282C34"/>
<path d="M436.386 463.591L437.5 460.806L411.474 450.396L410.36 453.181L436.386 463.591Z" fill="#282C34"/>
<path d="M397.5 450.5V447.5H356.5V450.5H397.5Z" fill="#282C34"/>
<path d="M420.5 213.5V210.5H393.5V213.5H420.5Z" fill="#282C34"/>
<path d="M419.5 141.5V138.5H396.5V141.5H419.5Z" fill="#282C34"/>
<path d="M237.5 237.5V234.5H198.5V237.5H237.5Z" fill="#282C34"/>
<path d="M48.4999 232.5V229.5H16.4999V232.5H48.4999Z" fill="#282C34"/>
<path d="M122.5 310.5H119.5V335.5H122.5V310.5Z" fill="#282C34"/>
<path d="M425.5 79.5H422.5V109.5H425.5V79.5Z" fill="#282C34"/>
<path d="M432.5 79.5H429.5V109.5H432.5V79.5Z" fill="#282C34"/>
<path d="M393.5 215.5V203.5H389.5V215.5H393.5Z" fill="#282C34"/>
<path d="M475.545 358.035L474.279 355.315L443.445 369.672L444.711 372.391L475.545 358.035Z" fill="#282C34"/>
<path d="M430.417 477.5L431.531 474.715L405.683 464.376L404.569 467.161L430.417 477.5Z" fill="#282C34"/>
<path d="M397.5 457.5V454.5H356.5V457.5H397.5Z" fill="#282C34"/>
<path d="M435.752 622.5L437.5 620.062L404.177 596.175L402.429 598.613L435.752 622.5Z" fill="#282C34"/>
<path d="M431.752 628.5L433.5 626.062L400.177 602.175L398.429 604.613L431.752 628.5Z" fill="#282C34"/>
<path d="M427.665 634.5L429.5 632.126L397.06 607.053L395.225 609.427L427.665 634.5Z" fill="#282C34"/>
<path d="M423.164 640.039L425.083 637.732L393.561 611.515L391.643 613.821L423.164 640.039Z" fill="#282C34"/>
<path d="M417.435 646.602L419.525 644.451L390.125 615.874L388.034 618.025L417.435 646.602Z" fill="#282C34"/>
<path d="M411.838 651.989L414.006 649.916L385.671 620.283L383.502 622.356L411.838 651.989Z" fill="#282C34"/>
<path d="M404.319 656.449L406.624 654.529L381.256 624.079L378.951 626L404.319 656.449Z" fill="#282C34"/>
<path d="M395.875 660.441L398.345 658.739L375.831 626.057L373.361 627.759L395.875 660.441Z" fill="#282C34"/>
<path d="M388.299 663.453L390.876 661.917L371.18 628.874L368.603 630.41L388.299 663.453Z" fill="#282C34"/>
<path d="M381.778 666.19L384.419 664.767L365.96 630.506L363.319 631.929L381.778 666.19Z" fill="#282C34"/>
<path d="M374.784 668.5L377.5 667.226L361.251 632.582L358.535 633.856L374.784 668.5Z" fill="#282C34"/>
<path d="M366.692 670.5L369.5 669.445L356.349 634.445L353.54 635.5L366.692 670.5Z" fill="#282C34"/>
<path d="M357.349 671.549L360.25 670.788L351.015 635.573L348.113 636.334L357.349 671.549Z" fill="#282C34"/>
<path d="M348.067 672.219L351.019 671.686L344.681 636.601L341.729 637.135L348.067 672.219Z" fill="#282C34"/>
<path d="M340.55 672.567L343.528 672.199L339.16 636.816L336.183 637.183L340.55 672.567Z" fill="#282C34"/>
<path d="M333.224 673.045L336.221 672.898L334.457 636.747L331.461 636.893L333.224 673.045Z" fill="#282C34"/>
<path d="M325.785 673.461L328.785 673.434L328.455 637.241L325.455 637.268L325.785 673.461Z" fill="#282C34"/>
<path d="M318.5 673.5L321.5 673.473L321.169 637.28L318.17 637.307L318.5 673.5Z" fill="#282C34"/>
<path d="M478.5 364.381L477.234 361.661L446.909 375.78L448.176 378.5L478.5 364.381Z" fill="#282C34"/>
<path d="M402.5 461.5L411.5 440.5H397.5L393.5 461.5H402.5Z" fill="#282C34"/>
<path fill-rule="evenodd" clip-rule="evenodd" d="M772.176 317.762L751.779 217.816L703.786 227.815L698.284 199.801L662.234 207.812L657.626 189.38L660.297 187.243L632.834 139.945L632.797 139.896C630.187 136.449 627.872 134.094 625.087 132.676C622.289 131.251 619.133 130.829 614.959 131.001L614.92 131.002L565.308 136.897L559.427 106.023L559.224 105.81C555.801 102.22 553.058 99.7464 550.233 97.8107C547.402 95.8715 544.525 94.4968 540.863 93.0684L540.688 93H508.744L503 73.8532V17.5H450.5V0H409V22.5H311.204L274.204 46.5H229.5V121H166.5V72H162V67.5H166.5V40H52.4999V67.5H54.9999V69H14.4999V178.5H49.9999V184.5H14.4999V238H16.9999V239H-6.10352e-05V415H98.4999V336H143.5V434.5H210.5V436.5H150.5V440H135V579.5H198V653.5H253.5V646H256V674.5H322.014L322.028 674.5C369.989 673.134 400.815 664.576 421.245 644.493C441.652 624.432 451.484 593.063 457.99 546.639L458.046 546.239L454.512 541.379L562.025 489.357L574.703 479.722L636.563 402.774L627.647 351.754L669.78 341.7L680.789 383.733L737.148 368.221L729.657 327.266L772.176 317.762ZM54.9999 71V74.5H64.9999V65.5H54.4999V42H164.5V65.5H160V74H164.5V123H231.5V48.5H274.796L311.796 24.5H411V2H448.5V19.5H501V74.1468L507.256 95H540.311C543.808 96.3721 546.487 97.6689 549.102 99.4607C551.713 101.249 554.295 103.554 557.573 106.977L563.692 139.103L615.08 132.998C619.069 132.837 621.822 133.258 624.18 134.458C626.547 135.664 628.631 137.714 631.166 141.055L657.703 186.757L655.374 188.62L660.766 210.187L696.716 202.199L702.214 230.185L750.221 220.184L769.824 316.238L727.343 325.734L734.851 366.779L682.211 381.267L671.219 339.3L625.353 350.246L634.437 402.226L573.297 478.278L560.974 487.643L451.488 540.621L455.953 546.761C449.453 592.921 439.679 623.567 419.843 643.066C399.974 662.598 369.808 671.136 321.986 672.5H308V665.5H304.5V672.5H258V644H251.5V651.5H200V577.5H137V442H152.5V438.5H212.5V432.5H145.5V334H96.4999V413H1.99994V241H18.9999V236H16.4999V186.5H51.9999V176.5H16.4999V71H54.9999ZM56.9999 67.5H62.9999V72.5H56.9999V67.5ZM659.204 291.265L637.243 196.781L591.784 208.276L615.268 300.68L659.204 291.265ZM656.796 289.735L616.732 298.32L594.216 209.724L635.757 199.219L656.796 289.735ZM581.514 333.394L559.621 263.132L514.776 282.948L534.522 345.226L536.609 359.308L540.156 360.195L540.623 358.792L577.875 372.384L581.514 333.394ZM576.125 369.616L539.376 356.208L538.844 357.805L538.391 357.692L536.477 344.774L517.224 284.052L558.379 265.868L579.486 333.606L576.125 369.616ZM562.862 400.958L532.032 369.606L476.883 420.745L461.802 411.266L438.5 354.802V331H432V352H433.5V355.2L457.553 412.993L428.69 480.012L435.032 482.831L441.031 468.333L459.286 476.5H464.718L518.613 451.819L562.862 400.958ZM458.654 410.435L435.5 354.8V350H434V333H436.5V355.198L458.982 409.674L458.654 410.435ZM459.956 412.468L477.117 423.255L531.968 372.394L560.138 401.042L517.387 450.181L464.282 474.5H459.713L439.969 465.667L433.968 480.169L431.309 478.988L459.956 412.468ZM554.733 242.086L523.814 143.844L539.5 141.883V123.307L537.177 117.5H513.734L518.812 138.83L493.709 146.863L524.731 233.423L499.193 243.439L506.447 261.296L554.733 242.086ZM552.267 240.914L507.553 258.704L501.807 244.561L527.269 234.577L496.29 148.137L521.187 140.17L516.266 119.5H535.823L537.5 123.693V140.117L521.186 142.156L552.267 240.914ZM493.414 218.5L472.288 158.729L453.183 151.5H431V153.75H427V110H418.489L419.01 160H425.5V155.75H431V158H452.819L468.196 163.766L485.771 218.5H493.414ZM425 153.75H423.5V158H420.99L420.51 112H425V153.75ZM490.586 216.5H487.229L469.804 162.234L453.181 156H433V153.5H452.817L470.712 160.271L490.586 216.5ZM485.503 365.5L427 225.799L427 202H420L420 245.5H388.5V250.5H431.317C434.857 259.555 438.046 267.824 441.048 275.612C453.015 306.65 462.028 330.03 478.597 364.929L478.868 365.5H485.503ZM482.497 363.5H480.132C463.771 328.989 454.82 305.772 442.923 274.916C439.849 266.941 436.578 258.457 432.931 249.136L432.683 248.5H390.5V247.5H422L422 204H425L425 226.201L482.497 363.5ZM439 79.5V73H321.46L302 102.702V173H272.5V159H225V182.803L237 200.803V234H291.5L291.5 210.027L365 211.974V250.5H373.5V245.5H371L371 202H392V155.75H396.5V122.5H383.5V79.5H439ZM437 77.5H381.5V124.5H394.5V153.75H390V200H369L369 247.5H371.5V248.5H367L367 210.026L289.5 207.973L289.5 232H239V200.197L227 182.197V161H270.5V175H304V103.298L322.54 75H437V77.5ZM425.618 511.5H418.355L401.394 548.914L336.639 540.637L344.159 490H339.634L333.648 531.406L276.141 525.405L263.353 618.5H304.5V645H308V638.039C332.655 638.944 351.933 637.22 367.004 631.946C382.33 626.584 393.276 617.56 401.094 603.999L401.113 603.966L401.13 603.931C408.839 587.797 412.881 565.256 417.849 535H423V530.5H416.118L425.618 511.5ZM422.382 513.5L412.882 532.5H421V533H416.151L416.013 533.838C410.969 564.588 406.962 587.066 399.342 603.034C391.772 616.148 381.217 624.854 366.343 630.059C351.412 635.283 332.1 636.989 307.039 636.001L306.5 635.98V616.5H265.647L277.859 527.595L335.352 533.594L341.366 492H341.84L334.361 542.363L402.606 551.086L419.645 513.5H422.382ZM360 435.5V424.04L286 421.04V297H267V288.5H255V297H96.4999V303.5H135.697L136.5 304.035V309.5H154.5V304.5H252V393.5H250.5V399H281.5V432.5H276V438.5H334.5V440.5H356V435.5H360ZM336.5 438.5V436.5H278V434.5H283.5V397H252.5V395.5H254V302.5H152.5V307.5H138.5V302.965L136.303 301.5H98.4999V299H257V290.5H265V299H284V422.96L358 425.96V433.5H354V438.5H336.5ZM260 438.5V432.5H231V438.5H238.5V463.571L228.6 473H219.56L208 485.611V505.928L219.599 517H239.848L252.5 506.984V438.5H260ZM258 436.5H250.5V506.016L239.152 515H220.401L210 505.072V486.389L220.44 475H229.4L240.5 464.429V436.5H233V434.5H258V436.5ZM258 623.5V615.5H251.5V623.5H258ZM256 621.5H253.5V617.5H256V621.5ZM199 243V203.5H77.9999V200.5H71.9999V208H48.4999V236H41.4999V243H199ZM197 241H43.4999V238H50.4999V210H73.9999V202.5H75.9999V205.5H197V241ZM113.5 74V65.5H104V74H113.5ZM111.5 72H106V67.5H111.5V72Z" fill="#454545"/>
<path d="M419.5 168V165L401.5 183.5V186.5L419.5 168Z" fill="#D9D9D9" fill-opacity="0.1"/>
<path d="M419.5 159V156L401.5 174.5V177.5L419.5 159Z" fill="#D9D9D9" fill-opacity="0.1"/>
<path d="M401.5 164.5V167.5L413.5 155.167H410.581L401.5 164.5Z" fill="#D9D9D9" fill-opacity="0.1"/>
<path d="M419.5 196.167V193.167L410 202.5H412.919L419.5 196.167Z" fill="#D9D9D9" fill-opacity="0.1"/>
<path d="M419.5 177V174L401.5 192.5V195.5L419.5 177Z" fill="#D9D9D9" fill-opacity="0.1"/>
<path d="M419.5 186V183L401.5 201.5V202.5H403.446L419.5 186Z" fill="#D9D9D9" fill-opacity="0.1"/>
<path d="M426.783 482.505L391.867 498.757L390.286 497.707L390.663 496.893L425.867 480.507L427.5 480.959L426.783 482.505Z" fill="#D9D9D9" fill-opacity="0.1"/>
<path d="M394.967 487.618L393.532 490.709L420.867 477.986L417.699 477.036L394.967 487.618Z" fill="#D9D9D9" fill-opacity="0.1"/>
<path d="M399.269 478.342L397.835 481.434L411.867 474.902L408.867 473.874L399.269 478.342Z" fill="#D9D9D9" fill-opacity="0.1"/>
<path d="M422.48 491.781L423.914 488.689L396.867 501.279L400.338 502.087L422.48 491.781Z" fill="#D9D9D9" fill-opacity="0.1"/>
<path d="M417.699 502.087L419.133 498.995L406.615 504.822L410.367 505.5L417.699 502.087Z" fill="#D9D9D9" fill-opacity="0.1"/>
<path d="M377.321 470.583L352.262 488.919L350.846 488.337L351.017 487.634L376.283 469.147L377.646 469.248L377.321 470.583Z" fill="#D9D9D9" fill-opacity="0.1"/>
<path d="M352.963 479.623L352.315 482.293L371.933 467.938L369.278 467.685L352.963 479.623Z" fill="#D9D9D9" fill-opacity="0.1"/>
<path d="M354.909 471.612L354.26 474.282L364.331 466.913L361.798 466.571L354.909 471.612Z" fill="#D9D9D9" fill-opacity="0.1"/>
<path d="M375.375 478.594L376.024 475.924L356.612 490.128L359.483 490.222L375.375 478.594Z" fill="#D9D9D9" fill-opacity="0.1"/>
<path d="M373.213 487.496L373.862 484.825L364.877 491.399L367.951 491.346L373.213 487.496Z" fill="#D9D9D9" fill-opacity="0.1"/>
<path d="M705.972 287.492V272.42H700.524V270.524H713.508V272.42H708.06V287.492H705.972Z" fill="#FF6B00"/>
<path d="M39.988 338.868H37.9V321.9H39.988V329.724H42.508L48.028 321.9H50.428L44.332 330.324L50.476 338.868H48.004L42.676 331.62H39.988V338.868Z" fill="#0085FF"/>
<path d="M58.684 338.868H56.596V323.796H51.148V321.9H64.132V323.796H58.684V338.868Z" fill="#0085FF"/>
<path d="M163.5 533.5H237.5V450.5H163.5V533.5Z" fill="#7000FF" fill-opacity="0.2"/>
<path fill-rule="evenodd" clip-rule="evenodd" d="M235.5 531.5H165.5V452.5H235.5V531.5ZM163.5 533.5V450.5H237.5V533.5H163.5Z" fill="white" fill-opacity="0.08"/>
<path d="M208.501 502.499V481.967H199.395C198.448 481.967 197.578 482.064 196.785 482.257C195.973 482.45 195.267 482.798 194.668 483.301C194.185 483.688 193.779 484.2 193.45 484.838C193.102 485.457 192.928 486.211 192.928 487.1C192.909 488.047 193.083 488.888 193.45 489.623C193.798 490.358 194.397 490.976 195.248 491.479C194.649 491.653 194.136 491.914 193.711 492.262C193.286 492.61 192.947 493.016 192.696 493.48C192.425 493.944 192.232 494.447 192.116 494.988C192 495.529 191.952 496.09 191.971 496.67C192.01 497.598 192.261 498.458 192.725 499.251C193.17 500.024 193.759 500.653 194.494 501.136C195.364 501.735 196.321 502.112 197.365 502.267C198.409 502.422 199.443 502.499 200.468 502.499H208.501ZM200.584 490.29C200.159 490.29 199.733 490.271 199.308 490.232C198.883 490.174 198.486 490.039 198.119 489.826C197.81 489.633 197.549 489.372 197.336 489.043C197.123 488.714 197.007 488.328 196.988 487.883C196.969 487.419 197.046 487.042 197.22 486.752C197.394 486.462 197.607 486.24 197.858 486.085C198.167 485.892 198.525 485.785 198.931 485.766C199.337 485.727 199.753 485.708 200.178 485.708H204.296V490.29H200.584ZM204.296 498.787H200.468C199.907 498.787 199.318 498.758 198.699 498.7C198.061 498.623 197.52 498.42 197.075 498.091C196.804 497.878 196.582 497.617 196.408 497.308C196.234 496.979 196.147 496.573 196.147 496.09C196.147 495.645 196.244 495.268 196.437 494.959C196.63 494.65 196.872 494.418 197.162 494.263C197.491 494.05 197.868 493.925 198.293 493.886C198.699 493.847 199.124 493.828 199.569 493.828L204.296 493.857V498.787Z" fill="white"/>
<path d="M80.4998 153.5H164.5V77.4998L80.4998 77.4998L80.4998 153.5Z" fill="#7000FF" fill-opacity="0.2"/>
<path fill-rule="evenodd" clip-rule="evenodd" d="M162.5 151.5H82.4998L82.4998 79.4998L162.5 79.4998V151.5ZM80.4998 153.5L80.4998 77.4998L164.5 77.4998V153.5H80.4998Z" fill="white" fill-opacity="0.08"/>
<path d="M118.029 121.585L116.55 125.5H111.968L119.914 104.968H124.67L132.5 125.5H127.889L126.468 121.585H118.029ZM119.247 117.873H125.221L122.263 109.434L119.247 117.873Z" fill="white"/>
<defs>
<linearGradient id="paint0_linear_92_142" x1="534" y1="365.5" x2="564.5" y2="388" gradientUnits="userSpaceOnUse">
<stop stop-color="#373D4B"/>
<stop offset="1" stop-color="#373D4B" stop-opacity="0"/>
</linearGradient>
</defs>
</svg>
