<svg width="773" height="675" viewBox="0 0 773 675" fill="none" xmlns="http://www.w3.org/2000/svg">
<path fill-rule="evenodd" clip-rule="evenodd" d="M1.17603 317L21.176 219L69.176 229L74.676 201L110.676 209L115.676 189L113.176 187L140.176 140.5C145.338 133.682 148.992 131.663 157.176 132L207.676 138L213.676 106.5C220.474 99.3693 224.432 96.826 231.676 94H264.176L270.176 74V18.5H322.676V1H362.176V23.5H460.676L497.676 47.5H541.676V122H606.676V73H611.176V66.5H606.676V41H718.676V66.5H716.176V70H756.676V177.5H721.176V185.5H756.676V237H754.176V240H771.176V414H674.676V335H627.676V433.5H560.676V437.5H620.676V441H636.176V578.5H573.176V652.5H519.676V645H515.176V673.5H466.676H465.176H450.176C354.385 670.772 328.183 639.307 315.176 546.5L319.176 541L210.676 488.5L198.176 479L136.676 402.5L145.676 351L101.676 340.5L90.676 382.5L36.176 367.5L43.676 326.5L1.17603 317ZM376.676 123.5V154.75H381.176V201H402.176L402.176 246.5H399.676V249.5H406.176V211L481.676 209L481.676 233H534.176V200.5L546.176 182.5V160H500.676V174H469.176V103L450.176 74H334.176V78.5H389.676V123.5H376.676ZM729.676 242H574.176V204.5H695.176V201.5H699.176V209H722.676V237H729.676V242ZM413.176 425V434.5H417.176V439.5H436.676V437.5H495.176V433.5H489.676V398H520.676V394.5H519.176V303.5H618.676V308.5H634.676V303.5L636.176 302.5H674.676V298H516.176V289.5H506.176V298H487.176V422L413.176 425ZM513.176 433.5H540.176V437.5H532.676V464L543.176 474H552.176L563.176 486V505.5L552.176 516H532.676L520.676 506.5V437.5H513.176V433.5ZM348.176 512.5L357.676 531.5H350.176V534H355.176C360.216 564.725 364.243 587.373 371.949 603.5C387.337 630.193 414.961 638.98 465.176 637V644H466.676V617.5H507.676L495.176 526.5L437.676 532.5L431.676 491H429.176L436.676 541.5L370.176 550L353.176 512.5H348.176ZM337.676 481.5L331.676 467L312.676 475.5H307.676L254.176 451L210.676 401L240.176 371L295.176 422L311.176 411.943L312.676 411L313.537 413L342.176 479.5L337.676 481.5ZM232.176 357.5L195.176 371L191.676 333.5L213.176 264.5L256.176 283.5L236.676 345L234.676 358.5L232.676 359L232.176 357.5ZM235.676 118.5H257.176L252.176 139.5L277.176 147.5L246.176 234L271.676 244L265.176 260L218.676 241.5L249.676 143L233.676 141V123.5L235.676 118.5ZM114.176 290.5L156.176 299.5L179.176 209L135.676 198L114.176 290.5ZM280.176 217.5L300.676 159.5L319.176 152.5H340.176V154.75V157H319.176L303.176 163L285.676 217.5H280.176ZM347.676 154.75V159H352.176L352.676 111H346.176V154.75H347.676ZM346.176 226L288.176 364.5H292.676C309.227 329.637 318.226 306.296 330.19 275.264C333.264 267.292 336.533 258.813 340.176 249.5H382.676V246.5H351.176L351.176 203H346.176L346.176 226Z" fill="#22262F"/>
<path fill-rule="evenodd" clip-rule="evenodd" d="M0 317.762L20.3971 217.816L68.3898 227.815L73.8924 199.801L109.942 207.812L114.55 189.38L111.879 187.243L139.342 139.945L139.379 139.896C141.989 136.449 144.304 134.094 147.089 132.676C149.887 131.251 153.043 130.829 157.217 131.001L157.256 131.002L206.868 136.897L212.749 106.023L212.952 105.81C216.375 102.22 219.118 99.7464 221.943 97.8107C224.774 95.8715 227.651 94.4968 231.313 93.0684L231.488 93H263.432L269.176 73.8532V17.5H321.676V0H363.176V22.5H460.972L497.972 46.5H542.676V121H605.676V72H610.176V67.5H605.676V40H719.676V67.5H717.176V69H757.676V178.5H722.176V184.5H757.676V238H755.176V239H772.176V415H673.676V336H628.676V434.5H561.676V436.5H621.676V440H637.176V579.5H574.176V653.5H518.676V646H516.176V674.5H450.162L450.148 674.5C402.187 673.134 371.361 664.576 350.931 644.493C330.525 624.432 320.692 593.063 314.186 546.639L314.13 546.239L317.664 541.379L210.151 489.357L197.473 479.722L135.613 402.774L144.529 351.754L102.396 341.7L91.3869 383.733L35.0276 368.221L42.5193 327.266L0 317.762ZM717.176 71V74.5H707.176V65.5H717.676V42H607.676V65.5H612.176V74H607.676V123H540.676V48.5H497.38L460.38 24.5H361.176V2H323.676V19.5H271.176V74.1468L264.92 95H231.865C228.368 96.3721 225.689 97.6689 223.074 99.4607C220.463 101.249 217.881 103.554 214.603 106.977L208.484 139.103L157.096 132.998C153.107 132.837 150.354 133.258 147.996 134.458C145.629 135.664 143.545 137.714 141.01 141.055L114.473 186.757L116.802 188.62L111.41 210.187L75.4598 202.199L69.9624 230.185L21.9551 220.184L2.35216 316.238L44.8328 325.734L37.3246 366.779L89.9652 381.267L100.957 339.3L146.823 350.246L137.739 402.226L198.879 478.278L211.202 487.643L320.688 540.621L316.223 546.761C322.723 592.921 332.497 623.567 352.333 643.066C372.202 662.598 402.368 671.136 450.19 672.5H464.176V665.5H467.676V672.5H514.176V644H520.676V651.5H572.176V577.5H635.176V442H619.676V438.5H559.676V432.5H626.676V334H675.676V413H770.176V241H753.176V236H755.676V186.5H720.176V176.5H755.676V71H717.176ZM715.176 67.5H709.176V72.5H715.176V67.5ZM112.972 291.265L134.933 196.781L180.392 208.276L156.908 300.68L112.972 291.265ZM115.38 289.735L155.444 298.32L177.96 209.724L136.419 199.219L115.38 289.735ZM190.662 333.394L212.555 263.132L257.4 282.948L237.654 345.226L235.567 359.308L232.02 360.195L231.553 358.792L194.301 372.384L190.662 333.394ZM196.051 369.616L232.8 356.208L233.332 357.805L233.785 357.692L235.699 344.774L254.952 284.052L213.797 265.868L192.69 333.606L196.051 369.616ZM209.314 400.958L240.144 369.606L295.293 420.745L310.374 411.266L333.676 354.802V331H340.176V352H338.676V355.2L314.623 412.993L343.486 480.012L337.144 482.831L331.145 468.333L312.89 476.5H307.458L253.563 451.819L209.314 400.958ZM313.522 410.435L336.676 354.8V350H338.176V333H335.676V355.198L313.194 409.674L313.522 410.435ZM312.22 412.468L295.059 423.255L240.208 372.394L212.038 401.042L254.789 450.181L307.894 474.5H312.463L332.207 465.667L338.208 480.169L340.867 478.988L312.22 412.468ZM217.443 242.086L248.362 143.844L232.676 141.883V123.307L234.999 117.5H258.442L253.364 138.83L278.467 146.863L247.445 233.423L272.984 243.439L265.729 261.296L217.443 242.086ZM219.909 240.914L264.623 258.704L270.369 244.561L244.907 234.577L275.886 148.137L250.989 140.17L255.91 119.5H236.353L234.676 123.693V140.117L250.99 142.156L219.909 240.914ZM278.762 218.5L299.888 158.729L318.993 151.5H341.176V153.75H345.176V110H353.687L353.166 160H346.676V155.75H341.176V158H319.357L303.98 163.766L286.405 218.5H278.762ZM347.176 153.75H348.676V158H351.186L351.666 112H347.176V153.75ZM281.59 216.5H284.947L302.372 162.234L318.995 156H339.176V153.5H319.359L301.464 160.271L281.59 216.5ZM286.673 365.5L345.176 225.799L345.176 202H352.176L352.176 245.5H383.676V250.5H340.859C337.318 259.557 334.129 267.827 331.127 275.614L331.123 275.624L331.121 275.63C319.157 306.662 310.147 330.032 293.579 364.929L293.308 365.5H286.673ZM289.679 363.5H292.044C308.405 328.989 317.36 305.763 329.257 274.904C332.331 266.932 335.601 258.451 339.245 249.136L339.493 248.5H381.676V247.5H350.176L350.176 204H347.176L347.176 226.201L289.679 363.5ZM333.176 79.5V73H450.716L470.176 102.702V173H499.676V159H547.176V182.803L535.176 200.803V234H480.676L480.676 210.027L407.176 211.974V250.5H398.676V245.5H401.176L401.176 202H380.176V155.75H375.676V122.5H388.676V79.5H333.176ZM335.176 77.5H390.676V124.5H377.676V153.75H382.176V200H403.176L403.176 247.5H400.676V248.5H405.176L405.176 210.026L482.676 207.973L482.676 232H533.176V200.197L545.176 182.197V161H501.676V175H468.176V103.298L449.636 75H335.176V77.5ZM346.558 511.5H353.821L370.782 548.914L435.537 540.637L428.017 490H432.542L438.528 531.406L496.035 525.405L508.823 618.5H467.676V645H464.176V638.039C439.521 638.944 420.243 637.22 405.172 631.946C389.846 626.584 378.9 617.56 371.082 603.999L371.063 603.966L371.046 603.931C363.337 587.797 359.295 565.256 354.327 535H349.176V530.5H356.058L346.558 511.5ZM349.794 513.5L359.294 532.5H351.176V533H356.025L356.163 533.838C361.207 564.588 365.214 587.066 372.834 603.034C380.404 616.148 390.959 624.854 405.833 630.059C420.764 635.283 440.076 636.989 465.137 636.001L465.676 635.98V616.5H506.529L494.317 527.595L436.824 533.594L430.81 492H430.336L437.815 542.363L369.57 551.086L352.531 513.5H349.794ZM412.176 435.5V424.04L486.176 421.04V297H505.176V288.5H517.176V297H675.676V303.5H636.479L635.676 304.035V309.5H617.676V304.5H520.176V393.5H521.676V399H490.676V432.5H496.176V438.5H437.676V440.5H416.176V435.5H412.176ZM435.676 438.5V436.5H494.176V434.5H488.676V397H519.676V395.5H518.176V302.5H619.676V307.5H633.676V302.965L635.873 301.5H673.676V299H515.176V290.5H507.176V299H488.176V422.96L414.176 425.96V433.5H418.176V438.5H435.676ZM512.176 438.5V432.5H541.176V438.5H533.676V463.571L543.576 473H552.616L564.176 485.611V505.928L552.577 517H532.328L519.676 506.984V438.5H512.176ZM514.176 436.5H521.676V506.016L533.024 515H551.775L562.176 505.072V486.389L551.736 475H542.776L531.676 464.429V436.5H539.176V434.5H514.176V436.5ZM514.176 623.5V615.5H520.676V623.5H514.176ZM516.176 621.5H518.676V617.5H516.176V621.5ZM573.176 243V203.5H694.176V200.5H700.176V208H723.676V236H730.676V243H573.176ZM575.176 241H728.676V238H721.676V210H698.176V202.5H696.176V205.5H575.176V241ZM658.676 74V65.5H668.176V74H658.676ZM660.676 72H666.176V67.5H660.676V72Z" fill="#454545"/>
<path fill-rule="evenodd" clip-rule="evenodd" d="M1.17603 317L21.176 219L69.176 229L74.676 201L110.676 209L115.676 189L113.176 187L140.176 140.5C145.338 133.682 148.992 131.663 157.176 132L207.676 138L213.676 106.5C220.474 99.3693 224.432 96.826 231.676 94H264.176L270.176 74V18.5H322.676V1H362.176V23.5H460.676L497.676 47.5H541.676V122H606.676V73H611.176V66.5H606.676V41H718.676V66.5H716.176V70H756.676V177.5H721.176V185.5H756.676V209H722.676H699.176V201.5H695.176V204.5H574.176L534.176 200.5L546.176 182.5V160H500.676V174H469.176V103L450.176 74H334.176V78.5H335.176V111H346.176V154.75H347.676V159H351.176V203H346.176L346.176 226L288.176 364.5H292.676C293.012 363.791 293.346 363.087 293.676 362.388L325.597 377L311.176 411.943L295.176 422L240.176 371L210.676 401L254.176 451L307.676 475.5H312.676L331.676 467L337.676 481.5L342.176 479.5L353.176 512.5H348.176L357.676 531.5H350.176V534H355.176C360.216 564.725 364.243 587.373 371.949 603.5C385.731 627.406 409.327 636.95 450.176 637.26V673.5C354.385 670.772 328.183 639.307 315.176 546.5L319.176 541L210.676 488.5L198.176 479L136.676 402.5L145.676 351L101.676 340.5L90.676 382.5L36.176 367.5L43.676 326.5L1.17603 317ZM466.676 673.5H465.176V666.5H466.676V673.5ZM519.676 622.5H515.176V616.5H519.676V622.5ZM156.176 299.5L114.176 290.5L135.676 198L179.176 209L156.176 299.5ZM257.176 118.5H235.676L233.676 123.5V141L249.676 143L218.676 241.5L265.176 260L271.676 244L246.176 234L277.176 147.5L252.176 139.5L257.176 118.5ZM195.176 371L232.176 357.5L232.676 359L234.676 358.5L236.676 345L256.176 283.5L213.176 264.5L191.676 333.5L195.176 371ZM300.676 159.5L280.176 217.5H285.676L303.176 163L319.176 157H340.176V154.75V152.5H319.176L300.676 159.5Z" fill="#1F2228"/>
<path d="M754.176 237H756.676V209H722.676V237H729.676V242H574.176V204.5L534.176 200.5V233H481.676L481.676 209L406.176 211V249.5H399.676V246.5H402.176L402.176 201H381.176V203H351.176L351.176 246.5H382.676V249.5H340.176C336.533 258.813 333.264 267.292 330.19 275.264L330.19 275.265C328.725 279.065 327.304 282.749 325.909 286.354C316.14 311.587 307.604 332.898 293.676 362.388L325.597 377L334.676 355V332H339.176V351H337.676V355L313.537 413L332.702 457.5L363.676 443.5L370.176 441.5H417.176V439.5V434.5H413.176V425L487.176 422V298H506.176V289.5H516.176V298H674.676V302.5V335V414H771.176V240H754.176V237Z" fill="#1F2228" fill-opacity="0.5"/>
<path fill-rule="evenodd" clip-rule="evenodd" d="M21.176 219L1.17603 317L43.676 326.5L36.176 367.5L90.676 382.5L101.676 340.5L145.676 351L136.676 402.5L198.176 479L210.676 488.5L319.176 541L315.176 546.5C328.183 639.307 354.385 670.772 450.176 673.5V637.26C409.327 636.95 385.731 627.406 371.949 603.5C364.243 587.373 360.216 564.725 355.176 534H350.176V531.5H357.676L348.176 512.5H353.176L342.176 479.5L337.676 481.5L331.676 467L312.676 475.5H307.676L254.176 451L210.676 401L240.176 371L295.176 422L311.176 411.943L312.676 411L313.537 413L337.676 355V351H339.176V332H334.676V355L325.597 377L293.676 362.388C293.346 363.087 293.012 363.791 292.676 364.5H288.176L346.176 226L346.176 203H351.176V159H347.676V154.75H346.176V111H335.176V78.5H334.176V74H450.176L469.176 103V174H500.676V160H546.176V182.5L534.176 200.5L574.176 204.5H695.176V201.5H699.176V209H722.676H756.676V185.5H721.176V177.5H756.676V70H716.176V66.5H718.676V41H606.676V66.5H611.176V73H606.676V122H541.676V47.5H497.676L460.676 23.5H362.176V1H322.676V18.5H270.176V74L264.176 94H231.676C224.432 96.826 220.474 99.3693 213.676 106.5L207.676 138L157.176 132C148.992 131.663 145.338 133.682 140.176 140.5L113.176 187L115.676 189L110.676 209L74.676 201L69.176 229L21.176 219ZM465.176 673.5H466.676V666.5H465.176V673.5ZM515.176 622.5H519.676V616.5H515.176V622.5ZM232.176 357.5L195.176 371L191.676 333.5L213.176 264.5L256.176 283.5L236.676 345L234.676 358.5L232.676 359L232.176 357.5ZM114.176 290.5L156.176 299.5L179.176 209L135.676 198L114.176 290.5ZM235.676 118.5H257.176L252.176 139.5L277.176 147.5L246.176 234L271.676 244L265.176 260L218.676 241.5L249.676 143L233.676 141V123.5L235.676 118.5ZM280.176 217.5L300.676 159.5L319.176 152.5H340.176V154.75V157H319.176L303.176 163L285.676 217.5H280.176Z" fill="#1F2228"/>
<path d="M305.676 43.5V18.5H319.676V43.5H305.676Z" fill="#373D4B"/>
<path d="M382.676 220.5V201.5H391.676V220.5H382.676Z" fill="#373D4B"/>
<path d="M432.676 220.5V210.5H450.676V220.5H432.676Z" fill="#373D4B"/>
<path d="M421.676 218.5V211.5H428.676V218.5H421.676Z" fill="#373D4B"/>
<path d="M344.176 251.5C346.109 251.5 347.676 253.067 347.676 255C347.676 256.933 346.109 258.5 344.176 258.5C342.243 258.5 340.676 256.933 340.676 255C340.676 253.067 342.243 251.5 344.176 251.5Z" fill="#373D4B"/>
<path d="M101.676 340.37L103.444 331.768L113.806 333.898L112.039 342.5L101.676 340.37Z" fill="#373D4B"/>
<path d="M122.676 345.37L124.444 336.768L134.806 338.898L133.039 347.5L122.676 345.37Z" fill="#373D4B"/>
<path d="M145.676 413.917L149.209 410.86L161.829 425.443L158.297 428.5L145.676 413.917Z" fill="#373D4B"/>
<path d="M169.676 443.685L173.209 440.628L192.089 462.443L188.556 465.5L169.676 443.685Z" fill="#373D4B"/>
<path d="M267.893 253.085L270.637 247.151L281.31 252.086L278.566 258.02L267.893 253.085Z" fill="#373D4B"/>
<path d="M304.937 157.541L302.666 151.411L313.693 147.327L315.963 153.458L304.937 157.541Z" fill="#373D4B"/>
<path d="M331.992 257.598L326.009 254.963L340.297 222.526L346.279 225.161L331.992 257.598Z" fill="#373D4B"/>
<path d="M345.704 225.224L339.173 225.5C338.468 198.937 337.013 184.109 332.641 157.776L339.173 157.5C343.044 183.944 344.429 198.77 345.704 225.224Z" fill="#373D4B"/>
<path d="M307.946 168.5L305.676 162.37L319.094 157.401L321.364 163.531L307.946 168.5Z" fill="#373D4B"/>
<path d="M145.676 346.37L147.444 337.768L157.806 339.898L156.039 348.5L145.676 346.37Z" fill="#373D4B"/>
<path d="M152.676 311.37L154.444 302.768L164.806 304.898L163.039 313.5L152.676 311.37Z" fill="#373D4B"/>
<path d="M111.676 299.37L113.444 290.768L123.806 292.898L122.039 301.5L111.676 299.37Z" fill="#373D4B"/>
<path d="M16.5881 315.041L17.0174 311.23L36.2029 313.391L35.7736 317.202L16.5881 315.041Z" fill="#373D4B"/>
<path d="M166.676 183.339L167.024 180.246L181.321 181.856L180.972 184.949L166.676 183.339Z" fill="#373D4B"/>
<path d="M163.676 201.89L164.024 198.796L178.321 200.407L177.972 203.5L163.676 201.89Z" fill="#373D4B"/>
<path d="M373.676 368.5V347.5H419.676V368.5H373.676Z" fill="#373D4B"/>
<path d="M443.676 319.5V299.5L486.676 299.5V319.5L443.676 319.5Z" fill="#373D4B"/>
<path d="M457.676 328.5V308.5L486.676 308.5V328.5L457.676 328.5Z" fill="#373D4B"/>
<path d="M466.676 335.5V315.5L486.676 315.5V335.5H466.676Z" fill="#373D4B"/>
<path d="M468.676 422.5V406.5H486.676V422.5H468.676Z" fill="#373D4B"/>
<path d="M475.676 407.5V397.5H486.676V407.5H475.676Z" fill="#373D4B"/>
<path d="M467.676 528.5V510.5H477.676V528.5H467.676Z" fill="#373D4B"/>
<path d="M555.676 590.5V580.5H572.676V590.5H555.676Z" fill="#373D4B"/>
<path d="M581.676 578.5V569.5H615.676V578.5H581.676Z" fill="#373D4B"/>
<path d="M588.676 573.5V552.5H615.676V573.5H588.676Z" fill="#373D4B"/>
<path d="M588.676 534.5V513.5H597.676V534.5H588.676Z" fill="#373D4B"/>
<path d="M607.676 494.5V470.5H620.676V494.5H607.676Z" fill="#373D4B"/>
<path d="M593.676 433.5V405.5H602.676V433.5H593.676Z" fill="#373D4B"/>
<path d="M519.676 395.5V304.5H542.676V395.5H519.676Z" fill="#373D4B"/>
<path d="M542.676 395.5V373.5H572.676V395.5H542.676Z" fill="#373D4B"/>
<path d="M579.676 319.5V304.5H595.676V319.5H579.676Z" fill="#373D4B"/>
<path d="M709.676 349.5V321.5H719.676V349.5L709.676 349.5Z" fill="#373D4B"/>
<path d="M679.676 269.5V241.5H692.676V269.5H679.676Z" fill="#373D4B"/>
<path d="M655.676 203.5V183.5H672.676V203.5H655.676Z" fill="#373D4B"/>
<path d="M589.676 203.5V192.5H616.676V203.5H589.676Z" fill="#373D4B"/>
<path d="M607.676 193.5V185.5H616.676V193.5H607.676Z" fill="#373D4B"/>
<path d="M607.676 129.5V104.5H616.676V129.5H607.676Z" fill="#373D4B"/>
<path d="M681.676 154.5V144.5H695.676V154.5H681.676Z" fill="#373D4B"/>
<path d="M691.676 75.5V65.5H707.676V75.5H691.676Z" fill="#373D4B"/>
<path d="M691.676 80.5V70.5H697.676V80.5H691.676Z" fill="#373D4B"/>
<path d="M614.676 71.5V67.5H618.676V71.5H614.676Z" fill="#373D4B"/>
<path d="M723.676 346.5V328.5H732.676V346.5H723.676Z" fill="#373D4B"/>
<path d="M604.676 309.5V304.5H616.676V309.5H604.676Z" fill="#373D4B"/>
<path d="M599.107 365.346L600.974 364.629L607.793 382.363L605.926 383.081L599.107 365.346Z" fill="#373D4B"/>
<path d="M650.676 121.5C655.094 121.5 658.676 125.082 658.676 129.5C658.676 133.918 655.094 137.5 650.676 137.5C646.258 137.5 642.676 133.918 642.676 129.5C642.676 125.082 646.258 121.5 650.676 121.5Z" fill="#373D4B"/>
<path d="M322.676 392.985L327.6 380.954L331.302 382.469L326.378 394.5L322.676 392.985Z" fill="#373D4B"/>
<path d="M329.676 375.985L331.288 372.045L334.99 373.56L333.378 377.5L329.676 375.985Z" fill="#373D4B"/>
<path d="M316.676 410.088L320.551 408.325L325.744 419.737L321.869 421.5L316.676 410.088Z" fill="#373D4B"/>
<path d="M323.676 425.474L327.551 423.711L329.838 428.737L325.963 430.5L323.676 425.474Z" fill="#373D4B"/>
<path d="M382.676 495.5L367.676 461.5H370.676H384.676L386.441 465.5L399.676 495.5H382.676Z" fill="#373D4B"/>
<path d="M358.676 443L367.676 461.5H370.676L361.676 443H358.676Z" fill="#373D4B"/>
<path d="M419.176 465.5V461.5H384.676L386.441 465.5H419.176Z" fill="#373D4B"/>
<path d="M469.676 113.5V99.5L483.676 99.5V113.5L469.676 113.5Z" fill="#373D4B"/>
<path d="M469.676 101.5V94.5H476.676V101.5H469.676Z" fill="#373D4B"/>
<path d="M514.676 81.5V57.5H522.676V81.5H514.676Z" fill="#373D4B"/>
<path d="M512.676 73.5V65.5H515.676V73.5H512.676Z" fill="#373D4B"/>
<path d="M512.676 63.5V57.5H514.676V63.5H512.676Z" fill="#373D4B"/>
<path d="M220.7 381.98C219.604 382.82 218.035 382.611 217.195 381.515C216.356 380.418 216.565 378.849 217.661 378.01L235.095 364.667C236.192 363.827 237.761 364.036 238.6 365.132C239.439 366.229 239.231 367.798 238.134 368.637L220.7 381.98Z" fill="url(#paint0_linear_84_389)"/>
<path d="M695.676 200.5V142.5H698.676V200.5H695.676Z" fill="#454545"/>
<path d="M716.676 145.5V90.5H719.676V145.5H716.676Z" fill="#454545"/>
<path d="M719.676 383.5V272.5H723.676V383.5H719.676Z" fill="#454545"/>
<path d="M572.676 297.5V283.5H576.676V297.5H572.676Z" fill="#454545"/>
<path d="M577.176 242.915L577.328 256.914L573.42 256.914L573.176 242.958L577.176 242.915Z" fill="#454545"/>
<path d="M564.676 274.5L572.676 283.5H576.676L567.176 273L564.676 274.5Z" fill="#454545"/>
<path d="M587.235 266.66L577.273 256.884L573.431 256.884L584.273 268.268L587.235 266.66Z" fill="#454545"/>
<path d="M719.676 145.5H695.676V142.5H719.676V145.5Z" fill="#454545"/>
<path d="M532.676 242.5V233.5H534.676V242.5H532.676Z" fill="#454545"/>
<path d="M333.676 111.5V109.5H365.676V111.5H333.676Z" fill="#454545"/>
<path d="M384.676 111.5V109.5H389.676V111.5H384.676Z" fill="#454545"/>
<path d="M322.676 113.5V109.5H326.676V113.5H322.676Z" fill="#454545"/>
<path d="M352.676 155.5V153.5H357.676V155.5H352.676Z" fill="#454545"/>
<path d="M371.676 155.5V153.5H376.676V155.5H371.676Z" fill="#454545"/>
<path d="M233.676 363.5V359.5H235.676V363.5H233.676Z" fill="#454545"/>
<path d="M238.301 369.731L239.301 368.731L240.301 369.731V371.731L238.301 369.731Z" fill="#454545"/>
<path d="M198.198 382.5L194.676 372.079L196.571 371.439L200.093 381.86L198.198 382.5Z" fill="#454545"/>
<path d="M209.676 401.286L202.93 392.597L204.51 391.371L211.256 400.06L209.676 401.286Z" fill="#454545"/>
<path d="M415.676 461.5V440.5H419.176V461.5H415.676Z" fill="#454545"/>
<path d="M507.676 617.5V615.5H538.676V617.5H507.676Z" fill="#454545"/>
<path d="M566.676 619.5V615.5H573.676V619.5H566.676Z" fill="#454545"/>
<path d="M374.676 443.5V440.5H415.676V443.5H374.676Z" fill="#282C34"/>
<path d="M351.676 206.5V203.5H378.676V206.5H351.676Z" fill="#282C34"/>
<path d="M352.676 134.5V131.5H375.676V134.5H352.676Z" fill="#282C34"/>
<path d="M534.676 230.5V227.5H573.676V230.5H534.676Z" fill="#282C34"/>
<path d="M723.676 225.5V222.5H755.676V225.5H723.676Z" fill="#282C34"/>
<path d="M656.676 310.5H659.676V335.5H656.676V310.5Z" fill="#282C34"/>
<path d="M353.676 79.5H356.676V109.5H353.676V79.5Z" fill="#282C34"/>
<path d="M352.676 127.5V124.5H375.676V127.5H352.676Z" fill="#282C34"/>
<path d="M534.676 223.5V220.5H573.676V223.5H534.676Z" fill="#282C34"/>
<path d="M723.676 218.5V215.5H755.676V218.5H723.676Z" fill="#282C34"/>
<path d="M663.676 310.5H666.676V335.5H663.676V310.5Z" fill="#282C34"/>
<path d="M534.676 216.5V213.5H573.676V216.5H534.676Z" fill="#282C34"/>
<path d="M534.676 203.5V200.5L562.676 204.5V206.5L534.676 203.5Z" fill="#282C34"/>
<path d="M538.176 195.5L539.176 192.5L562.676 200.5V201.5L538.176 195.5Z" fill="#282C34"/>
<path d="M542.462 189.637L543.624 187.394L560.628 196.71L560.497 197.5L542.462 189.637Z" fill="#282C34"/>
<path d="M723.676 211.5V208.5H755.676V211.5H723.676Z" fill="#282C34"/>
<path d="M670.676 310.5H673.676V335.5H670.676V310.5Z" fill="#282C34"/>
<path d="M360.676 79.5H363.676L363.676 109.5H360.676L360.676 79.5Z" fill="#282C34"/>
<path d="M299.586 351.689L300.852 348.969L331.651 363.31L330.385 366.03L299.586 351.689Z" fill="#282C34"/>
<path d="M339.159 471.001L338.045 468.215L363.893 457.876L365.007 460.662L339.159 471.001Z" fill="#282C34"/>
<path d="M302.676 344.16L303.942 341.44L334.742 355.78L333.476 358.5L302.676 344.16Z" fill="#282C34"/>
<path d="M335.79 463.591L334.676 460.806L360.702 450.396L361.816 453.181L335.79 463.591Z" fill="#282C34"/>
<path d="M374.676 450.5V447.5H415.676V450.5H374.676Z" fill="#282C34"/>
<path d="M351.676 213.5V210.5H378.676V213.5H351.676Z" fill="#282C34"/>
<path d="M352.676 141.5V138.5H375.676V141.5H352.676Z" fill="#282C34"/>
<path d="M534.676 237.5V234.5H573.676V237.5H534.676Z" fill="#282C34"/>
<path d="M723.676 232.5V229.5H755.676V232.5H723.676Z" fill="#282C34"/>
<path d="M649.676 310.5H652.676V335.5H649.676V310.5Z" fill="#282C34"/>
<path d="M346.676 79.5H349.676V109.5H346.676V79.5Z" fill="#282C34"/>
<path d="M339.676 79.5H342.676V109.5H339.676V79.5Z" fill="#282C34"/>
<path d="M378.676 215.5V203.5H382.676V215.5H378.676Z" fill="#282C34"/>
<path d="M296.631 358.035L297.897 355.315L328.731 369.672L327.465 372.391L296.631 358.035Z" fill="#282C34"/>
<path d="M341.759 477.5L340.645 474.715L366.493 464.376L367.607 467.161L341.759 477.5Z" fill="#282C34"/>
<path d="M374.676 457.5V454.5H415.676V457.5H374.676Z" fill="#282C34"/>
<path d="M336.424 622.5L334.676 620.062L367.999 596.175L369.747 598.613L336.424 622.5Z" fill="#282C34"/>
<path d="M340.424 628.5L338.676 626.062L371.999 602.175L373.747 604.613L340.424 628.5Z" fill="#282C34"/>
<path d="M344.511 634.5L342.676 632.126L375.116 607.053L376.951 609.427L344.511 634.5Z" fill="#282C34"/>
<path d="M349.012 640.039L347.093 637.732L378.615 611.515L380.533 613.821L349.012 640.039Z" fill="#282C34"/>
<path d="M354.742 646.602L352.651 644.451L382.051 615.874L384.142 618.025L354.742 646.602Z" fill="#282C34"/>
<path d="M360.338 651.989L358.17 649.916L386.505 620.283L388.674 622.356L360.338 651.989Z" fill="#282C34"/>
<path d="M367.857 656.449L365.552 654.529L390.92 624.079L393.225 626L367.857 656.449Z" fill="#282C34"/>
<path d="M376.301 660.441L373.831 658.739L396.345 626.057L398.815 627.759L376.301 660.441Z" fill="#282C34"/>
<path d="M383.877 663.453L381.3 661.917L400.996 628.874L403.573 630.41L383.877 663.453Z" fill="#282C34"/>
<path d="M390.398 666.19L387.757 664.767L406.216 630.506L408.857 631.929L390.398 666.19Z" fill="#282C34"/>
<path d="M397.392 668.5L394.676 667.226L410.925 632.582L413.641 633.856L397.392 668.5Z" fill="#282C34"/>
<path d="M405.484 670.5L402.676 669.445L415.827 634.445L418.636 635.5L405.484 670.5Z" fill="#282C34"/>
<path d="M414.827 671.549L411.926 670.788L421.161 635.573L424.063 636.334L414.827 671.549Z" fill="#282C34"/>
<path d="M424.109 672.219L421.157 671.686L427.495 636.601L430.447 637.135L424.109 672.219Z" fill="#282C34"/>
<path d="M431.626 672.567L428.648 672.199L433.016 636.816L435.993 637.183L431.626 672.567Z" fill="#282C34"/>
<path d="M438.952 673.045L435.956 672.898L437.719 636.747L440.715 636.893L438.952 673.045Z" fill="#282C34"/>
<path d="M446.391 673.461L443.391 673.434L443.721 637.241L446.721 637.268L446.391 673.461Z" fill="#282C34"/>
<path d="M453.676 673.5L450.676 673.473L451.007 637.28L454.006 637.307L453.676 673.5Z" fill="#282C34"/>
<path d="M293.676 364.381L294.942 361.661L325.267 375.78L324 378.5L293.676 364.381Z" fill="#282C34"/>
<path d="M369.676 461.5L360.676 440.5H374.676L378.676 461.5H369.676Z" fill="#282C34"/>
<path fill-rule="evenodd" clip-rule="evenodd" d="M0 317.762L20.3971 217.816L68.3898 227.815L73.8924 199.801L109.942 207.812L114.55 189.38L111.879 187.243L139.342 139.945L139.379 139.896C141.989 136.449 144.304 134.094 147.089 132.676C149.887 131.251 153.043 130.829 157.217 131.001L157.256 131.002L206.868 136.897L212.749 106.023L212.952 105.81C216.375 102.22 219.118 99.7464 221.943 97.8107C224.774 95.8715 227.651 94.4968 231.313 93.0684L231.488 93H263.432L269.176 73.8532V17.5H321.676V0H363.176V22.5H460.972L497.972 46.5H542.676V121H605.676V72H610.176V67.5H605.676V40H719.676V67.5H717.176V69H757.676V178.5H722.176V184.5H757.676V238H755.176V239H772.176V415H673.676V336H628.676V434.5H561.676V436.5H621.676V440H637.176V579.5H574.176V653.5H518.676V646H516.176V674.5H450.162L450.148 674.5C402.187 673.134 371.361 664.576 350.931 644.493C330.525 624.432 320.692 593.063 314.186 546.639L314.13 546.239L317.664 541.379L210.151 489.357L197.473 479.722L135.613 402.774L144.529 351.754L102.396 341.7L91.3869 383.733L35.0276 368.221L42.5193 327.266L0 317.762ZM717.176 71V74.5H707.176V65.5H717.676V42H607.676V65.5H612.176V74H607.676V123H540.676V48.5H497.38L460.38 24.5H361.176V2H323.676V19.5H271.176V74.1468L264.92 95H231.865C228.368 96.3721 225.689 97.6689 223.074 99.4607C220.463 101.249 217.881 103.554 214.603 106.977L208.484 139.103L157.096 132.998C153.107 132.837 150.354 133.258 147.996 134.458C145.629 135.664 143.545 137.714 141.01 141.055L114.473 186.757L116.802 188.62L111.41 210.187L75.4598 202.199L69.9624 230.185L21.9551 220.184L2.35216 316.238L44.8328 325.734L37.3246 366.779L89.9652 381.267L100.957 339.3L146.823 350.246L137.739 402.226L198.879 478.278L211.202 487.643L320.688 540.621L316.223 546.761C322.723 592.921 332.497 623.567 352.333 643.066C372.202 662.598 402.368 671.136 450.19 672.5H464.176V665.5H467.676V672.5H514.176V644H520.676V651.5H572.176V577.5H635.176V442H619.676V438.5H559.676V432.5H626.676V334H675.676V413H770.176V241H753.176V236H755.676V186.5H720.176V176.5H755.676V71H717.176ZM715.176 67.5H709.176V72.5H715.176V67.5ZM112.972 291.265L134.933 196.781L180.392 208.276L156.908 300.68L112.972 291.265ZM115.38 289.735L155.444 298.32L177.96 209.724L136.419 199.219L115.38 289.735ZM190.662 333.394L212.555 263.132L257.4 282.948L237.654 345.226L235.567 359.308L232.02 360.195L231.553 358.792L194.301 372.384L190.662 333.394ZM196.051 369.616L232.8 356.208L233.332 357.805L233.785 357.692L235.699 344.774L254.952 284.052L213.797 265.868L192.69 333.606L196.051 369.616ZM209.314 400.958L240.144 369.606L295.293 420.745L310.374 411.266L333.676 354.802V331H340.176V352H338.676V355.2L314.623 412.993L343.486 480.012L337.144 482.831L331.145 468.333L312.89 476.5H307.458L253.563 451.819L209.314 400.958ZM313.522 410.435L336.676 354.8V350H338.176V333H335.676V355.198L313.194 409.674L313.522 410.435ZM312.22 412.468L295.059 423.255L240.208 372.394L212.038 401.042L254.789 450.181L307.894 474.5H312.463L332.207 465.667L338.208 480.169L340.867 478.988L312.22 412.468ZM217.443 242.086L248.362 143.844L232.676 141.883V123.307L234.999 117.5H258.442L253.364 138.83L278.467 146.863L247.445 233.423L272.984 243.439L265.729 261.296L217.443 242.086ZM219.909 240.914L264.623 258.704L270.369 244.561L244.907 234.577L275.886 148.137L250.989 140.17L255.91 119.5H236.353L234.676 123.693V140.117L250.99 142.156L219.909 240.914ZM278.762 218.5L299.888 158.729L318.993 151.5H341.176V153.75H345.176V110H353.687L353.166 160H346.676V155.75H341.176V158H319.357L303.98 163.766L286.405 218.5H278.762ZM347.176 153.75H348.676V158H351.186L351.666 112H347.176V153.75ZM281.59 216.5H284.947L302.372 162.234L318.995 156H339.176V153.5H319.359L301.464 160.271L281.59 216.5ZM286.673 365.5L345.176 225.799L345.176 202H352.176L352.176 245.5H383.676V250.5H340.859C337.319 259.555 334.13 267.824 331.128 275.612C319.161 306.65 310.148 330.03 293.579 364.929L293.308 365.5H286.673ZM289.679 363.5H292.044C308.405 328.989 317.356 305.772 329.253 274.916C332.327 266.941 335.598 258.457 339.245 249.136L339.493 248.5H381.676V247.5H350.176L350.176 204H347.176L347.176 226.201L289.679 363.5ZM333.176 79.5V73H450.716L470.176 102.702V173H499.676V159H547.176V182.803L535.176 200.803V234H480.676L480.676 210.027L407.176 211.974V250.5H398.676V245.5H401.176L401.176 202H380.176V155.75H375.676V122.5H388.676V79.5H333.176ZM335.176 77.5H390.676V124.5H377.676V153.75H382.176V200H403.176L403.176 247.5H400.676V248.5H405.176L405.176 210.026L482.676 207.973L482.676 232H533.176V200.197L545.176 182.197V161H501.676V175H468.176V103.298L449.636 75H335.176V77.5ZM346.558 511.5H353.821L370.782 548.914L435.537 540.637L428.017 490H432.542L438.528 531.406L496.035 525.405L508.823 618.5H467.676V645H464.176V638.039C439.521 638.944 420.243 637.22 405.172 631.946C389.846 626.584 378.9 617.56 371.082 603.999L371.063 603.966L371.046 603.931C363.337 587.797 359.295 565.256 354.327 535H349.176V530.5H356.058L346.558 511.5ZM349.794 513.5L359.294 532.5H351.176V533H356.025L356.163 533.838C361.207 564.588 365.214 587.066 372.834 603.034C380.404 616.148 390.959 624.854 405.833 630.059C420.764 635.283 440.076 636.989 465.137 636.001L465.676 635.98V616.5H506.529L494.317 527.595L436.824 533.594L430.81 492H430.336L437.815 542.363L369.57 551.086L352.531 513.5H349.794ZM412.176 435.5V424.04L486.176 421.04V297H505.176V288.5H517.176V297H675.676V303.5H636.479L635.676 304.035V309.5H617.676V304.5H520.176V393.5H521.676V399H490.676V432.5H496.176V438.5H437.676V440.5H416.176V435.5H412.176ZM435.676 438.5V436.5H494.176V434.5H488.676V397H519.676V395.5H518.176V302.5H619.676V307.5H633.676V302.965L635.873 301.5H673.676V299H515.176V290.5H507.176V299H488.176V422.96L414.176 425.96V433.5H418.176V438.5H435.676ZM512.176 438.5V432.5H541.176V438.5H533.676V463.571L543.576 473H552.616L564.176 485.611V505.928L552.577 517H532.328L519.676 506.984V438.5H512.176ZM514.176 436.5H521.676V506.016L533.024 515H551.775L562.176 505.072V486.389L551.736 475H542.776L531.676 464.429V436.5H539.176V434.5H514.176V436.5ZM514.176 623.5V615.5H520.676V623.5H514.176ZM516.176 621.5H518.676V617.5H516.176V621.5ZM573.176 243V203.5H694.176V200.5H700.176V208H723.676V236H730.676V243H573.176ZM575.176 241H728.676V238H721.676V210H698.176V202.5H696.176V205.5H575.176V241ZM658.676 74V65.5H668.176V74H658.676ZM660.676 72H666.176V67.5H660.676V72Z" fill="#454545"/>
<path d="M352.676 168V165L370.676 183.5V186.5L352.676 168Z" fill="#D9D9D9" fill-opacity="0.1"/>
<path d="M352.676 159V156L370.676 174.5V177.5L352.676 159Z" fill="#D9D9D9" fill-opacity="0.1"/>
<path d="M370.676 164.5V167.5L358.676 155.167H361.595L370.676 164.5Z" fill="#D9D9D9" fill-opacity="0.1"/>
<path d="M352.676 196.167V193.167L362.176 202.5H359.257L352.676 196.167Z" fill="#D9D9D9" fill-opacity="0.1"/>
<path d="M352.676 177V174L370.676 192.5V195.5L352.676 177Z" fill="#D9D9D9" fill-opacity="0.1"/>
<path d="M352.676 186V183L370.676 201.5V202.5H368.73L352.676 186Z" fill="#D9D9D9" fill-opacity="0.1"/>
<path d="M345.393 482.505L380.309 498.757L381.89 497.707L381.513 496.893L346.309 480.507L344.676 480.959L345.393 482.505Z" fill="#D9D9D9" fill-opacity="0.1"/>
<path d="M377.209 487.618L378.644 490.709L351.309 477.986L354.477 477.036L377.209 487.618Z" fill="#D9D9D9" fill-opacity="0.1"/>
<path d="M372.907 478.342L374.341 481.434L360.309 474.902L363.309 473.874L372.907 478.342Z" fill="#D9D9D9" fill-opacity="0.1"/>
<path d="M349.696 491.781L348.262 488.689L375.309 501.279L371.838 502.087L349.696 491.781Z" fill="#D9D9D9" fill-opacity="0.1"/>
<path d="M354.477 502.087L353.043 498.995L365.561 504.822L361.809 505.5L354.477 502.087Z" fill="#D9D9D9" fill-opacity="0.1"/>
<path d="M394.855 470.583L419.914 488.919L421.33 488.337L421.159 487.634L395.893 469.147L394.53 469.248L394.855 470.583Z" fill="#D9D9D9" fill-opacity="0.1"/>
<path d="M419.213 479.623L419.862 482.293L400.243 467.938L402.898 467.685L419.213 479.623Z" fill="#D9D9D9" fill-opacity="0.1"/>
<path d="M417.267 471.612L417.916 474.282L407.845 466.913L410.379 466.571L417.267 471.612Z" fill="#D9D9D9" fill-opacity="0.1"/>
<path d="M396.801 478.594L396.152 475.924L415.564 490.128L412.693 490.222L396.801 478.594Z" fill="#D9D9D9" fill-opacity="0.1"/>
<path d="M398.963 487.496L398.314 484.825L407.299 491.399L404.225 491.346L398.963 487.496Z" fill="#D9D9D9" fill-opacity="0.1"/>
<path d="M64.116 287.492V272.42H58.668V270.524H71.652V272.42H66.204V287.492H64.116Z" fill="#FF6B00"/>
<path d="M710.132 338.868H708.044V321.9H710.132V329.724H712.652L718.172 321.9H720.572L714.476 330.324L720.62 338.868H718.148L712.82 331.62H710.132V338.868Z" fill="#0085FF"/>
<path d="M728.828 338.868H726.74V323.796H721.292V321.9H734.276V323.796H728.828V338.868Z" fill="#0085FF"/>
<path d="M608.676 533.5H534.676V450.5H608.676V533.5Z" fill="#7000FF" fill-opacity="0.2"/>
<path fill-rule="evenodd" clip-rule="evenodd" d="M536.676 531.5H606.676V452.5H536.676V531.5ZM608.676 533.5V450.5H534.676V533.5H608.676Z" fill="white" fill-opacity="0.08"/>
<path d="M563.675 502.499V481.967H572.781C573.728 481.967 574.598 482.063 575.391 482.257C576.203 482.45 576.909 482.798 577.508 483.301C577.991 483.687 578.397 484.2 578.726 484.838C579.074 485.456 579.248 486.21 579.248 487.1C579.267 488.047 579.093 488.888 578.726 489.623C578.378 490.357 577.779 490.976 576.928 491.479C577.527 491.653 578.04 491.914 578.465 492.262C578.89 492.61 579.229 493.016 579.48 493.48C579.751 493.944 579.944 494.446 580.06 494.988C580.176 495.529 580.224 496.09 580.205 496.67C580.166 497.598 579.915 498.458 579.451 499.251C579.006 500.024 578.417 500.652 577.682 501.136C576.812 501.735 575.855 502.112 574.811 502.267C573.767 502.421 572.733 502.499 571.708 502.499H563.675ZM571.592 490.29C572.017 490.29 572.443 490.27 572.868 490.232C573.293 490.174 573.69 490.038 574.057 489.826C574.366 489.632 574.627 489.371 574.84 489.043C575.053 488.714 575.169 488.327 575.188 487.883C575.207 487.419 575.13 487.042 574.956 486.752C574.782 486.462 574.569 486.239 574.318 486.085C574.009 485.891 573.651 485.785 573.245 485.766C572.839 485.727 572.423 485.708 571.998 485.708H567.88V490.29H571.592ZM567.88 498.787H571.708C572.269 498.787 572.858 498.758 573.477 498.7C574.115 498.622 574.656 498.419 575.101 498.091C575.372 497.878 575.594 497.617 575.768 497.308C575.942 496.979 576.029 496.573 576.029 496.09C576.029 495.645 575.932 495.268 575.739 494.959C575.546 494.649 575.304 494.417 575.014 494.263C574.685 494.05 574.308 493.924 573.883 493.886C573.477 493.847 573.052 493.828 572.607 493.828L567.88 493.857V498.787Z" fill="white"/>
<path d="M691.676 153.5H607.676V77.4998L691.676 77.4998V153.5Z" fill="#7000FF" fill-opacity="0.2"/>
<path fill-rule="evenodd" clip-rule="evenodd" d="M609.676 151.5H689.676V79.4998L609.676 79.4998V151.5ZM691.676 153.5V77.4998L607.676 77.4998V153.5H691.676Z" fill="white" fill-opacity="0.08"/>
<path d="M645.737 121.585L644.258 125.5H639.676L647.622 104.968H652.378L660.208 125.5H655.597L654.176 121.585H645.737ZM646.955 117.873H652.929L649.971 109.434L646.955 117.873Z" fill="white"/>
<defs>
<linearGradient id="paint0_linear_84_389" x1="238.176" y1="365.5" x2="207.676" y2="388" gradientUnits="userSpaceOnUse">
<stop stop-color="#373D4B"/>
<stop offset="1" stop-color="#373D4B" stop-opacity="0"/>
</linearGradient>
</defs>
</svg>
