<svg width="772" height="586" viewBox="0 0 772 586" fill="none" xmlns="http://www.w3.org/2000/svg">
<path fill-rule="evenodd" clip-rule="evenodd" d="M68.5 56.5V68.5H6.5V95H1V129.5H6.5V165H58.5V152.5H106V163.5V164.5V165H60.5V203.5H48V259.5H60.5V326H10V458.5H38V461H74V458.5H99V440.5H135.5V413.5H167V440.5H169V481.5H300.5V549H384V526.5H472V506H604.5V584.5H687V518.5H770.5V412H665.5V333H648V284.5H662.5V255.5H577V220H615.5V88H501.5V1H346.5V8H300.5V65.5H255V98.5H205.5V81H160.5V104H121.5V56.5H68.5ZM151.5 284.5H172.5V303L205.5 340H214V434.5H261V319H339V252.5H274V308H216V250.5H151.5V284.5ZM441.5 289V264.5H456V314H424.5V401H384V362.5H359V289H441.5ZM359 264.5V277H365V264.5H359ZM284.5 200.5V161H282V157.5H304V161H341.5V114H379V161H381V164.5H341.5V200.5H284.5ZM431 166.5V179H444.5V164.5H428.5V166.5H431ZM210 142H172.5V163.5V165V209H203.5V164.5H210V142ZM72.5 91.5V100.5H81.5V91.5H72.5ZM546.5 174V198H564.5V174H546.5ZM531.5 284.5V274H549V284.5H531.5ZM471.5 395.5H493V399.5H608V455.5H471.5V395.5Z" fill="#22262F"/>
<path fill-rule="evenodd" clip-rule="evenodd" d="M68.5 56.5V68.5H6.5V95H1V129.5H6.5V165H58.5H60.5H106H137.5V209H102.5V280H89.5V341H46.5V326H10V458.5H38V461H74V458.5H99V440.5H135.5V413.5H167V440.5H169V481.5H258.5V434.5H214V340H205.5L172.5 303V284.5H151.5V250.5H216V287.5H274V252.5H339V319H359V289H441.5V264.5H456V278.5H493V264.5V263H530H531.5V257H533.5V225.5H531.5V199V197H546.5V174H564.5H587.5V132.5H476L464 120V85.5H449.5V11.5H434V1H346.5V8V56H328V85.5H302H286.5V65.5H255V98.5H205.5V81H160.5V104H121.5V56.5H68.5ZM531.5 284.5H549H648V333H665.5V412H770.5V518.5H687V584.5H604.5V506H608V455.5V399.5H531.5V284.5ZM172.5 142H210V164.5H203.5V209H172.5V165V163.5V142ZM284.5 200.5V161H282V157.5H304V161H341.5V114H379V161H381V164.5H341.5V200.5H284.5ZM431 166.5V179H444.5V164.5H428.5V166.5H431ZM359 277V264.5H365V277H359ZM72.5 91.5V100.5H81.5V91.5H72.5Z" fill="#1F2228"/>
<path d="M167.5 366.5H174.5V374.5H167.5V366.5Z" fill="#373D4B"/>
<path d="M126.5 401.5H135.5V410.5H126.5V401.5Z" fill="#373D4B"/>
<path d="M216.5 434.5H225.5V443.5H216.5V434.5Z" fill="#373D4B"/>
<path d="M300.5 461.5H348.5V478.5H300.5V461.5Z" fill="#373D4B"/>
<path d="M300.5 480.5H303.5V497.5H300.5V480.5Z" fill="#373D4B"/>
<path d="M301.5 501.5H307.5V542.5H301.5V501.5Z" fill="#373D4B"/>
<path d="M377.5 507.5H383.5V548.5H377.5V507.5Z" fill="#373D4B"/>
<path d="M377.5 444.5H383.5V485.5H377.5V444.5Z" fill="#373D4B"/>
<path d="M385.5 448.5H396.5V471.5H385.5V448.5Z" fill="#373D4B"/>
<path d="M470.5 455.5H481.5V465.5H470.5V455.5Z" fill="#373D4B"/>
<path d="M460.5 513.5H471.5V525.5H460.5V513.5Z" fill="#373D4B"/>
<path d="M687.5 462.5H696.5V471.5H687.5V462.5Z" fill="#373D4B"/>
<path d="M533.5 250.5H542.5V259.5H533.5V250.5Z" fill="#373D4B"/>
<path d="M533.5 199.5H542.5V208.5H533.5V199.5Z" fill="#373D4B"/>
<path d="M606.5 203.5H615.5V219.5H606.5V203.5Z" fill="#373D4B"/>
<path d="M547.5 88.5H563.5V95.5H547.5V88.5Z" fill="#373D4B"/>
<path d="M487.5 1.5H501.5V6.5H487.5V1.5Z" fill="#373D4B"/>
<path d="M464.5 34.5H472.5V50.5H464.5V34.5Z" fill="#373D4B"/>
<path fill-rule="evenodd" clip-rule="evenodd" d="M439.5 34.5H381.5V43.5H389.5V52.5H439.5V34.5Z" fill="#373D4B"/>
<path d="M402.5 111.5H411.5V119.5H402.5V111.5Z" fill="#373D4B"/>
<path d="M292.5 86.5H301.5V95.5H292.5V86.5Z" fill="#373D4B"/>
<path d="M346.5 13.5H355.5V22.5H346.5V13.5Z" fill="#373D4B"/>
<path d="M427.5 153.5H436.5V162.5H427.5V153.5Z" fill="#373D4B"/>
<path d="M424 204.5H434V211.5H424V204.5Z" fill="#373D4B"/>
<path d="M757.5 512.5H769.5V518.5H757.5V512.5Z" fill="#373D4B"/>
<path d="M90.5 295.5H108.5V343.5H90.5V295.5Z" fill="#373D4B"/>
<path d="M10.5 429.5H27.5V437.5H10.5V429.5Z" fill="#373D4B"/>
<path d="M212.5 167H204V178.5H209.5V172H212.5V167Z" fill="#373D4B"/>
<path d="M381.5 43.5H389.5V52.5H381.5V43.5Z" fill="#373D4B" fill-opacity="0.6"/>
<path fill-rule="evenodd" clip-rule="evenodd" d="M38.5 326.5H30.5V335.5H38.5V343.5H47.5V335.5H38.5V326.5Z" fill="#373D4B" fill-opacity="0.6"/>
<path d="M47.5 326.5H38.5V335.5H47.5V326.5Z" fill="#373D4B" fill-opacity="0.6"/>
<path d="M38.5 326.5H47.5V335.5H38.5V326.5Z" fill="#373D4B"/>
<path fill-rule="evenodd" clip-rule="evenodd" d="M79.255 375.5L34.7021 396.947L42.5094 413.165L77.4759 396.333L82.3665 406.493L90.0959 402.772L85.2052 392.613L87.0623 391.719L79.255 375.5ZM85.2052 392.613L84.6696 391.5L76.9402 395.221L77.4759 396.333L85.2052 392.613Z" fill="#373D4B"/>
<path d="M84.6696 391.5L76.9402 395.221L77.4759 396.333L85.2052 392.613L84.6696 391.5Z" fill="#373D4B"/>
<path d="M517.5 139.5H526.5V148.5H517.5V139.5Z" fill="#373D4B" fill-opacity="0.6"/>
<path d="M517.5 130.5H526.5V139.5H517.5V130.5Z" fill="#373D4B"/>
<path d="M508.5 130.5H517.5V139.5H508.5V130.5Z" fill="#373D4B" fill-opacity="0.6"/>
<path fill-rule="evenodd" clip-rule="evenodd" d="M467.862 125.362L469.983 127.483L495.466 102H491.224L467.862 125.362ZM473.983 131.483L471.862 129.362L499.224 102H503.466L473.983 131.483ZM477.224 132H481.466L511.466 102H507.224L477.224 132ZM489.466 132H485.224L515.224 102H519.466L489.466 132ZM493.224 132H497.466L527.466 102H523.224L493.224 132ZM505.466 132H501.224L531.224 102H535.466L505.466 132ZM509.224 132H513.466L543.466 102H539.224L509.224 132ZM521.466 132H517.224L547.224 102H551.466L521.466 132ZM525.224 132H529.466L559.466 102H555.224L525.224 132ZM537.466 132H533.224L563.224 102H567.466L537.466 132ZM541.224 132H545.466L572.5 104.966V102H571.224L541.224 132ZM553.466 132H549.224L572.5 108.724V112.966L553.466 132ZM557.224 132H561.466L572.5 120.966V116.724L557.224 132ZM569.466 132H565.224L572.5 124.724V128.966L569.466 132ZM465.983 123.483L464 121.5V121.224L483.224 102H487.466L465.983 123.483ZM475.224 102H479.466L464 117.466V113.224L475.224 102ZM464 109.466L471.466 102H467.224L464 105.224V109.466Z" fill="#D9D9D9" fill-opacity="0.1"/>
<path fill-rule="evenodd" clip-rule="evenodd" d="M90.5 336.066L85.7751 340H90.5V336.066Z" fill="#D9D9D9" fill-opacity="0.1"/>
<path fill-rule="evenodd" clip-rule="evenodd" d="M74.3882 327H80.1192L64.506 340H58.7751L74.3882 327ZM71.1192 327H65.3882L49.7751 340H55.506L71.1192 327ZM56.3882 327H62.1192L47.5 339.172V334.401L56.3882 327ZM53.1192 327H47.5V331.679L53.1192 327ZM67.7751 340L83.3882 327H89.1192L73.506 340H67.7751ZM76.7751 340H82.506L90.5 333.344V328.572L76.7751 340ZM90.5 340H85.7751L90.5 336.066V340Z" fill="#D9D9D9" fill-opacity="0.1"/>
<path fill-rule="evenodd" clip-rule="evenodd" d="M47.5 331.679L53.1192 327H47.5V331.679Z" fill="#D9D9D9" fill-opacity="0.1"/>
<path fill-rule="evenodd" clip-rule="evenodd" d="M62.1192 327H56.3882L47.5 334.401V339.172L62.1192 327Z" fill="#D9D9D9" fill-opacity="0.1"/>
<path fill-rule="evenodd" clip-rule="evenodd" d="M89.1192 327L73.506 340H67.7751L83.3882 327H89.1192Z" fill="#D9D9D9" fill-opacity="0.1"/>
<path fill-rule="evenodd" clip-rule="evenodd" d="M76.7751 340L90.5 328.572V333.344L82.506 340H76.7751Z" fill="#D9D9D9" fill-opacity="0.1"/>
<path fill-rule="evenodd" clip-rule="evenodd" d="M80.1192 327L64.506 340H58.7751L74.3882 327H80.1192Z" fill="#D9D9D9" fill-opacity="0.1"/>
<path fill-rule="evenodd" clip-rule="evenodd" d="M71.1192 327L55.506 340H49.7751L65.3882 327H71.1192Z" fill="#D9D9D9" fill-opacity="0.1"/>
<path fill-rule="evenodd" clip-rule="evenodd" d="M540.224 198.5H544.466L549.5 203.534V207.776L540.224 198.5ZM536.466 198.5H533.5V199.776L549.5 215.776V211.534L536.466 198.5ZM533.5 207.776V203.534L549.5 219.534V223.776L533.5 207.776ZM533.5 211.534V215.776L549.5 231.776V227.534L533.5 211.534ZM533.5 223.776V219.534L549.5 235.534V239.776L533.5 223.776ZM533.5 227.534V231.776L549.5 247.776V243.534L533.5 227.534ZM533.5 239.776V235.534L549.5 251.534V255.776L533.5 239.776ZM533.5 243.534V247.776L549.5 263.776V259.534L533.5 243.534ZM533.5 255.776V251.534L549.5 267.534V271.776L533.5 255.776ZM533.5 259.534V263.776L543.224 273.5H547.466L533.5 259.534ZM533.5 271.776V267.534L539.466 273.5H535.224L533.5 271.776ZM549.5 199.776L548.224 198.5H549.5V199.776Z" fill="#D9D9D9" fill-opacity="0.1"/>
<path fill-rule="evenodd" clip-rule="evenodd" d="M435.524 1.5H440.333L450.486 10.5H445.678L435.524 1.5ZM435.5 5.25311V10.5H441.419L435.5 5.25311ZM463.5 22.036L450.5 10.5125V14.7747L463.5 26.2982V22.036ZM450.5 22.8116V18.5494L463.5 30.0728V34.335L450.5 22.8116ZM450.5 26.5863V30.8485L463.5 42.3719V38.1097L450.5 26.5863ZM450.5 38.8853V34.6231L463.5 46.1466V50.4088L450.5 38.8853ZM450.5 42.66V46.9222L463.5 58.4456V54.1834L450.5 42.66ZM450.5 54.9591V50.6969L463.5 62.2203V66.4825L450.5 54.9591ZM450.5 58.7337V62.9959L463.5 74.5194V70.2572L450.5 58.7337ZM450.5 71.0328V66.7706L463.5 78.294V82.5562L450.5 71.0328ZM450.5 74.8075V79.0696L457.754 85.5H462.563L450.5 74.8075ZM450.5 85.5V82.8443L453.496 85.5H450.5ZM458.466 1.5H453.658L463.5 10.2244V5.96224L458.466 1.5ZM462.724 1.5L463.5 2.18757V1.5H462.724Z" fill="#D9D9D9" fill-opacity="0.1"/>
<path d="M449.5 1.5H444.591L463.5 18.2613V13.9991L449.5 1.5Z" fill="#D9D9D9" fill-opacity="0.1"/>
<path d="M506.5 342.5H510.5V398.5H506.5V342.5Z" fill="#282C34"/>
<path d="M495.5 263.5H499.5V278.5H495.5V263.5Z" fill="#282C34"/>
<path d="M432.5 179.5H436.5V195.5H432.5V179.5Z" fill="#282C34"/>
<path d="M289.5 65.5H293.5V83.5H289.5V65.5Z" fill="#282C34"/>
<path d="M122.5 164.5H126.5V206.5H122.5V164.5Z" fill="#282C34"/>
<path d="M545.5 132.5H549.5V173.5H545.5V132.5Z" fill="#282C34"/>
<path d="M576.5 456.5H580.5V505.5H576.5V456.5Z" fill="#282C34"/>
<path d="M232.5 435.5H236.5V480.5H232.5V435.5Z" fill="#282C34"/>
<path d="M647.5 286.5V290.5H619.5V286.5H647.5Z" fill="#282C34"/>
<path d="M88.5 258.5V262.5H60.5V258.5H88.5Z" fill="#282C34"/>
<path d="M586.5 173.5V177.5H565.5V173.5H586.5Z" fill="#282C34"/>
<path d="M346.5 36.5V40.5H329.5V36.5H346.5Z" fill="#282C34"/>
<path d="M514.5 342.5H518.5V398.5H514.5V342.5Z" fill="#282C34"/>
<path d="M503.5 263.5H507.5V278.5H503.5V263.5Z" fill="#282C34"/>
<path d="M440.5 179.5H444.5V195.5H440.5V179.5Z" fill="#282C34"/>
<path d="M297.5 65.5H301.5V83.5H297.5V65.5Z" fill="#282C34"/>
<path d="M130.5 164.5H134.5V206.5H130.5V164.5Z" fill="#282C34"/>
<path d="M553.5 132.5H557.5V173.5H553.5V132.5Z" fill="#282C34"/>
<path d="M561.5 132.5H565.5V173.5H561.5V132.5Z" fill="#282C34"/>
<path d="M584.5 456.5H588.5V505.5H584.5V456.5Z" fill="#282C34"/>
<path d="M240.5 435.5H244.5V480.5H240.5V435.5Z" fill="#282C34"/>
<path d="M647.5 294.5V298.5H619.5V294.5H647.5Z" fill="#282C34"/>
<path d="M88.5 266.5V270.5H60.5V266.5H88.5Z" fill="#282C34"/>
<path d="M586.5 181.5V185.5H565.5V181.5H586.5Z" fill="#282C34"/>
<path d="M346.5 44.5V48.5H329.5V44.5H346.5Z" fill="#282C34"/>
<path d="M372.5 104.5V107.5H360.5V104.5H372.5Z" fill="#282C34"/>
<path d="M522.5 342.5H526.5V398.5H522.5V342.5Z" fill="#282C34"/>
<path d="M511.5 263.5H515.5V278.5H511.5V263.5Z" fill="#282C34"/>
<path d="M592.5 456.5H596.5V505.5H592.5V456.5Z" fill="#282C34"/>
<path d="M248.5 435.5H252.5V480.5H248.5V435.5Z" fill="#282C34"/>
<path d="M647.5 302.5V306.5H619.5V302.5H647.5Z" fill="#282C34"/>
<path d="M88.5 274.5V278.5H60.5V274.5H88.5Z" fill="#282C34"/>
<path d="M586.5 189.5V193.5H565.5V189.5H586.5Z" fill="#282C34"/>
<path d="M346.5 52.5V56.5H329.5V52.5H346.5Z" fill="#282C34"/>
<path d="M372.5 110.5V113.5H360.5V110.5H372.5Z" fill="#282C34"/>
<path d="M600.5 456.5H604.5V505.5H600.5V456.5Z" fill="#282C34"/>
<path d="M256.5 435.5H260.5V480.5H256.5V435.5Z" fill="#282C34"/>
<path d="M647.5 310.5V314.5H619.5V310.5H647.5Z" fill="#282C34"/>
<path d="M88.5 282.5V286.5H60.5V282.5H88.5Z" fill="#282C34"/>
<path fill-rule="evenodd" clip-rule="evenodd" d="M345.5 0H502.5V87H616.5V221H578V254.5H663.5V285.5H649V332H666.5V411H771.5V519.5H688V585.5H603.5V507H473V527.5H385V550H299.5V482.5H168V441.5H166V414.5H136.5V441.5H100V459.5H75V462H37V459.5H9V325H59.5V260.5H47V202.5H59.5V166H5.5V130.5H0V94H5.5V67.5H67.5V55.5H122.5V103H159.5V80H206.5V97.5H254V64.5H299.5V7H345.5V0ZM61.5 166V204.5H49V258.5H61.5V327H11V457.5H39V460H73V457.5H98V439.5H134.5V412.5H168V439.5H170V480.5H298.5H301.5V548H383V525.5H471V505H605.5V583.5H686V517.5H769.5V413H664.5V334H647V283.5H661.5V256.5H576V219H614.5V89H500.5V2H347.5V9H301.5V66.5H256V99.5H204.5V82H161.5V105H120.5V57.5H69.5V69.5H7.5V96H2V128.5H7.5V164H57.5V151.5H107V162.5H138.5V166H61.5ZM105 164V153.5H59.5V164H105ZM71.5 90.5H82.5V101.5H71.5V90.5ZM73.5 92.5V99.5H80.5V92.5H73.5ZM340.5 113H380V131.5V134V160H382V165.5H342.5V201.5H283.5V162H281V156.5H305V160H340.5V113ZM380 162H378V115H342.5V162H303V158.5H283V160H285.5V199.5H340.5V163.5H380V162ZM171.5 141H211V165.5H204.5V210H171.5V166H153.5V162.5H171.5V141ZM173.5 143V208H202.5V163.5H209V143H173.5ZM427.5 163.5H445.5V180H430V166H427.5V163.5ZM443.5 165.5H432V178H443.5V165.5ZM545.5 173H565.5V199H545.5V173ZM547.5 175V197H563.5V175H547.5ZM150.5 249.5H217V307H273V251.5H340V320H262V374V377.5V435.5H213V341H205.052L171.5 303.381V285.5H150.5V249.5ZM152.5 251.5V283.5H173.5V302.619L205.948 339H215V433.5H260V318H338V253.5H275V309H215V251.5H152.5ZM358 263.5H366V278H358V263.5ZM360 265.5V276H364V265.5H360ZM440.5 263.5H457V315H425.5V402H383V363.5H358V361.5V360V288H440.5V263.5ZM442.5 265.5V290H360V361.5H385V400H423.5V313H455V265.5H442.5ZM530.5 273H550V285.5H530.5V273ZM532.5 275V283.5H548V275H532.5ZM470.5 394.5H494V398.5H609V456.5H470.5V394.5ZM472.5 396.5V454.5H607V400.5H492V396.5H472.5Z" fill="#454545"/>
<path fill-rule="evenodd" clip-rule="evenodd" d="M325.5 36.5H329.5V87.5H303.5V129.5H299.5V87.5H275.5V83.5H325.5V36.5ZM453.707 154.707L444.914 163.5H430V166H402.5V171H400.5V165.5H381V161.5H402.5H405.5H444.086L452.293 153.293L453.707 154.707ZM252.5 156.5H283.5V160.5H252.5V156.5ZM400.5 181H404.5V202.5H430.5V199H430V194.5H432V195.25H547V199H533H531H434V206.5H400.5V181ZM342.5 200H342V198H344.5V204.5H359.5V206.5H342.5V200ZM290.5 201H292.5V208.558L303.173 218.26L301.827 219.74L290.5 209.442V201ZM101.5 206H173V210H105.5V276H127.5V278H105.5V282H89.5V327H79V323H86.5V278H101.5V206ZM199.5 208.5H204.5V219.5H199.5V208.5ZM292.5 236.777L298.357 227.014L296.643 225.986L290.5 236.223V252H292.5V236.777ZM199.5 241.5H204.5V251.5H199.5V241.5ZM531 263.5H530.5V285.5H621V283.5H550V273H533.5V263.5H533V258H531V263.5ZM548 283.5V275H532.5V283.5H548ZM143.211 276.5H150.5V278.5H143.789L130.533 286.846L129.467 285.154L143.211 276.5ZM59.5 323H69V327H59.5V323ZM164.5 363.5H168V413.5H164.5V383H137V412.5H135V381H164.5V363.5ZM647 463H688V519H686V465H649V507H604.5V505H647V463Z" fill="#454545"/>
<path d="M383 401.5H386.5V413.5H383V401.5Z" fill="#454545"/>
<path d="M382.5 439.5H386.5V489.5H382.5V439.5Z" fill="#454545"/>
<path d="M425.5 398.5V394.5H470.5V398.5H425.5Z" fill="#454545"/>
<path d="M383 505.5H386.5V526.5H383V505.5Z" fill="#454545"/>
<path d="M299 361.5H358V360H297.5V374H290V375.5H299V361.5Z" fill="#454545"/>
<path d="M299 361.5V375.5V403.5H300.5V363.5H358V361.5H299Z" fill="#454545"/>
<path d="M299 403.5V375.5H290V377.5H297.5V403.5H299Z" fill="#454545"/>
<path d="M298.5 480.5H301.5V438H298.5V480.5Z" fill="#454545"/>
<path d="M270.5 374H262V377.5H270.5V374Z" fill="#454545"/>
<path d="M424.726 117.5L422.5 120H425L433 111.5V109L424.726 117.5Z" fill="#454545"/>
<path d="M402.5 161.5H405.5V120H422.5L424.726 117.5H402.5V131.5V134V161.5Z" fill="#454545"/>
<path d="M402.5 131.5H380V134H402.5V131.5Z" fill="#454545"/>
<path fill-rule="evenodd" clip-rule="evenodd" d="M462.5 19.5H465.5V118.5H455V120H464.414L474.914 130.5H508.5V132.5H472.914L465.707 139.707L464.293 138.293L472.086 130.5L463.586 122H453V118.5H439V116.5H462.5V19.5ZM586 132.5H529V130.5H589.5V194.5H586V132.5Z" fill="#454545"/>
<path d="M531 199V225.5H533V199H531Z" fill="#454545"/>
<path d="M727.948 477.468V462.396H722.5V460.5H735.484V462.396H730.036V477.468H727.948Z" fill="#FF6B00"/>
<path d="M31.588 123.468H29.5V106.5H31.588V114.324H34.108L39.628 106.5H42.028L35.932 114.924L42.076 123.468H39.604L34.276 116.22H31.588V123.468Z" fill="#0085FF"/>
<path d="M50.284 123.468H48.196V108.396H42.748V106.5H55.732V108.396H50.284V123.468Z" fill="#0085FF"/>
<path d="M96.5 425.5H15.5L15.5 365.5H96.5L96.5 425.5Z" fill="#7000FF" fill-opacity="0.2"/>
<path fill-rule="evenodd" clip-rule="evenodd" d="M17.5 423.5H94.5V367.5H17.5V423.5ZM96.5 425.5L96.5 365.5H15.5L15.5 425.5H96.5Z" fill="white" fill-opacity="0.08"/>
<path d="M47.4983 404.499V383.967H56.6043C57.5516 383.967 58.4216 384.064 59.2143 384.257C60.0263 384.45 60.732 384.798 61.3313 385.301C61.8146 385.688 62.2206 386.2 62.5493 386.838C62.8973 387.457 63.0713 388.211 63.0713 389.1C63.0906 390.047 62.9166 390.888 62.5493 391.623C62.2013 392.358 61.602 392.976 60.7513 393.479C61.3506 393.653 61.863 393.914 62.2883 394.262C62.7136 394.61 63.052 395.016 63.3033 395.48C63.574 395.944 63.7673 396.447 63.8833 396.988C63.9993 397.529 64.0476 398.09 64.0283 398.67C63.9896 399.598 63.7383 400.458 63.2743 401.251C62.8296 402.024 62.24 402.653 61.5053 403.136C60.6353 403.735 59.6783 404.112 58.6343 404.267C57.5903 404.422 56.556 404.499 55.5313 404.499H47.4983ZM55.4153 392.29C55.8406 392.29 56.266 392.271 56.6913 392.232C57.1166 392.174 57.513 392.039 57.8803 391.826C58.1896 391.633 58.4506 391.372 58.6633 391.043C58.876 390.714 58.992 390.328 59.0113 389.883C59.0306 389.419 58.9533 389.042 58.7793 388.752C58.6053 388.462 58.3926 388.24 58.1413 388.085C57.832 387.892 57.4743 387.785 57.0683 387.766C56.6623 387.727 56.2466 387.708 55.8213 387.708H51.7033V392.29H55.4153ZM51.7033 400.787H55.5313C56.092 400.787 56.6816 400.758 57.3003 400.7C57.9383 400.623 58.4796 400.42 58.9243 400.091C59.195 399.878 59.4173 399.617 59.5913 399.308C59.7653 398.979 59.8523 398.573 59.8523 398.09C59.8523 397.645 59.7556 397.268 59.5623 396.959C59.369 396.65 59.1273 396.418 58.8373 396.263C58.5086 396.05 58.1316 395.925 57.7063 395.886C57.3003 395.847 56.875 395.828 56.4303 395.828L51.7033 395.857V400.787Z" fill="white"/>
<path d="M431.5 87.5L350.5 87.5V25.5L431.5 25.5V87.5Z" fill="#7000FF" fill-opacity="0.2"/>
<path fill-rule="evenodd" clip-rule="evenodd" d="M352.5 85.5L429.5 85.5V27.5L352.5 27.5V85.5ZM431.5 87.5V25.5L350.5 25.5V87.5L431.5 87.5Z" fill="white" fill-opacity="0.08"/>
<path d="M386.561 63.117L385.082 67.032H380.5L388.446 46.5H393.202L401.032 67.032H396.421L395 63.117H386.561ZM387.779 59.405H393.753L390.795 50.966L387.779 59.405Z" fill="white"/>
</svg>
