<svg width="772" height="586" viewBox="0 0 772 586" fill="none" xmlns="http://www.w3.org/2000/svg">
<path fill-rule="evenodd" clip-rule="evenodd" d="M703 56.5V68.5H765V95H770.5V129.5H765V165H713V152.5H665.5V163.5V164.5V165H711V203.5H723.5V259.5H711V326H761.5V458.5H733.5V461H697.5V458.5H672.5V440.5H636V413.5H604.5V440.5H602.5V481.5H471V549H387.5V526.5H299.5V506H167V584.5H84.5V518.5H1V412H106V333H123.5V284.5H109V255.5H194.5V220H156V88H270V1H425V8H471V65.5H516.5V98.5H566V81H611V104H650V56.5H703ZM620 284.5H599V303L566 340H557.5V434.5H510.5V319H432.5V252.5H497.5V308H555.5V250.5H620V284.5ZM330 289V264.5H315.5V314H347V401H387.5V362.5H412.5V289H330ZM412.5 264.5V277H406.5V264.5H412.5ZM487 200.5V161H489.5V157.5H467.5V161H430V114H392.5V161H390.5V164.5H430V200.5H487ZM340.5 166.5V179H327V164.5H343V166.5H340.5ZM561.5 142H599V163.5V165V209H568V164.5H561.5V142ZM699 91.5V100.5H690V91.5H699ZM225 174V198H207V174H225ZM240 284.5V274H222.5V284.5H240ZM300 395.5H278.5V399.5H163.5V455.5H300V395.5Z" fill="#22262F"/>
<path fill-rule="evenodd" clip-rule="evenodd" d="M703 56.5V68.5H765V95H770.5V129.5H765V165H713H711H665.5H634V209H669V280H682V341H725V326H761.5V458.5H733.5V461H697.5V458.5H672.5V440.5H636V413.5H604.5V440.5H602.5V481.5H513V434.5H557.5V340H566L599 303V284.5H620V250.5H555.5V287.5H497.5V252.5H432.5V319H412.5V289H330V264.5H315.5V278.5H278.5V264.5V263H241.5H240V257H238V225.5H240V199V197H225V174H207H184V132.5H295.5L307.5 120V85.5H322V11.5H337.5V1H425V8V56H443.5V85.5H469.5H485V65.5H516.5V98.5H566V81H611V104H650V56.5H703ZM240 284.5H222.5H123.5V333H106V412H1V518.5H84.5V584.5H167V506H163.5V455.5V399.5H240V284.5ZM599 142H561.5V164.5H568V209H599V165V163.5V142ZM487 200.5V161H489.5V157.5H467.5V161H430V114H392.5V161H390.5V164.5H430V200.5H487ZM340.5 166.5V179H327V164.5H343V166.5H340.5ZM412.5 277V264.5H406.5V277H412.5ZM699 91.5V100.5H690V91.5H699Z" fill="#1F2228"/>
<path d="M604 366.5H597V374.5H604V366.5Z" fill="#373D4B"/>
<path d="M645 401.5H636V410.5H645V401.5Z" fill="#373D4B"/>
<path d="M555 434.5H546V443.5H555V434.5Z" fill="#373D4B"/>
<path d="M471 461.5H423V478.5H471V461.5Z" fill="#373D4B"/>
<path d="M471 480.5H468V497.5H471V480.5Z" fill="#373D4B"/>
<path d="M470 501.5H464V542.5H470V501.5Z" fill="#373D4B"/>
<path d="M394 507.5H388V548.5H394V507.5Z" fill="#373D4B"/>
<path d="M394 444.5H388V485.5H394V444.5Z" fill="#373D4B"/>
<path d="M386 448.5H375V471.5H386V448.5Z" fill="#373D4B"/>
<path d="M301 455.5H290V465.5H301V455.5Z" fill="#373D4B"/>
<path d="M311 513.5H300V525.5H311V513.5Z" fill="#373D4B"/>
<path d="M84 462.5H75V471.5H84V462.5Z" fill="#373D4B"/>
<path d="M238 250.5H229V259.5H238V250.5Z" fill="#373D4B"/>
<path d="M238 199.5H229V208.5H238V199.5Z" fill="#373D4B"/>
<path d="M165 203.5H156V219.5H165V203.5Z" fill="#373D4B"/>
<path d="M224 88.5H208V95.5H224V88.5Z" fill="#373D4B"/>
<path d="M284 1.5H270V6.5H284V1.5Z" fill="#373D4B"/>
<path d="M307 34.5H299V50.5H307V34.5Z" fill="#373D4B"/>
<path fill-rule="evenodd" clip-rule="evenodd" d="M332 34.5H390V43.5H382V52.5H332V34.5Z" fill="#373D4B"/>
<path d="M369 111.5H360V119.5H369V111.5Z" fill="#373D4B"/>
<path d="M479 86.5H470V95.5H479V86.5Z" fill="#373D4B"/>
<path d="M425 13.5H416V22.5H425V13.5Z" fill="#373D4B"/>
<path d="M344 153.5H335V162.5H344V153.5Z" fill="#373D4B"/>
<path d="M347.5 204.5H337.5V211.5H347.5V204.5Z" fill="#373D4B"/>
<path d="M14 512.5H2V518.5H14V512.5Z" fill="#373D4B"/>
<path d="M681 295.5H663V343.5H681V295.5Z" fill="#373D4B"/>
<path d="M761 429.5H744V437.5H761V429.5Z" fill="#373D4B"/>
<path d="M559 167H567.5V178.5H562V172H559V167Z" fill="#373D4B"/>
<path d="M390 43.5H382V52.5H390V43.5Z" fill="#373D4B" fill-opacity="0.6"/>
<path fill-rule="evenodd" clip-rule="evenodd" d="M733 326.5H741V335.5H733V343.5H724V335.5H733V326.5Z" fill="#373D4B" fill-opacity="0.6"/>
<path d="M724 326.5H733V335.5H724V326.5Z" fill="#373D4B" fill-opacity="0.6"/>
<path d="M733 326.5H724V335.5H733V326.5Z" fill="#373D4B"/>
<path fill-rule="evenodd" clip-rule="evenodd" d="M692.245 375.5L736.798 396.947L728.991 413.165L694.024 396.333L689.133 406.493L681.404 402.772L686.295 392.613L684.438 391.719L692.245 375.5ZM686.295 392.613L686.83 391.5L694.56 395.221L694.024 396.333L686.295 392.613Z" fill="#373D4B"/>
<path d="M686.83 391.5L694.56 395.221L694.024 396.333L686.295 392.613L686.83 391.5Z" fill="#373D4B"/>
<path d="M254 139.5H245V148.5H254V139.5Z" fill="#373D4B" fill-opacity="0.6"/>
<path d="M254 130.5H245V139.5H254V130.5Z" fill="#373D4B"/>
<path d="M263 130.5H254V139.5H263V130.5Z" fill="#373D4B" fill-opacity="0.6"/>
<path fill-rule="evenodd" clip-rule="evenodd" d="M303.638 125.362L301.517 127.483L276.034 102H280.276L303.638 125.362ZM297.517 131.483L299.638 129.362L272.276 102H268.034L297.517 131.483ZM294.276 132H290.034L260.034 102H264.276L294.276 132ZM282.034 132H286.276L256.276 102H252.034L282.034 132ZM278.276 132H274.034L244.034 102H248.276L278.276 132ZM266.034 132H270.276L240.276 102H236.034L266.034 132ZM262.276 132H258.034L228.034 102H232.276L262.276 132ZM250.034 132H254.276L224.276 102H220.034L250.034 132ZM246.276 132H242.034L212.034 102H216.276L246.276 132ZM234.034 132H238.276L208.276 102H204.034L234.034 132ZM230.276 132H226.034L199 104.966V102H200.276L230.276 132ZM218.034 132H222.276L199 108.724V112.966L218.034 132ZM214.276 132H210.034L199 120.966V116.724L214.276 132ZM202.034 132H206.276L199 124.724V128.966L202.034 132ZM305.517 123.483L307.5 121.5V121.224L288.276 102H284.034L305.517 123.483ZM296.276 102H292.034L307.5 117.466V113.224L296.276 102ZM307.5 109.466L300.034 102H304.276L307.5 105.224V109.466Z" fill="#D9D9D9" fill-opacity="0.1"/>
<path fill-rule="evenodd" clip-rule="evenodd" d="M681 336.066L685.725 340H681V336.066Z" fill="#D9D9D9" fill-opacity="0.1"/>
<path fill-rule="evenodd" clip-rule="evenodd" d="M697.112 327H691.381L706.994 340H712.725L697.112 327ZM700.381 327H706.112L721.725 340H715.994L700.381 327ZM715.112 327H709.381L724 339.172V334.401L715.112 327ZM718.381 327H724V331.679L718.381 327ZM703.725 340L688.112 327H682.381L697.994 340H703.725ZM694.725 340H688.994L681 333.344V328.572L694.725 340ZM681 340H685.725L681 336.066V340Z" fill="#D9D9D9" fill-opacity="0.1"/>
<path fill-rule="evenodd" clip-rule="evenodd" d="M724 331.679L718.381 327H724V331.679Z" fill="#D9D9D9" fill-opacity="0.1"/>
<path fill-rule="evenodd" clip-rule="evenodd" d="M709.381 327H715.112L724 334.401V339.172L709.381 327Z" fill="#D9D9D9" fill-opacity="0.1"/>
<path fill-rule="evenodd" clip-rule="evenodd" d="M682.381 327L697.994 340H703.725L688.112 327H682.381Z" fill="#D9D9D9" fill-opacity="0.1"/>
<path fill-rule="evenodd" clip-rule="evenodd" d="M694.725 340L681 328.572V333.344L688.994 340H694.725Z" fill="#D9D9D9" fill-opacity="0.1"/>
<path fill-rule="evenodd" clip-rule="evenodd" d="M691.381 327L706.994 340H712.725L697.112 327H691.381Z" fill="#D9D9D9" fill-opacity="0.1"/>
<path fill-rule="evenodd" clip-rule="evenodd" d="M700.381 327L715.994 340H721.725L706.112 327H700.381Z" fill="#D9D9D9" fill-opacity="0.1"/>
<path fill-rule="evenodd" clip-rule="evenodd" d="M231.276 198.5H227.034L222 203.534V207.776L231.276 198.5ZM235.034 198.5H238V199.776L222 215.776V211.534L235.034 198.5ZM238 207.776V203.534L222 219.534V223.776L238 207.776ZM238 211.534V215.776L222 231.776V227.534L238 211.534ZM238 223.776V219.534L222 235.534V239.776L238 223.776ZM238 227.534V231.776L222 247.776V243.534L238 227.534ZM238 239.776V235.534L222 251.534V255.776L238 239.776ZM238 243.534V247.776L222 263.776V259.534L238 243.534ZM238 255.776V251.534L222 267.534V271.776L238 255.776ZM238 259.534V263.776L228.276 273.5H224.034L238 259.534ZM238 271.776V267.534L232.034 273.5H236.276L238 271.776ZM222 199.776L223.276 198.5H222V199.776Z" fill="#D9D9D9" fill-opacity="0.1"/>
<path fill-rule="evenodd" clip-rule="evenodd" d="M335.976 1.5H331.167L321.014 10.5H325.822L335.976 1.5ZM336 5.25311V10.5H330.081L336 5.25311ZM308 22.036L321 10.5125V14.7747L308 26.2982V22.036ZM321 22.8116V18.5494L308 30.0728V34.335L321 22.8116ZM321 26.5863V30.8485L308 42.3719V38.1097L321 26.5863ZM321 38.8853V34.6231L308 46.1466V50.4088L321 38.8853ZM321 42.66V46.9222L308 58.4456V54.1834L321 42.66ZM321 54.9591V50.6969L308 62.2203V66.4825L321 54.9591ZM321 58.7337V62.9959L308 74.5194V70.2572L321 58.7337ZM321 71.0328V66.7706L308 78.294V82.5562L321 71.0328ZM321 74.8075V79.0696L313.746 85.5H308.937L321 74.8075ZM321 85.5V82.8443L318.004 85.5H321ZM313.034 1.5H317.842L308 10.2244V5.96224L313.034 1.5ZM308.776 1.5L308 2.18757V1.5H308.776Z" fill="#D9D9D9" fill-opacity="0.1"/>
<path d="M322 1.5H326.909L308 18.2613V13.9991L322 1.5Z" fill="#D9D9D9" fill-opacity="0.1"/>
<path d="M265 342.5H261V398.5H265V342.5Z" fill="#282C34"/>
<path d="M276 263.5H272V278.5H276V263.5Z" fill="#282C34"/>
<path d="M339 179.5H335V195.5H339V179.5Z" fill="#282C34"/>
<path d="M482 65.5H478V83.5H482V65.5Z" fill="#282C34"/>
<path d="M649 164.5H645V206.5H649V164.5Z" fill="#282C34"/>
<path d="M226 132.5H222V173.5H226V132.5Z" fill="#282C34"/>
<path d="M195 456.5H191V505.5H195V456.5Z" fill="#282C34"/>
<path d="M539 435.5H535V480.5H539V435.5Z" fill="#282C34"/>
<path d="M124 286.5V290.5H152V286.5H124Z" fill="#282C34"/>
<path d="M683 258.5V262.5H711V258.5H683Z" fill="#282C34"/>
<path d="M185 173.5V177.5H206V173.5H185Z" fill="#282C34"/>
<path d="M425 36.5V40.5H442V36.5H425Z" fill="#282C34"/>
<path d="M257 342.5H253V398.5H257V342.5Z" fill="#282C34"/>
<path d="M268 263.5H264V278.5H268V263.5Z" fill="#282C34"/>
<path d="M331 179.5H327V195.5H331V179.5Z" fill="#282C34"/>
<path d="M474 65.5H470V83.5H474V65.5Z" fill="#282C34"/>
<path d="M641 164.5H637V206.5H641V164.5Z" fill="#282C34"/>
<path d="M218 132.5H214V173.5H218V132.5Z" fill="#282C34"/>
<path d="M210 132.5H206V173.5H210V132.5Z" fill="#282C34"/>
<path d="M187 456.5H183V505.5H187V456.5Z" fill="#282C34"/>
<path d="M531 435.5H527V480.5H531V435.5Z" fill="#282C34"/>
<path d="M124 294.5V298.5H152V294.5H124Z" fill="#282C34"/>
<path d="M683 266.5V270.5H711V266.5H683Z" fill="#282C34"/>
<path d="M185 181.5V185.5H206V181.5H185Z" fill="#282C34"/>
<path d="M425 44.5V48.5H442V44.5H425Z" fill="#282C34"/>
<path d="M399 104.5V107.5H411V104.5H399Z" fill="#282C34"/>
<path d="M249 342.5H245V398.5H249V342.5Z" fill="#282C34"/>
<path d="M260 263.5H256V278.5H260V263.5Z" fill="#282C34"/>
<path d="M179 456.5H175V505.5H179V456.5Z" fill="#282C34"/>
<path d="M523 435.5H519V480.5H523V435.5Z" fill="#282C34"/>
<path d="M124 302.5V306.5H152V302.5H124Z" fill="#282C34"/>
<path d="M683 274.5V278.5H711V274.5H683Z" fill="#282C34"/>
<path d="M185 189.5V193.5H206V189.5H185Z" fill="#282C34"/>
<path d="M425 52.5V56.5H442V52.5H425Z" fill="#282C34"/>
<path d="M399 110.5V113.5H411V110.5H399Z" fill="#282C34"/>
<path d="M171 456.5H167V505.5H171V456.5Z" fill="#282C34"/>
<path d="M515 435.5H511V480.5H515V435.5Z" fill="#282C34"/>
<path d="M124 310.5V314.5H152V310.5H124Z" fill="#282C34"/>
<path d="M683 282.5V286.5H711V282.5H683Z" fill="#282C34"/>
<path fill-rule="evenodd" clip-rule="evenodd" d="M426 0H269V87H155V221H193.5V254.5H108V285.5H122.5V332H105V411H0V519.5H83.5V585.5H168V507H298.5V527.5H386.5V550H472V482.5H603.5V441.5H605.5V414.5H635V441.5H671.5V459.5H696.5V462H734.5V459.5H762.5V325H712V260.5H724.5V202.5H712V166H766V130.5H771.5V94H766V67.5H704V55.5H649V103H612V80H565V97.5H517.5V64.5H472V7H426V0ZM710 166V204.5H722.5V258.5H710V327H760.5V457.5H732.5V460H698.5V457.5H673.5V439.5H637V412.5H603.5V439.5H601.5V480.5H473H470V548H388.5V525.5H300.5V505H166V583.5H85.5V517.5H2V413H107V334H124.5V283.5H110V256.5H195.5V219H157V89H271V2H424V9H470V66.5H515.5V99.5H567V82H610V105H651V57.5H702V69.5H764V96H769.5V128.5H764V164H714V151.5H664.5V162.5H633V166H710ZM666.5 164V153.5H712V164H666.5ZM700 90.5H689V101.5H700V90.5ZM698 92.5V99.5H691V92.5H698ZM431 113H391.5V131.5V134V160H389.5V165.5H429V201.5H488V162H490.5V156.5H466.5V160H431V113ZM391.5 162H393.5V115H429V162H468.5V158.5H488.5V160H486V199.5H431V163.5H391.5V162ZM600 141H560.5V165.5H567V210H600V166H618V162.5H600V141ZM598 143V208H569V163.5H562.5V143H598ZM344 163.5H326V180H341.5V166H344V163.5ZM328 165.5H339.5V178H328V165.5ZM226 173H206V199H226V173ZM224 175V197H208V175H224ZM621 249.5H554.5V307H498.5V251.5H431.5V320H509.5V374V377.5V435.5H558.5V341H566.448L600 303.381V285.5H621V249.5ZM619 251.5V283.5H598V302.619L565.552 339H556.5V433.5H511.5V318H433.5V253.5H496.5V309H556.5V251.5H619ZM413.5 263.5H405.5V278H413.5V263.5ZM411.5 265.5V276H407.5V265.5H411.5ZM331 263.5H314.5V315H346V402H388.5V363.5H413.5V361.5V360V288H331V263.5ZM329 265.5V290H411.5V361.5H386.5V400H348V313H316.5V265.5H329ZM241 273H221.5V285.5H241V273ZM239 275V283.5H223.5V275H239ZM301 394.5H277.5V398.5H162.5V456.5H301V394.5ZM299 396.5V454.5H164.5V400.5H279.5V396.5H299Z" fill="#454545"/>
<path fill-rule="evenodd" clip-rule="evenodd" d="M446 36.5H442V87.5H468V129.5H472V87.5H496V83.5H446V36.5ZM317.793 154.707L326.586 163.5H341.5V166H369V171H371V165.5H390.5V161.5H369H366H327.414L319.207 153.293L317.793 154.707ZM519 156.5H488V160.5H519V156.5ZM371 181H367V202.5H341V199H341.5V194.5H339.5V195.25H224.5V199H238.5H240.5H337.5V206.5H371V181ZM429 200H429.5V198H427V204.5H412V206.5H429V200ZM481 201H479V208.558L468.327 218.26L469.673 219.74L481 209.442V201ZM670 206H598.5V210H666V276H644V278H666V282H682V327H692.5V323H685V278H670V206ZM572 208.5H567V219.5H572V208.5ZM479 236.777L473.143 227.014L474.857 225.986L481 236.223V252H479V236.777ZM572 241.5H567V251.5H572V241.5ZM240.5 263.5H241V285.5H150.5V283.5H221.5V273H238V263.5H238.5V258H240.5V263.5ZM223.5 283.5V275H239V283.5H223.5ZM628.289 276.5H621V278.5H627.711L640.967 286.846L642.033 285.154L628.289 276.5ZM712 323H702.5V327H712V323ZM607 363.5H603.5V413.5H607V383H634.5V412.5H636.5V381H607V363.5ZM124.5 463H83.5V519H85.5V465H122.5V507H167V505H124.5V463Z" fill="#454545"/>
<path d="M388.5 401.5H385V413.5H388.5V401.5Z" fill="#454545"/>
<path d="M389 439.5H385V489.5H389V439.5Z" fill="#454545"/>
<path d="M346 398.5V394.5H301V398.5H346Z" fill="#454545"/>
<path d="M388.5 505.5H385V526.5H388.5V505.5Z" fill="#454545"/>
<path d="M472.5 361.5H413.5V360H474V374H481.5V375.5H472.5V361.5Z" fill="#454545"/>
<path d="M472.5 361.5V375.5V403.5H471V363.5H413.5V361.5H472.5Z" fill="#454545"/>
<path d="M472.5 403.5V375.5H481.5V377.5H474V403.5H472.5Z" fill="#454545"/>
<path d="M473 480.5H470V438H473V480.5Z" fill="#454545"/>
<path d="M501 374H509.5V377.5H501V374Z" fill="#454545"/>
<path d="M346.774 117.5L349 120H346.5L338.5 111.5V109L346.774 117.5Z" fill="#454545"/>
<path d="M369 161.5H366V120H349L346.774 117.5H369V131.5V134V161.5Z" fill="#454545"/>
<path d="M369 131.5H391.5V134H369V131.5Z" fill="#454545"/>
<path fill-rule="evenodd" clip-rule="evenodd" d="M309 19.5H306V118.5H316.5V120H307.086L296.586 130.5H263V132.5H298.586L305.793 139.707L307.207 138.293L299.414 130.5L307.914 122H318.5V118.5H332.5V116.5H309V19.5ZM185.5 132.5H242.5V130.5H182V194.5H185.5V132.5Z" fill="#454545"/>
<path d="M240.5 199V225.5H238.5V199H240.5Z" fill="#454545"/>
<path d="M43.552 477.468L43.552 462.396H49V460.5H36.016V462.396H41.464L41.464 477.468H43.552Z" fill="#FF6B00"/>
<path d="M717.856 123.468H715.768V106.5H717.856V114.324H720.376L725.896 106.5H728.296L722.2 114.924L728.344 123.468H725.872L720.544 116.22H717.856V123.468Z" fill="#0085FF"/>
<path d="M736.552 123.468H734.464V108.396H729.016V106.5H742V108.396H736.552V123.468Z" fill="#0085FF"/>
<path d="M675 425.5H756V365.5H675V425.5Z" fill="#7000FF" fill-opacity="0.2"/>
<path fill-rule="evenodd" clip-rule="evenodd" d="M754 423.5H677V367.5H754V423.5ZM675 425.5V365.5H756V425.5H675Z" fill="white" fill-opacity="0.08"/>
<path d="M707.468 404.499V383.967H716.574C717.521 383.967 718.391 384.063 719.184 384.257C719.996 384.45 720.701 384.798 721.301 385.301C721.784 385.687 722.19 386.2 722.519 386.838C722.867 387.456 723.041 388.21 723.041 389.1C723.06 390.047 722.886 390.888 722.519 391.623C722.171 392.357 721.571 392.976 720.721 393.479C721.32 393.653 721.832 393.914 722.258 394.262C722.683 394.61 723.021 395.016 723.273 395.48C723.543 395.944 723.737 396.446 723.853 396.988C723.969 397.529 724.017 398.09 723.998 398.67C723.959 399.598 723.708 400.458 723.244 401.251C722.799 402.024 722.209 402.652 721.475 403.136C720.605 403.735 719.648 404.112 718.604 404.267C717.56 404.421 716.525 404.499 715.501 404.499H707.468ZM715.385 392.29C715.81 392.29 716.235 392.27 716.661 392.232C717.086 392.174 717.482 392.038 717.85 391.826C718.159 391.632 718.42 391.371 718.633 391.043C718.845 390.714 718.961 390.327 718.981 389.883C719 389.419 718.923 389.042 718.749 388.752C718.575 388.462 718.362 388.239 718.111 388.085C717.801 387.891 717.444 387.785 717.038 387.766C716.632 387.727 716.216 387.708 715.791 387.708H711.673V392.29H715.385ZM711.673 400.787H715.501C716.061 400.787 716.651 400.758 717.27 400.7C717.908 400.622 718.449 400.419 718.894 400.091C719.164 399.878 719.387 399.617 719.561 399.308C719.735 398.979 719.822 398.573 719.822 398.09C719.822 397.645 719.725 397.268 719.532 396.959C719.338 396.649 719.097 396.417 718.807 396.263C718.478 396.05 718.101 395.924 717.676 395.886C717.27 395.847 716.844 395.828 716.4 395.828L711.673 395.857V400.787Z" fill="white"/>
<path d="M340 87.5L421 87.5V25.5L340 25.5V87.5Z" fill="#7000FF" fill-opacity="0.2"/>
<path fill-rule="evenodd" clip-rule="evenodd" d="M419 85.5L342 85.5V27.5L419 27.5V85.5ZM340 87.5V25.5L421 25.5V87.5L340 87.5Z" fill="white" fill-opacity="0.08"/>
<path d="M384.939 63.117L386.418 67.032H391L383.054 46.5H378.298L370.468 67.032H375.079L376.5 63.117H384.939ZM383.721 59.405H377.747L380.705 50.966L383.721 59.405Z" fill="white"/>
</svg>
