<svg width="753" height="668" viewBox="0 0 753 668" fill="none" xmlns="http://www.w3.org/2000/svg">
<path fill-rule="evenodd" clip-rule="evenodd" d="M88.5 351V421.5H64V408.5H1V283.5H88.5V311.5H94.5V202.5H169.5L167 168.5L272 165V161.5H277.5V154.5H271L265.5 127L271 125.5L270 121L264 122L259 91.5L264 90V86L321 75.5L322 81.5L327.5 80L315.5 16L376 17.5V37.5H435V41H436.5V1H535V4.5H571.5V1H650V35.5H655.5V62H659.5V35.5H688.5V230.5H687V233H752V340H715.5V382.5H629.5V423H622.5V440.5H606V445L602 448C599.742 470.583 593.758 481.53 570.5 496.5C569.78 514.797 566.474 524.503 551 540L561.5 552L559.5 555L561.5 557.5L565 555L585 582L548 608L539 597.5L536.5 599.5L539 603L528 608L529 610.5L540 606.5L552.5 628.5L473 666L439 596.5L436.5 597.5L444.5 615L426.5 625.5H274V602.5H227.5V566.5H226V601H172.5V594H161.5V527H147.5L95.5 478V351H88.5ZM295 228.5V219L328 220.5L330.5 219L375 230.5L381.5 213L372.5 210L381.5 175.5L465 174L465.5 144.5L487.5 178.5L489.5 256L485.5 252.5H475L471 280.5H467V273.5L408.5 270L407 277L364 271.5L363.5 265L297 259.5V266.5H292.5L295 228.5ZM336 151.5V195L352 197.5L363.5 149H341.5L337.5 145.5H334V151.5H336ZM199.5 236L194 182.5L259.5 180.5V228.5H266V230.5L261 234.5L199.5 236ZM234.5 259.5L241 331.5H231.5L209 361L141.5 365L135.5 266.5L234.5 259.5ZM273 384V333.5H323.5V350.5H334V352H336.5V413.5H334V461.5H252V384H273ZM470 349V359H467.5V410.5H470V418H456V445H425.5V486.5L421.5 484.5V480.5H366.5V447H370.5V413.5H366.5V352H459.5L462.5 349H470ZM499.5 270H595V321H571.5V408H502V318.5H496.5V270V265.8L499.5 270ZM558.5 162V178.5H552.5V230H607.5V181.5H629.5V168H560V162H558.5ZM626 198H659.5V233L669 257V311.5H632V257L626 233V198ZM325.5 541.5V546.5H330.5V572.5H386.5V528H424V516L427.5 513.5V510H421.5V513.5H330.5V541.5H325.5ZM497 476V445H562V474H560H499V476H497Z" fill="#1F2228"/>
<path d="M436.5 1V41H454V52.5V64L423.5 143.5L390 145.5V137L370 138.5V148.5L363.5 149L355.082 184.5L377.457 191L381.5 175.5L465 174L465.5 144.5L485.5 88.5H503.5V135.5H548V120H558.5V100H548V90H535V78H548V4.5H535V1H436.5Z" fill="#2F3541"/>
<path d="M687 230.5H688.5V162H659.5V198V233L669 257V311.5H632V257L626 233V230H607.5H590.5V264H544.5V270H595V321H571.5V408H502V318.5H496.5V367.5H467.5V410.5H470V418H456V445H467.5V467H497V445H562V474H560H499V476H497V482.5H548C554.205 481.909 557.082 480.626 562 478L574 494.188C594.372 480.357 599.859 469.405 602 448L606 445V440.5H622.5V423H629.5V382.5H715.5V340H752V233H687V230.5Z" fill="#2F3541"/>
<path d="M172.5 601H226V575.5H161.5V594H172.5V601Z" fill="#2F3541"/>
<path d="M376.5 591V572.5H355V588H329V591H376.5Z" fill="#2F3541"/>
<path d="M376.5 591V572.5H355V588H329V591H376.5Z" fill="#22262F"/>
<path fill-rule="evenodd" clip-rule="evenodd" d="M272 165L167 168.5L168.029 182.5H194L259.5 180.5V228.5H266V230.5L261 234.5L199.5 236L201.5 261.833L234.5 259.5L241 331.5H231.5L209 361L172 363.193V424H189L219.5 544H281.5V550.5H330.5V546.5H325.5V541.5H330.5V513.5H421.5V510H427.5V513.5L486 498.5L497 495V482.5V476V467H467.5V445H456H425.5V486.5L421.5 484.5V480.5H366.5V447H370.5V413.5H366.5V352H459.5L462.5 349H470V359H467.5V367.5H496.5V318.5V270V265.8L489.5 256L485.5 252.5H475L471 280.5H467V273.5L408.5 270L407 277L364 271.5L363.5 265L297 259.5V266.5H292.5L295 228.5V219L328 220.5L330.5 219L375 230.5L381.5 213L372.5 210L377.457 191L355.082 184.5L352 197.5L336 195V151.5H334V145.5H337.5L341.5 149H352.5L327.5 16.2975L315.5 16L327.5 80L322 81.5L321 75.5L264 86V90L259 91.5L264 122L270 121L271 125.5L265.5 127L271 154.5H277.5V161.5H272V165ZM298.5 121C297.049 119.694 297.049 117.306 298.5 116C299.806 114.824 301.694 114.824 303 116C304.451 117.306 304.451 119.694 303 121C301.694 122.176 299.806 122.176 298.5 121ZM303.5 155.5C302.049 154.194 302.049 151.806 303.5 150.5C304.806 149.324 306.694 149.324 308 150.5C309.451 151.806 309.451 154.194 308 155.5C306.694 156.676 304.806 156.676 303.5 155.5ZM328.5 116V111.5H333V116H328.5ZM273 384V333.5H323.5V350.5H334V352H336.5V413.5H334V461.5H252V384H273Z" fill="#22262F"/>
<path d="M571.5 1V4.5H561.5V90H593V108H597V105H621V108H624V90H655.5V62V35.5H650V1H571.5Z" fill="#22262F"/>
<path d="M151.5 365H155.5V425H151.5V365Z" fill="#282C34"/>
<path d="M173.823 225.23L177.817 225.084L181.205 263.854L177.212 264L173.823 225.23Z" fill="#282C34"/>
<path d="M339.763 194L343.559 194.826L333.297 219.695L329.5 218.869L339.763 194Z" fill="#282C34"/>
<path d="M569.5 231H573.5V264H569.5V231Z" fill="#282C34"/>
<path d="M563.5 231H567.5V264H563.5V231Z" fill="#282C34"/>
<path d="M557.5 231H561.5V264H557.5V231Z" fill="#282C34"/>
<path d="M332.5 573H336.5V588H332.5V573Z" fill="#282C34"/>
<path d="M445.5 446H449.5V467H445.5V446Z" fill="#282C34"/>
<path d="M162.5 581H166.5V593H162.5V581Z" fill="#282C34"/>
<path d="M176.5 557V561H162.5V557H176.5Z" fill="#282C34"/>
<path d="M329.5 547V551H281.5V547H329.5Z" fill="#282C34"/>
<path d="M496.5 373V377H468.5V373H496.5Z" fill="#282C34"/>
<path d="M292.5 241V245H264.5V241H292.5Z" fill="#282C34"/>
<path d="M195.02 185.545L195.14 189.543L169.441 190.458L169.321 186.46L195.02 185.545Z" fill="#282C34"/>
<path d="M377.5 190.457L376.327 194.227L355.018 185.77L356.191 182L377.5 190.457Z" fill="#282C34"/>
<path d="M626.5 206V210H607.5V206H626.5Z" fill="#282C34"/>
<path d="M688.5 129V133H659.5V129H688.5Z" fill="#282C34"/>
<path d="M496.5 367V371H468.5V367H496.5Z" fill="#282C34"/>
<path d="M292.5 235V239H264.5V235H292.5Z" fill="#282C34"/>
<path d="M626.5 200V204H607.5V200H626.5Z" fill="#282C34"/>
<path d="M688.5 123V127H659.5V123H688.5Z" fill="#282C34"/>
<path d="M157.5 365H161.5V425H157.5V365Z" fill="#282C34"/>
<path d="M179.814 225.011L183.807 224.865L187.196 263.634L183.202 263.781L179.814 225.011Z" fill="#282C34"/>
<path d="M345.458 195.24L349.254 196.066L338.992 220.935L335.195 220.108L345.458 195.24Z" fill="#282C34"/>
<path d="M575.5 231H579.5V264H575.5V231Z" fill="#282C34"/>
<path d="M338.5 573H342.5V588H338.5V573Z" fill="#282C34"/>
<path d="M451.5 446H455.5V467H451.5V446Z" fill="#282C34"/>
<path d="M168.5 581H172.5V593H168.5V581Z" fill="#282C34"/>
<path d="M176.5 563V567H162.5V563H176.5Z" fill="#282C34"/>
<path d="M329.5 553V557H281.5V553H329.5Z" fill="#282C34"/>
<path d="M496.5 379V383H468.5V379H496.5Z" fill="#282C34"/>
<path d="M195.2 191.542L195.32 195.54L169.621 196.454L169.501 192.456L195.2 191.542Z" fill="#282C34"/>
<path d="M375.741 196.111L374.568 199.881L353.259 191.424L354.432 187.654L375.741 196.111Z" fill="#282C34"/>
<path d="M626.5 212V216H607.5V212H626.5Z" fill="#282C34"/>
<path d="M688.5 135V139H659.5V135H688.5Z" fill="#282C34"/>
<path d="M163.5 365H167.5V425H163.5V365Z" fill="#282C34"/>
<path d="M185.804 224.792L189.798 224.646L193.186 263.415L189.193 263.561L185.804 224.792Z" fill="#282C34"/>
<path d="M350.953 196.963L354.749 197.789L344.686 222.174L340.89 221.347L350.953 196.963Z" fill="#282C34"/>
<path d="M581.5 231H585.5V264H581.5V231Z" fill="#282C34"/>
<path d="M344.5 573H348.5V588H344.5V573Z" fill="#282C34"/>
<path d="M457.5 446H461.5V467H457.5V446Z" fill="#282C34"/>
<path d="M174.5 581H178.5V593H174.5V581Z" fill="#282C34"/>
<path d="M176.5 569V573H162.5V569H176.5Z" fill="#282C34"/>
<path d="M329.5 559V563H281.5V559H329.5Z" fill="#282C34"/>
<path d="M496.5 385V389H468.5V385H496.5Z" fill="#282C34"/>
<path d="M195.38 197.539L195.5 201.537L169.801 202.451L169.681 198.454L195.38 197.539Z" fill="#282C34"/>
<path d="M373.982 201.766L372.809 205.536L351.5 197.079L352.673 193.309L373.982 201.766Z" fill="#282C34"/>
<path d="M626.5 218V222H607.5V218H626.5Z" fill="#282C34"/>
<path d="M688.5 141V145H659.5V141H688.5Z" fill="#282C34"/>
<path d="M451.5 19V23H437.5V19H451.5Z" fill="#282C34"/>
<path d="M451.5 2H455.5V15H451.5V2Z" fill="#282C34"/>
<path d="M169.5 365H173.5V425H169.5V365Z" fill="#282C34"/>
<path d="M191.795 224.573L195.788 224.427L199.177 263.196L195.183 263.342L191.795 224.573Z" fill="#282C34"/>
<path d="M587.5 231H591.5V264H587.5V231Z" fill="#282C34"/>
<path d="M350.5 573H354.5V588H350.5V573Z" fill="#282C34"/>
<path d="M463.5 446H467.5V467H463.5V446Z" fill="#282C34"/>
<path d="M180.5 581H184.5V593H180.5V581Z" fill="#282C34"/>
<path d="M176.5 575V579H162.5V575H176.5Z" fill="#282C34"/>
<path d="M329.5 565V569H281.5V565H329.5Z" fill="#282C34"/>
<path d="M496.5 391V395H468.5V391H496.5Z" fill="#282C34"/>
<path d="M626.5 224V228H607.5V224H626.5Z" fill="#282C34"/>
<path d="M688.5 147V151H659.5V147H688.5Z" fill="#282C34"/>
<path d="M451.5 25V29H437.5V25H451.5Z" fill="#282C34"/>
<path d="M457.5 2H461.5V15H457.5V2Z" fill="#282C34"/>
<path d="M688.5 153V157H659.5V153H688.5Z" fill="#282C34"/>
<path d="M451.5 31V35H437.5V31H451.5Z" fill="#282C34"/>
<path d="M688.5 159V163H659.5V159H688.5Z" fill="#282C34"/>
<path d="M451.5 37V41H437.5V37H451.5Z" fill="#282C34"/>
<path d="M186.5 581H190.5V593H186.5V581Z" fill="#282C34"/>
<path d="M192.5 581H196.5V593H192.5V581Z" fill="#282C34"/>
<path d="M198.5 581H202.5V593H198.5V581Z" fill="#282C34"/>
<path fill-rule="evenodd" clip-rule="evenodd" d="M601.5 455.976L580.091 447.343C579.895 448.197 579.696 449.032 579.492 449.848L600.339 459.715L601.5 456.5V455.976ZM578.388 453.94C578.619 453.152 578.844 452.343 579.064 451.514L599.649 461.626L597.925 466.399L578.388 453.94ZM577.753 456.018C577.453 456.958 577.144 457.866 576.824 458.744L595.6 472.839L596.927 469.164L577.753 456.018ZM574.979 463.24C575.237 462.685 575.488 462.116 575.734 461.531L576.187 461L593.983 475.72L591.127 479.147L574.979 463.24ZM573.777 465.641C573.208 466.696 572.611 467.691 571.983 468.629L587.266 483.684L587.5 483.5L590.173 480.292L573.777 465.641ZM568.574 472.867C569.361 472.058 570.108 471.19 570.817 470.261L585.696 484.917L582.133 487.717L568.574 472.867ZM566.187 475.045C565.494 475.603 564.774 476.127 564.024 476.618L577.964 490.992L580.66 488.874L566.187 475.045ZM557.828 479.707C559.2 479.197 560.494 478.622 561.716 477.977L576.275 492.319L573.5 494.5L573.121 494.773L557.828 479.707ZM555.729 480.421C554.314 480.858 552.822 481.238 551.248 481.566L568.229 498.295L571.49 495.947L555.729 480.421Z" fill="#282C34"/>
<path d="M566.615 499.457L549.5 482.5H544L563.5 501.925L566.615 499.457Z" fill="#282C34"/>
<path d="M618 101.5V105.5H599V101.5H618Z" fill="#282C34"/>
<path d="M618 95.5V99.5H599V95.5H618Z" fill="#282C34"/>
<path d="M618 107.5V111.5H599V107.5H618Z" fill="#282C34"/>
<path d="M650 65H654V78H650V65Z" fill="#282C34"/>
<path d="M656 65H660V78H656V65Z" fill="#282C34"/>
<path d="M5.5 286H20.5V297H5.5V286Z" fill="#373D4B"/>
<path d="M22.5 286H37.5V297H22.5V286Z" fill="#373D4B"/>
<path d="M95.5 230H107.5V247H95.5V230Z" fill="#373D4B"/>
<path d="M290.5 315H301.5V333H290.5V315Z" fill="#373D4B"/>
<path d="M254.5 462H264.5V472H254.5V462Z" fill="#373D4B"/>
<path d="M268.5 486H299.5V500H268.5V486Z" fill="#373D4B"/>
<path d="M265.5 526H285.5V541H265.5V526Z" fill="#373D4B"/>
<path d="M348.5 505H366.5V513H348.5V505Z" fill="#373D4B"/>
<path d="M476.5 467H495.5V475H476.5V467Z" fill="#373D4B"/>
<path d="M471.5 574.26L489.428 564.253L494.449 573.25L476.521 583.256L471.5 574.26Z" fill="#373D4B"/>
<path d="M480.215 580.142L487.703 575.963L494.811 588.697L487.323 592.877L480.215 580.142Z" fill="#373D4B"/>
<path d="M477.5 592.179L484.988 588L492.096 600.734L484.608 604.914L477.5 592.179Z" fill="#373D4B"/>
<path d="M450.474 619.925L463.994 612.379L466.802 617.409L453.282 624.955L450.474 619.925Z" fill="#373D4B"/>
<path d="M521.919 557.079L531.02 552L534.591 558.399L525.491 563.478L521.919 557.079Z" fill="#373D4B"/>
<path d="M485.5 475H495.5V484H485.5V475Z" fill="#373D4B"/>
<path d="M355.5 471H366.5V481H355.5V471Z" fill="#373D4B"/>
<path d="M266.5 587H273.5V602H266.5V587Z" fill="#373D4B"/>
<path d="M418.322 561.188L425.312 560.822L425.678 567.812L418.688 568.178L418.322 561.188Z" fill="#373D4B"/>
<path d="M428.5 544.366L435.49 544L436.335 560.113L429.345 560.48L428.5 544.366Z" fill="#373D4B"/>
<path d="M436.5 512.408L443.073 510L451 521.5L444.427 523.908L436.5 512.408Z" fill="#373D4B"/>
<path d="M201.2 458.862L225.23 452.673L233.574 485.075L209.544 491.264L201.2 458.862Z" fill="#373D4B"/>
<path d="M292.5 267H301.5V277H292.5V267Z" fill="#373D4B"/>
<path d="M220.5 494C220.5 496.761 218.261 499 215.5 499C212.739 499 210.5 496.761 210.5 494C210.5 491.239 212.739 489 215.5 489C218.261 489 220.5 491.239 220.5 494Z" fill="#373D4B"/>
<path d="M181.5 443.434L192.227 441L194.44 450.752L183.713 453.186L181.5 443.434Z" fill="#373D4B"/>
<path d="M182.5 435.901L190.877 434L192.605 441.616L184.228 443.516L182.5 435.901Z" fill="#373D4B"/>
<path d="M184.5 431.187L189.732 430L190.811 434.756L185.579 435.943L184.5 431.187Z" fill="#373D4B"/>
<path d="M188.5 428.5C188.5 429.881 187.381 431 186 431C184.619 431 183.5 429.881 183.5 428.5C183.5 427.119 184.619 426 186 426C187.381 426 188.5 427.119 188.5 428.5Z" fill="#373D4B"/>
<path d="M96.5 371H113.5V399H96.5V371Z" fill="#373D4B"/>
<path d="M96.5 401H113.5V429H96.5V401Z" fill="#373D4B"/>
<path d="M96.5 431H113.5V459H96.5V431Z" fill="#373D4B"/>
<path d="M420.5 89C420.5 101.703 410.203 112 397.5 112C384.797 112 374.5 101.703 374.5 89C374.5 76.2975 384.797 66 397.5 66C410.203 66 420.5 76.2975 420.5 89Z" fill="#373D4B"/>
<path d="M511.5 82H527.5V88H511.5V82Z" fill="#373D4B"/>
<path d="M547.5 49H557.5V77H547.5V49Z" fill="#373D4B"/>
<path d="M535.5 77H548.5V79H535.5V77Z" fill="#373D4B"/>
<path d="M572.5 71H601.5V82H572.5V71Z" fill="#373D4B"/>
<path d="M638.5 79H654.5V89H638.5V79Z" fill="#373D4B"/>
<path d="M660.5 51H675.5V60H660.5V51Z" fill="#373D4B"/>
<path d="M630.5 42V2H632.5V12H637.5V33.5H639.5V42H630.5Z" fill="#373D4B"/>
<path d="M612.5 154H623.5V167H612.5V154Z" fill="#373D4B"/>
<path d="M488.5 176H501.5V191H488.5V176Z" fill="#373D4B"/>
<path d="M512.5 136H524.5V150H512.5V136Z" fill="#373D4B"/>
<path d="M399.5 147H415.5V152H399.5V147Z" fill="#373D4B"/>
<path d="M521.5 542C521.5 544.209 519.709 546 517.5 546C515.291 546 513.5 544.209 513.5 542C513.5 539.791 515.291 538 517.5 538C519.709 538 521.5 539.791 521.5 542Z" fill="#373D4B"/>
<path d="M493.5 562C493.5 564.209 491.709 566 489.5 566C487.291 566 485.5 564.209 485.5 562C485.5 559.791 487.291 558 489.5 558C491.709 558 493.5 559.791 493.5 562Z" fill="#373D4B"/>
<path fill-rule="evenodd" clip-rule="evenodd" d="M447.195 82.6266L445.563 86.8532L467.477 75.482L464.87 73.4547L447.195 82.6266ZM443.149 93.1059L444.781 88.8793L468.726 76.4538L471.333 78.481L443.149 93.1059ZM442.367 95.1319L440.735 99.3585L475.189 81.4801L472.582 79.4529L442.367 95.1319ZM438.321 105.611L439.953 101.385L476.438 82.4519L476.5 82.5L478.672 84.6724L438.321 105.611ZM437.539 107.637L435.907 111.864L481.964 87.9643L479.739 85.7391L437.539 107.637ZM433.493 118.116L435.125 113.89L483.091 89H486L485.133 91.3202L433.493 118.116ZM432.711 120.143L431.079 124.369L482.814 97.5235L484.381 93.3302L432.711 120.143ZM428.665 130.622L430.297 126.395L482.062 99.5336L480.495 103.727L428.665 130.622ZM427.883 132.648L426.251 136.874L478.176 109.93L479.743 105.737L427.883 132.648ZM423.837 143.127L425.469 138.9L477.424 111.94L475.857 116.134L423.837 143.127ZM425.407 143.933L432.395 143.686L473.538 122.337L475.105 118.144L425.407 143.933ZM442.734 143.321L435.745 143.568L472.786 124.347L471.219 128.54L442.734 143.321ZM446.084 143.203L453.073 142.956L468.9 134.744L470.467 130.55L446.084 143.203ZM463.411 142.591L456.423 142.838L468.148 136.753L466.581 140.947L463.411 142.591ZM447.977 80.6003L463.621 72.4827L461.014 70.4554L449.609 76.3737L447.977 80.6003ZM450.391 74.3476L459.765 69.4836L457.158 67.4563L452.023 70.121L450.391 74.3476ZM454 65L455.909 66.4845L452.805 68.095L454 65Z" fill="#D9D9D9" fill-opacity="0.1"/>
<path fill-rule="evenodd" clip-rule="evenodd" d="M535.563 4H535.5V4.06256L535.563 4ZM537.734 4L535.5 6.23413V9.06256L540.563 4H537.734ZM535.5 14.0626V11.2341L542.734 4H545.563L535.5 14.0626ZM535.5 16.2341V19.0626L547.5 7.06256V4.23413L535.5 16.2341ZM535.5 24.0626V21.2341L547.5 9.23413V12.0626L535.5 24.0626ZM535.5 26.2341V29.0626L547.5 17.0626V14.2341L535.5 26.2341ZM535.5 34.0626V31.2341L547.5 19.2341V22.0626L535.5 34.0626ZM535.5 36.2341V39.0626L547.5 27.0626V24.2341L535.5 36.2341ZM535.5 44.0626V41.2341L547.5 29.2341V32.0626L535.5 44.0626ZM535.5 46.2341V49.0626L547.5 37.0626V34.2341L535.5 46.2341ZM535.5 54.0626V51.2341L547.5 39.2341V42.0626L535.5 54.0626ZM535.5 56.2341V59.0626L547.5 47.0626V44.2341L535.5 56.2341ZM535.5 64.0626V61.2341L547.5 49.2341V52.0626L535.5 64.0626ZM535.5 66.2341V69.0626L547.5 57.0626V54.2341L535.5 66.2341ZM535.5 74.0626V71.2341L547.5 59.2341V62.0626L535.5 74.0626ZM535.5 76.2341V77H537.563L547.5 67.0626V64.2341L535.5 76.2341ZM542.563 77H539.734L547.5 69.2341V72.0626L542.563 77ZM544.734 77H547.5V74.2341L544.734 77Z" fill="#D9D9D9" fill-opacity="0.1"/>
<path fill-rule="evenodd" clip-rule="evenodd" d="M390 137L384.762 137.511L370.142 145.097L370.479 148.302L390 138.173V137ZM382.763 146.928L374.113 148.037L390 139.793V143.173L382.763 146.928ZM386.91 146.396L390 146V144.793L386.91 146.396ZM372.895 138.669L380.916 137.886L369.98 143.561L369.643 140.356L372.895 138.669Z" fill="#D9D9D9" fill-opacity="0.1"/>
<path fill-rule="evenodd" clip-rule="evenodd" d="M435.5 0H536V3.5H570.5V0H651V34.5H656.5V61H658.5V34.5H689.5V231.5H688V232H753V341H716.5V383.5H630.5V424H623.5V441.5H607V445.5L602.951 448.537C601.805 459.677 599.714 468.115 594.971 475.638C590.231 483.154 582.906 489.659 571.478 497.059C571.098 506.006 570.068 513.007 567.202 519.694C564.364 526.314 559.761 532.548 552.366 540.043L562.757 551.918L560.738 554.946L561.689 556.136L565.219 553.615L586.414 582.229L547.832 609.34L538.87 598.885L537.864 599.689L540.52 603.408L529.283 608.515L529.569 609.229L540.452 605.272L553.902 628.944L472.535 667.325L438.51 597.773L437.846 598.039L445.786 615.408L426.77 626.5H273V603.5H226.5V602H171.5V595H160.5V528H147.103L94.5 478.432V352H89.5V422.5H63V409.5H0V282.5H89.5V310.5H93.5V201.5H168.424L165.926 167.535L271 164.033V160.5H276.5V155.5H270.18L264.336 126.281L269.817 124.786L269.229 122.142L263.175 123.151L257.871 90.7947L263 89.256V85.1674L321.819 74.3323L322.804 80.2441L326.347 79.2779L314.289 14.9697L377 16.5245V36.5H435.5V0ZM687.5 229.5V36.5H660.5V63H654.5V36.5H649V2H572.5V5.5H534V2H437.5V42H434V38.5H375V18.4755L316.711 17.0303L328.653 80.7221L321.196 82.7559L320.181 76.6677L265 86.8326V90.744L260.129 92.2053L264.825 120.849L270.771 119.858L272.183 126.214L266.664 127.719L271.82 153.5H278.5V162.5H273V165.967L168.074 169.465L170.576 203.5H95.5V312.5H87.5V284.5H2V407.5H65V420.5H87.5V350H96.5V477.568L147.897 526H162.5V593H173.5V600H225V565.5H228.5V601.5H275V624.5H426.23L443.214 614.592L435.154 596.961L439.49 595.227L473.465 664.675L551.098 628.056L539.548 607.729L528.431 611.771L526.717 607.485L537.48 602.592L535.136 599.311L539.13 596.115L548.168 606.66L583.586 581.771L564.781 556.385L561.311 558.864L558.262 555.054L560.243 552.082L549.632 539.955L550.292 539.293C557.984 531.59 562.583 525.393 565.363 518.906C568.143 512.42 569.143 505.562 569.501 496.461L569.521 495.941L569.959 495.659C581.538 488.206 588.707 481.822 593.279 474.571C597.844 467.331 599.882 459.127 601.005 447.9L601.049 447.464L605 444.5V439.5H621.5V422H628.5V381.5H714.5V339H751V234H686V229.5H687.5ZM327.5 110.5H334V117H327.5V110.5ZM329.5 112.5V115H332V112.5H329.5ZM297.831 115.257C299.518 113.739 301.982 113.739 303.669 115.257C305.562 116.96 305.562 120.04 303.669 121.743C301.982 123.261 299.518 123.261 297.831 121.743C295.938 120.04 295.938 116.96 297.831 115.257ZM302.331 116.743C301.405 115.91 300.095 115.91 299.169 116.743C298.159 117.652 298.159 119.348 299.169 120.257C300.095 121.09 301.405 121.09 302.331 120.257C303.341 119.348 303.341 117.652 302.331 116.743ZM464.556 141.2L488.492 178.193L490.492 255.668L500.015 269H596V322H572.5V409H501V319.5H495.5V266.12L488.754 256.676L485.124 253.5H475.867L471.867 281.5H466V274.442L409.298 271.05L407.785 278.109L363.065 272.389L362.568 265.926L298 260.586V267.5H291.432L293.866 230.5L294 228.467V227V217.954L327.744 219.487L330.345 217.927L374.377 229.306L380.202 213.622L371.296 210.653L380.724 174.514L464.017 173.018L464.556 141.2ZM488.441 253.745L486.508 178.807L466.444 147.8L465.983 174.982L382.276 176.486L373.704 209.347L382.798 212.378L375.623 231.694L330.655 220.073L328.256 221.513L296 220.046V228.533L293.568 265.5H296V258.414L364.432 264.074L364.935 270.611L406.215 275.891L407.702 268.95L468 272.558V279.5H470.133L474.133 251.5H485.876L488.441 253.745ZM497.5 268.92V317.5H503V407H570.5V320H594V271H498.985L497.5 268.92ZM333 144.5H337.876L341.876 148H364.765L352.76 198.631L335 195.856V152.5H333V144.5ZM335 150.5H337V194.144L351.24 196.369L362.235 150H341.124L337.124 146.5H335V150.5ZM302.831 149.757C304.518 148.239 306.982 148.239 308.669 149.757C310.562 151.46 310.562 154.54 308.669 156.243C306.982 157.761 304.518 157.761 302.831 156.243C300.938 154.54 300.938 151.46 302.831 149.757ZM307.331 151.243C306.405 150.41 305.095 150.41 304.169 151.243C303.159 152.152 303.159 153.848 304.169 154.757C305.095 155.59 306.405 155.59 307.331 154.757C308.341 153.848 308.341 152.152 307.331 151.243ZM557.5 161H561V167H630.5V182.5H608.5V231H551.5V177.5H557.5V161ZM559.5 169V179.5H553.5V229H606.5V180.5H628.5V169H559.5ZM260.5 179.469V227.5H267V230.981L261.361 235.491L198.6 237.022L192.895 181.533L260.5 179.469ZM195.105 183.467L200.4 234.978L260.639 233.509L265 230.019V229.5H258.5V181.531L195.105 183.467ZM625 197H655.5H660.5V232.809L670 256.809V312.5H631V257.123L625 233.123V197ZM627 199V232.877L633 256.877V310.5H668V257.191L658.5 233.191V199H627ZM235.408 258.433L242.094 332.5H231.995L209.517 361.971L140.563 366.057L134.442 265.572L235.408 258.433ZM136.558 267.428L142.437 363.943L208.483 360.029L231.005 330.5H239.906L233.592 260.567L136.558 267.428ZM272 332.5H324.5V349.5H335V351H337.5V414.5H335V462.5H251V383H272V332.5ZM333 351.5H322.5V334.5H274V385H253V460.5H333V412.5H335.5V353H333V351.5ZM462.086 348H471V360H468.5V409.5H471V419H457V446H426.5V488.118L420.5 485.118V481.5H365.5V446H369.5V414.5H365.5V351H459.086L462.086 348ZM462.914 350L459.914 353H367.5V412.5H371.5V448H367.5V479.5H422.5V483.882L424.5 484.882V444H455V417H469V411.5H466.5V358H469V350H462.914ZM496 444H563V475H500V477H496V444ZM498 446V473H561V446H498ZM420.5 509H428.5V514.015L425 516.515V529H387.5V573.5H329.5V547.5H324.5V540.5H329.5V512.5H420.5V509ZM422.5 511V514.5H331.5V542.5H326.5V545.5H331.5V571.5H385.5V527H423V515.485L426.5 512.985V511H422.5Z" fill="#454545"/>
<path d="M655.5 197H660.5V81H655.5V197Z" fill="#454545"/>
<path d="M116.5 222H197.5V226H116.5V222Z" fill="#454545"/>
<path d="M115.5 222H119.5V255H115.5V222Z" fill="#454545"/>
<path d="M176.5 574H225.5V577H176.5V574Z" fill="#454545"/>
<path d="M215.5 541H285.5V547H215.5V541Z" fill="#454545"/>
<path d="M303.5 541H308.5V547H303.5V541Z" fill="#454545"/>
<path fill-rule="evenodd" clip-rule="evenodd" d="M426.55 515.746L443.768 510.964L443.232 509.037L424.45 514.254L425.033 523.386L424.019 523.304L422.99 528.452L426.653 564.042L429.54 562.598L426.55 515.746Z" fill="#454545"/>
<path fill-rule="evenodd" clip-rule="evenodd" d="M475.5 446H456.5V444H475.5V446Z" fill="#454545"/>
<path fill-rule="evenodd" clip-rule="evenodd" d="M490.5 444H497V446H490.5V444Z" fill="#454545"/>
<path fill-rule="evenodd" clip-rule="evenodd" d="M496.5 494.382V476.5H498.5V494.713L503.931 503.403L500.134 505.301L495.042 497.154L476.754 501.967L476.245 500.033L495.145 495.059L496.5 494.382Z" fill="#454545"/>
<path fill-rule="evenodd" clip-rule="evenodd" d="M517.271 526.618L544.408 566.598L546.426 565.181L547.575 566.818L542.728 570.22L542.782 570.328L528.332 580.332L531.362 585.494L529.638 586.506L526.683 581.474L522.569 584.322L521.431 582.678L526.426 579.22L540.169 569.573L540.129 569.494L514.13 528.711L517.271 526.618Z" fill="#454545"/>
<path d="M192 425L223 541H215.5L211.333 523.5L210.381 519.5L188 425.5L192 425Z" fill="#454545"/>
<path d="M225 546H228.5V553H225V546Z" fill="#454545"/>
<path d="M498.5 622.787L510.745 616L512.199 618.624L499.954 625.411L498.5 622.787Z" fill="#454545"/>
<path fill-rule="evenodd" clip-rule="evenodd" d="M333.06 200.158L335.06 194.658L336.94 195.342L334.94 200.842L333.06 200.158ZM331.996 213.59L331.496 219.09L329.504 218.909L330.004 213.409L331.996 213.59Z" fill="#454545"/>
<path d="M461.5 641.787L482.824 629.967L484.279 632.591L462.954 644.411L461.5 641.787Z" fill="#454545"/>
<path fill-rule="evenodd" clip-rule="evenodd" d="M376.08 148.997L363.58 149.997L363.42 148.003L375.92 147.003L376.08 148.997Z" fill="#454545"/>
<path fill-rule="evenodd" clip-rule="evenodd" d="M390.94 135.929L391.442 144.705L435.951 142.501L436.049 144.499L385.549 146.999L385.451 145.001L389.444 144.804L389.06 138.072L370.55 139.426L370.999 147.948L369.001 148.053L368.45 137.574L390.94 135.929Z" fill="#454545"/>
<path fill-rule="evenodd" clip-rule="evenodd" d="M464.571 143L450.571 144.5L450.358 142.511L464.571 141V143Z" fill="#454545"/>
<path fill-rule="evenodd" clip-rule="evenodd" d="M451.5 15H457.5V50H481.586L483.586 48H489V56.5H483.586L481.586 54.5H455V65H435V53H437V63H453V54H451.5V15Z" fill="#454545"/>
<path fill-rule="evenodd" clip-rule="evenodd" d="M536 37V89H546V91H534V89.5H482.627L474.845 82.7557L476.155 81.2443L483.373 87.5H534V37H536Z" fill="#454545"/>
<path fill-rule="evenodd" clip-rule="evenodd" d="M458.793 70.7072L452.793 64.7072L454.207 63.293L460.207 69.293L458.793 70.7072Z" fill="#454545"/>
<path fill-rule="evenodd" clip-rule="evenodd" d="M534 24V5.5H536V24H534Z" fill="#454545"/>
<path d="M159.5 526V519.5H181V523.5H162.5V526H159.5Z" fill="#454545"/>
<path d="M210.381 519.5H193V523.5H211.333L210.381 519.5Z" fill="#454545"/>
<path d="M294 228.467V227H282V230.5H293.866L294 228.467Z" fill="#454545"/>
<path d="M42.948 357.968V342.896H37.5V341H50.484V342.896H45.036V357.968H42.948Z" fill="#FF6B00"/>
<path d="M700.588 297.968H698.5V281H700.588V288.824H703.108L708.628 281H711.028L704.932 289.424L711.076 297.968H708.604L703.276 290.72H700.588V297.968Z" fill="#0085FF"/>
<path d="M719.284 297.968H717.196V282.896H711.748V281H724.732V282.896H719.284V297.968Z" fill="#0085FF"/>
<path d="M527.5 607H446.5V547H527.5V607Z" fill="#7000FF" fill-opacity="0.2"/>
<path fill-rule="evenodd" clip-rule="evenodd" d="M448.5 605H525.5V549H448.5V605ZM527.5 607V547H446.5V607H527.5Z" fill="white" fill-opacity="0.08"/>
<path d="M478.5 587.532V567H487.606C488.553 567 489.423 567.097 490.216 567.29C491.028 567.483 491.734 567.831 492.333 568.334C492.816 568.721 493.222 569.233 493.551 569.871C493.899 570.49 494.073 571.244 494.073 572.133C494.092 573.08 493.918 573.921 493.551 574.656C493.203 575.391 492.604 576.009 491.753 576.512C492.352 576.686 492.865 576.947 493.29 577.295C493.715 577.643 494.054 578.049 494.305 578.513C494.576 578.977 494.769 579.48 494.885 580.021C495.001 580.562 495.049 581.123 495.03 581.703C494.991 582.631 494.74 583.491 494.276 584.284C493.831 585.057 493.242 585.686 492.507 586.169C491.637 586.768 490.68 587.145 489.636 587.3C488.592 587.455 487.558 587.532 486.533 587.532H478.5ZM486.417 575.323C486.842 575.323 487.268 575.304 487.693 575.265C488.118 575.207 488.515 575.072 488.882 574.859C489.191 574.666 489.452 574.405 489.665 574.076C489.878 573.747 489.994 573.361 490.013 572.916C490.032 572.452 489.955 572.075 489.781 571.785C489.607 571.495 489.394 571.273 489.143 571.118C488.834 570.925 488.476 570.818 488.07 570.799C487.664 570.76 487.248 570.741 486.823 570.741H482.705V575.323H486.417ZM482.705 583.82H486.533C487.094 583.82 487.683 583.791 488.302 583.733C488.94 583.656 489.481 583.453 489.926 583.124C490.197 582.911 490.419 582.65 490.593 582.341C490.767 582.012 490.854 581.606 490.854 581.123C490.854 580.678 490.757 580.301 490.564 579.992C490.371 579.683 490.129 579.451 489.839 579.296C489.51 579.083 489.133 578.958 488.708 578.919C488.302 578.88 487.877 578.861 487.432 578.861L482.705 578.89V583.82Z" fill="white"/>
<path d="M629.5 117L573.5 117V6L629.5 6V117Z" fill="#7000FF" fill-opacity="0.2"/>
<path fill-rule="evenodd" clip-rule="evenodd" d="M574.883 113.419L628.117 113.419V9.58065L574.883 9.58065V113.419ZM629.5 117V6L573.5 6V117L629.5 117Z" fill="white" fill-opacity="0.08"/>
<path d="M597.561 68.617L596.082 72.532H591.5L599.446 52H604.202L612.032 72.532H607.421L606 68.617H597.561ZM598.779 64.905H604.753L601.795 56.466L598.779 64.905Z" fill="white"/>
</svg>
