<svg width="724" height="712" viewBox="0 0 724 712" fill="none" xmlns="http://www.w3.org/2000/svg">
<path fill-rule="evenodd" clip-rule="evenodd" d="M105 1V8H100.5V45.5H106V132H109.5V173H23V302.5H1V420.5H149V563H209.5V566H225.5V571H216V654.5H225.5V625H235.5V645.5H257V625H267.5V654.5H382.5V699.5H473.5V698H529V705H595V699.5H664V710.5H707V579H723V308.5H683V177.5H658.5V201H615V167.5H564V142.5H542.5V136H469.5V119H418.5V148H393V119H391.5V102H416.5V47.5V1H105ZM267 148V132H360.5V148H267ZM494.5 151.5H469.5V173.5H486.5V185H541.5V154H494.5V151.5ZM641 224H615V279.5H641V224ZM620 312.5V334H571.5V374.5H632.5V403.5H636.5V390H651V348H646.5V312.5H620ZM681.5 390V348H693.5V434H681.5V417.5H687V390H681.5ZM403.5 291.5V179H450V212H586.5V262H546V250.5H494.5V291.5H403.5ZM331.5 366.5V316.5H401V366.5H331.5ZM45 367V280H109.5V311.5H123V337.5H147V362.5H104.5V367H45ZM331.5 486V397.5H383V428.5H411V425.5H461V431.5H463.5V434.5L461 437V483H395.5V521H381V533.5H358.5V486H331.5ZM332 629.5V557H334.5V559H382.5V629.5H332ZM500 591.5H509.5V588H539.5V591.5H553V650H550V652.5H559.5V650H575V657H598V654.5H653V595H646.5V521H649V501H601V478H541.5V504H500V591.5ZM412 533.5H407.5V596.5H412V533.5ZM407.5 652V616H412V652H407.5Z" fill="#22262F"/>
<path d="M466.5 47.5H416.5V102H391.5V119H393H418.5H469.5V136H542.5V142.5H564V167.5H615V143H658.5V177.5H683V51.5H564V43.5H466.5V47.5Z" fill="#22262F"/>
<path d="M225.5 625V654.5H267.5V625H257V645.5H235.5V625H225.5Z" fill="#22262F"/>
<path d="M225.5 571V566H209.5V654.5H216V571H225.5Z" fill="#22262F"/>
<path d="M466.5 47.5H416.5V102H391.5V119H393H418.5H469.5V136H542.5V142.5H564V167.5H615V143H658.5V177.5H683V51.5H564V43.5H466.5V47.5Z" fill="#1F2228"/>
<path d="M225.5 571V566H209.5V654.5H216V571H225.5Z" fill="#1F2228"/>
<path d="M225.5 625V654.5H267.5V625H257V645.5H235.5V625H225.5Z" fill="#1F2228"/>
<path d="M147 337.5V362.5H192.5V393.5H281.5V305.5H192.5V337.5H147Z" fill="#2F3541"/>
<path fill-rule="evenodd" clip-rule="evenodd" d="M109.5 173H23V297.5H45V280H109.5V311.5H122.5V260V148H207.5H263.5H267V132H263.5H207.5H113H109.5V173ZM45 192.5H49.5H92V262.5H45V192.5Z" fill="#2F3541"/>
<path d="M651 348V390H636.5V403.5H634V434.5H638.5V453.5H601V434.5H463.5L461 437V483H395.5V504H500H541.5V478H601V501H649V434H681.5V417.5H687V390H681.5V348H651Z" fill="#2F3541"/>
<path d="M469.5 151.5H494.5V154H541.5V185H586.5V196.5H575.5V212H586.5V262H546V312.5H605V279.5H615V226.5H600.5V196.5H597.5V185H615V167.5H564V142.5H542.5V136H469.5V151.5Z" fill="#2F3541"/>
<path d="M149 563H209.5V566H225.5V571H216V654.5H225.5V625H235.5V645.5H257V625H267.5V654.5H382.5V629.5H332V557H334.5V559H382.5V533.5H381H358.5V486H331.5V397.5H383V366.5H331.5V316.5H360.5V232.5H368.5V186H360.5V149.5V148H342V296H316V351.5V402.5V529H169V399.5H131V362.5H104.5V367H89.5V420.5H149V563Z" fill="#2F3541"/>
<path d="M263.5 132V121.5H207.5V132H263.5Z" fill="#2F3541"/>
<path d="M217.5 119.5V116H258V119.5H217.5Z" fill="#2F3541"/>
<path d="M207.5 148V158H263.5V148H207.5Z" fill="#2F3541"/>
<path d="M247 234.707C244 235.207 231 258.207 233.5 262.707C236 267.207 238.3 268.8 241.5 270C245.5 271.5 245.5 269 248 266C250.5 263 252.5 265.5 255.5 266C258.5 266.5 266 260 267 259C268 258 268 257 270 255.5C272 254 277 255 279.5 254.5C282 254 283.5 250.5 285 248.5C286.5 246.5 294.5 246.5 297 246.5C299 246.5 297.833 244.833 297 244C296.167 243.833 294.5 243 294.5 241C294.5 240 292.5 238 292 237C291.5 236 289.5 238 289 239C288.6 239.8 286.167 239.333 285 239C284 237.5 281.3 234.5 278.5 234.5C275.7 234.5 268.283 237.467 264.5 233.5C263.528 232.481 263.7 231.3 262.5 230.5C261 229.5 256 234.5 252.5 237C249.7 239 250 234.207 247 234.707Z" fill="#373D4B"/>
<path d="M250 410.5C250.5 407.5 261.5 409.5 263.5 408.5C265.203 407.649 269.079 414.044 270.811 416.274C271.874 413.516 274.4 408.1 276 408.5C278 409 281.5 408 282 410.5C282.5 413 284 413.5 284.5 415.5C285 417.5 287 418 285.5 419.5C284 421 283.5 423.5 281.5 422.5C279.5 421.5 278.5 422 277 421C275.5 420 275.318 419.425 274.5 420C273.65 420.597 272.621 420.755 272.276 420C272.465 422.58 272.07 426.16 270 428C267.875 429.889 265.9 429.7 263.5 430.5C260.5 431.5 255.5 430 253.5 429.5C251.5 429 250 424 248 421.5C246 419 249.5 413.5 250 410.5Z" fill="#373D4B"/>
<path d="M182.5 505.5C184 504 186 504.5 187 504.5C187.333 504.5 188 504.9 188 506.5C188 508.5 189.5 507 191.5 507.5C193.5 508 193.5 508.5 193 512.5C192.5 516.5 191 514.5 189.5 516L187 518.5C185.5 520 185 519.5 184.5 520C184 520.5 183 519.5 181 520C179 520.5 179.5 518.5 178.5 517C177.5 515.5 177.5 514.5 177.5 513V509.5C177.5 507.5 177.5 508 179 507C180.5 506 181 507 182.5 505.5Z" fill="#373D4B"/>
<path d="M485 348C488.2 348.8 489.333 351 489.5 352C490 353.167 490.9 355.8 490.5 357C490 358.5 489.5 359.5 487.5 361.5C485.5 363.5 485 363 481.5 363C478 363 479 362.5 474.5 363C470 363.5 471.5 362 468 361.5C464.5 361 467.5 359 467 357C466.5 355 468.5 355 471.5 355C474.5 355 473 355 473.5 353.5C474 352 475 352.5 477 352C479 351.5 478 350.5 479 349C480 347.5 481 347 485 348Z" fill="#373D4B"/>
<path d="M485 387C485.242 384.756 480.212 380.132 477 380.5C473.788 380.868 464.865 388.819 465.5 391.5C466.135 394.181 471.905 402.095 473.5 403C475.095 403.905 481.64 400.87 482.5 399C483.36 397.13 484.758 389.244 485 387Z" fill="#373D4B"/>
<path d="M502.5 391.5C501.5 389.5 511 384 512 385C513 386 517.8 391.7 519 392.5C520.5 393.5 516.5 400.5 514.5 402C512.9 403.2 503.5 393.5 502.5 391.5Z" fill="#373D4B"/>
<path d="M180 497.5C182 497.9 184.167 502.667 185 505L181 507.5H179C178.2 507.5 177.333 507.167 177 507C176.667 506.833 175.8 506.2 175 505C174 503.501 174 505 173 501.5C172 500.5 172.5 500.5 172 498.5C171.5 496.5 174 498 175 496C176 494 177.5 497 180 497.5Z" fill="#373D4B" fill-opacity="0.6"/>
<path d="M196.5 511C195.3 509.8 193.667 509.5 193 509.5C192.333 511 190.9 514.2 190.5 515C190 516 191 516 191.5 516C192 516 193.5 517.5 194 517.5C194.5 517.5 195 519 196.5 519C198 519 197.5 519.5 198.5 519C199.5 518.5 199.5 518 200.5 517C201.5 516 201.5 516 202 514C202.5 512 200.5 514 199.5 514C198.5 514 198 512.5 196.5 511Z" fill="#373D4B" fill-opacity="0.6"/>
<path d="M274.5 423.5C273.3 423.9 272 424.667 271.5 425C271 425.667 270 427.2 270 428C270 429 270.5 428.5 273 429.5C274.5 430 275 430 277.5 432.5C279 433.5 278.5 432 280 431.5C281.5 431 281 430.5 282 430C283 429.5 282 429 282 428V427C281.667 426.667 280.8 425.5 280 423.5C280 422 279 423.5 277 422.5C276.5 421.5 276 423 274.5 423.5Z" fill="#373D4B" fill-opacity="0.6"/>
<path d="M512 354V358C513.167 358.334 515.7 359 516.5 359C517.3 359 519.5 358.334 520.5 358V357C520.167 356.667 520.5 355 520.5 354C520.5 352.882 520 352 519 350.5C518 349 516.5 349.5 516 350L515.677 350.323L512 354Z" fill="#373D4B" fill-opacity="0.6"/>
<rect x="462" y="436" width="23" height="48" fill="#22262F" fill-opacity="0.6"/>
<path d="M230 68H245V83H230V68Z" fill="#373D4B"/>
<path d="M107 51H132V55H107V51Z" fill="#373D4B"/>
<path d="M155 51H310V55H155V51Z" fill="#373D4B"/>
<path d="M332 51H392V55H332V51Z" fill="#373D4B"/>
<path d="M344 55H357V60H344V55Z" fill="#373D4B"/>
<path d="M346 46H359V51H346V46Z" fill="#373D4B"/>
<path d="M352 2H365V8H352V2Z" fill="#373D4B"/>
<path d="M257 2H270V8H257V2Z" fill="#373D4B"/>
<path d="M250 46H263V52H250V46Z" fill="#373D4B"/>
<path d="M259 57H262V60H259V57Z" fill="#373D4B"/>
<path d="M212 57H215V60H212V57Z" fill="#373D4B"/>
<path d="M293 76H299V81H293V76Z" fill="#373D4B"/>
<path d="M174 76H180V81H174V76Z" fill="#373D4B"/>
<path d="M259 97H262V100H259V97Z" fill="#373D4B"/>
<path d="M212 97H215V100H212V97Z" fill="#373D4B"/>
<path d="M162 2H175V8H162V2Z" fill="#373D4B"/>
<path d="M106 2H112V8H106V2Z" fill="#373D4B"/>
<path d="M106 45H112V51H106V45Z" fill="#373D4B"/>
<path d="M370 2H383V8H370V2Z" fill="#373D4B"/>
<path d="M275 2H288V8H275V2Z" fill="#373D4B"/>
<path d="M271 46H284V52H271V46Z" fill="#373D4B"/>
<path d="M318 125H331V131H318V125Z" fill="#373D4B"/>
<path d="M339 125H352V131H339V125Z" fill="#373D4B"/>
<path d="M180 2H193V8H180V2Z" fill="#373D4B"/>
<path d="M366 55H379V60H366V55Z" fill="#373D4B"/>
<path d="M366 46H379V51H366V46Z" fill="#373D4B"/>
<path d="M576 52H589V59H576V52Z" fill="#373D4B"/>
<path d="M425.788 76.3579L432.975 84.0895L425.698 90.8538L418.511 83.1222L425.788 76.3579Z" fill="#373D4B"/>
<path d="M504.435 287.246L513.429 296.921L506.152 303.685L497.159 294.01L504.435 287.246Z" fill="#373D4B"/>
<path d="M480.892 119L485.431 121.568L480.539 130.215L476 127.647L480.892 119Z" fill="#373D4B"/>
<path d="M637 52H650V59H637V52Z" fill="#373D4B"/>
<path d="M239 347C239 348.657 237.657 350 236 350C234.343 350 233 348.657 233 347C233 345.343 234.343 344 236 344C237.657 344 239 345.343 239 347Z" fill="#373D4B"/>
<path d="M262 328C262 329.657 260.657 331 259 331C257.343 331 256 329.657 256 328C256 326.343 257.343 325 259 325C260.657 325 262 326.343 262 328Z" fill="#373D4B"/>
<path d="M220 328C220 329.657 218.657 331 217 331C215.343 331 214 329.657 214 328C214 326.343 215.343 325 217 325C218.657 325 220 326.343 220 328Z" fill="#373D4B"/>
<path d="M262 372C262 373.657 260.657 375 259 375C257.343 375 256 373.657 256 372C256 370.343 257.343 369 259 369C260.657 369 262 370.343 262 372Z" fill="#373D4B"/>
<path d="M220 372C220 373.657 218.657 375 217 375C215.343 375 214 373.657 214 372C214 370.343 215.343 369 217 369C218.657 369 220 370.343 220 372Z" fill="#373D4B"/>
<path d="M271 343H274V356H271V343Z" fill="#373D4B"/>
<path d="M126 311H142V320H126V311Z" fill="#373D4B"/>
<path d="M138 260H152V274H138V260Z" fill="#373D4B"/>
<path d="M601 445H617V454H601V445Z" fill="#373D4B"/>
<path d="M650 464H663V481H650V464Z" fill="#373D4B"/>
<path d="M709 503H722V515H709V503Z" fill="#373D4B"/>
<path d="M685 581H698V589H685V581Z" fill="#373D4B"/>
<path d="M484 653H492V667H484V653Z" fill="#373D4B"/>
<path d="M413 584H421V595H413V584Z" fill="#373D4B"/>
<path d="M435 555H446V566H435V555Z" fill="#373D4B"/>
<path d="M451 506H462V517H451V506Z" fill="#373D4B"/>
<path d="M650.353 653.593L662.089 659.185L658.647 666.407L646.911 660.815L650.353 653.593Z" fill="#373D4B"/>
<path d="M639.784 656L646.13 659.024L641.345 669.064L635 666.04L639.784 656Z" fill="#373D4B"/>
<path d="M650 481H656V489H650V481Z" fill="#373D4B"/>
<path d="M632 421V439.5H634.5V421H632Z" fill="#373D4B"/>
<path d="M647 435V454H651V435H647Z" fill="#373D4B"/>
<path d="M152 260H166V274H152V260Z" fill="#373D4B" fill-opacity="0.6"/>
<path d="M601 435H617V445H601V435Z" fill="#373D4B" fill-opacity="0.6"/>
<path d="M634 404H637V418H634V404Z" fill="#373D4B" fill-opacity="0.6"/>
<path d="M681 391H686V417H681V391Z" fill="#373D4B" fill-opacity="0.6"/>
<path d="M597.41 415.936L607.171 427.764L601.183 432.705L591.423 420.877L597.41 415.936Z" fill="#373D4B" fill-opacity="0.6"/>
<path d="M695 503H710V515H695V503Z" fill="#373D4B" fill-opacity="0.6"/>
<path d="M695 563H722V578H695V563Z" fill="#373D4B" fill-opacity="0.6"/>
<path d="M647 558H653V594H647V558Z" fill="#373D4B" fill-opacity="0.6"/>
<path d="M650 481H663V496H650V481Z" fill="#373D4B" fill-opacity="0.6"/>
<path d="M455 621H468V635H455V621Z" fill="#373D4B" fill-opacity="0.6"/>
<path d="M428 543H435V562H428V543Z" fill="#373D4B" fill-opacity="0.6"/>
<path d="M446 555H452V562H446V555Z" fill="#373D4B" fill-opacity="0.6"/>
<path d="M413 567H424V595H413V567Z" fill="#373D4B" fill-opacity="0.6"/>
<path d="M443 625H445V649H443V625Z" fill="#373D4B" fill-opacity="0.6"/>
<path d="M478 625H480V649H478V625Z" fill="#373D4B" fill-opacity="0.6"/>
<path d="M478 601H480V609H478V601Z" fill="#373D4B" fill-opacity="0.6"/>
<path d="M442 601H444V616H442V601Z" fill="#373D4B" fill-opacity="0.6"/>
<path d="M443 603V601H458V603H443Z" fill="#373D4B" fill-opacity="0.6"/>
<path d="M467 603V601H479V603H467Z" fill="#373D4B" fill-opacity="0.6"/>
<path d="M392 57H412V60H392V57Z" fill="#282C34"/>
<path d="M601 226H615V229H601V226Z" fill="#282C34"/>
<path d="M652 350H681V353H652V350Z" fill="#282C34"/>
<path d="M659 620H668V623H659V620Z" fill="#282C34"/>
<path d="M392 64H412V67H392V64Z" fill="#282C34"/>
<path d="M601 233H615V236H601V233Z" fill="#282C34"/>
<path d="M652 357H681V360H652V357Z" fill="#282C34"/>
<path d="M659 627H668V630H659V627Z" fill="#282C34"/>
<path d="M236 629H257V632H236V629Z" fill="#282C34"/>
<path d="M392 71H412V74H392V71Z" fill="#282C34"/>
<path d="M601 240H615V243H601V240Z" fill="#282C34"/>
<path d="M652 364H681V367H652V364Z" fill="#282C34"/>
<path d="M659 634H668V637H659V634Z" fill="#282C34"/>
<path d="M236 636H257V639H236V636Z" fill="#282C34"/>
<path d="M659 178H682V181H659V178Z" fill="#282C34"/>
<path d="M392 78H412V81H392V78Z" fill="#282C34"/>
<path d="M601 247H615V250H601V247Z" fill="#282C34"/>
<path d="M652 371H681V374H652V371Z" fill="#282C34"/>
<path d="M659 641H668V644H659V641Z" fill="#282C34"/>
<path d="M236 643H257V646H236V643Z" fill="#282C34"/>
<path d="M659 185H682V188H659V185Z" fill="#282C34"/>
<path d="M392 85H412V88H392V85Z" fill="#282C34"/>
<path d="M601 254H615V257H601V254Z" fill="#282C34"/>
<path d="M652 378H681V381H652V378Z" fill="#282C34"/>
<path d="M659 192H682V195H659V192Z" fill="#282C34"/>
<path d="M392 92H412V95H392V92Z" fill="#282C34"/>
<path d="M601 261H615V264H601V261Z" fill="#282C34"/>
<path d="M652 385H681V388H652V385Z" fill="#282C34"/>
<path d="M659 199H682V202H659V199Z" fill="#282C34"/>
<path d="M392 99H412V102H392V99Z" fill="#282C34"/>
<path d="M659 209H682V212H659V209Z" fill="#282C34"/>
<path d="M659 216H682V219H659V216Z" fill="#282C34"/>
<path d="M659 223H682V226H659V223Z" fill="#282C34"/>
<path d="M659 230H682V233H659V230Z" fill="#282C34"/>
<path fill-rule="evenodd" clip-rule="evenodd" d="M104 0H417.5V46.5H465.5V42.5H565V50.5H684V307.5H724V580H708V711.5H663V700.5H596V706H528V699H474.5V700.5H381.5V655.5H208.5V564H148V421.5H0V301.5H22V172H108.5V133H105V46.5H99.5V7H104V0ZM110.5 133V174H24V303.5H2V419.5H150V562H210.5V653.5H383.5V698.5H472.5V697H530V704H594V698.5H665V709.5H706V578H722V309.5H682V52.5H563V44.5H467.5V48.5H415.5V2H106V9H101.5V44.5H107V131H113V133H110.5ZM392 118H419.5V149H392V118ZM394 120V147H417.5V120H394ZM266 131H361.5V149H266V131ZM268 133V147H359.5V133H268ZM614 142H659.5V202H614V142ZM616 144V200H657.5V144H616ZM468.5 150.5H495.5V153H542.5V186H485.5V174.5H468.5V150.5ZM470.5 152.5V172.5H487.5V184H540.5V155H493.5V152.5H470.5ZM402.5 178H451V211H587.5V263H545V251.5H495.5V292.5H402.5V178ZM404.5 180V290.5H493.5V249.5H547V261H585.5V213H449V180H404.5ZM614 223H642V280.5H614V223ZM616 225V278.5H640V225H616ZM44 279H110.5V310.5H124V336.5H148V363.5H105.5V368H44V279ZM46 281V366H103.5V361.5H146V338.5H122V312.5H108.5V281H46ZM619 311.5H647.5V347H652V391H637.5V404.5H631.5V375.5H570.5V333H619V311.5ZM621 313.5V335H572.5V373.5H633.5V402.5H635.5V389H650V349H645.5V313.5H621ZM330.5 315.5H402V367.5H330.5V315.5ZM332.5 317.5V365.5H400V317.5H332.5ZM680.5 347H694.5V435H680.5V416.5H686V391H680.5V347ZM682.5 349V389H688V418.5H682.5V433H692.5V349H682.5ZM330.5 396.5H384V427.5H410V424.5H462V430.5H464.5V434.914L462 437.414V484H396.5V522H382V534.5H357.5V487H330.5V396.5ZM332.5 398.5V485H359.5V532.5H380V520H394.5V482H460V436.586L462.5 434.086V432.5H460V426.5H412V429.5H382V398.5H332.5ZM540.5 477H602V500H650V522H647.5V594H654V608V609V619V620V655.5H599V658H574V651H560.5V653.5H549V649H552V592.5H538.5V589H510.5V592.5H499V503H540.5V477ZM542.5 479V505H501V590.5H508.5V587H540.5V590.5H554V651H551V651.5H558.5V649H576V656H597V653.5H652V596H645.5V520H648V502H600V479H542.5ZM406.5 532.5H413V597.5H406.5V532.5ZM408.5 534.5V595.5H411V534.5H408.5ZM331 556H335.5V558H383.5V630.5H331V556ZM333.5 558H333V628.5H381.5V560H333.5V558ZM406.5 615H413V653H406.5V615ZM408.5 617V651H411V617H408.5Z" fill="#454545"/>
<path d="M602 278H615V280.5H605V312H566.5V298H568.5V308.5H602V278Z" fill="#454545"/>
<path d="M566.5 262.5V289.5H568.5V262.5H566.5Z" fill="#454545"/>
<path d="M602 264V211.5H599.5V264H602Z" fill="#454545"/>
<path d="M388 55.5002H392V118L392.5 118V121.5H388V55.5002Z" fill="#454545"/>
<path d="M472 118H419V121.5H469V139H494.5V135.5H472V118Z" fill="#454545"/>
<path d="M148.5 131L266 131V134.5H148.5V131Z" fill="#454545"/>
<path d="M163.5 149.5V146H204V149.5H163.5Z" fill="#454545"/>
<path d="M106 253.5V173.5H110.5V253.5H106Z" fill="#454545"/>
<path d="M110.5 272V279L106 279V272H110.5Z" fill="#454545"/>
<path d="M120 265V170H124.5V265H120Z" fill="#454545"/>
<path d="M199 363H147.5V360H199V356H203V383.5H270.5V356H274.5V387.5H199V363Z" fill="#454545"/>
<path d="M199 312.5H274.5V343.5H270.5V316H203V343.5H199V340H176.5V336H199V312.5Z" fill="#454545"/>
<path d="M299 562.5H210V566H299V562.5Z" fill="#454545"/>
<path d="M332 562.5H314V566H332V562.5Z" fill="#454545"/>
<path d="M287 654V602.5H290V654H287Z" fill="#454545"/>
<path d="M331 503.5V556V557H334V503.5H331Z" fill="#454545"/>
<path d="M331 491V487H334V491H331Z" fill="#454545"/>
<path d="M361 210.5V148H358V210.5H361Z" fill="#454545"/>
<path d="M358 224.5V316H361V225.5L369.5 217V213L358 224.5Z" fill="#454545"/>
<path d="M341 192V148H345V192H341Z" fill="#454545"/>
<path d="M341 294.5V231.5H344.5V298.5H318.5V368.5H314V294.5H341Z" fill="#454545"/>
<path d="M314 422.5V396.5H318.5V422.5H314Z" fill="#454545"/>
<path d="M314 436.5H318.5V463H314V436.5Z" fill="#454545"/>
<path d="M314 530.5V489.5H318.5V530.5H314Z" fill="#454545"/>
<path d="M409 504.5V533H412V504.5H409Z" fill="#454545"/>
<path d="M510.5 653H412.5V649.5H498V615H502V649.5H510.5V653Z" fill="#454545"/>
<path d="M499 601V592.5L502.5 592.5V601H499Z" fill="#454545"/>
<path d="M530 653H549.5V649.5H530V653Z" fill="#454545"/>
<path d="M601.5 433H464L462.5 436.5H599.5V458.5H601.5V433Z" fill="#454545"/>
<path d="M631.5 421V404.5L634 404.5V417.5H638V421H631.5Z" fill="#454545"/>
<path d="M647 417.5V421H667.5V417.5H647Z" fill="#454545"/>
<path d="M678 417.5V421H681.5V417.5H678Z" fill="#454545"/>
<path d="M689.5 578H707V582H689.5V578Z" fill="#454545"/>
<path d="M659 619H654V620H658V644.5H659V619Z" fill="#454545"/>
<path d="M669 608H654V609H668V644.5H669V608Z" fill="#454545"/>
<path d="M590.448 151.968V136.896H585V135H597.984V136.896H592.536V151.968H590.448Z" fill="#FF6B00"/>
<path d="M238.088 605.968H236V589H238.088V596.824H240.608L246.128 589H248.528L242.432 597.424L248.576 605.968H246.104L240.776 598.72H238.088V605.968Z" fill="#0085FF"/>
<path d="M256.784 605.968H254.696V590.896H249.248V589H262.232V590.896H256.784V605.968Z" fill="#0085FF"/>
<path d="M194 331H127V234H194V331Z" fill="#7000FF" fill-opacity="0.2"/>
<path fill-rule="evenodd" clip-rule="evenodd" d="M128.654 328.5H192.346V236H128.654V328.5ZM194 331V234H127V331H194Z" fill="white" fill-opacity="0.08"/>
<path d="M152 293.532V273H161.106C162.053 273 162.923 273.097 163.716 273.29C164.528 273.483 165.234 273.831 165.833 274.334C166.316 274.721 166.722 275.233 167.051 275.871C167.399 276.49 167.573 277.244 167.573 278.133C167.592 279.08 167.418 279.921 167.051 280.656C166.703 281.391 166.104 282.009 165.253 282.512C165.852 282.686 166.365 282.947 166.79 283.295C167.215 283.643 167.554 284.049 167.805 284.513C168.076 284.977 168.269 285.48 168.385 286.021C168.501 286.562 168.549 287.123 168.53 287.703C168.491 288.631 168.24 289.491 167.776 290.284C167.331 291.057 166.742 291.686 166.007 292.169C165.137 292.768 164.18 293.145 163.136 293.3C162.092 293.455 161.058 293.532 160.033 293.532H152ZM159.917 281.323C160.342 281.323 160.768 281.304 161.193 281.265C161.618 281.207 162.015 281.072 162.382 280.859C162.691 280.666 162.952 280.405 163.165 280.076C163.378 279.747 163.494 279.361 163.513 278.916C163.532 278.452 163.455 278.075 163.281 277.785C163.107 277.495 162.894 277.273 162.643 277.118C162.334 276.925 161.976 276.818 161.57 276.799C161.164 276.76 160.748 276.741 160.323 276.741H156.205V281.323H159.917ZM156.205 289.82H160.033C160.594 289.82 161.183 289.791 161.802 289.733C162.44 289.656 162.981 289.453 163.426 289.124C163.697 288.911 163.919 288.65 164.093 288.341C164.267 288.012 164.354 287.606 164.354 287.123C164.354 286.678 164.257 286.301 164.064 285.992C163.871 285.683 163.629 285.451 163.339 285.296C163.01 285.083 162.633 284.958 162.208 284.919C161.802 284.88 161.377 284.861 160.932 284.861L156.205 284.89V289.82Z" fill="white"/>
<path d="M478 597H411V505H478V597Z" fill="#7000FF" fill-opacity="0.2"/>
<path fill-rule="evenodd" clip-rule="evenodd" d="M412.655 594.5H476.346V507.1H412.655V594.5ZM478 597V505H411V597H478Z" fill="white" fill-opacity="0.08"/>
<path d="M440.062 557.617L438.583 561.532H434.001L441.947 541H446.703L454.533 561.532H449.922L448.501 557.617H440.062ZM441.28 553.905H447.254L444.296 545.466L441.28 553.905Z" fill="white"/>
<path fill-rule="evenodd" clip-rule="evenodd" d="M547.897 143H545.068L542.5 145.568V148.397L547.897 143ZM550.068 143L542.5 150.568V153.397L552.897 143H550.068ZM555.068 143L542.5 155.568V158.397L557.897 143H555.068ZM542.5 163.397V160.568L560.068 143H562.897L542.5 163.397ZM542.5 165.568V168.397L564 146.897V144.068L542.5 165.568ZM542.5 173.397V170.568L564 149.068V151.897L542.5 173.397ZM542.5 175.568V178.397L564 156.897V154.068L542.5 175.568ZM542.5 183.397V180.568L564 159.068V161.897L542.5 183.397ZM543.068 185H545.897L564 166.897V164.068L543.068 185ZM550.897 185H548.068L564 169.068V171.897L550.897 185ZM553.068 185H555.897L564 176.897V174.068L553.068 185ZM560.897 185H558.068L564 179.068V181.897L560.897 185ZM563.068 185H564V184.068L563.068 185Z" fill="#D9D9D9" fill-opacity="0.1"/>
<path fill-rule="evenodd" clip-rule="evenodd" d="M565.568 167.5H568.397L564 171.897V169.068L565.568 167.5ZM564 179.068V181.897L578.397 167.5H575.568L564 179.068ZM564 185V184.068L580.568 167.5H583.397L565.897 185H564ZM568.068 185H570.897L588.397 167.5H585.568L568.068 185ZM575.897 185H573.068L590.568 167.5H593.397L575.897 185ZM578.068 185H580.897L598.397 167.5H595.568L578.068 185ZM585.897 185H583.068L600.568 167.5H603.397L585.897 185ZM586.5 186.568V189.397L608.397 167.5H605.568L586.5 186.568ZM586.5 194.397V191.568L610.568 167.5H613.397L586.5 194.397ZM579.397 196.5H575.5V200.397L579.397 196.5ZM581.568 196.5L575.5 202.568V205.397L584.397 196.5H581.568ZM575.5 207.568V210.397L597.5 188.397V185.568L575.5 207.568ZM579.897 211H577.068L597.5 190.568V193.397L579.897 211ZM582.068 211H584.897L599.397 196.5H597.5V195.568L582.068 211ZM587.5 211H587.068L600.5 197.568V200.397L589.397 211.5H587.5V211ZM591.568 211.5H594.397L600.5 205.397V202.568L591.568 211.5ZM599.397 211.5H596.568L600.5 207.568V210.397L599.397 211.5ZM598.068 185H600.897L614 171.897V169.068L598.068 185ZM605.897 185H603.068L614 174.068V176.897L605.897 185ZM608.068 185H610.897L614 181.897V179.068L608.068 185ZM614 185H613.068L614 184.068V185ZM564 176.897L573.397 167.5H570.568L564 174.068V176.897Z" fill="#D9D9D9" fill-opacity="0.1"/>
<path fill-rule="evenodd" clip-rule="evenodd" d="M474.383 436H478.626L462 452.626V448.383L474.383 436ZM462 458.383L484.383 436H488.626L462 462.626V458.383ZM462 468.383V472.626L498.626 436H494.383L462 468.383ZM468.626 476H464.383L504.383 436H508.626L468.626 476ZM474.383 476H478.626L518.626 436H514.383L474.383 476ZM488.626 476H484.383L524.383 436H528.626L488.626 476ZM494.383 476H498.626L538.626 436H534.383L494.383 476ZM508.626 476H504.383L544.383 436H548.626L508.626 476ZM514.383 476H518.626L550 444.626V440.383L514.383 476ZM528.626 476H524.383L550 450.383V454.626L528.626 476ZM534.383 476H538.626L550 464.626V460.383L534.383 476ZM548.626 476H544.383L550 470.383V474.626L548.626 476ZM468.626 436H464.383L462 438.383V442.626L468.626 436Z" fill="#D9D9D9" fill-opacity="0.1"/>
<path fill-rule="evenodd" clip-rule="evenodd" d="M462 478.383V482.626L468.626 476H464.383L462 478.383ZM462 498.383V502.626L488.626 476H484.383L462 498.383ZM469.626 505H465.383L494.383 476H497V477.626L469.626 505ZM475.383 505H479.626L497 487.626V483.383L475.383 505ZM489.626 505H485.383L497 493.383V497.626L489.626 505ZM495.383 505H497V503.383L495.383 505ZM462 492.626L478.626 476H474.383L462 488.383V492.626Z" fill="#D9D9D9" fill-opacity="0.1"/>
<path fill-rule="evenodd" clip-rule="evenodd" d="M450.626 494H446.383L435.383 505H439.626L450.626 494ZM436.383 494H440.626L429.626 505H425.383L436.383 494ZM430.626 494H426.383L415.383 505H419.626L430.626 494ZM416.383 494H420.626L412 502.626V498.383L416.383 494ZM456.383 494L445.383 505H449.626L460.626 494H456.383ZM455.383 505H459.626L462 502.626V498.383L455.383 505Z" fill="#D9D9D9" fill-opacity="0.1"/>
</svg>
