<svg width="753" height="668" viewBox="0 0 753 668" fill="none" xmlns="http://www.w3.org/2000/svg">
<path fill-rule="evenodd" clip-rule="evenodd" d="M664.5 351V421.5H689V408.5H752V283.5H664.5V311.5H658.5V202.5H583.5L586 168.5L481 165V161.5H475.5V154.5H482L487.5 127L482 125.5L483 121L489 122L494 91.5L489 90V86L432 75.5L431 81.5L425.5 80L437.5 16L377 17.5V37.5H318V41H316.5V1H218V4.5H181.5V1H103V35.5H97.5V62H93.5V35.5H64.5V230.5H66V233H1V340H37.5V382.5H123.5V423H130.5V440.5H147V445L151 448C153.258 470.583 159.243 481.53 182.5 496.5C183.22 514.797 186.526 524.503 202 540L191.5 552L193.5 555L191.5 557.5L188 555L168 582L205 608L214 597.5L216.5 599.5L214 603L225 608L224 610.5L213 606.5L200.5 628.5L280 666L314 596.5L316.5 597.5L308.5 615L326.5 625.5H479V602.5H525.5V566.5H527V601H580.5V594H591.5V527H605.5L657.5 478V351H664.5ZM458 228.5V219L425 220.5L422.5 219L378 230.5L371.5 213L380.5 210L371.5 175.5L288 174L287.5 144.5L265.5 178.5L263.5 256L267.5 252.5H278L282 280.5H286V273.5L344.5 270L346 277L389 271.5L389.5 265L456 259.5V266.5H460.5L458 228.5ZM417 151.5V195L401 197.5L389.5 149H411.5L415.5 145.5H419V151.5H417ZM553.5 236L559 182.5L493.5 180.5V228.5H487V230.5L492 234.5L553.5 236ZM518.5 259.5L512 331.5H521.5L544 361L611.5 365L617.5 266.5L518.5 259.5ZM480 384V333.5H429.5V350.5H419V352H416.5V413.5H419V461.5H501V384H480ZM283 349V359H285.5V410.5H283V418H297V445H327.5V486.5L331.5 484.5V480.5H386.5V447H382.5V413.5H386.5V352H293.5L290.5 349H283ZM253.5 270H158V321H181.5V408H251V318.5H256.5V270V265.8L253.5 270ZM194.5 162V178.5H200.5V230H145.5V181.5H123.5V168H193V162H194.5ZM127 198H93.5V233L84 257V311.5H121V257L127 233V198ZM427.5 541.5V546.5H422.5V572.5H366.5V528H329V516L325.5 513.5V510H331.5V513.5H422.5V541.5H427.5ZM256 476V445H191V474H193H254V476H256Z" fill="#1F2228"/>
<path d="M316.5 1V41H299V52.5V64L329.5 143.5L363 145.5V137L383 138.5V148.5L389.5 149L397.918 184.5L375.543 191L371.5 175.5L288 174L287.5 144.5L267.5 88.5H249.5V135.5H205V120H194.5V100H205V90H218V78H205V4.5H218V1H316.5Z" fill="#2F3541"/>
<path d="M66 230.5H64.5V162H93.5V198V233L84 257V311.5H121V257L127 233V230H145.5H162.5V264H208.5V270H158V321H181.5V408H251V318.5H256.5V367.5H285.5V410.5H283V418H297V445H285.5V467H256V445H191V474H193H254V476H256V482.5H205C198.795 481.909 195.918 480.626 191 478L179 494.188C158.628 480.357 153.141 469.405 151 448L147 445V440.5H130.5V423H123.5V382.5H37.5V340H1V233H66V230.5Z" fill="#2F3541"/>
<path d="M580.5 601H527V575.5H591.5V594H580.5V601Z" fill="#2F3541"/>
<path d="M376.5 591V572.5H398V588H424V591H376.5Z" fill="#2F3541"/>
<path d="M376.5 591V572.5H398V588H424V591H376.5Z" fill="#22262F"/>
<path fill-rule="evenodd" clip-rule="evenodd" d="M481 165L586 168.5L584.971 182.5H559L493.5 180.5V228.5H487V230.5L492 234.5L553.5 236L551.5 261.833L518.5 259.5L512 331.5H521.5L544 361L581 363.193V424H564L533.5 544H471.5V550.5H422.5V546.5H427.5V541.5H422.5V513.5H331.5V510H325.5V513.5L267 498.5L256 495V482.5V476V467H285.5V445H297H327.5V486.5L331.5 484.5V480.5H386.5V447H382.5V413.5H386.5V352H293.5L290.5 349H283V359H285.5V367.5H256.5V318.5V270V265.8L263.5 256L267.5 252.5H278L282 280.5H286V273.5L344.5 270L346 277L389 271.5L389.5 265L456 259.5V266.5H460.5L458 228.5V219L425 220.5L422.5 219L378 230.5L371.5 213L380.5 210L375.543 191L397.918 184.5L401 197.5L417 195V151.5H419V145.5H415.5L411.5 149H400.5L425.5 16.2975L437.5 16L425.5 80L431 81.5L432 75.5L489 86V90L494 91.5L489 122L483 121L482 125.5L487.5 127L482 154.5H475.5V161.5H481V165ZM454.5 121C455.951 119.694 455.951 117.306 454.5 116C453.194 114.824 451.306 114.824 450 116C448.549 117.306 448.549 119.694 450 121C451.306 122.176 453.194 122.176 454.5 121ZM449.5 155.5C450.951 154.194 450.951 151.806 449.5 150.5C448.194 149.324 446.306 149.324 445 150.5C443.549 151.806 443.549 154.194 445 155.5C446.306 156.676 448.194 156.676 449.5 155.5ZM424.5 116V111.5H420V116H424.5ZM480 384V333.5H429.5V350.5H419V352H416.5V413.5H419V461.5H501V384H480Z" fill="#22262F"/>
<path d="M181.5 1V4.5H191.5V90H160V108H156V105H132V108H129V90H97.5V62V35.5H103V1H181.5Z" fill="#22262F"/>
<path d="M601.5 365H597.5V425H601.5V365Z" fill="#282C34"/>
<path d="M579.177 225.23L575.183 225.084L571.795 263.854L575.788 264L579.177 225.23Z" fill="#282C34"/>
<path d="M413.237 194L409.441 194.826L419.703 219.695L423.5 218.869L413.237 194Z" fill="#282C34"/>
<path d="M183.5 231H179.5V264H183.5V231Z" fill="#282C34"/>
<path d="M189.5 231H185.5V264H189.5V231Z" fill="#282C34"/>
<path d="M195.5 231H191.5V264H195.5V231Z" fill="#282C34"/>
<path d="M420.5 573H416.5V588H420.5V573Z" fill="#282C34"/>
<path d="M307.5 446H303.5V467H307.5V446Z" fill="#282C34"/>
<path d="M590.5 581H586.5V593H590.5V581Z" fill="#282C34"/>
<path d="M576.5 557V561H590.5V557H576.5Z" fill="#282C34"/>
<path d="M423.5 547V551H471.5V547H423.5Z" fill="#282C34"/>
<path d="M256.5 373V377H284.5V373H256.5Z" fill="#282C34"/>
<path d="M460.5 241V245H488.5V241H460.5Z" fill="#282C34"/>
<path d="M557.98 185.545L557.86 189.543L583.559 190.458L583.679 186.46L557.98 185.545Z" fill="#282C34"/>
<path d="M375.5 190.457L376.673 194.227L397.982 185.77L396.809 182L375.5 190.457Z" fill="#282C34"/>
<path d="M126.5 206V210H145.5V206H126.5Z" fill="#282C34"/>
<path d="M64.5 129V133H93.5V129H64.5Z" fill="#282C34"/>
<path d="M256.5 367V371H284.5V367H256.5Z" fill="#282C34"/>
<path d="M460.5 235V239H488.5V235H460.5Z" fill="#282C34"/>
<path d="M126.5 200V204H145.5V200H126.5Z" fill="#282C34"/>
<path d="M64.5 123V127H93.5V123H64.5Z" fill="#282C34"/>
<path d="M595.5 365H591.5V425H595.5V365Z" fill="#282C34"/>
<path d="M573.186 225.011L569.193 224.865L565.804 263.634L569.798 263.781L573.186 225.011Z" fill="#282C34"/>
<path d="M407.542 195.24L403.746 196.066L414.008 220.935L417.805 220.108L407.542 195.24Z" fill="#282C34"/>
<path d="M177.5 231H173.5V264H177.5V231Z" fill="#282C34"/>
<path d="M414.5 573H410.5V588H414.5V573Z" fill="#282C34"/>
<path d="M301.5 446H297.5V467H301.5V446Z" fill="#282C34"/>
<path d="M584.5 581H580.5V593H584.5V581Z" fill="#282C34"/>
<path d="M576.5 563V567H590.5V563H576.5Z" fill="#282C34"/>
<path d="M423.5 553V557H471.5V553H423.5Z" fill="#282C34"/>
<path d="M256.5 379V383H284.5V379H256.5Z" fill="#282C34"/>
<path d="M557.8 191.542L557.68 195.54L583.379 196.454L583.499 192.456L557.8 191.542Z" fill="#282C34"/>
<path d="M377.259 196.111L378.432 199.881L399.741 191.424L398.568 187.654L377.259 196.111Z" fill="#282C34"/>
<path d="M126.5 212V216H145.5V212H126.5Z" fill="#282C34"/>
<path d="M64.5 135V139H93.5V135H64.5Z" fill="#282C34"/>
<path d="M589.5 365H585.5V425H589.5V365Z" fill="#282C34"/>
<path d="M567.196 224.792L563.202 224.646L559.814 263.415L563.807 263.561L567.196 224.792Z" fill="#282C34"/>
<path d="M402.047 196.963L398.251 197.789L408.314 222.174L412.11 221.347L402.047 196.963Z" fill="#282C34"/>
<path d="M171.5 231H167.5V264H171.5V231Z" fill="#282C34"/>
<path d="M408.5 573H404.5V588H408.5V573Z" fill="#282C34"/>
<path d="M295.5 446H291.5V467H295.5V446Z" fill="#282C34"/>
<path d="M578.5 581H574.5V593H578.5V581Z" fill="#282C34"/>
<path d="M576.5 569V573H590.5V569H576.5Z" fill="#282C34"/>
<path d="M423.5 559V563H471.5V559H423.5Z" fill="#282C34"/>
<path d="M256.5 385V389H284.5V385H256.5Z" fill="#282C34"/>
<path d="M557.62 197.539L557.5 201.537L583.199 202.451L583.319 198.454L557.62 197.539Z" fill="#282C34"/>
<path d="M379.018 201.766L380.191 205.536L401.5 197.079L400.327 193.309L379.018 201.766Z" fill="#282C34"/>
<path d="M126.5 218V222H145.5V218H126.5Z" fill="#282C34"/>
<path d="M64.5 141V145H93.5V141H64.5Z" fill="#282C34"/>
<path d="M301.5 19V23H315.5V19H301.5Z" fill="#282C34"/>
<path d="M301.5 2H297.5V15H301.5V2Z" fill="#282C34"/>
<path d="M583.5 365H579.5V425H583.5V365Z" fill="#282C34"/>
<path d="M561.205 224.573L557.212 224.427L553.823 263.196L557.817 263.342L561.205 224.573Z" fill="#282C34"/>
<path d="M165.5 231H161.5V264H165.5V231Z" fill="#282C34"/>
<path d="M402.5 573H398.5V588H402.5V573Z" fill="#282C34"/>
<path d="M289.5 446H285.5V467H289.5V446Z" fill="#282C34"/>
<path d="M572.5 581H568.5V593H572.5V581Z" fill="#282C34"/>
<path d="M576.5 575V579H590.5V575H576.5Z" fill="#282C34"/>
<path d="M423.5 565V569H471.5V565H423.5Z" fill="#282C34"/>
<path d="M256.5 391V395H284.5V391H256.5Z" fill="#282C34"/>
<path d="M126.5 224V228H145.5V224H126.5Z" fill="#282C34"/>
<path d="M64.5 147V151H93.5V147H64.5Z" fill="#282C34"/>
<path d="M301.5 25V29H315.5V25H301.5Z" fill="#282C34"/>
<path d="M295.5 2H291.5V15H295.5V2Z" fill="#282C34"/>
<path d="M64.5 153V157H93.5V153H64.5Z" fill="#282C34"/>
<path d="M301.5 31V35H315.5V31H301.5Z" fill="#282C34"/>
<path d="M64.5 159V163H93.5V159H64.5Z" fill="#282C34"/>
<path d="M301.5 37V41H315.5V37H301.5Z" fill="#282C34"/>
<path d="M566.5 581H562.5V593H566.5V581Z" fill="#282C34"/>
<path d="M560.5 581H556.5V593H560.5V581Z" fill="#282C34"/>
<path d="M554.5 581H550.5V593H554.5V581Z" fill="#282C34"/>
<path fill-rule="evenodd" clip-rule="evenodd" d="M151.5 455.976L172.909 447.343C173.105 448.197 173.304 449.032 173.508 449.848L152.661 459.715L151.5 456.5V455.976ZM174.612 453.94C174.381 453.152 174.156 452.343 173.936 451.514L153.351 461.626L155.075 466.399L174.612 453.94ZM175.247 456.018C175.547 456.958 175.856 457.866 176.176 458.744L157.4 472.839L156.073 469.164L175.247 456.018ZM178.021 463.24C177.763 462.685 177.512 462.116 177.266 461.531L176.813 461L159.017 475.72L161.873 479.147L178.021 463.24ZM179.223 465.641C179.792 466.696 180.389 467.691 181.017 468.629L165.734 483.684L165.5 483.5L162.827 480.292L179.223 465.641ZM184.426 472.867C183.639 472.058 182.892 471.19 182.183 470.261L167.304 484.917L170.867 487.717L184.426 472.867ZM186.813 475.045C187.506 475.603 188.226 476.127 188.976 476.618L175.036 490.992L172.34 488.874L186.813 475.045ZM195.172 479.707C193.8 479.197 192.506 478.622 191.284 477.977L176.725 492.319L179.5 494.5L179.879 494.773L195.172 479.707ZM197.271 480.421C198.686 480.858 200.178 481.238 201.752 481.566L184.771 498.295L181.51 495.947L197.271 480.421Z" fill="#282C34"/>
<path d="M186.385 499.457L203.5 482.5H209L189.5 501.925L186.385 499.457Z" fill="#282C34"/>
<path d="M135 101.5V105.5H154V101.5H135Z" fill="#282C34"/>
<path d="M135 95.5V99.5H154V95.5H135Z" fill="#282C34"/>
<path d="M135 107.5V111.5H154V107.5H135Z" fill="#282C34"/>
<path d="M103 65H99V78H103V65Z" fill="#282C34"/>
<path d="M97 65H93V78H97V65Z" fill="#282C34"/>
<path d="M747.5 286H732.5V297H747.5V286Z" fill="#373D4B"/>
<path d="M730.5 286H715.5V297H730.5V286Z" fill="#373D4B"/>
<path d="M657.5 230H645.5V247H657.5V230Z" fill="#373D4B"/>
<path d="M462.5 315H451.5V333H462.5V315Z" fill="#373D4B"/>
<path d="M498.5 462H488.5V472H498.5V462Z" fill="#373D4B"/>
<path d="M484.5 486H453.5V500H484.5V486Z" fill="#373D4B"/>
<path d="M487.5 526H467.5V541H487.5V526Z" fill="#373D4B"/>
<path d="M404.5 505H386.5V513H404.5V505Z" fill="#373D4B"/>
<path d="M276.5 467H257.5V475H276.5V467Z" fill="#373D4B"/>
<path d="M281.5 574.26L263.572 564.253L258.551 573.25L276.479 583.256L281.5 574.26Z" fill="#373D4B"/>
<path d="M272.785 580.142L265.297 575.963L258.189 588.697L265.677 592.877L272.785 580.142Z" fill="#373D4B"/>
<path d="M275.5 592.179L268.012 588L260.904 600.734L268.392 604.914L275.5 592.179Z" fill="#373D4B"/>
<path d="M302.526 619.925L289.006 612.379L286.198 617.409L299.718 624.955L302.526 619.925Z" fill="#373D4B"/>
<path d="M231.081 557.079L221.98 552L218.409 558.399L227.509 563.478L231.081 557.079Z" fill="#373D4B"/>
<path d="M267.5 475H257.5V484H267.5V475Z" fill="#373D4B"/>
<path d="M397.5 471H386.5V481H397.5V471Z" fill="#373D4B"/>
<path d="M486.5 587H479.5V602H486.5V587Z" fill="#373D4B"/>
<path d="M334.678 561.188L327.688 560.822L327.322 567.812L334.312 568.178L334.678 561.188Z" fill="#373D4B"/>
<path d="M324.5 544.366L317.51 544L316.665 560.113L323.655 560.48L324.5 544.366Z" fill="#373D4B"/>
<path d="M316.5 512.408L309.927 510L302 521.5L308.573 523.908L316.5 512.408Z" fill="#373D4B"/>
<path d="M551.8 458.862L527.77 452.673L519.426 485.075L543.456 491.264L551.8 458.862Z" fill="#373D4B"/>
<path d="M460.5 267H451.5V277H460.5V267Z" fill="#373D4B"/>
<path d="M532.5 494C532.5 496.761 534.739 499 537.5 499C540.261 499 542.5 496.761 542.5 494C542.5 491.239 540.261 489 537.5 489C534.739 489 532.5 491.239 532.5 494Z" fill="#373D4B"/>
<path d="M571.5 443.434L560.773 441L558.56 450.752L569.287 453.186L571.5 443.434Z" fill="#373D4B"/>
<path d="M570.5 435.901L562.123 434L560.395 441.616L568.772 443.516L570.5 435.901Z" fill="#373D4B"/>
<path d="M568.5 431.187L563.268 430L562.189 434.756L567.421 435.943L568.5 431.187Z" fill="#373D4B"/>
<path d="M564.5 428.5C564.5 429.881 565.619 431 567 431C568.381 431 569.5 429.881 569.5 428.5C569.5 427.119 568.381 426 567 426C565.619 426 564.5 427.119 564.5 428.5Z" fill="#373D4B"/>
<path d="M656.5 371H639.5V399H656.5V371Z" fill="#373D4B"/>
<path d="M656.5 401H639.5V429H656.5V401Z" fill="#373D4B"/>
<path d="M656.5 431H639.5V459H656.5V431Z" fill="#373D4B"/>
<path d="M332.5 89C332.5 101.703 342.797 112 355.5 112C368.203 112 378.5 101.703 378.5 89C378.5 76.2975 368.203 66 355.5 66C342.797 66 332.5 76.2975 332.5 89Z" fill="#373D4B"/>
<path d="M241.5 82H225.5V88H241.5V82Z" fill="#373D4B"/>
<path d="M205.5 49H195.5V77H205.5V49Z" fill="#373D4B"/>
<path d="M217.5 77H204.5V79H217.5V77Z" fill="#373D4B"/>
<path d="M180.5 71H151.5V82H180.5V71Z" fill="#373D4B"/>
<path d="M114.5 79H98.5V89H114.5V79Z" fill="#373D4B"/>
<path d="M92.5 51H77.5V60H92.5V51Z" fill="#373D4B"/>
<path d="M122.5 42V2H120.5V12H115.5V33.5H113.5V42H122.5Z" fill="#373D4B"/>
<path d="M140.5 154H129.5V167H140.5V154Z" fill="#373D4B"/>
<path d="M264.5 176H251.5V191H264.5V176Z" fill="#373D4B"/>
<path d="M240.5 136H228.5V150H240.5V136Z" fill="#373D4B"/>
<path d="M353.5 147H337.5V152H353.5V147Z" fill="#373D4B"/>
<path d="M231.5 542C231.5 544.209 233.291 546 235.5 546C237.709 546 239.5 544.209 239.5 542C239.5 539.791 237.709 538 235.5 538C233.291 538 231.5 539.791 231.5 542Z" fill="#373D4B"/>
<path d="M259.5 562C259.5 564.209 261.291 566 263.5 566C265.709 566 267.5 564.209 267.5 562C267.5 559.791 265.709 558 263.5 558C261.291 558 259.5 559.791 259.5 562Z" fill="#373D4B"/>
<path fill-rule="evenodd" clip-rule="evenodd" d="M305.805 82.6266L307.437 86.8532L285.523 75.482L288.13 73.4547L305.805 82.6266ZM309.851 93.1059L308.219 88.8793L284.274 76.4538L281.667 78.481L309.851 93.1059ZM310.633 95.1319L312.265 99.3585L277.811 81.4801L280.418 79.4529L310.633 95.1319ZM314.679 105.611L313.047 101.385L276.562 82.4519L276.5 82.5L274.328 84.6724L314.679 105.611ZM315.461 107.637L317.093 111.864L271.036 87.9643L273.261 85.7391L315.461 107.637ZM319.507 118.116L317.875 113.89L269.909 89H267L267.867 91.3202L319.507 118.116ZM320.289 120.143L321.921 124.369L270.186 97.5235L268.619 93.3302L320.289 120.143ZM324.335 130.622L322.703 126.395L270.938 99.5336L272.505 103.727L324.335 130.622ZM325.117 132.648L326.749 136.874L274.824 109.93L273.257 105.737L325.117 132.648ZM329.163 143.127L327.531 138.9L275.576 111.94L277.143 116.134L329.163 143.127ZM327.593 143.933L320.605 143.686L279.462 122.337L277.895 118.144L327.593 143.933ZM310.266 143.321L317.255 143.568L280.214 124.347L281.781 128.54L310.266 143.321ZM306.916 143.203L299.927 142.956L284.1 134.744L282.533 130.55L306.916 143.203ZM289.589 142.591L296.577 142.838L284.852 136.753L286.419 140.947L289.589 142.591ZM305.023 80.6003L289.379 72.4827L291.986 70.4554L303.391 76.3737L305.023 80.6003ZM302.609 74.3476L293.235 69.4836L295.842 67.4563L300.977 70.121L302.609 74.3476ZM299 65L297.091 66.4845L300.195 68.095L299 65Z" fill="#D9D9D9" fill-opacity="0.1"/>
<path fill-rule="evenodd" clip-rule="evenodd" d="M217.437 4H217.5V4.06256L217.437 4ZM215.266 4L217.5 6.23413V9.06256L212.437 4H215.266ZM217.5 14.0626V11.2341L210.266 4H207.437L217.5 14.0626ZM217.5 16.2341V19.0626L205.5 7.06256V4.23413L217.5 16.2341ZM217.5 24.0626V21.2341L205.5 9.23413V12.0626L217.5 24.0626ZM217.5 26.2341V29.0626L205.5 17.0626V14.2341L217.5 26.2341ZM217.5 34.0626V31.2341L205.5 19.2341V22.0626L217.5 34.0626ZM217.5 36.2341V39.0626L205.5 27.0626V24.2341L217.5 36.2341ZM217.5 44.0626V41.2341L205.5 29.2341V32.0626L217.5 44.0626ZM217.5 46.2341V49.0626L205.5 37.0626V34.2341L217.5 46.2341ZM217.5 54.0626V51.2341L205.5 39.2341V42.0626L217.5 54.0626ZM217.5 56.2341V59.0626L205.5 47.0626V44.2341L217.5 56.2341ZM217.5 64.0626V61.2341L205.5 49.2341V52.0626L217.5 64.0626ZM217.5 66.2341V69.0626L205.5 57.0626V54.2341L217.5 66.2341ZM217.5 74.0626V71.2341L205.5 59.2341V62.0626L217.5 74.0626ZM217.5 76.2341V77H215.437L205.5 67.0626V64.2341L217.5 76.2341ZM210.437 77H213.266L205.5 69.2341V72.0626L210.437 77ZM208.266 77H205.5V74.2341L208.266 77Z" fill="#D9D9D9" fill-opacity="0.1"/>
<path fill-rule="evenodd" clip-rule="evenodd" d="M363 137L368.238 137.511L382.858 145.097L382.521 148.302L363 138.173V137ZM370.237 146.928L378.887 148.037L363 139.793V143.173L370.237 146.928ZM366.09 146.396L363 146V144.793L366.09 146.396ZM380.105 138.669L372.084 137.886L383.02 143.561L383.357 140.356L380.105 138.669Z" fill="#D9D9D9" fill-opacity="0.1"/>
<path fill-rule="evenodd" clip-rule="evenodd" d="M317.5 0H217V3.5H182.5V0H102V34.5H96.5V61H94.5V34.5H63.5V231.5H65V232H0V341H36.5V383.5H122.5V424H129.5V441.5H146V445.5L150.049 448.537C151.195 459.677 153.286 468.115 158.029 475.638C162.769 483.154 170.094 489.659 181.522 497.059C181.902 506.006 182.932 513.007 185.798 519.694C188.636 526.314 193.239 532.548 200.634 540.043L190.243 551.918L192.262 554.946L191.311 556.136L187.781 553.615L166.586 582.229L205.168 609.34L214.13 598.885L215.136 599.689L212.48 603.408L223.717 608.515L223.431 609.229L212.548 605.272L199.098 628.944L280.465 667.325L314.49 597.773L315.154 598.039L307.214 615.408L326.23 626.5H480V603.5H526.5V602H581.5V595H592.5V528H605.897L658.5 478.432V352H663.5V422.5H690V409.5H753V282.5H663.5V310.5H659.5V201.5H584.576L587.074 167.535L482 164.033V160.5H476.5V155.5H482.82L488.664 126.281L483.183 124.786L483.771 122.142L489.825 123.151L495.129 90.7947L490 89.256V85.1674L431.181 74.3323L430.196 80.2441L426.653 79.2779L438.711 14.9697L376 16.5245V36.5H317.5V0ZM65.5 229.5V36.5H92.5V63H98.5V36.5H104V2H180.5V5.5H219V2H315.5V42H319V38.5H378V18.4755L436.289 17.0303L424.347 80.7221L431.804 82.7559L432.819 76.6677L488 86.8326V90.744L492.871 92.2053L488.175 120.849L482.229 119.858L480.817 126.214L486.336 127.719L481.18 153.5H474.5V162.5H480V165.967L584.926 169.465L582.424 203.5H657.5V312.5H665.5V284.5H751V407.5H688V420.5H665.5V350H656.5V477.568L605.103 526H590.5V593H579.5V600H528V565.5H524.5V601.5H478V624.5H326.77L309.786 614.592L317.846 596.961L313.51 595.227L279.535 664.675L201.902 628.056L213.452 607.729L224.569 611.771L226.283 607.485L215.52 602.592L217.864 599.311L213.87 596.115L204.832 606.66L169.414 581.771L188.219 556.385L191.689 558.864L194.738 555.054L192.757 552.082L203.368 539.955L202.708 539.293C195.016 531.59 190.417 525.393 187.637 518.906C184.857 512.42 183.857 505.562 183.499 496.461L183.479 495.941L183.041 495.659C171.462 488.206 164.293 481.822 159.721 474.571C155.156 467.331 153.118 459.127 151.995 447.9L151.951 447.464L148 444.5V439.5H131.5V422H124.5V381.5H38.5V339H2V234H67V229.5H65.5ZM425.5 110.5H419V117H425.5V110.5ZM423.5 112.5V115H421V112.5H423.5ZM455.169 115.257C453.482 113.739 451.018 113.739 449.331 115.257C447.438 116.96 447.438 120.04 449.331 121.743C451.018 123.261 453.482 123.261 455.169 121.743C457.062 120.04 457.062 116.96 455.169 115.257ZM450.669 116.743C451.595 115.91 452.905 115.91 453.831 116.743C454.841 117.652 454.841 119.348 453.831 120.257C452.905 121.09 451.595 121.09 450.669 120.257C449.659 119.348 449.659 117.652 450.669 116.743ZM288.444 141.2L264.508 178.193L262.508 255.668L252.985 269H157V322H180.5V409H252V319.5H257.5V266.12L264.246 256.676L267.876 253.5H277.133L281.133 281.5H287V274.442L343.702 271.05L345.215 278.109L389.935 272.389L390.432 265.926L455 260.586V267.5H461.568L459.134 230.5L459 228.467V227V217.954L425.256 219.487L422.655 217.927L378.623 229.306L372.798 213.622L381.704 210.653L372.276 174.514L288.983 173.018L288.444 141.2ZM264.559 253.745L266.492 178.807L286.556 147.8L287.017 174.982L370.724 176.486L379.296 209.347L370.202 212.378L377.377 231.694L422.345 220.073L424.744 221.513L457 220.046V228.533L459.432 265.5H457V258.414L388.568 264.074L388.065 270.611L346.785 275.891L345.298 268.95L285 272.558V279.5H282.867L278.867 251.5H267.124L264.559 253.745ZM255.5 268.92V317.5H250V407H182.5V320H159V271H254.015L255.5 268.92ZM420 144.5H415.124L411.124 148H388.235L400.24 198.631L418 195.856V152.5H420V144.5ZM418 150.5H416V194.144L401.76 196.369L390.765 150H411.876L415.876 146.5H418V150.5ZM450.169 149.757C448.482 148.239 446.018 148.239 444.331 149.757C442.438 151.46 442.438 154.54 444.331 156.243C446.018 157.761 448.482 157.761 450.169 156.243C452.062 154.54 452.062 151.46 450.169 149.757ZM445.669 151.243C446.595 150.41 447.905 150.41 448.831 151.243C449.841 152.152 449.841 153.848 448.831 154.757C447.905 155.59 446.595 155.59 445.669 154.757C444.659 153.848 444.659 152.152 445.669 151.243ZM195.5 161H192V167H122.5V182.5H144.5V231H201.5V177.5H195.5V161ZM193.5 169V179.5H199.5V229H146.5V180.5H124.5V169H193.5ZM492.5 179.469V227.5H486V230.981L491.639 235.491L554.4 237.022L560.105 181.533L492.5 179.469ZM557.895 183.467L552.6 234.978L492.361 233.509L488 230.019V229.5H494.5V181.531L557.895 183.467ZM128 197H97.5H92.5V232.809L83 256.809V312.5H122V257.123L128 233.123V197ZM126 199V232.877L120 256.877V310.5H85V257.191L94.5 233.191V199H126ZM517.592 258.433L510.906 332.5H521.005L543.483 361.971L612.437 366.057L618.558 265.572L517.592 258.433ZM616.442 267.428L610.563 363.943L544.517 360.029L521.995 330.5H513.094L519.408 260.567L616.442 267.428ZM481 332.5H428.5V349.5H418V351H415.5V414.5H418V462.5H502V383H481V332.5ZM420 351.5H430.5V334.5H479V385H500V460.5H420V412.5H417.5V353H420V351.5ZM290.914 348H282V360H284.5V409.5H282V419H296V446H326.5V488.118L332.5 485.118V481.5H387.5V446H383.5V414.5H387.5V351H293.914L290.914 348ZM290.086 350L293.086 353H385.5V412.5H381.5V448H385.5V479.5H330.5V483.882L328.5 484.882V444H298V417H284V411.5H286.5V358H284V350H290.086ZM257 444H190V475H253V477H257V444ZM255 446V473H192V446H255ZM332.5 509H324.5V514.015L328 516.515V529H365.5V573.5H423.5V547.5H428.5V540.5H423.5V512.5H332.5V509ZM330.5 511V514.5H421.5V542.5H426.5V545.5H421.5V571.5H367.5V527H330V515.485L326.5 512.985V511H330.5Z" fill="#454545"/>
<path d="M97.5 197H92.5V81H97.5V197Z" fill="#454545"/>
<path d="M636.5 222H555.5V226H636.5V222Z" fill="#454545"/>
<path d="M637.5 222H633.5V255H637.5V222Z" fill="#454545"/>
<path d="M576.5 574H527.5V577H576.5V574Z" fill="#454545"/>
<path d="M537.5 541H467.5V547H537.5V541Z" fill="#454545"/>
<path d="M449.5 541H444.5V547H449.5V541Z" fill="#454545"/>
<path fill-rule="evenodd" clip-rule="evenodd" d="M326.45 515.746L309.232 510.964L309.768 509.037L328.55 514.254L327.967 523.386L328.981 523.304L330.01 528.452L326.347 564.042L323.46 562.598L326.45 515.746Z" fill="#454545"/>
<path fill-rule="evenodd" clip-rule="evenodd" d="M277.5 446H296.5V444H277.5V446Z" fill="#454545"/>
<path fill-rule="evenodd" clip-rule="evenodd" d="M262.5 444H256V446H262.5V444Z" fill="#454545"/>
<path fill-rule="evenodd" clip-rule="evenodd" d="M256.5 494.382V476.5H254.5V494.713L249.069 503.403L252.866 505.301L257.958 497.154L276.246 501.967L276.755 500.033L257.855 495.059L256.5 494.382Z" fill="#454545"/>
<path fill-rule="evenodd" clip-rule="evenodd" d="M235.729 526.618L208.592 566.598L206.574 565.181L205.425 566.818L210.272 570.22L210.218 570.328L224.668 580.332L221.638 585.494L223.362 586.506L226.317 581.474L230.431 584.322L231.569 582.678L226.574 579.22L212.831 569.573L212.871 569.494L238.87 528.711L235.729 526.618Z" fill="#454545"/>
<path d="M561 425L530 541H537.5L541.667 523.5L542.619 519.5L565 425.5L561 425Z" fill="#454545"/>
<path d="M528 546H524.5V553H528V546Z" fill="#454545"/>
<path d="M254.5 622.787L242.255 616L240.801 618.624L253.046 625.411L254.5 622.787Z" fill="#454545"/>
<path fill-rule="evenodd" clip-rule="evenodd" d="M419.94 200.158L417.94 194.658L416.06 195.342L418.06 200.842L419.94 200.158ZM421.004 213.59L421.504 219.09L423.496 218.909L422.996 213.409L421.004 213.59Z" fill="#454545"/>
<path d="M291.5 641.787L270.176 629.967L268.721 632.591L290.046 644.411L291.5 641.787Z" fill="#454545"/>
<path fill-rule="evenodd" clip-rule="evenodd" d="M376.92 148.997L389.42 149.997L389.58 148.003L377.08 147.003L376.92 148.997Z" fill="#454545"/>
<path fill-rule="evenodd" clip-rule="evenodd" d="M362.06 135.929L361.558 144.705L317.049 142.501L316.951 144.499L367.451 146.999L367.549 145.001L363.556 144.804L363.94 138.072L382.45 139.426L382.001 147.948L383.999 148.053L384.55 137.574L362.06 135.929Z" fill="#454545"/>
<path fill-rule="evenodd" clip-rule="evenodd" d="M288.429 143L302.429 144.5L302.642 142.511L288.429 141V143Z" fill="#454545"/>
<path fill-rule="evenodd" clip-rule="evenodd" d="M301.5 15H295.5V50H271.414L269.414 48H264V56.5H269.414L271.414 54.5H298V65H318V53H316V63H300V54H301.5V15Z" fill="#454545"/>
<path fill-rule="evenodd" clip-rule="evenodd" d="M217 37V89H207V91H219V89.5H270.373L278.155 82.7557L276.845 81.2443L269.627 87.5H219V37H217Z" fill="#454545"/>
<path fill-rule="evenodd" clip-rule="evenodd" d="M294.207 70.7072L300.207 64.7072L298.793 63.293L292.793 69.293L294.207 70.7072Z" fill="#454545"/>
<path fill-rule="evenodd" clip-rule="evenodd" d="M219 24V5.5H217V24H219Z" fill="#454545"/>
<path d="M593.5 526V519.5H572V523.5H590.5V526H593.5Z" fill="#454545"/>
<path d="M542.619 519.5H560V523.5H541.667L542.619 519.5Z" fill="#454545"/>
<path d="M459 228.467V227H471V230.5H459.134L459 228.467Z" fill="#454545"/>
<path d="M710.052 357.968V342.896H715.5V341H702.516V342.896H707.964V357.968H710.052Z" fill="#FF6B00"/>
<path d="M30.356 297.968H28.268V281H30.356V288.824H32.876L38.396 281H40.796L34.7 289.424L40.844 297.968H38.372L33.044 290.72H30.356V297.968Z" fill="#0085FF"/>
<path d="M49.052 297.968H46.964V282.896H41.516V281H54.5V282.896H49.052V297.968Z" fill="#0085FF"/>
<path d="M225.5 607H306.5V547H225.5V607Z" fill="#7000FF" fill-opacity="0.2"/>
<path fill-rule="evenodd" clip-rule="evenodd" d="M304.5 605H227.5V549H304.5V605ZM225.5 607V547H306.5V607H225.5Z" fill="white" fill-opacity="0.08"/>
<path d="M257.966 587.532V567H267.072C268.019 567 268.889 567.097 269.682 567.29C270.494 567.483 271.199 567.831 271.799 568.334C272.282 568.721 272.688 569.233 273.017 569.871C273.365 570.49 273.539 571.244 273.539 572.133C273.558 573.08 273.384 573.921 273.017 574.656C272.669 575.391 272.069 576.009 271.219 576.512C271.818 576.686 272.33 576.947 272.756 577.295C273.181 577.643 273.519 578.049 273.771 578.513C274.041 578.977 274.235 579.48 274.351 580.021C274.467 580.562 274.515 581.123 274.496 581.703C274.457 582.631 274.206 583.491 273.742 584.284C273.297 585.057 272.707 585.686 271.973 586.169C271.103 586.768 270.146 587.145 269.102 587.3C268.058 587.455 267.023 587.532 265.999 587.532H257.966ZM265.883 575.323C266.308 575.323 266.733 575.304 267.159 575.265C267.584 575.207 267.98 575.072 268.348 574.859C268.657 574.666 268.918 574.405 269.131 574.076C269.343 573.747 269.459 573.361 269.479 572.916C269.498 572.452 269.421 572.075 269.247 571.785C269.073 571.495 268.86 571.273 268.609 571.118C268.299 570.925 267.942 570.818 267.536 570.799C267.13 570.76 266.714 570.741 266.289 570.741H262.171V575.323H265.883ZM262.171 583.82H265.999C266.559 583.82 267.149 583.791 267.768 583.733C268.406 583.656 268.947 583.453 269.392 583.124C269.662 582.911 269.885 582.65 270.059 582.341C270.233 582.012 270.32 581.606 270.32 581.123C270.32 580.678 270.223 580.301 270.03 579.992C269.836 579.683 269.595 579.451 269.305 579.296C268.976 579.083 268.599 578.958 268.174 578.919C267.768 578.88 267.342 578.861 266.898 578.861L262.171 578.89V583.82Z" fill="white"/>
<path d="M123.5 117L179.5 117V6L123.5 6V117Z" fill="#7000FF" fill-opacity="0.2"/>
<path fill-rule="evenodd" clip-rule="evenodd" d="M178.117 113.419L124.883 113.419V9.58065L178.117 9.58065V113.419ZM123.5 117V6L179.5 6V117L123.5 117Z" fill="white" fill-opacity="0.08"/>
<path d="M155.439 68.617L156.918 72.532H161.5L153.554 52H148.798L140.968 72.532H145.579L147 68.617H155.439ZM154.221 64.905H148.247L151.205 56.466L154.221 64.905Z" fill="white"/>
</svg>
