<svg width="724" height="712" viewBox="0 0 724 712" fill="none" xmlns="http://www.w3.org/2000/svg">
<path fill-rule="evenodd" clip-rule="evenodd" d="M619 1V8H623.5V45.5H618V132H614.5V173H701V302.5H723V420.5H575V563H514.5V566H498.5V571H508V654.5H498.5V625H488.5V645.5H467V625H456.5V654.5H341.5V699.5H250.5V698H195V705H129V699.5H60V710.5H17V579H1V308.5H41V177.5H65.5V201H109V167.5H160V142.5H181.5V136H254.5V119H305.5V148H331V119H332.5V102H307.5V47.5V1H619ZM457 148V132H363.5V148H457ZM229.5 151.5H254.5V173.5H237.5V185H182.5V154H229.5V151.5ZM83 224H109V279.5H83V224ZM104 312.5V334H152.5V374.5H91.5V403.5H87.5V390H73V348H77.5V312.5H104ZM42.5 390V348H30.5V434H42.5V417.5H37V390H42.5ZM320.5 291.5V179H274V212H137.5V262H178V250.5H229.5V291.5H320.5ZM392.5 366.5V316.5H323V366.5H392.5ZM679 367V280H614.5V311.5H601V337.5H577V362.5H619.5V367H679ZM392.5 486V397.5H341V428.5H313V425.5H263V431.5H260.5V434.5L263 437V483H328.5V521H343V533.5H365.5V486H392.5ZM392 629.5V557H389.5V559H341.5V629.5H392ZM224 591.5H214.5V588H184.5V591.5H171V650H174V652.5H164.5V650H149V657H126V654.5H71V595H77.5V521H75V501H123V478H182.5V504H224V591.5ZM312 533.5H316.5V596.5H312V533.5ZM316.5 652V616H312V652H316.5Z" fill="#22262F"/>
<path d="M257.5 47.5H307.5V102H332.5V119H331H305.5H254.5V136H181.5V142.5H160V167.5H109V143H65.5V177.5H41V51.5H160V43.5H257.5V47.5Z" fill="#22262F"/>
<path d="M498.5 625V654.5H456.5V625H467V645.5H488.5V625H498.5Z" fill="#22262F"/>
<path d="M498.5 571V566H514.5V654.5H508V571H498.5Z" fill="#22262F"/>
<path d="M257.5 47.5H307.5V102H332.5V119H331H305.5H254.5V136H181.5V142.5H160V167.5H109V143H65.5V177.5H41V51.5H160V43.5H257.5V47.5Z" fill="#1F2228"/>
<path d="M498.5 571V566H514.5V654.5H508V571H498.5Z" fill="#1F2228"/>
<path d="M498.5 625V654.5H456.5V625H467V645.5H488.5V625H498.5Z" fill="#1F2228"/>
<path d="M577 337.5V362.5H531.5V393.5H442.5V305.5H531.5V337.5H577Z" fill="#2F3541"/>
<path fill-rule="evenodd" clip-rule="evenodd" d="M614.5 173H701V297.5H679V280H614.5V311.5H601.5V260V148H516.5H460.5H457V132H460.5H516.5H611H614.5V173ZM679 192.5H674.5H632V262.5H679V192.5Z" fill="#2F3541"/>
<path d="M73 348V390H87.5V403.5H90V434.5H85.5V453.5H123V434.5H260.5L263 437V483H328.5V504H224H182.5V478H123V501H75V434H42.5V417.5H37V390H42.5V348H73Z" fill="#2F3541"/>
<path d="M254.5 151.5H229.5V154H182.5V185H137.5V196.5H148.5V212H137.5V262H178V312.5H119V279.5H109V226.5H123.5V196.5H126.5V185H109V167.5H160V142.5H181.5V136H254.5V151.5Z" fill="#2F3541"/>
<path d="M575 563H514.5V566H498.5V571H508V654.5H498.5V625H488.5V645.5H467V625H456.5V654.5H341.5V629.5H392V557H389.5V559H341.5V533.5H343H365.5V486H392.5V397.5H341V366.5H392.5V316.5H363.5V232.5H355.5V186H363.5V149.5V148H382V296H408V351.5V402.5V529H555V399.5H593V362.5H619.5V367H634.5V420.5H575V563Z" fill="#2F3541"/>
<path d="M460.5 132V121.5H516.5V132H460.5Z" fill="#2F3541"/>
<path d="M506.5 119.5V116H466V119.5H506.5Z" fill="#2F3541"/>
<path d="M516.5 148V158H460.5V148H516.5Z" fill="#2F3541"/>
<path d="M477 234.707C480 235.207 493 258.207 490.5 262.707C488 267.207 485.7 268.8 482.5 270C478.5 271.5 478.5 269 476 266C473.5 263 471.5 265.5 468.5 266C465.5 266.5 458 260 457 259C456 258 456 257 454 255.5C452 254 447 255 444.5 254.5C442 254 440.5 250.5 439 248.5C437.5 246.5 429.5 246.5 427 246.5C425 246.5 426.167 244.833 427 244C427.833 243.833 429.5 243 429.5 241C429.5 240 431.5 238 432 237C432.5 236 434.5 238 435 239C435.4 239.8 437.833 239.333 439 239C440 237.5 442.7 234.5 445.5 234.5C448.3 234.5 455.717 237.467 459.5 233.5C460.472 232.481 460.3 231.3 461.5 230.5C463 229.5 468 234.5 471.5 237C474.3 239 474 234.207 477 234.707Z" fill="#373D4B"/>
<path d="M474 410.5C473.5 407.5 462.5 409.5 460.5 408.5C458.797 407.649 454.921 414.044 453.189 416.274C452.126 413.516 449.6 408.1 448 408.5C446 409 442.5 408 442 410.5C441.5 413 440 413.5 439.5 415.5C439 417.5 437 418 438.5 419.5C440 421 440.5 423.5 442.5 422.5C444.5 421.5 445.5 422 447 421C448.5 420 448.682 419.425 449.5 420C450.35 420.597 451.379 420.755 451.724 420C451.535 422.58 451.93 426.16 454 428C456.125 429.889 458.1 429.7 460.5 430.5C463.5 431.5 468.5 430 470.5 429.5C472.5 429 474 424 476 421.5C478 419 474.5 413.5 474 410.5Z" fill="#373D4B"/>
<path d="M541.5 505.5C540 504 538 504.5 537 504.5C536.667 504.5 536 504.9 536 506.5C536 508.5 534.5 507 532.5 507.5C530.5 508 530.5 508.5 531 512.5C531.5 516.5 533 514.5 534.5 516L537 518.5C538.5 520 539 519.5 539.5 520C540 520.5 541 519.5 543 520C545 520.5 544.5 518.5 545.5 517C546.5 515.5 546.5 514.5 546.5 513V509.5C546.5 507.5 546.5 508 545 507C543.5 506 543 507 541.5 505.5Z" fill="#373D4B"/>
<path d="M239 348C235.8 348.8 234.667 351 234.5 352C234 353.167 233.1 355.8 233.5 357C234 358.5 234.5 359.5 236.5 361.5C238.5 363.5 239 363 242.5 363C246 363 245 362.5 249.5 363C254 363.5 252.5 362 256 361.5C259.5 361 256.5 359 257 357C257.5 355 255.5 355 252.5 355C249.5 355 251 355 250.5 353.5C250 352 249 352.5 247 352C245 351.5 246 350.5 245 349C244 347.5 243 347 239 348Z" fill="#373D4B"/>
<path d="M239 387C238.758 384.756 243.788 380.132 247 380.5C250.212 380.868 259.135 388.819 258.5 391.5C257.865 394.181 252.095 402.095 250.5 403C248.905 403.905 242.36 400.87 241.5 399C240.64 397.13 239.242 389.244 239 387Z" fill="#373D4B"/>
<path d="M221.5 391.5C222.5 389.5 213 384 212 385C211 386 206.2 391.7 205 392.5C203.5 393.5 207.5 400.5 209.5 402C211.1 403.2 220.5 393.5 221.5 391.5Z" fill="#373D4B"/>
<path d="M544 497.5C542 497.9 539.833 502.667 539 505L543 507.5H545C545.8 507.5 546.667 507.167 547 507C547.333 506.833 548.2 506.2 549 505C550 503.501 550 505 551 501.5C552 500.5 551.5 500.5 552 498.5C552.5 496.5 550 498 549 496C548 494 546.5 497 544 497.5Z" fill="#373D4B" fill-opacity="0.6"/>
<path d="M527.5 511C528.7 509.8 530.333 509.5 531 509.5C531.667 511 533.1 514.2 533.5 515C534 516 533 516 532.5 516C532 516 530.5 517.5 530 517.5C529.5 517.5 529 519 527.5 519C526 519 526.5 519.5 525.5 519C524.5 518.5 524.5 518 523.5 517C522.5 516 522.5 516 522 514C521.5 512 523.5 514 524.5 514C525.5 514 526 512.5 527.5 511Z" fill="#373D4B" fill-opacity="0.6"/>
<path d="M449.5 423.5C450.7 423.9 452 424.667 452.5 425C453 425.667 454 427.2 454 428C454 429 453.5 428.5 451 429.5C449.5 430 449 430 446.5 432.5C445 433.5 445.5 432 444 431.5C442.5 431 443 430.5 442 430C441 429.5 442 429 442 428V427C442.333 426.667 443.2 425.5 444 423.5C444 422 445 423.5 447 422.5C447.5 421.5 448 423 449.5 423.5Z" fill="#373D4B" fill-opacity="0.6"/>
<path d="M212 354V358C210.833 358.334 208.3 359 207.5 359C206.7 359 204.5 358.334 203.5 358V357C203.833 356.667 203.5 355 203.5 354C203.5 352.882 204 352 205 350.5C206 349 207.5 349.5 208 350L208.323 350.323L212 354Z" fill="#373D4B" fill-opacity="0.6"/>
<rect width="23" height="48" transform="matrix(-1 0 0 1 262 436)" fill="#22262F" fill-opacity="0.6"/>
<path d="M494 68H479V83H494V68Z" fill="#373D4B"/>
<path d="M617 51H592V55H617V51Z" fill="#373D4B"/>
<path d="M569 51H414V55H569V51Z" fill="#373D4B"/>
<path d="M392 51H332V55H392V51Z" fill="#373D4B"/>
<path d="M380 55H367V60H380V55Z" fill="#373D4B"/>
<path d="M378 46H365V51H378V46Z" fill="#373D4B"/>
<path d="M372 2H359V8H372V2Z" fill="#373D4B"/>
<path d="M467 2H454V8H467V2Z" fill="#373D4B"/>
<path d="M474 46H461V52H474V46Z" fill="#373D4B"/>
<path d="M465 57H462V60H465V57Z" fill="#373D4B"/>
<path d="M512 57H509V60H512V57Z" fill="#373D4B"/>
<path d="M431 76H425V81H431V76Z" fill="#373D4B"/>
<path d="M550 76H544V81H550V76Z" fill="#373D4B"/>
<path d="M465 97H462V100H465V97Z" fill="#373D4B"/>
<path d="M512 97H509V100H512V97Z" fill="#373D4B"/>
<path d="M562 2H549V8H562V2Z" fill="#373D4B"/>
<path d="M618 2H612V8H618V2Z" fill="#373D4B"/>
<path d="M618 45H612V51H618V45Z" fill="#373D4B"/>
<path d="M354 2H341V8H354V2Z" fill="#373D4B"/>
<path d="M449 2H436V8H449V2Z" fill="#373D4B"/>
<path d="M453 46H440V52H453V46Z" fill="#373D4B"/>
<path d="M406 125H393V131H406V125Z" fill="#373D4B"/>
<path d="M385 125H372V131H385V125Z" fill="#373D4B"/>
<path d="M544 2H531V8H544V2Z" fill="#373D4B"/>
<path d="M358 55H345V60H358V55Z" fill="#373D4B"/>
<path d="M358 46H345V51H358V46Z" fill="#373D4B"/>
<path d="M148 52H135V59H148V52Z" fill="#373D4B"/>
<path d="M298.212 76.3579L291.025 84.0895L298.302 90.8538L305.489 83.1222L298.212 76.3579Z" fill="#373D4B"/>
<path d="M219.565 287.246L210.571 296.921L217.848 303.685L226.841 294.01L219.565 287.246Z" fill="#373D4B"/>
<path d="M243.108 119L238.569 121.568L243.461 130.215L248 127.647L243.108 119Z" fill="#373D4B"/>
<path d="M87 52H74V59H87V52Z" fill="#373D4B"/>
<path d="M485 347C485 348.657 486.343 350 488 350C489.657 350 491 348.657 491 347C491 345.343 489.657 344 488 344C486.343 344 485 345.343 485 347Z" fill="#373D4B"/>
<path d="M462 328C462 329.657 463.343 331 465 331C466.657 331 468 329.657 468 328C468 326.343 466.657 325 465 325C463.343 325 462 326.343 462 328Z" fill="#373D4B"/>
<path d="M504 328C504 329.657 505.343 331 507 331C508.657 331 510 329.657 510 328C510 326.343 508.657 325 507 325C505.343 325 504 326.343 504 328Z" fill="#373D4B"/>
<path d="M462 372C462 373.657 463.343 375 465 375C466.657 375 468 373.657 468 372C468 370.343 466.657 369 465 369C463.343 369 462 370.343 462 372Z" fill="#373D4B"/>
<path d="M504 372C504 373.657 505.343 375 507 375C508.657 375 510 373.657 510 372C510 370.343 508.657 369 507 369C505.343 369 504 370.343 504 372Z" fill="#373D4B"/>
<path d="M453 343H450V356H453V343Z" fill="#373D4B"/>
<path d="M598 311H582V320H598V311Z" fill="#373D4B"/>
<path d="M586 260H572V274H586V260Z" fill="#373D4B"/>
<path d="M123 445H107V454H123V445Z" fill="#373D4B"/>
<path d="M74 464H61V481H74V464Z" fill="#373D4B"/>
<path d="M15 503H2V515H15V503Z" fill="#373D4B"/>
<path d="M39 581H26V589H39V581Z" fill="#373D4B"/>
<path d="M240 653H232V667H240V653Z" fill="#373D4B"/>
<path d="M311 584H303V595H311V584Z" fill="#373D4B"/>
<path d="M289 555H278V566H289V555Z" fill="#373D4B"/>
<path d="M273 506H262V517H273V506Z" fill="#373D4B"/>
<path d="M73.6471 653.593L61.9114 659.185L65.353 666.407L77.0886 660.815L73.6471 653.593Z" fill="#373D4B"/>
<path d="M84.2156 656L77.8704 659.024L82.6548 669.064L89 666.04L84.2156 656Z" fill="#373D4B"/>
<path d="M74 481H68V489H74V481Z" fill="#373D4B"/>
<path d="M92 421V439.5H89.5V421H92Z" fill="#373D4B"/>
<path d="M77 435V454H73V435H77Z" fill="#373D4B"/>
<path d="M572 260H558V274H572V260Z" fill="#373D4B" fill-opacity="0.6"/>
<path d="M123 435H107V445H123V435Z" fill="#373D4B" fill-opacity="0.6"/>
<path d="M90 404H87V418H90V404Z" fill="#373D4B" fill-opacity="0.6"/>
<path d="M43 391H38V417H43V391Z" fill="#373D4B" fill-opacity="0.6"/>
<path d="M126.59 415.936L116.829 427.764L122.817 432.705L132.577 420.877L126.59 415.936Z" fill="#373D4B" fill-opacity="0.6"/>
<path d="M29 503H14V515H29V503Z" fill="#373D4B" fill-opacity="0.6"/>
<path d="M29 563H2V578H29V563Z" fill="#373D4B" fill-opacity="0.6"/>
<path d="M77 558H71V594H77V558Z" fill="#373D4B" fill-opacity="0.6"/>
<path d="M74 481H61V496H74V481Z" fill="#373D4B" fill-opacity="0.6"/>
<path d="M269 621H256V635H269V621Z" fill="#373D4B" fill-opacity="0.6"/>
<path d="M296 543H289V562H296V543Z" fill="#373D4B" fill-opacity="0.6"/>
<path d="M278 555H272V562H278V555Z" fill="#373D4B" fill-opacity="0.6"/>
<path d="M311 567H300V595H311V567Z" fill="#373D4B" fill-opacity="0.6"/>
<path d="M281 625H279V649H281V625Z" fill="#373D4B" fill-opacity="0.6"/>
<path d="M246 625H244V649H246V625Z" fill="#373D4B" fill-opacity="0.6"/>
<path d="M246 601H244V609H246V601Z" fill="#373D4B" fill-opacity="0.6"/>
<path d="M282 601H280V616H282V601Z" fill="#373D4B" fill-opacity="0.6"/>
<path d="M281 603V601H266V603H281Z" fill="#373D4B" fill-opacity="0.6"/>
<path d="M257 603V601H245V603H257Z" fill="#373D4B" fill-opacity="0.6"/>
<path d="M332 57H312V60H332V57Z" fill="#282C34"/>
<path d="M123 226H109V229H123V226Z" fill="#282C34"/>
<path d="M72 350H43V353H72V350Z" fill="#282C34"/>
<path d="M65 620H56V623H65V620Z" fill="#282C34"/>
<path d="M332 64H312V67H332V64Z" fill="#282C34"/>
<path d="M123 233H109V236H123V233Z" fill="#282C34"/>
<path d="M72 357H43V360H72V357Z" fill="#282C34"/>
<path d="M65 627H56V630H65V627Z" fill="#282C34"/>
<path d="M488 629H467V632H488V629Z" fill="#282C34"/>
<path d="M332 71H312V74H332V71Z" fill="#282C34"/>
<path d="M123 240H109V243H123V240Z" fill="#282C34"/>
<path d="M72 364H43V367H72V364Z" fill="#282C34"/>
<path d="M65 634H56V637H65V634Z" fill="#282C34"/>
<path d="M488 636H467V639H488V636Z" fill="#282C34"/>
<path d="M65 178H42V181H65V178Z" fill="#282C34"/>
<path d="M332 78H312V81H332V78Z" fill="#282C34"/>
<path d="M123 247H109V250H123V247Z" fill="#282C34"/>
<path d="M72 371H43V374H72V371Z" fill="#282C34"/>
<path d="M65 641H56V644H65V641Z" fill="#282C34"/>
<path d="M488 643H467V646H488V643Z" fill="#282C34"/>
<path d="M65 185H42V188H65V185Z" fill="#282C34"/>
<path d="M332 85H312V88H332V85Z" fill="#282C34"/>
<path d="M123 254H109V257H123V254Z" fill="#282C34"/>
<path d="M72 378H43V381H72V378Z" fill="#282C34"/>
<path d="M65 192H42V195H65V192Z" fill="#282C34"/>
<path d="M332 92H312V95H332V92Z" fill="#282C34"/>
<path d="M123 261H109V264H123V261Z" fill="#282C34"/>
<path d="M72 385H43V388H72V385Z" fill="#282C34"/>
<path d="M65 199H42V202H65V199Z" fill="#282C34"/>
<path d="M332 99H312V102H332V99Z" fill="#282C34"/>
<path d="M65 209H42V212H65V209Z" fill="#282C34"/>
<path d="M65 216H42V219H65V216Z" fill="#282C34"/>
<path d="M65 223H42V226H65V223Z" fill="#282C34"/>
<path d="M65 230H42V233H65V230Z" fill="#282C34"/>
<path fill-rule="evenodd" clip-rule="evenodd" d="M620 0H306.5V46.5H258.5V42.5H159V50.5H40V307.5H0V580H16V711.5H61V700.5H128V706H196V699H249.5V700.5H342.5V655.5H515.5V564H576V421.5H724V301.5H702V172H615.5V133H619V46.5H624.5V7H620V0ZM613.5 133V174H700V303.5H722V419.5H574V562H513.5V653.5H340.5V698.5H251.5V697H194V704H130V698.5H59V709.5H18V578H2V309.5H42V52.5H161V44.5H256.5V48.5H308.5V2H618V9H622.5V44.5H617V131H611V133H613.5ZM332 118H304.5V149H332V118ZM330 120V147H306.5V120H330ZM458 131H362.5V149H458V131ZM456 133V147H364.5V133H456ZM110 142H64.5V202H110V142ZM108 144V200H66.5V144H108ZM255.5 150.5H228.5V153H181.5V186H238.5V174.5H255.5V150.5ZM253.5 152.5V172.5H236.5V184H183.5V155H230.5V152.5H253.5ZM321.5 178H273V211H136.5V263H179V251.5H228.5V292.5H321.5V178ZM319.5 180V290.5H230.5V249.5H177V261H138.5V213H275V180H319.5ZM110 223H82V280.5H110V223ZM108 225V278.5H84V225H108ZM680 279H613.5V310.5H600V336.5H576V363.5H618.5V368H680V279ZM678 281V366H620.5V361.5H578V338.5H602V312.5H615.5V281H678ZM105 311.5H76.5V347H72V391H86.5V404.5H92.5V375.5H153.5V333H105V311.5ZM103 313.5V335H151.5V373.5H90.5V402.5H88.5V389H74V349H78.5V313.5H103ZM393.5 315.5H322V367.5H393.5V315.5ZM391.5 317.5V365.5H324V317.5H391.5ZM43.5 347H29.5V435H43.5V416.5H38V391H43.5V347ZM41.5 349V389H36V418.5H41.5V433H31.5V349H41.5ZM393.5 396.5H340V427.5H314V424.5H262V430.5H259.5V434.914L262 437.414V484H327.5V522H342V534.5H366.5V487H393.5V396.5ZM391.5 398.5V485H364.5V532.5H344V520H329.5V482H264V436.586L261.5 434.086V432.5H264V426.5H312V429.5H342V398.5H391.5ZM183.5 477H122V500H74V522H76.5V594H70V608V609V619V620V655.5H125V658H150V651H163.5V653.5H175V649H172V592.5H185.5V589H213.5V592.5H225V503H183.5V477ZM181.5 479V505H223V590.5H215.5V587H183.5V590.5H170V651H173V651.5H165.5V649H148V656H127V653.5H72V596H78.5V520H76V502H124V479H181.5ZM317.5 532.5H311V597.5H317.5V532.5ZM315.5 534.5V595.5H313V534.5H315.5ZM393 556H388.5V558H340.5V630.5H393V556ZM390.5 558H391V628.5H342.5V560H390.5V558ZM317.5 615H311V653H317.5V615ZM315.5 617V651H313V617H315.5Z" fill="#454545"/>
<path d="M122 278H109V280.5H119V312H157.5V298H155.5V308.5H122V278Z" fill="#454545"/>
<path d="M157.5 262.5V289.5H155.5V262.5H157.5Z" fill="#454545"/>
<path d="M122 264V211.5H124.5V264H122Z" fill="#454545"/>
<path d="M336 55.5002H332V118L331.5 118V121.5H336V55.5002Z" fill="#454545"/>
<path d="M252 118H305V121.5H255V139H229.5V135.5H252V118Z" fill="#454545"/>
<path d="M575.5 131L458 131V134.5H575.5V131Z" fill="#454545"/>
<path d="M560.5 149.5V146H520V149.5H560.5Z" fill="#454545"/>
<path d="M618 253.5V173.5H613.5V253.5H618Z" fill="#454545"/>
<path d="M613.5 272V279L618 279V272H613.5Z" fill="#454545"/>
<path d="M604 265V170H599.5V265H604Z" fill="#454545"/>
<path d="M525 363H576.5V360H525V356H521V383.5H453.5V356H449.5V387.5H525V363Z" fill="#454545"/>
<path d="M525 312.5H449.5V343.5H453.5V316H521V343.5H525V340H547.5V336H525V312.5Z" fill="#454545"/>
<path d="M425 562.5H514V566H425V562.5Z" fill="#454545"/>
<path d="M392 562.5H410V566H392V562.5Z" fill="#454545"/>
<path d="M437 654V602.5H434V654H437Z" fill="#454545"/>
<path d="M393 503.5V556V557H390V503.5H393Z" fill="#454545"/>
<path d="M393 491V487H390V491H393Z" fill="#454545"/>
<path d="M363 210.5V148H366V210.5H363Z" fill="#454545"/>
<path d="M366 224.5V316H363V225.5L354.5 217V213L366 224.5Z" fill="#454545"/>
<path d="M383 192V148H379V192H383Z" fill="#454545"/>
<path d="M383 294.5V231.5H379.5V298.5H405.5V368.5H410V294.5H383Z" fill="#454545"/>
<path d="M410 422.5V396.5H405.5V422.5H410Z" fill="#454545"/>
<path d="M410 436.5H405.5V463H410V436.5Z" fill="#454545"/>
<path d="M410 530.5V489.5H405.5V530.5H410Z" fill="#454545"/>
<path d="M315 504.5V533H312V504.5H315Z" fill="#454545"/>
<path d="M213.5 653H311.5V649.5H226V615H222V649.5H213.5V653Z" fill="#454545"/>
<path d="M225 601V592.5L221.5 592.5V601H225Z" fill="#454545"/>
<path d="M194 653H174.5V649.5H194V653Z" fill="#454545"/>
<path d="M122.5 433H260L261.5 436.5H124.5V458.5H122.5V433Z" fill="#454545"/>
<path d="M92.5 421V404.5L90 404.5V417.5H86V421H92.5Z" fill="#454545"/>
<path d="M77 417.5V421H56.5V417.5H77Z" fill="#454545"/>
<path d="M46 417.5V421H42.5V417.5H46Z" fill="#454545"/>
<path d="M34.5 578H17V582H34.5V578Z" fill="#454545"/>
<path d="M65 619H70V620H66V644.5H65V619Z" fill="#454545"/>
<path d="M55 608H70V609H56V644.5H55V608Z" fill="#454545"/>
<path d="M133.552 151.968V136.896H139V135H126.016V136.896H131.464V151.968H133.552Z" fill="#FF6B00"/>
<path d="M463.856 605.968H461.768V589H463.856V596.824H466.376L471.896 589H474.296L468.2 597.424L474.344 605.968H471.872L466.544 598.72H463.856V605.968Z" fill="#0085FF"/>
<path d="M482.552 605.968H480.464V590.896H475.016V589H488V590.896H482.552V605.968Z" fill="#0085FF"/>
<path d="M530 331H597V234H530V331Z" fill="#7000FF" fill-opacity="0.2"/>
<path fill-rule="evenodd" clip-rule="evenodd" d="M595.346 328.5H531.654V236H595.346V328.5ZM530 331V234H597V331H530Z" fill="white" fill-opacity="0.08"/>
<path d="M555.466 293.532V273H564.572C565.519 273 566.389 273.097 567.182 273.29C567.994 273.483 568.7 273.831 569.299 274.334C569.782 274.721 570.188 275.233 570.517 275.871C570.865 276.49 571.039 277.244 571.039 278.133C571.058 279.08 570.884 279.921 570.517 280.656C570.169 281.391 569.57 282.009 568.719 282.512C569.318 282.686 569.831 282.947 570.256 283.295C570.681 283.643 571.02 284.049 571.271 284.513C571.542 284.977 571.735 285.48 571.851 286.021C571.967 286.562 572.015 287.123 571.996 287.703C571.957 288.631 571.706 289.491 571.242 290.284C570.797 291.057 570.208 291.686 569.473 292.169C568.603 292.768 567.646 293.145 566.602 293.3C565.558 293.455 564.524 293.532 563.499 293.532H555.466ZM563.383 281.323C563.808 281.323 564.234 281.304 564.659 281.265C565.084 281.207 565.481 281.072 565.848 280.859C566.157 280.666 566.418 280.405 566.631 280.076C566.844 279.747 566.96 279.361 566.979 278.916C566.998 278.452 566.921 278.075 566.747 277.785C566.573 277.495 566.36 277.273 566.109 277.118C565.8 276.925 565.442 276.818 565.036 276.799C564.63 276.76 564.214 276.741 563.789 276.741H559.671V281.323H563.383ZM559.671 289.82H563.499C564.06 289.82 564.649 289.791 565.268 289.733C565.906 289.656 566.447 289.453 566.892 289.124C567.163 288.911 567.385 288.65 567.559 288.341C567.733 288.012 567.82 287.606 567.82 287.123C567.82 286.678 567.723 286.301 567.53 285.992C567.337 285.683 567.095 285.451 566.805 285.296C566.476 285.083 566.099 284.958 565.674 284.919C565.268 284.88 564.843 284.861 564.398 284.861L559.671 284.89V289.82Z" fill="white"/>
<path d="M246 597H313V505H246V597Z" fill="#7000FF" fill-opacity="0.2"/>
<path fill-rule="evenodd" clip-rule="evenodd" d="M311.345 594.5H247.654V507.1H311.345V594.5ZM246 597V505H313V597H246Z" fill="white" fill-opacity="0.08"/>
<path d="M283.938 557.617L285.417 561.532H289.999L282.053 541H277.297L269.467 561.532H274.078L275.499 557.617H283.938ZM282.72 553.905H276.746L279.704 545.466L282.72 553.905Z" fill="white"/>
<path fill-rule="evenodd" clip-rule="evenodd" d="M176.103 143H178.932L181.5 145.568V148.397L176.103 143ZM173.932 143L181.5 150.568V153.397L171.103 143H173.932ZM168.932 143L181.5 155.568V158.397L166.103 143H168.932ZM181.5 163.397V160.568L163.932 143H161.103L181.5 163.397ZM181.5 165.568V168.397L160 146.897V144.068L181.5 165.568ZM181.5 173.397V170.568L160 149.068V151.897L181.5 173.397ZM181.5 175.568V178.397L160 156.897V154.068L181.5 175.568ZM181.5 183.397V180.568L160 159.068V161.897L181.5 183.397ZM180.932 185H178.103L160 166.897V164.068L180.932 185ZM173.103 185H175.932L160 169.068V171.897L173.103 185ZM170.932 185H168.103L160 176.897V174.068L170.932 185ZM163.103 185H165.932L160 179.068V181.897L163.103 185ZM160.932 185H160V184.068L160.932 185Z" fill="#D9D9D9" fill-opacity="0.1"/>
<path fill-rule="evenodd" clip-rule="evenodd" d="M158.432 167.5H155.603L160 171.897V169.068L158.432 167.5ZM160 179.068V181.897L145.603 167.5H148.432L160 179.068ZM160 185V184.068L143.432 167.5H140.603L158.103 185H160ZM155.932 185H153.103L135.603 167.5H138.432L155.932 185ZM148.103 185H150.932L133.432 167.5H130.603L148.103 185ZM145.932 185H143.103L125.603 167.5H128.432L145.932 185ZM138.103 185H140.932L123.432 167.5H120.603L138.103 185ZM137.5 186.568V189.397L115.603 167.5H118.432L137.5 186.568ZM137.5 194.397V191.568L113.432 167.5H110.603L137.5 194.397ZM144.603 196.5H148.5V200.397L144.603 196.5ZM142.432 196.5L148.5 202.568V205.397L139.603 196.5H142.432ZM148.5 207.568V210.397L126.5 188.397V185.568L148.5 207.568ZM144.103 211H146.932L126.5 190.568V193.397L144.103 211ZM141.932 211H139.103L124.603 196.5H126.5V195.568L141.932 211ZM136.5 211H136.932L123.5 197.568V200.397L134.603 211.5H136.5V211ZM132.432 211.5H129.603L123.5 205.397V202.568L132.432 211.5ZM124.603 211.5H127.432L123.5 207.568V210.397L124.603 211.5ZM125.932 185H123.103L110 171.897V169.068L125.932 185ZM118.103 185H120.932L110 174.068V176.897L118.103 185ZM115.932 185H113.103L110 181.897V179.068L115.932 185ZM110 185H110.932L110 184.068V185ZM160 176.897L150.603 167.5H153.432L160 174.068V176.897Z" fill="#D9D9D9" fill-opacity="0.1"/>
<path fill-rule="evenodd" clip-rule="evenodd" d="M249.617 436H245.374L262 452.626V448.383L249.617 436ZM262 458.383L239.617 436H235.374L262 462.626V458.383ZM262 468.383V472.626L225.374 436H229.617L262 468.383ZM255.374 476H259.617L219.617 436H215.374L255.374 476ZM249.617 476H245.374L205.374 436H209.617L249.617 476ZM235.374 476H239.617L199.617 436H195.374L235.374 476ZM229.617 476H225.374L185.374 436H189.617L229.617 476ZM215.374 476H219.617L179.617 436H175.374L215.374 476ZM209.617 476H205.374L174 444.626V440.383L209.617 476ZM195.374 476H199.617L174 450.383V454.626L195.374 476ZM189.617 476H185.374L174 464.626V460.383L189.617 476ZM175.374 476H179.617L174 470.383V474.626L175.374 476ZM255.374 436H259.617L262 438.383V442.626L255.374 436Z" fill="#D9D9D9" fill-opacity="0.1"/>
<path fill-rule="evenodd" clip-rule="evenodd" d="M262 478.383V482.626L255.374 476H259.617L262 478.383ZM262 498.383V502.626L235.374 476H239.617L262 498.383ZM254.374 505H258.617L229.617 476H227V477.626L254.374 505ZM248.617 505H244.374L227 487.626V483.383L248.617 505ZM234.374 505H238.617L227 493.383V497.626L234.374 505ZM228.617 505H227V503.383L228.617 505ZM262 492.626L245.374 476H249.617L262 488.383V492.626Z" fill="#D9D9D9" fill-opacity="0.1"/>
<path fill-rule="evenodd" clip-rule="evenodd" d="M273.374 494H277.617L288.617 505H284.374L273.374 494ZM287.617 494H283.374L294.374 505H298.617L287.617 494ZM293.374 494H297.617L308.617 505H304.374L293.374 494ZM307.617 494H303.374L312 502.626V498.383L307.617 494ZM267.617 494L278.617 505H274.374L263.374 494H267.617ZM268.617 505H264.374L262 502.626V498.383L268.617 505Z" fill="#D9D9D9" fill-opacity="0.1"/>
</svg>
