<svg width="32" height="31" viewBox="0 0 32 31" fill="none" xmlns="http://www.w3.org/2000/svg">
<path fill-rule="evenodd" clip-rule="evenodd" d="M20.799 2.80536L32 0L28.829 11.1031L25.245 7.39959C25.2744 7.69339 25.1741 7.99732 24.9454 8.2186L19.7788 13.2186C19.3819 13.6027 18.7488 13.5923 18.3647 13.1954C17.9807 12.7985 17.991 12.1655 18.3879 11.7814L23.5546 6.7814C23.7832 6.56012 24.0903 6.46977 24.383 6.50884L20.799 2.80536ZM14.6353 16.8046C15.0193 17.2015 15.009 17.8345 14.6121 18.2186L9.44542 23.2186C9.04855 23.6027 8.41547 23.5923 8.0314 23.1954C7.64733 22.7985 7.65771 22.1655 8.05458 21.7814L13.2212 16.7814C13.6181 16.3973 14.2512 16.4077 14.6353 16.8046ZM4.30194 26.8046C4.68601 27.2015 4.67563 27.8345 4.27876 28.2186L1.69542 30.7186C1.29855 31.1027 0.665469 31.0923 0.281399 30.6954C-0.102672 30.2985 -0.0922936 29.6655 0.304579 29.2814L2.88791 26.7814C3.28479 26.3973 3.91787 26.4077 4.30194 26.8046Z" fill="white"/>
</svg>
