<svg width="33" height="33" viewBox="0 0 33 33" fill="none" xmlns="http://www.w3.org/2000/svg">
<path fill-rule="evenodd" clip-rule="evenodd" d="M23 0H32C32.5523 0 33 0.447715 33 1V10C33 10.5523 32.5523 11 32 11C31.4477 11 31 10.5523 31 10V3.41421L30.1238 4.29044C29.7332 4.68096 29.1001 4.68096 28.7096 4.29044C28.319 3.89992 28.319 3.26675 28.7096 2.87623L29.5858 2H23C22.4477 2 22 1.55228 22 1C22 0.447715 22.4477 0 23 0ZM24.9571 8.04289C25.3476 8.43342 25.3476 9.06658 24.9571 9.45711L19.7904 14.6238C19.3999 15.0143 18.7668 15.0143 18.3762 14.6238C17.9857 14.2332 17.9857 13.6001 18.3762 13.2096L23.5429 8.04289C23.9334 7.65237 24.5666 7.65237 24.9571 8.04289ZM14.6238 18.3762C15.0143 18.7668 15.0143 19.3999 14.6238 19.7904L9.45711 24.9571C9.06658 25.3476 8.43342 25.3476 8.04289 24.9571C7.65237 24.5666 7.65237 23.9334 8.04289 23.5429L13.2096 18.3762C13.6001 17.9857 14.2332 17.9857 14.6238 18.3762ZM4.29044 28.7096C4.68096 29.1001 4.68096 29.7332 4.29044 30.1238L1.70711 32.7071C1.31658 33.0976 0.683417 33.0976 0.292893 32.7071C-0.0976311 32.3166 -0.0976311 31.6834 0.292893 31.2929L2.87623 28.7096C3.26675 28.319 3.89992 28.319 4.29044 28.7096Z" fill="white"/>
</svg>
