<svg width="28" height="26" viewBox="0 0 28 26" fill="none" xmlns="http://www.w3.org/2000/svg">
<path d="M14.1197 1.68007C15.596 0.226109 17.9896 0.226111 19.4659 1.68007L26.7971 8.90041C28.2734 10.3544 28.2734 12.7117 26.7971 14.1657L16.4013 24.4042C15.6924 25.1024 14.7308 25.4946 13.7282 25.4946H8.51642C7.51382 25.4946 6.55229 25.1024 5.84334 24.4042L1.11797 19.7503C-0.358334 18.2963 -0.358331 15.939 1.11797 14.485L14.1197 1.68007ZM15.3676 22.7896L5.36328 12.9366L2.45451 15.8014C1.71636 16.5283 1.71636 17.707 2.4545 18.434L7.17988 23.0878C7.53435 23.437 8.01512 23.6331 8.51642 23.6331H13.7282C14.2295 23.6331 14.7103 23.437 15.0648 23.0878L15.3676 22.7896Z" fill="white"/>
</svg>
