<svg width="21" height="35" viewBox="0 0 21 35" fill="none" xmlns="http://www.w3.org/2000/svg">
<path fill-rule="evenodd" clip-rule="evenodd" d="M10.6462 0.974138C10.4709 1.12185 10.3274 1.37734 10.3274 1.54179C10.3274 1.76551 10.2379 1.84094 9.97311 1.84094C9.67823 1.84094 9.61886 1.90921 9.61886 2.24815C9.61886 2.47215 9.73548 2.76199 9.87803 2.89223C10.1597 3.14987 10.8942 3.21757 10.8942 2.98599C10.8942 2.90726 10.9579 2.84285 11.0359 2.84285C11.1173 2.84285 11.1776 3.2867 11.1776 3.88828C11.1776 4.79444 11.1231 5.02045 10.7693 5.5841C10.3794 6.20514 10.3247 6.2382 9.55623 6.31836C9.1137 6.36445 8.35461 6.58988 7.86958 6.81917L6.98764 7.23597L6.5291 8.7251C6.27701 9.54395 6.07197 10.3312 6.07353 10.4742C6.07509 10.6172 6.2413 10.9526 6.44294 11.2196L6.80952 11.7049L4.56712 19.4903L2.32487 27.2756L1.55076 27.5474L0.776656 27.8192L0.461657 28.9642C0.288359 29.594 0.141699 30.4313 0.135748 30.8249C0.118319 31.9794 0.543843 32.2525 4.30512 33.5011C6.01969 34.0703 7.44377 34.5866 7.4697 34.6485C7.49577 34.7104 8.10154 34.7575 8.81585 34.7532C10.0543 34.7456 10.1286 34.7273 10.4114 34.3596C10.5746 34.1474 10.8524 33.4907 11.0289 32.9003C11.4323 31.5503 11.3623 30.6059 10.8159 30.03L10.4467 29.6405L12.7605 21.8313L15.0743 14.0221L15.6368 13.9789L16.1995 13.9355L16.6164 12.5758C16.8457 11.8279 17.0388 11.208 17.0456 11.1981C17.0526 11.1884 17.414 11.1367 17.8492 11.0835L18.6405 10.9867L19.0049 11.5431L19.3694 12.0993L17.5372 18.0986C16.5296 21.3982 15.6084 24.4293 15.4902 24.8345L15.2752 25.571L14.5928 25.2799C13.8594 24.9669 12.878 25.0164 12.878 25.3666C12.878 25.4668 13.3477 25.7574 13.9219 26.0123C14.757 26.383 15.1171 26.4669 15.7224 26.4318L16.4791 26.3879L18.5962 19.1598C19.7606 15.1843 20.7676 11.9102 20.8341 11.884C20.9972 11.8194 20.9876 11.1745 20.8202 10.9595C20.7463 10.8645 20.466 10.5287 20.1975 10.2134C19.7311 9.66576 19.7099 9.59219 19.7223 8.56737C19.7308 7.87505 19.6632 7.36765 19.532 7.13678C19.4143 6.92967 19.2646 6.00218 19.1766 4.93414C19.0366 3.23389 18.9967 3.06499 18.667 2.77845C18.1316 2.31356 13.6009 0.805673 12.8938 0.857343C12.58 0.880244 12.278 0.853192 12.2227 0.797371C12.0164 0.588973 10.963 0.707056 10.6462 0.974138Z" fill="white"/>
</svg>
