<svg width="23" height="134" viewBox="0 0 23 134" fill="none" xmlns="http://www.w3.org/2000/svg">
<path d="M23 17.79L11.7556 134L0 17.79C9.54646 15.3703 14.5816 15.4366 23 17.79Z" fill="#D9D9D9" fill-opacity="0.4"/>
<path d="M11 27.5C11 27.7761 11.2239 28 11.5 28C11.7761 28 12 27.7761 12 27.5H11ZM11.5 0.613249L8.61325 3.5L11.5 6.38675L14.3868 3.5L11.5 0.613249ZM11 4.5C11 4.77614 11.2239 5 11.5 5C11.7761 5 12 4.77614 12 4.5H11ZM12 6.5C12 6.22386 11.7761 6 11.5 6C11.2239 6 11 6.22386 11 6.5H12ZM11 8.5C11 8.77614 11.2239 9 11.5 9C11.7761 9 12 8.77614 12 8.5H11ZM12 10.5C12 10.2239 11.7761 10 11.5 10C11.2239 10 11 10.2239 11 10.5H12ZM11 12.5C11 12.7761 11.2239 13 11.5 13C11.7761 13 12 12.7761 12 12.5H11ZM12 14.5C12 14.2239 11.7761 14 11.5 14C11.2239 14 11 14.2239 11 14.5H12ZM11 16.5C11 16.7761 11.2239 17 11.5 17C11.7761 17 12 16.7761 12 16.5H11ZM12 18.5C12 18.2239 11.7761 18 11.5 18C11.2239 18 11 18.2239 11 18.5H12ZM11 20.5C11 20.7761 11.2239 21 11.5 21C11.7761 21 12 20.7761 12 20.5H11ZM12 22.5C12 22.2239 11.7761 22 11.5 22C11.2239 22 11 22.2239 11 22.5H12ZM11 24.5C11 24.7761 11.2239 25 11.5 25C11.7761 25 12 24.7761 12 24.5H11ZM12 26.5C12 26.2239 11.7761 26 11.5 26C11.2239 26 11 26.2239 11 26.5H12ZM11 3.5V4.5H12V3.5H11ZM11 6.5V8.5H12V6.5H11ZM11 10.5V12.5H12V10.5H11ZM11 14.5V16.5H12V14.5H11ZM11 18.5V20.5H12V18.5H11ZM11 22.5V24.5H12V22.5H11ZM11 26.5V27.5H12V26.5H11Z" fill="#B9B9B9"/>
</svg>
