<svg width="45" height="27" viewBox="0 0 45 27" fill="none" xmlns="http://www.w3.org/2000/svg">
<path d="M32.2423 9.22914C32.3223 8.36514 32.5223 7.62914 32.8423 7.02114C33.1623 6.41314 33.5863 5.89314 34.1143 5.46114C34.6583 5.02914 35.2823 4.71714 35.9863 4.52514C36.7063 4.31714 37.5143 4.21314 38.4103 4.21314C39.1303 4.21314 39.8103 4.29314 40.4503 4.45314C41.1063 4.59714 41.6983 4.84514 42.2263 5.19714C42.7703 5.54914 43.2023 6.01314 43.5223 6.58914C43.8583 7.16514 44.0263 7.86914 44.0263 8.70114C44.0263 9.40514 43.8503 10.0771 43.4983 10.7171C43.1463 11.3571 42.6343 11.8611 41.9623 12.2291C42.9383 12.5491 43.6423 13.0851 44.0743 13.8371C44.5063 14.5891 44.7063 15.4691 44.6743 16.4771C44.6423 17.4051 44.4423 18.1891 44.0743 18.8291C43.7063 19.4691 43.2343 19.9971 42.6583 20.4131C42.0823 20.8131 41.4183 21.1091 40.6663 21.3011C39.9143 21.4931 39.1303 21.5891 38.3143 21.5891C36.5063 21.5891 35.0263 21.1811 33.8743 20.3651C32.7223 19.5491 32.0183 18.2531 31.7623 16.4771H35.1943C35.3063 16.8771 35.4663 17.2051 35.6743 17.4611C35.8983 17.7171 36.1463 17.9251 36.4183 18.0851C36.7063 18.2291 37.0103 18.3331 37.3303 18.3971C37.6503 18.4451 37.9783 18.4691 38.3143 18.4691C38.6983 18.4691 39.0663 18.4291 39.4183 18.3491C39.7703 18.2691 40.0823 18.1411 40.3543 17.9651C40.6263 17.7891 40.8423 17.5571 41.0023 17.2691C41.1623 16.9651 41.2423 16.5971 41.2423 16.1651C41.2423 15.8451 41.1703 15.5491 41.0263 15.2771C40.8983 15.0051 40.7223 14.8051 40.4983 14.6771C40.2103 14.4851 39.8903 14.3651 39.5383 14.3171C39.2023 14.2531 38.8503 14.2211 38.4823 14.2211H36.7783V11.3891H37.9303C38.3463 11.3891 38.7223 11.3411 39.0583 11.2451C39.3943 11.1331 39.6983 10.9651 39.9703 10.7411C40.1623 10.5651 40.3223 10.3651 40.4503 10.1411C40.5783 9.90114 40.6423 9.62114 40.6423 9.30114C40.6423 8.91714 40.5783 8.59714 40.4503 8.34114C40.3223 8.06914 40.1463 7.86114 39.9223 7.71714C39.6983 7.55714 39.4343 7.44514 39.1303 7.38114C38.8263 7.31714 38.5063 7.28514 38.1703 7.28514C37.5623 7.28514 37.0263 7.44514 36.5623 7.76514C36.0983 8.06914 35.7943 8.55714 35.6503 9.22914H32.2423Z" fill="#CFCFCF"/>
<path d="M2.52644 26.9475C2.52644 26.9475 0.315918 26.9475 0.315918 24.7369C0.315918 22.5264 2.52644 15.8948 13.5791 15.8948C24.6317 15.8948 26.8422 22.5264 26.8422 24.7369C26.8422 26.9475 24.6317 26.9475 24.6317 26.9475H2.52644Z" fill="#00C2FF"/>
<path d="M13.5791 13.6843C17.2416 13.6843 20.2107 10.7152 20.2107 7.05272C20.2107 3.3902 17.2416 0.421143 13.5791 0.421143C9.91656 0.421143 6.9475 3.3902 6.9475 7.05272C6.9475 10.7152 9.91656 13.6843 13.5791 13.6843Z" fill="#00C2FF"/>
</svg>
