<svg width="46" height="27" viewBox="0 0 46 27" fill="none" xmlns="http://www.w3.org/2000/svg">
<path d="M43.3211 15.2531H45.2411V18.2531H43.3211V21.4211H39.9131V18.2531H31.6091V15.8291L39.1931 4.42914H43.3211V15.2531ZM35.5691 15.2531H39.9131V8.43714L35.5691 15.2531Z" fill="#CFCFCF"/>
<path d="M2.57918 26.9475C2.57918 26.9475 0.368652 26.9475 0.368652 24.7369C0.368652 22.5264 2.57918 15.8948 13.6318 15.8948C24.6844 15.8948 26.895 22.5264 26.895 24.7369C26.895 26.9475 24.6844 26.9475 24.6844 26.9475H2.57918Z" fill="#FFB800"/>
<path d="M13.6318 13.6843C17.2943 13.6843 20.2634 10.7152 20.2634 7.05272C20.2634 3.3902 17.2943 0.421143 13.6318 0.421143C9.96929 0.421143 7.00023 3.3902 7.00023 7.05272C7.00023 10.7152 9.96929 13.6843 13.6318 13.6843Z" fill="#FFB800"/>
</svg>
