<svg width="24" height="35" viewBox="0 0 24 35" fill="none" xmlns="http://www.w3.org/2000/svg">
<path d="M12.5758 1.91858C12.7089 1.65327 12.9597 1.27567 13.1336 1.07939C13.5325 0.62896 14.2557 0.598747 15.2426 0.991298C15.6198 1.14132 16.891 1.56438 18.0676 1.93127L20.2069 2.59848L20.2846 3.3611C20.3611 4.11326 20.5096 4.52016 20.8295 4.85543C21.0701 5.10747 21.5794 6.06634 21.5811 6.27038C21.5841 6.66566 21.862 7.39689 22.1191 7.68675C22.2698 7.8565 22.538 8.18175 22.7151 8.40945C22.8924 8.63715 23.1488 8.85835 23.2851 8.90091C23.464 8.95688 23.5333 9.09873 23.5345 9.41152C23.5353 9.6497 23.4794 9.86417 23.4102 9.88822C23.2857 9.93122 21.1358 15.5899 20.6012 17.2815C20.4492 17.7631 20.161 18.5206 19.9608 18.9648C19.7607 19.4091 19.5551 19.9474 19.5041 20.1609C19.4529 20.3745 19.2218 21.0154 18.9904 21.5852C18.759 22.155 18.4979 22.8458 18.4102 23.1203C18.0294 24.3111 17.7633 24.7578 17.4336 24.759C17.0552 24.7604 17.0278 24.517 17.2932 23.5065L19.603 17.1865C19.7891 16.6169 20.0197 16.0051 20.1154 15.8269C20.2111 15.6488 20.3287 15.3163 20.3767 15.088L21.2123 12.7863C21.2815 12.7433 21.4015 12.4692 21.4791 12.1772C21.5566 11.8854 21.7892 11.2947 21.9957 10.8648C22.4282 9.96516 22.4452 9.83398 22.166 9.55713C21.9096 9.30309 21.5915 9.29586 21.5924 9.54425C21.5928 9.6477 21.4524 9.87386 21.2804 10.0467C21.1085 10.2197 20.8983 10.6159 20.8135 10.9272C20.5186 12.0091 19.6387 14.5929 19.221 15.6039L17.3024 22.2298C17.0147 22.8494 16.4315 24.8542 16.2077 25.9937C16.1515 26.2793 15.9925 26.8327 15.854 27.2235C15.0987 29.3566 14.1673 32.8784 14.1699 33.5909C14.172 34.1543 13.8052 34.4704 13.1464 34.4728C12.8683 34.4738 12.6211 34.4309 12.5971 34.3776C12.5732 34.3242 12.1161 34.1493 11.5813 33.9892C9.22711 33.284 7.44956 32.7693 6.84927 32.6189C5.63002 32.3136 2.57087 31.1262 1.81778 30.666C1.40399 30.413 0.892123 30.0106 0.680276 29.7714C0.258533 29.2954 0.259412 29.0423 0.685677 28.1828C0.80934 27.9334 1.06695 27.2051 1.2582 26.5644C1.6687 25.1887 3.59754 19.0132 5.09949 14.266C7.20578 7.60864 7.49869 6.61849 7.55073 5.98133C7.62259 5.10282 7.64444 5.058 8.13208 4.78982C8.49783 4.58869 8.88738 4.55402 10.862 4.54673C13.4373 4.53722 13.4097 4.54728 13.4098 3.62571C13.4098 3.06827 13.2343 2.79233 12.8805 2.79364C12.7611 2.79408 12.5892 2.70588 12.4987 2.59772C12.3639 2.43698 12.3779 2.31318 12.5758 1.91858Z" fill="white"/>
</svg>
