<svg width="148" height="148" viewBox="0 0 148 148" fill="none" xmlns="http://www.w3.org/2000/svg">
<path d="M86.9931 9.71607C83.1747 -3.23869 64.8253 -3.23869 61.0069 9.71608L60.0809 12.8578C57.6411 21.1353 48.1865 25.0515 40.6082 20.9236L37.732 19.3569C25.8715 12.8965 12.8965 25.8716 19.3569 37.732L20.9236 40.6082C25.0515 48.1865 21.1353 57.6411 12.8578 60.0809L9.71607 61.0069C-3.23869 64.8253 -3.23869 83.1747 9.71607 86.9931L12.8578 87.9191C21.1353 90.3589 25.0515 99.8135 20.9236 107.392L19.3569 110.268C12.8965 122.128 25.8715 135.104 37.7319 128.643L40.6082 127.076C48.1865 122.948 57.6411 126.865 60.0809 135.142L61.0069 138.284C64.8253 151.239 83.1747 151.239 86.9931 138.284L87.9191 135.142C90.3589 126.865 99.8135 122.948 107.392 127.076L110.268 128.643C122.128 135.104 135.104 122.128 128.643 110.268L127.076 107.392C122.948 99.8135 126.865 90.3589 135.142 87.9191L138.284 86.9931C151.239 83.1747 151.239 64.8253 138.284 61.0069L135.142 60.0809C126.865 57.6411 122.948 48.1865 127.076 40.6082L128.643 37.7319C135.104 25.8715 122.128 12.8965 110.268 19.3569L107.392 20.9236C99.8135 25.0515 90.3589 21.1353 87.9191 12.8578L86.9931 9.71607ZM74 101.092C59.0378 101.092 46.9085 88.9622 46.9085 74C46.9085 59.0378 59.0378 46.9085 74 46.9085C88.9622 46.9085 101.092 59.0378 101.092 74C101.092 88.9622 88.9622 101.092 74 101.092Z" fill="white"/>
</svg>
