<svg width="28" height="22" viewBox="0 0 28 22" fill="none" xmlns="http://www.w3.org/2000/svg">
<path d="M0.0107422 18.3735V4.42665C0.0107422 2.50099 1.57179 0.939941 3.49745 0.939941H24.4177C26.3433 0.939941 27.9044 2.50099 27.9044 4.42665V18.3735C27.9044 20.2991 26.3433 21.8602 24.4177 21.8602H3.49745C1.57179 21.8602 0.0107422 20.2991 0.0107422 18.3735ZM11.8492 6.33236C11.5835 6.14258 11.234 6.1172 10.9437 6.26661C10.6533 6.41602 10.4709 6.71516 10.4709 7.04168V15.7584C10.4709 16.085 10.6533 16.3841 10.9437 16.5335C11.234 16.6829 11.5835 16.6575 11.8492 16.4677L17.9509 12.1094C18.18 11.9457 18.3159 11.6816 18.3159 11.4001C18.3159 11.1185 18.18 10.8544 17.9509 10.6907L11.8492 6.33236Z" fill="white"/>
</svg>
