<svg width="32" height="26" viewBox="0 0 32 26" fill="none" xmlns="http://www.w3.org/2000/svg">
<path fill-rule="evenodd" clip-rule="evenodd" d="M0 1.28713C0 0.576267 0.564051 0 1.25984 0H12.7244C13.0585 0 13.379 0.135608 13.6153 0.376991L16.5218 3.34653H30.7402C31.4359 3.34653 32 3.9228 32 4.63366V22.1386C32 24.2712 30.3078 26 28.2205 26H3.77953C1.69215 26 0 24.2712 0 22.1386V1.28713ZM15.9999 10.0396C16.6957 10.0396 17.2597 10.6158 17.2597 11.3267V13.3861H19.2755C19.9713 13.3861 20.5353 13.9624 20.5353 14.6732C20.5353 15.3841 19.9713 15.9604 19.2755 15.9604H17.2597V18.0198C17.2597 18.7306 16.6957 19.3069 15.9999 19.3069C15.3041 19.3069 14.74 18.7306 14.74 18.0198V15.9604H12.7243C12.0285 15.9604 11.4644 15.3841 11.4644 14.6732C11.4644 13.9624 12.0285 13.3861 12.7243 13.3861H14.74V11.3267C14.74 10.6158 15.3041 10.0396 15.9999 10.0396Z" fill="white"/>
</svg>
