<svg width="122" height="122" viewBox="0 0 122 122" fill="none" xmlns="http://www.w3.org/2000/svg">
<path d="M85.1734 11.8389C84.7457 0.531294 69.8453 -3.2547 64.0717 6.47719L62.6715 8.83731C58.9824 15.0556 50.497 16.2849 45.1948 11.3693L43.1824 9.50362C34.8843 1.81043 21.671 9.66952 24.47 20.6335L25.1487 23.2924C26.9371 30.298 21.8063 37.1674 14.5813 37.4407L11.839 37.5444C0.531457 37.9722 -3.25453 52.8726 6.47735 58.6462L8.83747 60.0464C15.0557 63.7354 16.2851 72.2209 11.3695 77.523L9.50378 79.5354C1.81059 87.8335 9.66966 101.047 20.6337 98.2479L23.2926 97.5691C30.2981 95.7807 37.1676 100.912 37.4409 108.137L37.5446 110.879C37.9723 122.186 52.8728 125.972 58.6463 116.24L60.0465 113.88C63.7356 107.662 72.221 106.433 77.5232 111.348L79.5356 113.214C87.8337 120.907 101.047 113.048 98.248 102.084L97.5693 99.4253C95.7809 92.4197 100.912 85.5503 108.137 85.277L110.879 85.1732C122.187 84.7455 125.973 69.8451 116.241 64.0715L113.881 62.6713C107.662 58.9823 106.433 50.4968 111.349 45.1947L113.214 43.1823C120.907 34.8842 113.048 21.6709 102.084 24.4698L99.4254 25.1486C92.4199 26.937 85.5504 21.8061 85.2771 14.5811L85.1734 11.8389ZM55.7693 83.3581C43.6194 80.271 36.2726 67.919 39.3597 55.7691C42.4468 43.6193 54.7989 36.2724 66.9487 39.3596C79.0986 42.4467 86.4454 54.7987 83.3583 66.9486C80.2712 79.0984 67.9191 86.4452 55.7693 83.3581Z" fill="white"/>
</svg>
