<svg width="77" height="77" viewBox="0 0 77 77" fill="none" xmlns="http://www.w3.org/2000/svg">
<path d="M56.9604 8.32135C57.4095 1.04775 48.103 -2.33142 43.7807 3.53581L42.7325 4.9587C39.9707 8.7076 34.4543 8.95271 31.3709 5.46351L30.2006 4.13922C25.375 -1.32155 16.4049 2.86971 17.4973 10.0748L17.7622 11.8221C18.4602 16.4259 14.7329 20.4999 10.0853 20.2129L8.32139 20.104C1.0478 19.6549 -2.33137 28.9614 3.53586 33.2837L4.95874 34.3319C8.70765 37.0937 8.95275 42.6101 5.46355 45.6935L4.13926 46.8638C-1.3215 51.6894 2.86974 60.6595 10.0748 59.5671L11.8222 59.3022C16.4259 58.6042 20.4999 62.3315 20.2129 66.979L20.104 68.743C19.6549 76.0166 28.9614 79.3958 33.2838 73.5285L34.332 72.1057C37.0938 68.3567 42.6101 68.1116 45.6935 71.6008L46.8638 72.9251C51.6894 78.3859 60.6596 74.1947 59.5672 66.9895L59.3022 65.2422C58.6042 60.6385 62.3316 56.5645 66.9791 56.8514L68.743 56.9604C76.0166 57.4095 79.3958 48.103 73.5286 43.7806L72.1057 42.7324C68.3568 39.9706 68.1117 34.4543 71.6009 31.3709L72.9252 30.2006C78.386 25.3749 74.1947 16.4048 66.9896 17.4972L65.2423 17.7622C60.6385 18.4602 56.5645 14.7328 56.8515 10.0853L56.9604 8.32135ZM33.5431 52.2725C25.9546 49.5171 22.0365 41.1317 24.7919 33.5431C27.5473 25.9545 35.9327 22.0365 43.5213 24.7919C51.1099 27.5473 55.0279 35.9327 52.2725 43.5213C49.5171 51.1098 41.1317 55.0279 33.5431 52.2725Z" fill="white"/>
</svg>
