<svg width="38" height="20" viewBox="0 0 38 20" fill="none" xmlns="http://www.w3.org/2000/svg">
<path d="M0 10C0 4.47715 4.47715 0 10 0C15.5228 0 20 4.47715 20 10C20 15.5228 15.5228 20 10 20C4.47715 20 0 15.5228 0 10Z" fill="#FFB800"/>
<path fill-rule="evenodd" clip-rule="evenodd" d="M35.5317 13.6073C36.0956 14.1309 36.9813 14.1309 37.5453 13.6073C38.1516 13.0443 38.1516 12.0986 37.5453 11.5356L32.0068 6.39273C31.4429 5.86909 30.5571 5.86909 29.9932 6.39273L24.4547 11.5356C23.8484 12.0986 23.8484 13.0443 24.4547 13.6073C25.0187 14.1309 25.9044 14.1309 26.4683 13.6073L31 9.3993L35.5317 13.6073Z" fill="#FFB800"/>
<path d="M9.28647 10.616C9.47847 10.456 9.67047 10.284 9.86247 10.1C10.0625 9.916 10.2545 9.724 10.4385 9.524C10.6225 9.34 10.7785 9.14 10.9065 8.924C11.0425 8.708 11.1145 8.468 11.1225 8.204C11.1385 7.78 11.0265 7.464 10.7865 7.256C10.5465 7.048 10.2265 6.948 9.82647 6.956C9.46647 6.964 9.17447 7.048 8.95047 7.208C8.73447 7.368 8.60647 7.6 8.56647 7.904H6.94647C6.96247 7.432 7.07447 7.024 7.28247 6.68C7.49847 6.328 7.78247 6.048 8.13447 5.84C8.39047 5.688 8.67047 5.58 8.97447 5.516C9.27847 5.444 9.59847 5.408 9.93447 5.408C10.8385 5.392 11.5505 5.632 12.0705 6.128C12.2945 6.336 12.4745 6.596 12.6105 6.908C12.7465 7.212 12.8145 7.572 12.8145 7.988C12.8145 8.292 12.7825 8.58 12.7185 8.852C12.6545 9.124 12.5465 9.376 12.3945 9.608C12.2985 9.768 12.1945 9.916 12.0825 10.052C11.9785 10.18 11.8705 10.3 11.7585 10.412C11.6545 10.524 11.5385 10.636 11.4105 10.748C11.2905 10.86 11.1545 10.984 11.0025 11.12C10.7065 11.376 10.4225 11.612 10.1505 11.828C9.88647 12.044 9.63447 12.256 9.39447 12.464H12.7185V14H7.00647V12.584L9.28647 10.616Z" fill="#101214"/>
</svg>
