<svg width="38" height="20" viewBox="0 0 38 20" fill="none" xmlns="http://www.w3.org/2000/svg">
<path d="M0 10C0 4.47715 4.47715 0 10 0C15.5228 0 20 4.47715 20 10C20 15.5228 15.5228 20 10 20C4.47715 20 0 15.5228 0 10Z" fill="#FFB800"/>
<path fill-rule="evenodd" clip-rule="evenodd" d="M35.5317 13.6073C36.0956 14.1309 36.9813 14.1309 37.5453 13.6073C38.1516 13.0443 38.1516 12.0986 37.5453 11.5356L32.0068 6.39273C31.4429 5.86909 30.5571 5.86909 29.9932 6.39273L24.4547 11.5356C23.8484 12.0986 23.8484 13.0443 24.4547 13.6073C25.0187 14.1309 25.9044 14.1309 26.4683 13.6073L31 9.3993L35.5317 13.6073Z" fill="#FFB800"/>
<path d="M6.85919 7.904C6.89919 7.472 6.99919 7.104 7.15919 6.8C7.31919 6.496 7.53119 6.236 7.79519 6.02C8.06719 5.804 8.37919 5.648 8.73119 5.552C9.09119 5.448 9.49519 5.396 9.94319 5.396C10.3032 5.396 10.6432 5.436 10.9632 5.516C11.2912 5.588 11.5872 5.712 11.8512 5.888C12.1232 6.064 12.3392 6.296 12.4992 6.584C12.6672 6.872 12.7512 7.224 12.7512 7.64C12.7512 7.992 12.6632 8.328 12.4872 8.648C12.3112 8.968 12.0552 9.22 11.7192 9.404C12.2072 9.564 12.5592 9.832 12.7752 10.208C12.9912 10.584 13.0912 11.024 13.0752 11.528C13.0592 11.992 12.9592 12.384 12.7752 12.704C12.5912 13.024 12.3552 13.288 12.0672 13.496C11.7792 13.696 11.4472 13.844 11.0712 13.94C10.6952 14.036 10.3032 14.084 9.89519 14.084C8.99119 14.084 8.25119 13.88 7.67519 13.472C7.09919 13.064 6.74719 12.416 6.61919 11.528H8.33519C8.39119 11.728 8.47119 11.892 8.57519 12.02C8.68719 12.148 8.81119 12.252 8.94719 12.332C9.09119 12.404 9.24319 12.456 9.40319 12.488C9.56319 12.512 9.72719 12.524 9.89519 12.524C10.0872 12.524 10.2712 12.504 10.4472 12.464C10.6232 12.424 10.7792 12.36 10.9152 12.272C11.0512 12.184 11.1592 12.068 11.2392 11.924C11.3192 11.772 11.3592 11.588 11.3592 11.372C11.3592 11.212 11.3232 11.064 11.2512 10.928C11.1872 10.792 11.0992 10.692 10.9872 10.628C10.8432 10.532 10.6832 10.472 10.5072 10.448C10.3392 10.416 10.1632 10.4 9.97919 10.4H9.12719V8.984H9.70319C9.91119 8.984 10.0992 8.96 10.2672 8.912C10.4352 8.856 10.5872 8.772 10.7232 8.66C10.8192 8.572 10.8992 8.472 10.9632 8.36C11.0272 8.24 11.0592 8.1 11.0592 7.94C11.0592 7.748 11.0272 7.588 10.9632 7.46C10.8992 7.324 10.8112 7.22 10.6992 7.148C10.5872 7.068 10.4552 7.012 10.3032 6.98C10.1512 6.948 9.99119 6.932 9.82319 6.932C9.51919 6.932 9.25119 7.012 9.01919 7.172C8.78719 7.324 8.63519 7.568 8.56319 7.904H6.85919Z" fill="#101214"/>
</svg>
