<svg width="38" height="20" viewBox="0 0 38 20" fill="none" xmlns="http://www.w3.org/2000/svg">
<path d="M0 10C0 4.47715 4.47715 0 10 0C15.5228 0 20 4.47715 20 10C20 15.5228 15.5228 20 10 20C4.47715 20 0 15.5228 0 10Z" fill="#FFB800"/>
<path fill-rule="evenodd" clip-rule="evenodd" d="M35.5317 13.6073C36.0956 14.1309 36.9813 14.1309 37.5453 13.6073C38.1516 13.0443 38.1516 12.0986 37.5453 11.5356L32.0068 6.39273C31.4429 5.86909 30.5571 5.86909 29.9932 6.39273L24.4547 11.5356C23.8484 12.0986 23.8484 13.0443 24.4547 13.6073C25.0187 14.1309 25.9044 14.1309 26.4683 13.6073L31 9.3993L35.5317 13.6073Z" fill="#FFB800"/>
<path d="M12.4777 10.916H13.4377V12.416H12.4777V14H10.7737V12.416H6.62172V11.204L10.4137 5.504H12.4777V10.916ZM8.60172 10.916H10.7737V7.508L8.60172 10.916Z" fill="#101214"/>
</svg>
