<svg width="35" height="35" viewBox="0 0 35 35" fill="none" xmlns="http://www.w3.org/2000/svg">
<path fill-rule="evenodd" clip-rule="evenodd" d="M0.601562 10.5645C0.601562 11.2889 1.1888 11.8761 1.91319 11.8761C2.63758 11.8761 3.22482 11.2889 3.22482 10.5645V4.85505C3.22482 4.13066 3.81205 3.54342 4.53644 3.54342L10.2459 3.54342C10.9703 3.54342 11.5575 2.95618 11.5575 2.23179C11.5575 1.5074 10.9703 0.920166 10.2459 0.920166H4.53644C2.36327 0.920166 0.601562 2.68188 0.601562 4.85505V10.5645ZM10.2459 34.791C10.9703 34.791 11.5575 34.2038 11.5575 33.4794C11.5575 32.755 10.9703 32.1677 10.2459 32.1677L4.53644 32.1677C3.81205 32.1677 3.22482 31.5805 3.22482 30.8561L3.22482 25.1467C3.22482 24.4223 2.63758 23.8351 1.91319 23.8351C1.1888 23.8351 0.601562 24.4223 0.601562 25.1467V30.8561C0.601562 33.0293 2.36327 34.791 4.53644 34.791L10.2459 34.791ZM33.1608 23.8351C33.8852 23.8351 34.4724 24.4223 34.4724 25.1467V30.8561C34.4724 33.0293 32.7107 34.791 30.5375 34.791H24.8281C24.1037 34.791 23.5165 34.2038 23.5165 33.4794C23.5165 32.755 24.1037 32.1677 24.8281 32.1677H30.5375C31.2619 32.1677 31.8491 31.5805 31.8491 30.8561V25.1467C31.8491 24.4223 32.4364 23.8351 33.1608 23.8351ZM24.8281 0.920166C24.1037 0.920166 23.5165 1.5074 23.5165 2.23179C23.5165 2.95619 24.1037 3.54342 24.8281 3.54342H30.5375C31.2619 3.54342 31.8491 4.13066 31.8491 4.85505V10.5645C31.8491 11.2889 32.4364 11.8761 33.1608 11.8761C33.8852 11.8761 34.4724 11.2889 34.4724 10.5645V4.85505C34.4724 2.68187 32.7107 0.920166 30.5375 0.920166H24.8281Z" fill="white"/>
</svg>
