<svg width="28" height="25" viewBox="0 0 28 25" fill="none" xmlns="http://www.w3.org/2000/svg">
<path d="M10.4709 7.84147C10.4709 9.25624 9.30007 10.4031 7.85582 10.4031C6.41158 10.4031 5.2408 9.25624 5.2408 7.84147C5.2408 6.42671 6.41158 5.27981 7.85582 5.27981C9.30007 5.27981 10.4709 6.42671 10.4709 7.84147Z" fill="white"/>
<path d="M3.49745 0.156494C1.57179 0.156494 0.0107422 1.68569 0.0107422 3.57204V20.6498C0.0107422 22.5361 1.57179 24.0653 3.49745 24.0653H24.4177C26.3433 24.0653 27.9044 22.5361 27.9044 20.6498V3.57204C27.9044 1.68569 26.3433 0.156494 24.4177 0.156494H3.49745ZM24.4177 1.86427C25.3805 1.86427 26.161 2.62886 26.161 3.57204V14.6726L19.5774 11.3472C19.2419 11.1828 18.8365 11.2473 18.5712 11.5071L12.1031 17.8432L7.46767 14.816C7.12194 14.5902 6.66159 14.6349 6.36778 14.9227L1.75409 18.942V3.57204C1.75409 2.62886 2.53462 1.86427 3.49745 1.86427H24.4177Z" fill="white"/>
</svg>
