<svg width="22" height="31" viewBox="0 0 22 31" fill="none" xmlns="http://www.w3.org/2000/svg">
<path d="M20.3495 17.971C20.696 17.971 21.0179 17.7915 21.2001 17.4967C21.3823 17.2019 21.3989 16.8338 21.2439 16.5238L18.3366 10.7092L21.2439 4.89454C21.3989 4.58455 21.3823 4.21641 21.2001 3.92159C21.0179 3.62678 20.696 3.44732 20.3495 3.44732L2.56396 3.44732L2.56396 1.31641C2.56396 0.764122 2.11625 0.316406 1.56396 0.316406C1.01168 0.316406 0.563965 0.764121 0.563965 1.31641L0.563966 29.4947C0.563965 30.0469 1.01168 30.4947 1.56397 30.4947C2.11625 30.4947 2.56397 30.0469 2.56397 29.4947L2.56396 17.971H20.3495Z" fill="white"/>
</svg>
