<svg width="37" height="28" viewBox="0 0 37 28" fill="none" xmlns="http://www.w3.org/2000/svg">
<path d="M26.9723 11.6667H36.4C36.9081 11.6667 37.1857 12.2435 36.8604 12.6234L32.1466 18.1289C31.907 18.4088 31.4653 18.4088 31.2257 18.1289L26.5119 12.6234C26.1866 12.2435 26.4641 11.6667 26.9723 11.6667Z" fill="#FFB800"/>
<path d="M0.600982 16.3333H10.0287C10.5368 16.3333 10.8144 15.7565 10.4891 15.3766L5.77526 9.87109C5.53565 9.59123 5.09401 9.59123 4.8544 9.87109L0.14055 15.3766C-0.18476 15.7565 0.0928328 16.3333 0.600982 16.3333Z" fill="#FFB800"/>
<path fill-rule="evenodd" clip-rule="evenodd" d="M18.5005 2.33333C14.7786 2.33333 11.4535 3.98292 9.25299 6.57624C8.83143 7.07305 8.07589 7.14319 7.56544 6.73289C7.05499 6.32259 6.98293 5.58724 7.40449 5.09043C10.0409 1.9834 14.0332 0 18.5005 0C25.5529 0 31.4177 4.93851 32.6477 11.4559C32.6609 11.526 32.6736 11.5962 32.6858 11.6667H30.2479C29.1379 6.34149 24.2989 2.33333 18.5005 2.33333ZM6.75307 16.3333C7.86309 21.6585 12.7021 25.6667 18.5005 25.6667C22.2224 25.6667 25.5475 24.0171 27.748 21.4238C28.1695 20.9269 28.9251 20.8568 29.4355 21.2671C29.946 21.6774 30.018 22.4128 29.5965 22.9096C26.9601 26.0166 22.9677 28 18.5005 28C11.4481 28 5.58329 23.0615 4.35327 16.5441C4.34005 16.474 4.32736 16.4038 4.31521 16.3333H6.75307Z" fill="#FFB800"/>
</svg>
