<svg width="29" height="22" viewBox="0 0 29 22" fill="none" xmlns="http://www.w3.org/2000/svg">
<path fill-rule="evenodd" clip-rule="evenodd" d="M21.1522 0.271713C21.7653 0.022633 22.4711 0.160313 22.9403 0.620554L27.8628 5.44829C28.5035 6.07673 28.5035 7.09565 27.8628 7.7241L22.9403 12.5518C22.4711 13.0121 21.7653 13.1498 21.1522 12.9007C20.5391 12.6516 20.1393 12.0648 20.1393 11.4139V8.19544H8.65372C5.93515 8.19544 3.73131 10.3569 3.73131 13.0232C3.73131 15.6895 5.93515 17.8509 8.65372 17.8509H26.7025C27.6087 17.8509 28.3433 18.5714 28.3433 19.4601C28.3433 20.3489 27.6087 21.0694 26.7025 21.0694H8.65372C4.12277 21.0694 0.449707 17.467 0.449707 13.0232C0.449707 8.57936 4.12277 4.97695 8.65372 4.97695H20.1393V1.75846C20.1393 1.10758 20.5391 0.520794 21.1522 0.271713Z" fill="white"/>
</svg>
