<svg width="29" height="22" viewBox="0 0 29 22" fill="none" xmlns="http://www.w3.org/2000/svg">
<path fill-rule="evenodd" clip-rule="evenodd" d="M7.64082 0.462631C8.25395 0.711712 8.65372 1.2985 8.65372 1.94938V5.16787H20.1393C24.6703 5.16787 28.3433 8.77028 28.3433 13.2141C28.3433 17.6579 24.6703 21.2603 20.1393 21.2603H2.09051C1.18432 21.2603 0.449707 20.5398 0.449707 19.6511C0.449707 18.7623 1.18432 18.0418 2.09051 18.0418H20.1393C22.8579 18.0418 25.0617 15.8804 25.0617 13.2141C25.0617 10.5478 22.8579 8.38636 20.1393 8.38636H8.65372V11.6048C8.65372 12.2557 8.25395 12.8425 7.64082 13.0916C7.0277 13.3407 6.32196 13.203 5.85269 12.7428L0.930287 7.91502C0.289514 7.28657 0.289514 6.26765 0.930287 5.6392L5.85269 0.811472C6.32196 0.351231 7.0277 0.213551 7.64082 0.462631Z" fill="white"/>
</svg>
