<svg width="34" height="34" viewBox="0 0 34 34" fill="none" xmlns="http://www.w3.org/2000/svg">
<path fill-rule="evenodd" clip-rule="evenodd" d="M22.4161 0.349521C22.8822 -0.116507 23.6377 -0.116507 24.1038 0.349521L33.6505 9.89624C34.1165 10.3623 34.1165 11.1178 33.6505 11.5839L29.1108 16.1235L27.1336 24.0325C26.8274 25.2574 25.8985 26.2304 24.6892 26.5932L0 34L7.40675 9.31082C7.76956 8.10145 8.74259 7.17263 9.96751 6.8664L17.8765 4.88915L22.4161 0.349521ZM18.1205 7.28828L10.5464 9.18182C10.1381 9.2839 9.81371 9.5935 9.69278 9.99662L3.55967 30.4403L24.0034 24.3072C24.4065 24.1863 24.7161 23.8619 24.8182 23.4536L26.7117 15.8795L18.1205 7.28828Z" fill="white"/>
<path fill-rule="evenodd" clip-rule="evenodd" d="M3.76544 30.3786L16.1 20.2868C17.4181 20.2868 18.4867 19.2182 18.4867 17.9001C18.4867 16.582 17.4181 15.5134 16.1 15.5134C14.7819 15.5134 13.7133 16.582 13.7133 17.9001L3.62138 30.2346L3.55967 30.4403L3.76544 30.3786Z" fill="white"/>
</svg>
