<svg width="34" height="34" viewBox="0 0 34 34" fill="none" xmlns="http://www.w3.org/2000/svg">
<path d="M17 31.875C8.78477 31.875 2.125 25.2152 2.125 17C2.125 8.78477 8.78477 2.125 17 2.125C25.2152 2.125 31.875 8.78477 31.875 17C31.875 25.2152 25.2152 31.875 17 31.875ZM17 34C26.3888 34 34 26.3888 34 17C34 7.61116 26.3888 0 17 0C7.61116 0 0 7.61116 0 17C0 26.3888 7.61116 34 17 34Z" fill="white"/>
<path d="M17 27.625C11.132 27.625 6.375 22.868 6.375 17C6.375 11.132 11.132 6.375 17 6.375C22.868 6.375 27.625 11.132 27.625 17C27.625 22.868 22.868 27.625 17 27.625ZM17 29.75C24.0416 29.75 29.75 24.0416 29.75 17C29.75 9.95837 24.0416 4.25 17 4.25C9.95837 4.25 4.25 9.95837 4.25 17C4.25 24.0416 9.95837 29.75 17 29.75Z" fill="white"/>
<path d="M17 23.375C13.4792 23.375 10.625 20.5208 10.625 17C10.625 13.4792 13.4792 10.625 17 10.625C20.5208 10.625 23.375 13.4792 23.375 17C23.375 20.5208 20.5208 23.375 17 23.375ZM17 25.5C21.6944 25.5 25.5 21.6944 25.5 17C25.5 12.3056 21.6944 8.5 17 8.5C12.3056 8.5 8.5 12.3056 8.5 17C8.5 21.6944 12.3056 25.5 17 25.5Z" fill="white"/>
<path d="M20.1875 17C20.1875 18.7604 18.7604 20.1875 17 20.1875C15.2396 20.1875 13.8125 18.7604 13.8125 17C13.8125 15.2396 15.2396 13.8125 17 13.8125C18.7604 13.8125 20.1875 15.2396 20.1875 17Z" fill="white"/>
</svg>
