<svg width="24" height="38" viewBox="0 0 24 38" fill="none" xmlns="http://www.w3.org/2000/svg">
<path fill-rule="evenodd" clip-rule="evenodd" d="M10.1386 1.02421C9.95659 1.07861 9.39294 1.45464 8.88615 1.85991L7.96455 2.59674L7.86655 3.14101C7.74513 3.81571 7.80439 3.88373 8.91107 4.34086C10.1595 4.85647 10.1248 4.77336 9.87448 6.64862C9.69677 7.97974 9.63615 8.26274 9.48523 8.46411C9.38696 8.59534 9.16268 8.96111 8.98698 9.27695C8.52152 10.1132 5.89318 13.7469 5.65104 13.8888C5.53765 13.9553 5.3495 13.9926 5.23301 13.9716C4.84724 13.9024 3.40721 14.4406 3.36612 14.6694C3.35446 14.7344 3.14357 15.1193 2.89747 15.5249C2.3139 16.4866 2.28824 16.6556 2.64854 17.1619C3.05857 17.7382 2.97388 17.8971 2.31919 17.7795C1.79225 17.6849 1.71475 17.8238 1.2856 19.6314L0.900851 21.2523L1.82379 22.44L1.33829 22.7527C0.701764 23.1627 0.6159 23.3155 0.584881 24.0933C0.570985 24.4419 0.543622 24.9603 0.523963 25.2452C0.498691 25.6141 0.528169 25.7883 0.626599 25.8501C0.702633 25.8979 1.00189 26.2229 1.29147 26.5722C1.88177 27.284 1.88183 27.2826 1.22031 27.8012C1.02695 27.9527 0.859114 28.1304 0.847311 28.1962C0.805404 28.4296 1.45185 30.4443 1.61682 30.5943C1.70906 30.6781 1.93512 30.8022 2.11929 30.8698C2.50541 31.0118 2.82812 31.2422 2.95465 31.4664C3.02895 31.5981 2.99145 31.6635 2.71563 31.8838C2.53574 32.0274 2.37375 32.2273 2.35569 32.3279C2.33761 32.4286 2.46607 32.8055 2.64119 33.1656C2.81632 33.5257 3.05373 34.0402 3.16884 34.309C3.85833 35.9191 4.56199 36.3991 6.84325 36.8153C8.56184 37.129 9.86296 37.0842 10.3876 36.6935C10.5296 36.5878 10.6904 36.4702 10.6904 36.4702L10.8477 36.313C10.8477 36.313 11.0223 36.1706 11.3924 35.8118C11.7072 35.5065 12.1462 35.0815 12.3677 34.8674C12.8974 34.3553 13.0126 34.0546 12.8487 33.6115L12.7215 33.2675L13.0213 33.1512C13.1862 33.0874 13.4678 33.0338 13.647 33.0323C14.1263 33.0284 14.2833 32.9534 14.3997 32.673C14.5373 32.3415 14.63 32.3164 14.913 32.5341C15.2028 32.7571 15.9641 32.9067 16.1236 32.772C16.3661 32.567 16.8017 31.072 17.3274 28.6402C17.627 27.2548 18.1258 24.9583 18.436 23.5367C18.8695 21.5502 19.0469 20.5486 19.2023 19.2079C19.3136 18.2486 19.4204 17.3469 19.4395 17.2042C19.4694 16.9821 19.5143 16.9435 19.7513 16.9367C20.6369 16.9111 21.9941 16.128 22.67 15.2523C23.1157 14.675 23.2727 14.1862 23.3723 13.066C23.4366 12.3428 23.4145 12.083 23.2291 11.3852C22.9451 10.3161 22.5599 9.51069 21.9129 8.63378C21.4984 8.07192 21.1905 7.77871 20.4162 7.20764L19.4413 6.48877L19.1423 5.70378C18.606 4.29515 18.3745 4.04804 17.1831 3.61197C16.7941 3.46957 16.0522 3.13651 15.5346 2.87177C15.017 2.60713 14.292 2.29441 13.9234 2.17689C11.6947 1.46632 10.9038 1.18599 10.5815 0.992582C10.5198 0.955611 10.3206 0.969827 10.1386 1.02421ZM20.1657 9.14919C20.743 9.68974 21.1505 10.382 21.3931 11.2338C21.7329 12.4273 21.7492 12.7978 21.5186 14.0821L21.3096 15.2462L20.8252 15.5639C20.3636 15.8668 20.3198 15.8766 19.8919 15.7738L19.443 15.6659L19.4261 14.3997C19.4167 13.7032 19.3439 12.5751 19.2641 11.8927C19.1335 10.7754 19.1357 10.56 19.2858 9.72361C19.4421 8.85342 19.5029 8.68378 19.6489 8.71001C19.6815 8.71585 19.914 8.91352 20.1657 9.14919ZM17.0076 13.3454C17.0711 14.5499 17.0462 15.0852 16.939 14.8213C16.909 14.7475 16.8342 14.7071 16.7727 14.7315C16.5958 14.8015 16.1667 14.2638 15.7822 13.4903C15.1611 12.2412 15.1783 12.0604 15.9058 12.1845C16.1529 12.2266 16.4819 12.2305 16.6371 12.1933C16.7924 12.156 16.9251 12.1308 16.932 12.1375C16.9389 12.144 16.973 12.6877 17.0076 13.3454Z" fill="white"/>
</svg>
