<svg width="31" height="31" viewBox="0 0 31 31" fill="none" xmlns="http://www.w3.org/2000/svg">
<path fill-rule="evenodd" clip-rule="evenodd" d="M30.7071 0.292893C31.0976 0.683417 31.0976 1.31658 30.7071 1.70711L28.2904 4.12377C27.8999 4.5143 27.2668 4.5143 26.8762 4.12377C26.4857 3.73325 26.4857 3.10008 26.8762 2.70956L29.2929 0.292893C29.6834 -0.0976311 30.3166 -0.0976311 30.7071 0.292893ZM23.4571 7.54289C23.8476 7.93342 23.8476 8.56658 23.4571 8.95711L18.6238 13.7904C18.2332 14.181 17.6001 14.181 17.2096 13.7904C16.819 13.3999 16.819 12.7668 17.2096 12.3762L22.0429 7.54289C22.4334 7.15237 23.0666 7.15237 23.4571 7.54289ZM13.7904 17.2096C14.181 17.6001 14.181 18.2332 13.7904 18.6238L8.95711 23.4571C8.56658 23.8476 7.93342 23.8476 7.54289 23.4571C7.15237 23.0666 7.15237 22.4334 7.54289 22.0429L12.3762 17.2096C12.7668 16.819 13.3999 16.819 13.7904 17.2096ZM4.12377 26.8762C4.5143 27.2668 4.5143 27.8999 4.12377 28.2904L1.70711 30.7071C1.31658 31.0976 0.683417 31.0976 0.292893 30.7071C-0.0976311 30.3166 -0.0976311 29.6834 0.292893 29.2929L2.70956 26.8762C3.10008 26.4857 3.73325 26.4857 4.12377 26.8762Z" fill="white"/>
</svg>
