<svg width="16" height="15" viewBox="0 0 16 15" fill="none" xmlns="http://www.w3.org/2000/svg">
<path fill-rule="evenodd" clip-rule="evenodd" d="M7.58612 2.92719C7.54205 2.94037 7.40551 3.03145 7.28275 3.12962L7.05951 3.30811L7.03577 3.43995C7.00636 3.60338 7.02071 3.61986 7.28879 3.73059C7.59119 3.85549 7.58279 3.83536 7.52216 4.28961C7.47911 4.61205 7.46442 4.6806 7.42787 4.72938C7.40406 4.76117 7.34974 4.84977 7.30717 4.92627C7.19443 5.12884 6.55775 6.00903 6.4991 6.04342C6.47163 6.05953 6.42606 6.06855 6.39784 6.06348C6.30439 6.04671 5.95557 6.17707 5.94562 6.2325C5.94279 6.24824 5.89171 6.34148 5.8321 6.43974C5.69074 6.67268 5.68452 6.71362 5.7718 6.83628C5.87112 6.97588 5.8506 7.01436 5.69202 6.98588C5.56437 6.96296 5.5456 6.9966 5.44165 7.43446L5.34845 7.8271L5.57202 8.11479L5.45441 8.19055C5.30022 8.28985 5.27942 8.32688 5.27191 8.51529C5.26854 8.59973 5.26192 8.72529 5.25715 8.79431C5.25103 8.88366 5.25817 8.92586 5.28202 8.94085C5.30043 8.95242 5.37292 9.03113 5.44307 9.11575C5.58606 9.28817 5.58607 9.28784 5.42583 9.41345C5.37899 9.45015 5.33834 9.49321 5.33548 9.50913C5.32533 9.56566 5.48192 10.0537 5.52188 10.09C5.54422 10.1103 5.59898 10.1404 5.64359 10.1568C5.73713 10.1912 5.8153 10.247 5.84595 10.3013C5.86394 10.3332 5.85486 10.349 5.78805 10.4024C5.74447 10.4372 5.70523 10.4856 5.70086 10.51C5.69648 10.5344 5.7276 10.6257 5.77002 10.7129C5.81244 10.8001 5.86995 10.9248 5.89783 10.9899C6.06485 11.3799 6.2353 11.4961 6.78789 11.597C7.20419 11.673 7.51937 11.6621 7.64645 11.5675C7.68085 11.5419 7.71979 11.5134 7.71979 11.5134L7.75791 11.4753C7.75791 11.4753 7.80019 11.4408 7.88984 11.3539C7.96611 11.2799 8.07243 11.177 8.1261 11.1251C8.25442 11.0011 8.28232 10.9282 8.24262 10.8209L8.21179 10.7376L8.28442 10.7094C8.32437 10.6939 8.39257 10.681 8.43598 10.6806C8.55208 10.6797 8.59012 10.6615 8.61832 10.5936C8.65164 10.5133 8.6741 10.5072 8.74264 10.5599C8.81285 10.6139 8.99725 10.6502 9.03591 10.6175C9.09464 10.5679 9.20015 10.2058 9.32751 9.6167C9.40006 9.28111 9.5209 8.7248 9.59603 8.38045C9.70105 7.89927 9.74401 7.65663 9.78167 7.33187C9.80862 7.09949 9.83449 6.88109 9.83913 6.84651C9.84637 6.79271 9.85725 6.78337 9.91464 6.78172C10.1292 6.77552 10.4579 6.58581 10.6217 6.3737C10.7296 6.23385 10.7677 6.11546 10.7918 5.84411C10.8073 5.66893 10.802 5.60598 10.7571 5.43696C10.6883 5.17798 10.595 4.98289 10.4383 4.77047C10.3378 4.63437 10.2633 4.56335 10.0757 4.42502L9.83955 4.25088L9.76714 4.06073C9.63721 3.71952 9.58113 3.65966 9.29254 3.55403C9.19831 3.51953 9.01861 3.43886 8.89323 3.37473C8.76785 3.31062 8.59222 3.23487 8.50295 3.2064C7.96308 3.03428 7.7715 2.96637 7.69342 2.91953C7.67848 2.91057 7.63022 2.91401 7.58612 2.92719ZM10.015 4.89532C10.1549 5.02627 10.2536 5.19395 10.3123 5.4003C10.3947 5.68938 10.3986 5.77913 10.3427 6.09025L10.2921 6.37222L10.1748 6.44919C10.063 6.52255 10.0523 6.52492 9.94872 6.50002L9.83997 6.47389L9.83587 6.16716C9.83361 5.99846 9.81595 5.7252 9.79664 5.55991C9.765 5.28925 9.76552 5.23706 9.8019 5.03447C9.83975 4.82368 9.85447 4.78259 9.88985 4.78894C9.89773 4.79036 9.95406 4.83824 10.015 4.89532ZM9.25003 5.91179C9.26541 6.20355 9.25938 6.33321 9.23342 6.2693C9.22616 6.25143 9.20803 6.24164 9.19313 6.24755C9.15029 6.26449 9.04635 6.13425 8.9532 5.94689C8.80276 5.6443 8.80691 5.60052 8.98314 5.63057C9.04299 5.64077 9.1227 5.64173 9.1603 5.6327C9.1979 5.62367 9.23004 5.61757 9.23171 5.61918C9.23339 5.62077 9.24164 5.75246 9.25003 5.91179Z" fill="white"/>
<circle cx="8.09089" cy="7.22896" r="7.22896" fill="white" fill-opacity="0.1"/>
<circle cx="8.09089" cy="7.22896" r="6.72896" stroke="white" stroke-opacity="0.2"/>
</svg>
