<svg width="38" height="20" viewBox="0 0 38 20" fill="none" xmlns="http://www.w3.org/2000/svg">
<path d="M0 10C0 4.47715 4.47715 0 10 0C15.5228 0 20 4.47715 20 10C20 15.5228 15.5228 20 10 20C4.47715 20 0 15.5228 0 10Z" fill="#00C2FF"/>
<path d="M11.2454 14H9.49337V7.748H7.76538V6.548C8.02138 6.548 8.25738 6.528 8.47338 6.488C8.69738 6.44 8.90537 6.368 9.09737 6.272C9.26537 6.184 9.42538 6.076 9.57738 5.948C9.72938 5.812 9.84938 5.664 9.93738 5.504H11.2454V14Z" fill="#101214"/>
<path fill-rule="evenodd" clip-rule="evenodd" d="M35.5317 6.39273C36.0956 5.86909 36.9813 5.86909 37.5453 6.39273C38.1516 6.95573 38.1516 7.90141 37.5453 8.46441L32.0068 13.6073C31.4429 14.1309 30.5571 14.1309 29.9932 13.6073L24.4547 8.46441C23.8484 7.90141 23.8484 6.95573 24.4547 6.39273C25.0187 5.86909 25.9044 5.86909 26.4683 6.39273L31 10.6007L35.5317 6.39273Z" fill="#00C2FF"/>
</svg>
