<svg width="38" height="20" viewBox="0 0 38 20" fill="none" xmlns="http://www.w3.org/2000/svg">
<path d="M0 10C0 4.47715 4.47715 0 10 0C15.5228 0 20 4.47715 20 10C20 15.5228 15.5228 20 10 20C4.47715 20 0 15.5228 0 10Z" fill="#00C2FF"/>
<path d="M7.06961 10.352L7.60961 5.504H12.7696V7.016H9.01361L8.77361 8.768C9.04561 8.632 9.30161 8.536 9.54161 8.48C9.78961 8.416 10.0736 8.388 10.3936 8.396C10.8096 8.404 11.1856 8.472 11.5216 8.6C11.8656 8.728 12.1576 8.912 12.3976 9.152C12.6376 9.392 12.8216 9.68 12.9496 10.016C13.0776 10.344 13.1416 10.716 13.1416 11.132C13.1416 11.596 13.0616 12.012 12.9016 12.38C12.7416 12.748 12.5216 13.06 12.2416 13.316C11.9456 13.572 11.6096 13.764 11.2336 13.892C10.8656 14.02 10.4416 14.084 9.96161 14.084C9.08961 14.084 8.39361 13.884 7.87361 13.484C7.35361 13.084 7.04561 12.432 6.94961 11.528H8.66561C8.73761 11.872 8.88961 12.12 9.12161 12.272C9.36161 12.424 9.62961 12.508 9.92561 12.524C10.3496 12.54 10.6976 12.44 10.9696 12.224C11.2416 12.008 11.3816 11.668 11.3896 11.204C11.3976 10.748 11.2656 10.404 10.9936 10.172C10.7216 9.94 10.3776 9.832 9.96161 9.848C9.71361 9.856 9.48161 9.904 9.26561 9.992C9.05761 10.08 8.87361 10.2 8.71361 10.352H7.06961Z" fill="#101214"/>
<path fill-rule="evenodd" clip-rule="evenodd" d="M35.5317 6.39273C36.0956 5.86909 36.9813 5.86909 37.5453 6.39273C38.1516 6.95573 38.1516 7.90141 37.5453 8.46441L32.0068 13.6073C31.4429 14.1309 30.5571 14.1309 29.9932 13.6073L24.4547 8.46441C23.8484 7.90141 23.8484 6.95573 24.4547 6.39273C25.0187 5.86909 25.9044 5.86909 26.4683 6.39273L31 10.6007L35.5317 6.39273Z" fill="#00C2FF"/>
</svg>
