<svg width="15" height="15" viewBox="0 0 15 15" fill="none" xmlns="http://www.w3.org/2000/svg">
<path d="M7.73884 11.4265C9.41987 11.4265 10.7826 10.4278 10.7826 8.67997C10.7826 7.93092 10.529 6.6825 9.51437 5.68376C9.6412 6.43281 8.88025 6.6825 8.88025 6.6825C9.26073 5.43407 8.24613 3.68628 6.72425 3.4366C6.90543 4.43534 6.9779 5.43407 5.70966 6.43281C5.07554 6.93218 4.69507 7.79555 4.69507 8.67997C4.69507 10.4278 6.05781 11.4265 7.73884 11.4265ZM7.73884 10.9271C6.89833 10.9271 6.21695 10.4278 6.21695 9.55387C6.21695 9.17934 6.34378 8.55513 6.85107 8.05576C6.78766 8.43029 7.23154 8.67997 7.23154 8.67997C7.04131 8.05576 7.48519 7.05702 8.24613 6.93218C8.15555 7.43155 8.11931 7.93092 8.75343 8.43029C9.07049 8.67997 9.26073 9.11166 9.26073 9.55387C9.26073 10.4278 8.57935 10.9271 7.73884 10.9271Z" fill="white"/>
<circle cx="7.6902" cy="7.22896" r="7.22896" fill="white" fill-opacity="0.1"/>
<circle cx="7.6902" cy="7.22896" r="6.72896" stroke="white" stroke-opacity="0.2"/>
</svg>
