<svg width="28" height="29" viewBox="0 0 28 29" fill="none" xmlns="http://www.w3.org/2000/svg">
<path d="M22.419 1.06146C22.0786 0.72105 21.5267 0.72105 21.1863 1.06146L18.3159 3.9318L24.7787 10.3946L27.6491 7.52425C27.9895 7.18384 27.9895 6.63192 27.6491 6.29151L22.419 1.06146Z" fill="white"/>
<path d="M23.546 11.6273L17.0832 5.16454L5.75143 16.4963H6.11247C6.59388 16.4963 6.98414 16.8866 6.98414 17.368V18.2397H7.85582C8.33723 18.2397 8.72749 18.6299 8.72749 19.1113V19.983H9.59917C10.0806 19.983 10.4708 20.3733 10.4708 20.8547V21.7264H11.3425C11.8239 21.7264 12.2142 22.1166 12.2142 22.598V22.9591L23.546 11.6273Z" fill="white"/>
<path d="M10.526 24.6473C10.4904 24.5521 10.4708 24.449 10.4708 24.3414V23.4697H9.59917C9.11775 23.4697 8.72749 23.0794 8.72749 22.598V21.7264H7.85582C7.3744 21.7264 6.98414 21.3361 6.98414 20.8547V19.983H6.11247C5.63105 19.983 5.24079 19.5927 5.24079 19.1113V18.2397H4.36912C4.26149 18.2397 4.15843 18.2202 4.06325 18.1845L3.75278 18.495C3.6693 18.5784 3.60366 18.678 3.55981 18.7876L0.0731127 27.5043C-0.0563892 27.8281 0.019511 28.1979 0.266075 28.4445C0.51264 28.691 0.88242 28.7669 1.20617 28.6374L9.92292 25.1507C10.0325 25.1069 10.1321 25.0412 10.2156 24.9577L10.526 24.6473Z" fill="white"/>
</svg>
