<svg width="44" height="27" viewBox="0 0 44 27" fill="none" xmlns="http://www.w3.org/2000/svg">
<path d="M43.3936 21.4211H39.8896V8.91714H36.4336V6.51714C36.9456 6.51714 37.4176 6.47714 37.8496 6.39714C38.2976 6.30114 38.7136 6.15714 39.0976 5.96514C39.4336 5.78914 39.7536 5.57314 40.0576 5.31714C40.3616 5.04514 40.6016 4.74914 40.7776 4.42914H43.3936V21.4211Z" fill="#CFCFCF"/>
<path d="M2.42098 26.9475C2.42098 26.9475 0.210449 26.9475 0.210449 24.7369C0.210449 22.5264 2.42098 15.8948 13.4736 15.8948C24.5262 15.8948 26.7368 22.5264 26.7368 24.7369C26.7368 26.9475 24.5262 26.9475 24.5262 26.9475H2.42098Z" fill="#00C2FF"/>
<path d="M13.4736 13.6843C17.1361 13.6843 20.1052 10.7152 20.1052 7.05272C20.1052 3.3902 17.1361 0.421143 13.4736 0.421143C9.81109 0.421143 6.84203 3.3902 6.84203 7.05272C6.84203 10.7152 9.81109 13.6843 13.4736 13.6843Z" fill="#00C2FF"/>
</svg>
