<svg width="45" height="27" viewBox="0 0 45 27" fill="none" xmlns="http://www.w3.org/2000/svg">
<path d="M37.7707 14.6531C38.1547 14.3331 38.5387 13.9891 38.9227 13.6211C39.3227 13.2531 39.7067 12.8691 40.0747 12.4691C40.4427 12.1011 40.7547 11.7011 41.0107 11.2691C41.2827 10.8371 41.4267 10.3571 41.4427 9.82914C41.4747 8.98114 41.2507 8.34914 40.7707 7.93314C40.2907 7.51714 39.6507 7.31714 38.8507 7.33314C38.1307 7.34914 37.5467 7.51714 37.0987 7.83714C36.6667 8.15714 36.4107 8.62114 36.3307 9.22914H33.0907C33.1227 8.28514 33.3467 7.46914 33.7627 6.78114C34.1947 6.07714 34.7627 5.51714 35.4667 5.10114C35.9787 4.79714 36.5387 4.58114 37.1467 4.45314C37.7547 4.30914 38.3947 4.23714 39.0667 4.23714C40.8747 4.20514 42.2987 4.68514 43.3387 5.67714C43.7867 6.09314 44.1467 6.61314 44.4187 7.23714C44.6907 7.84514 44.8267 8.56514 44.8267 9.39714C44.8267 10.0051 44.7627 10.5811 44.6347 11.1251C44.5067 11.6691 44.2907 12.1731 43.9867 12.6371C43.7947 12.9571 43.5867 13.2531 43.3627 13.5251C43.1547 13.7811 42.9387 14.0211 42.7147 14.2451C42.5067 14.4691 42.2747 14.6931 42.0187 14.9171C41.7787 15.1411 41.5067 15.3891 41.2027 15.6611C40.6107 16.1731 40.0427 16.6451 39.4987 17.0771C38.9707 17.5091 38.4667 17.9331 37.9867 18.3491H44.6347V21.4211H33.2107V18.5891L37.7707 14.6531Z" fill="#CFCFCF"/>
<path d="M2.47322 26.9475C2.47322 26.9475 0.262695 26.9475 0.262695 24.7369C0.262695 22.5264 2.47322 15.8948 13.5259 15.8948C24.5785 15.8948 26.789 22.5264 26.789 24.7369C26.789 26.9475 24.5785 26.9475 24.5785 26.9475H2.47322Z" fill="#00C2FF"/>
<path d="M13.5259 13.6843C17.1884 13.6843 20.1574 10.7152 20.1574 7.05272C20.1574 3.3902 17.1884 0.421143 13.5259 0.421143C9.86333 0.421143 6.89427 3.3902 6.89427 7.05272C6.89427 10.7152 9.86333 13.6843 13.5259 13.6843Z" fill="#00C2FF"/>
</svg>
