<svg width="45" height="27" viewBox="0 0 45 27" fill="none" xmlns="http://www.w3.org/2000/svg">
<path d="M32.7334 14.1251L33.8134 4.42914H44.1334V7.45314H36.6214L36.1414 10.9571C36.6854 10.6851 37.1974 10.4931 37.6774 10.3811C38.1734 10.2531 38.7414 10.1971 39.3814 10.2131C40.2134 10.2291 40.9654 10.3651 41.6374 10.6211C42.3254 10.8771 42.9094 11.2451 43.3894 11.7251C43.8694 12.2051 44.2374 12.7811 44.4934 13.4531C44.7494 14.1091 44.8774 14.8531 44.8774 15.6851C44.8774 16.6131 44.7174 17.4451 44.3974 18.1811C44.0774 18.9171 43.6374 19.5411 43.0774 20.0531C42.4854 20.5651 41.8134 20.9491 41.0614 21.2051C40.3254 21.4611 39.4774 21.5891 38.5174 21.5891C36.7734 21.5891 35.3814 21.1891 34.3414 20.3891C33.3014 19.5891 32.6854 18.2851 32.4934 16.4771H35.9254C36.0694 17.1651 36.3734 17.6611 36.8374 17.9651C37.3174 18.2691 37.8534 18.4371 38.4454 18.4691C39.2934 18.5011 39.9894 18.3011 40.5334 17.8691C41.0774 17.4371 41.3574 16.7571 41.3734 15.8291C41.3894 14.9171 41.1254 14.2291 40.5814 13.7651C40.0374 13.3011 39.3494 13.0851 38.5174 13.1171C38.0214 13.1331 37.5574 13.2291 37.1254 13.4051C36.7094 13.5811 36.3414 13.8211 36.0214 14.1251H32.7334Z" fill="#CFCFCF"/>
<path d="M2.63191 26.9475C2.63191 26.9475 0.421387 26.9475 0.421387 24.7369C0.421387 22.5264 2.63191 15.8948 13.6845 15.8948C24.7372 15.8948 26.9477 22.5264 26.9477 24.7369C26.9477 26.9475 24.7372 26.9475 24.7372 26.9475H2.63191Z" fill="#FFB800"/>
<path d="M13.6845 13.6843C17.3471 13.6843 20.3161 10.7152 20.3161 7.05272C20.3161 3.3902 17.3471 0.421143 13.6845 0.421143C10.022 0.421143 7.05297 3.3902 7.05297 7.05272C7.05297 10.7152 10.022 13.6843 13.6845 13.6843Z" fill="#FFB800"/>
</svg>
