<svg width="24" height="29" viewBox="0 0 24 29" fill="none" xmlns="http://www.w3.org/2000/svg">
<path fill-rule="evenodd" clip-rule="evenodd" d="M11.9578 26.5594C11.9707 26.5575 12.0248 26.5496 12.1299 26.5164C12.2576 26.476 12.4257 26.4094 12.6312 26.3107C13.0417 26.1134 13.5642 25.8058 14.1551 25.3804C15.3361 24.5302 16.7527 23.2369 18.062 21.4885C20.6698 18.0059 22.8553 12.7169 21.9094 5.47069C21.8691 5.16174 21.6543 4.89138 21.3485 4.7895C20.2369 4.41921 18.3587 3.81248 16.504 3.29927C14.6078 2.77454 12.8644 2.38545 11.9578 2.38545V26.5594ZM6.95688 1.50155C8.81106 0.988465 10.7803 0.525879 11.9578 0.525879C13.1353 0.525879 15.1046 0.988465 16.9588 1.50155C18.8546 2.02615 20.7645 2.64337 21.8881 3.01762C22.8257 3.32995 23.5349 4.17574 23.6711 5.21915C24.6899 13.0247 22.3274 18.8082 19.4618 22.635C18.0344 24.5413 16.483 25.962 15.1632 26.9122C14.5037 27.3869 13.8925 27.751 13.3735 28.0004C12.8939 28.2309 12.3809 28.4195 11.9578 28.4195C11.5348 28.4195 11.0217 28.2309 10.5422 28.0004C10.0231 27.751 9.41195 27.3869 8.75249 26.9122C7.43263 25.962 5.88128 24.5413 4.45388 22.635C1.5883 18.8082 -0.774289 13.0247 0.24461 5.21915C0.38081 4.17574 1.08999 3.32995 2.0276 3.01762C3.15112 2.64337 5.06109 2.02615 6.95688 1.50155Z" fill="white"/>
</svg>
