<svg width="16" height="15" viewBox="0 0 16 15" fill="none" xmlns="http://www.w3.org/2000/svg">
<circle cx="8.11104" cy="7.22896" r="7.22896" fill="white" fill-opacity="0.1"/>
<circle cx="8.11104" cy="7.22896" r="6.72896" stroke="white" stroke-opacity="0.2"/>
<path d="M8.43098 3.38607C8.46322 3.3218 8.52399 3.23034 8.5661 3.18279C8.66272 3.07368 8.8379 3.06637 9.07698 3.16145C9.16834 3.1978 9.47627 3.30027 9.76129 3.38915L10.2795 3.55077L10.2983 3.7355C10.3168 3.9177 10.3528 4.01626 10.4303 4.09747C10.4886 4.15853 10.612 4.3908 10.6124 4.44022C10.6131 4.53597 10.6804 4.7131 10.7427 4.78331C10.7792 4.82443 10.8442 4.90322 10.8871 4.95837C10.93 5.01353 10.9921 5.06711 11.0251 5.07742C11.0685 5.09098 11.0853 5.12534 11.0855 5.20111C11.0857 5.25881 11.0722 5.31076 11.0554 5.31658C11.0253 5.327 10.5045 6.69771 10.375 7.10748C10.3382 7.22413 10.2684 7.40763 10.2199 7.51524C10.1714 7.62285 10.1216 7.75325 10.1092 7.80497C10.0969 7.8567 10.0409 8.01195 9.98482 8.14998C9.92876 8.288 9.86551 8.45534 9.84427 8.52182C9.75204 8.81027 9.68757 8.91847 9.6077 8.91877C9.51603 8.91911 9.50942 8.86015 9.5737 8.61538L10.1332 7.08447C10.1783 6.94649 10.2341 6.79828 10.2573 6.75513C10.2805 6.71197 10.309 6.63143 10.3206 6.57614L10.523 6.0186C10.5398 6.00817 10.5689 5.94179 10.5877 5.87105C10.6064 5.80035 10.6628 5.65728 10.7128 5.55314C10.8176 5.33522 10.8217 5.30344 10.754 5.23638C10.6919 5.17484 10.6149 5.17309 10.6151 5.23326C10.6152 5.25832 10.5812 5.3131 10.5395 5.35498C10.4979 5.39688 10.447 5.49286 10.4264 5.56826C10.355 5.83032 10.1418 6.45621 10.0407 6.70111L9.57592 8.30613C9.50623 8.4562 9.36498 8.94184 9.31075 9.21787C9.29714 9.28705 9.25861 9.42109 9.22508 9.51575C9.04212 10.0325 8.81649 10.8856 8.81713 11.0582C8.81763 11.1946 8.72879 11.2712 8.56921 11.2718C8.50183 11.272 8.44197 11.2616 8.43615 11.2487C8.43036 11.2358 8.31962 11.1934 8.19008 11.1546C7.61982 10.9838 7.18924 10.8591 7.04383 10.8227C6.74849 10.7488 6.00746 10.4611 5.82504 10.3496C5.7248 10.2884 5.60081 10.1909 5.5495 10.1329C5.44734 10.0176 5.44755 9.95634 5.55081 9.74813C5.58076 9.68773 5.64316 9.51131 5.68949 9.35609C5.78893 9.02286 6.25615 7.52696 6.61998 6.37703C7.13019 4.76439 7.20114 4.52455 7.21375 4.37021C7.23116 4.1574 7.23645 4.14654 7.35457 4.08158C7.44317 4.03286 7.53753 4.02446 8.01586 4.0227C8.63968 4.02039 8.63298 4.02283 8.633 3.7996C8.633 3.66456 8.5905 3.59772 8.5048 3.59804C8.47587 3.59815 8.43423 3.57678 8.4123 3.55058C8.37966 3.51164 8.38306 3.48166 8.43098 3.38607Z" fill="white"/>
</svg>
