<svg width="26" height="35" viewBox="0 0 26 35" fill="none" xmlns="http://www.w3.org/2000/svg">
<path d="M12.772 34.3841C19.7395 34.3841 25.3877 30.1262 25.3877 22.6751C25.3877 19.4817 24.3364 14.1594 20.1312 9.90162C20.6568 13.095 17.5029 14.1594 17.5029 14.1594C19.0799 8.83716 14.8746 1.38599 8.56675 0.321533C9.31769 4.57935 9.61806 8.83716 4.3615 13.095C1.73322 15.2239 0.15625 18.9046 0.15625 22.6751C0.15625 30.1262 5.80451 34.3841 12.772 34.3841ZM12.772 32.2551C9.28826 32.2551 6.46412 30.1262 6.46412 26.4007C6.46412 24.804 6.98978 22.1428 9.0924 20.0139C8.82958 21.6106 10.6694 22.6751 10.6694 22.6751C9.88089 20.0139 11.7207 15.7561 14.8746 15.2239C14.4992 17.3528 14.349 19.4817 16.9772 21.6106C18.2914 22.6751 19.0799 24.5154 19.0799 26.4007C19.0799 30.1262 16.2557 32.2551 12.772 32.2551Z" fill="white"/>
</svg>
