<svg width="29" height="33" viewBox="0 0 29 33" fill="none" xmlns="http://www.w3.org/2000/svg">
<path d="M20.3737 3.25081V5.24321H27.3471C27.8973 5.24321 28.3433 5.68923 28.3433 6.23941C28.3433 6.7896 27.8973 7.23561 27.3471 7.23561H26.2744L24.5754 28.4736C24.4097 30.5445 22.6808 32.1406 20.6033 32.1406H8.18977C6.11226 32.1406 4.38333 30.5445 4.21766 28.4736L2.51862 7.23561H1.44591C0.895721 7.23561 0.449707 6.7896 0.449707 6.23941C0.449707 5.68923 0.895721 5.24321 1.44591 5.24321H8.41931V3.25081C8.41931 1.60025 9.75736 0.262207 11.4079 0.262207H17.3851C19.0357 0.262207 20.3737 1.60025 20.3737 3.25081ZM10.4117 3.25081V5.24321H18.3813V3.25081C18.3813 2.70062 17.9353 2.25461 17.3851 2.25461H11.4079C10.8577 2.25461 10.4117 2.70062 10.4117 3.25081ZM7.42309 10.281L8.41929 27.2164C8.4516 27.7657 8.92303 28.1847 9.47227 28.1524C10.0215 28.1201 10.4406 27.6487 10.4083 27.0994L9.41205 10.164C9.37975 9.61477 8.90831 9.19571 8.35907 9.22802C7.80983 9.26033 7.39078 9.73176 7.42309 10.281ZM20.434 9.22973C19.8847 9.19743 19.4133 9.61648 19.381 10.1657L18.3848 27.1011C18.3525 27.6504 18.7715 28.1218 19.3208 28.1541C19.87 28.1864 20.3414 27.7674 20.3737 27.2181L21.3699 10.2827C21.4023 9.73348 20.9832 9.26204 20.434 9.22973ZM14.3965 9.22801C13.8463 9.22801 13.4003 9.67403 13.4003 10.2242V27.1596C13.4003 27.7098 13.8463 28.1558 14.3965 28.1558C14.9467 28.1558 15.3927 27.7098 15.3927 27.1596V10.2242C15.3927 9.67403 14.9467 9.22801 14.3965 9.22801Z" fill="white"/>
</svg>
