<svg width="26" height="21" viewBox="0 0 26 21" fill="none" xmlns="http://www.w3.org/2000/svg">
<path d="M22.6712 3.23077H16.0439C15.161 3.23077 14.3143 2.89039 13.69 2.2845L12.311 0.946271C11.6867 0.340384 10.84 0 9.95705 0H3.84567C2.0071 0 0.516649 1.44646 0.516649 3.23077L0.58249 4.63652C0.160905 5.233 -0.0589003 5.9712 0.0144309 6.75404L1.07367 18.0617C1.22955 19.7258 2.66724 21 4.38902 21H21.612C23.3337 21 24.7714 19.7258 24.9273 18.0617L25.9865 6.75404C26.1638 4.86205 24.6288 3.23077 22.6712 3.23077ZM3.32978 3.23077C2.92911 3.23077 2.54614 3.29911 2.19193 3.42404L2.18145 3.20028C2.1982 2.3222 2.93688 1.61538 3.84567 1.61538H9.95705C10.3985 1.61538 10.8219 1.78558 11.134 2.08852L12.311 3.23077H3.32978ZM19.3226 11.746L14.0265 14.9264C13.5768 15.1965 13.0005 14.8699 13.0005 14.3266V13.0846C13.0005 13.0846 8.7203 12.6 6.34243 16.9615C7.29358 9.20769 11.5738 9.20769 13.0005 9.20769V7.9657C13.0005 7.42242 13.5768 7.09582 14.0265 7.36585L19.3226 10.5463C19.7705 10.8152 19.7705 11.4771 19.3226 11.746Z" fill="white"/>
</svg>
