<svg width="28" height="28" viewBox="0 0 28 28" fill="none" xmlns="http://www.w3.org/2000/svg">
<path d="M27.9044 3.89436C27.9044 1.95175 26.3433 0.376953 24.4177 0.376953H3.49745C1.57179 0.376953 0.0107422 1.95175 0.0107422 3.89436V17.964C0.0107422 19.9066 1.57179 21.4814 3.49745 21.4814H20.2088C20.6712 21.4814 21.1146 21.6667 21.4416 21.9965L26.4163 27.0151C26.9655 27.569 27.9044 27.1767 27.9044 26.3933V3.89436ZM8.7275 10.9292C8.7275 11.9005 7.94698 12.6879 6.98415 12.6879C6.02132 12.6879 5.2408 11.9005 5.2408 10.9292C5.2408 9.95787 6.02132 9.17047 6.98415 9.17047C7.94698 9.17047 8.7275 9.95787 8.7275 10.9292ZM15.7009 10.9292C15.7009 11.9005 14.9204 12.6879 13.9576 12.6879C12.9947 12.6879 12.2142 11.9005 12.2142 10.9292C12.2142 9.95787 12.9947 9.17047 13.9576 9.17047C14.9204 9.17047 15.7009 9.95787 15.7009 10.9292ZM20.931 12.6879C19.9681 12.6879 19.1876 11.9005 19.1876 10.9292C19.1876 9.95787 19.9681 9.17047 20.931 9.17047C21.8938 9.17047 22.6743 9.95787 22.6743 10.9292C22.6743 11.9005 21.8938 12.6879 20.931 12.6879Z" fill="white"/>
</svg>
