<svg width="28" height="29" viewBox="0 0 28 29" fill="none" xmlns="http://www.w3.org/2000/svg">
<path d="M14.8292 1.75913C14.8292 1.27771 14.439 0.887451 13.9576 0.887451C13.4761 0.887451 13.0859 1.27771 13.0859 1.75913V2.66145C7.04083 3.08808 2.21137 7.91754 1.78475 13.9626H0.882418C0.401005 13.9626 0.0107422 14.3529 0.0107422 14.8343C0.0107422 15.3157 0.401005 15.7059 0.882418 15.7059H1.78475C2.21137 21.751 7.04083 26.5804 13.0859 27.0071V27.9094C13.0859 28.3908 13.4761 28.7811 13.9576 28.7811C14.439 28.7811 14.8292 28.3908 14.8292 27.9094V27.0071C20.8743 26.5804 25.7037 21.751 26.1304 15.7059H27.0327C27.5141 15.7059 27.9044 15.3157 27.9044 14.8343C27.9044 14.3529 27.5141 13.9626 27.0327 13.9626H26.1304C25.7037 7.91754 20.8743 3.08808 14.8292 2.66145V1.75913ZM3.53325 13.9626C3.95248 8.8809 8.00419 4.82919 13.0859 4.40996V5.24583C13.0859 5.72724 13.4761 6.11751 13.9576 6.11751C14.439 6.11751 14.8292 5.72724 14.8292 5.24583V4.40996C19.9109 4.82919 23.9626 8.8809 24.3819 13.9626H23.546C23.0646 13.9626 22.6743 14.3529 22.6743 14.8343C22.6743 15.3157 23.0646 15.7059 23.546 15.7059H24.3819C23.9626 20.7876 19.9109 24.8393 14.8292 25.2586V24.4227C14.8292 23.9413 14.439 23.551 13.9576 23.551C13.4761 23.551 13.0859 23.9413 13.0859 24.4227V25.2586C8.00419 24.8393 3.95248 20.7876 3.53325 15.7059H4.36912C4.85053 15.7059 5.2408 15.3157 5.2408 14.8343C5.2408 14.3529 4.85053 13.9626 4.36912 13.9626H3.53325ZM13.9576 18.321C15.8832 18.321 17.4443 16.7599 17.4443 14.8343C17.4443 12.9086 15.8832 11.3476 13.9576 11.3476C12.0319 11.3476 10.4709 12.9086 10.4709 14.8343C10.4709 16.7599 12.0319 18.321 13.9576 18.321Z" fill="white"/>
</svg>
