<svg width="24" height="33" viewBox="0 0 24 33" fill="none" xmlns="http://www.w3.org/2000/svg">
<path d="M23.9116 4.52698C23.9116 3.94623 23.2426 3.47544 22.4173 3.47544V1.37235C22.4173 0.791594 21.7483 0.320801 20.923 0.320801L17.9344 0.320801C17.1091 0.320801 16.4401 0.791594 16.4401 1.37235V3.47544C16.4401 3.76581 16.1056 4.00121 15.693 4.00121C15.2803 4.00121 14.9458 3.76581 14.9458 3.47544V1.37235C14.9458 0.791594 14.2768 0.320801 13.4515 0.320801L2.9914 0.320801C2.16612 0.320801 1.4971 0.791594 1.4971 1.37235V3.47544C0.671818 3.47544 0.00279808 3.94623 0.00279808 4.52698L0.00279808 31.1477C0.00279808 31.7284 0.671818 32.1992 1.4971 32.1992H8.96861C9.79389 32.1992 10.4629 31.7284 10.4629 31.1477C10.4629 30.5669 10.4629 28.6572 11.9572 28.6572C13.4515 28.6572 13.4515 30.5669 13.4515 31.1477C13.4515 31.7284 14.1205 32.1992 14.9458 32.1992H22.4173C23.2426 32.1992 23.9116 31.7284 23.9116 31.1477L23.9116 4.52698ZM16.4401 8.73316C17.2654 8.73316 17.9344 9.20396 17.9344 9.78471V15.6512C17.9344 16.232 17.2654 16.7028 16.4401 16.7028C15.6148 16.7028 7.4743 16.7028 7.4743 16.7028C6.64903 16.7028 5.98 16.232 5.98 15.6512V9.78471C5.98 9.20396 6.64903 8.73316 7.4743 8.73316L16.4401 8.73316Z" fill="white"/>
</svg>
