<svg width="31" height="31" viewBox="0 0 31 31" fill="none" xmlns="http://www.w3.org/2000/svg">
<path fill-rule="evenodd" clip-rule="evenodd" d="M15.6906 0.0205078C15.9656 0.0205079 16.2287 0.132314 16.4195 0.330239L19.4575 3.48067C19.7394 3.77309 19.8194 4.20572 19.6605 4.57959C19.5017 4.95347 19.1347 5.19622 18.7285 5.19622L16.7032 5.19622L16.7032 25.224H18.7285C19.1347 25.224 19.5017 25.4667 19.6605 25.8406C19.8194 26.2145 19.7394 26.6471 19.4575 26.9395L16.4195 30.09C16.2287 30.2879 15.9656 30.3997 15.6906 30.3997C15.4156 30.3997 15.1525 30.2879 14.9617 30.09L11.9237 26.9395C11.6418 26.6471 11.5618 26.2145 11.7207 25.8406C11.8795 25.4667 12.2465 25.224 12.6527 25.224H14.678L14.678 5.19622L12.6527 5.19622C12.2465 5.19622 11.8795 4.95347 11.7207 4.57959C11.5618 4.20571 11.6418 3.77309 11.9237 3.48067L14.9617 0.330238C15.1525 0.132314 15.4156 0.0205077 15.6906 0.0205078Z" fill="white"/>
<path fill-rule="evenodd" clip-rule="evenodd" d="M30.8802 15.2101C30.8802 15.4851 30.7684 15.7482 30.5704 15.939L27.42 18.977C27.1276 19.2589 26.695 19.3389 26.3211 19.18C25.9472 19.0212 25.7045 18.6542 25.7045 18.248V16.2227L5.67669 16.2227V18.248C5.67669 18.6542 5.43394 19.0212 5.06006 19.18C4.68618 19.3389 4.25356 19.2589 3.96114 18.977L0.810707 15.939C0.612783 15.7482 0.500977 15.4851 0.500977 15.2101C0.500977 14.9351 0.612783 14.672 0.810707 14.4812L3.96114 11.4432C4.25356 11.1613 4.68618 11.0813 5.06006 11.2402C5.43394 11.399 5.67669 11.766 5.67669 12.1722V14.1975L25.7045 14.1975V12.1722C25.7045 11.766 25.9472 11.399 26.3211 11.2402C26.695 11.0813 27.1276 11.1613 27.42 11.4432L30.5704 14.4812C30.7684 14.672 30.8802 14.9351 30.8802 15.2101Z" fill="white"/>
</svg>
