<svg width="28" height="25" viewBox="0 0 28 25" fill="none" xmlns="http://www.w3.org/2000/svg">
<path d="M15.6657 1.69852C14.892 0.408761 13.0231 0.408761 12.2495 1.69852L0.297688 21.6225C-0.498928 22.9505 0.45744 24.64 2.00578 24.64H25.9093C27.4577 24.64 28.414 22.9505 27.6174 21.6225L15.6657 1.69852ZM13.9549 7.56229C14.8881 7.56229 15.6173 8.35177 15.5244 9.26159L14.9131 15.2515C14.8639 15.7338 14.4496 16.1012 13.9549 16.1012C13.4601 16.1012 13.0459 15.7338 12.9966 15.2515L12.3853 9.26159C12.2924 8.35177 13.0216 7.56229 13.9549 7.56229ZM13.9576 17.8089C14.9202 17.8089 15.7006 18.5735 15.7006 19.5167C15.7006 20.4599 14.9202 21.2245 13.9576 21.2245C12.9949 21.2245 12.2145 20.4599 12.2145 19.5167C12.2145 18.5735 12.9949 17.8089 13.9576 17.8089Z" fill="white"/>
</svg>
